solid ASCII
  facet normal 2.155441e-11 -1.240347e-01 9.922779e-01
    outer loop
      vertex   3.122857e+01 6.880724e+01 4.409591e+01
      vertex   3.122874e+01 6.880724e+01 4.409591e+01
      vertex   3.122857e+01 6.979952e+01 4.421995e+01
    endloop
  endfacet
  facet normal 2.155441e-11 -1.240347e-01 9.922779e-01
    outer loop
      vertex   3.122857e+01 6.979952e+01 4.421995e+01
      vertex   3.122874e+01 6.880724e+01 4.409591e+01
      vertex   3.122874e+01 6.979952e+01 4.421995e+01
    endloop
  endfacet
  facet normal -4.251634e-01 -1.122659e-01 8.981272e-01
    outer loop
      vertex   2.876614e+01 6.895071e+01 4.294816e+01
      vertex   3.122857e+01 6.880724e+01 4.409591e+01
      vertex   2.876614e+01 6.994298e+01 4.307219e+01
    endloop
  endfacet
  facet normal -4.251634e-01 -1.122659e-01 8.981272e-01
    outer loop
      vertex   2.876614e+01 6.994298e+01 4.307219e+01
      vertex   3.122857e+01 6.880724e+01 4.409591e+01
      vertex   3.122857e+01 6.979952e+01 4.421995e+01
    endloop
  endfacet
  facet normal -1.000000e+00 0.000000e+00 0.000000e+00
    outer loop
      vertex   2.876614e+01 6.971886e+01 3.680296e+01
      vertex   2.876614e+01 6.895071e+01 4.294816e+01
      vertex   2.876614e+01 7.071113e+01 3.692700e+01
    endloop
  endfacet
  facet normal -1.000000e+00 0.000000e+00 0.000000e+00
    outer loop
      vertex   2.876614e+01 7.071113e+01 3.692700e+01
      vertex   2.876614e+01 6.895071e+01 4.294816e+01
      vertex   2.876614e+01 6.994298e+01 4.307219e+01
    endloop
  endfacet
  facet normal -8.454892e-01 -6.623363e-02 5.298690e-01
    outer loop
      vertex   2.718718e+01 7.002895e+01 3.432224e+01
      vertex   2.876614e+01 6.971886e+01 3.680296e+01
      vertex   2.718718e+01 7.102122e+01 3.444627e+01
    endloop
  endfacet
  facet normal -8.454892e-01 -6.623363e-02 5.298690e-01
    outer loop
      vertex   2.718718e+01 7.102122e+01 3.444627e+01
      vertex   2.876614e+01 6.971886e+01 3.680296e+01
      vertex   2.876614e+01 7.071113e+01 3.692700e+01
    endloop
  endfacet
  facet normal 7.514790e-14 -1.240347e-01 9.922779e-01
    outer loop
      vertex   2.709335e+01 7.002895e+01 3.432224e+01
      vertex   2.718718e+01 7.002895e+01 3.432224e+01
      vertex   2.709335e+01 7.102122e+01 3.444627e+01
    endloop
  endfacet
  facet normal 7.514790e-14 -1.240347e-01 9.922779e-01
    outer loop
      vertex   2.709335e+01 7.102122e+01 3.444627e+01
      vertex   2.718718e+01 7.002895e+01 3.432224e+01
      vertex   2.718718e+01 7.102122e+01 3.444627e+01
    endloop
  endfacet
  facet normal 1.000000e+00 -0.000000e+00 0.000000e+00
    outer loop
      vertex   2.709335e+01 6.880726e+01 4.409575e+01
      vertex   2.709335e+01 7.002895e+01 3.432224e+01
      vertex   2.709335e+01 6.979954e+01 4.421978e+01
    endloop
  endfacet
  facet normal 1.000000e+00 0.000000e+00 0.000000e+00
    outer loop
      vertex   2.709335e+01 6.979954e+01 4.421978e+01
      vertex   2.709335e+01 7.002895e+01 3.432224e+01
      vertex   2.709335e+01 7.102122e+01 3.444627e+01
    endloop
  endfacet
  facet normal -4.251402e-01 -1.122672e-01 8.981380e-01
    outer loop
      vertex   2.463076e+01 6.895073e+01 4.294799e+01
      vertex   2.709335e+01 6.880726e+01 4.409575e+01
      vertex   2.463076e+01 6.994300e+01 4.307203e+01
    endloop
  endfacet
  facet normal -4.251402e-01 -1.122672e-01 8.981380e-01
    outer loop
      vertex   2.463076e+01 6.994300e+01 4.307203e+01
      vertex   2.709335e+01 6.880726e+01 4.409575e+01
      vertex   2.709335e+01 6.979954e+01 4.421978e+01
    endloop
  endfacet
  facet normal -1.000000e+00 0.000000e+00 0.000000e+00
    outer loop
      vertex   2.463076e+01 7.066776e+01 2.921174e+01
      vertex   2.463076e+01 6.895073e+01 4.294799e+01
      vertex   2.463076e+01 7.166004e+01 2.933578e+01
    endloop
  endfacet
  facet normal -1.000000e+00 0.000000e+00 0.000000e+00
    outer loop
      vertex   2.463076e+01 7.166004e+01 2.933578e+01
      vertex   2.463076e+01 6.895073e+01 4.294799e+01
      vertex   2.463076e+01 6.994300e+01 4.307203e+01
    endloop
  endfacet
  facet normal 0.000000e+00 1.240347e-01 -9.922779e-01
    outer loop
      vertex   2.667965e+01 7.066776e+01 2.921174e+01
      vertex   2.463076e+01 7.066776e+01 2.921174e+01
      vertex   2.667965e+01 7.166004e+01 2.933578e+01
    endloop
  endfacet
  facet normal 0.000000e+00 1.240347e-01 -9.922779e-01
    outer loop
      vertex   2.667965e+01 7.166004e+01 2.933578e+01
      vertex   2.463076e+01 7.066776e+01 2.921174e+01
      vertex   2.463076e+01 7.166004e+01 2.933578e+01
    endloop
  endfacet
  facet normal 8.507980e-01 6.517937e-02 -5.214350e-01
    outer loop
      vertex   2.865336e+01 7.027140e+01 3.238259e+01
      vertex   2.667965e+01 7.066776e+01 2.921174e+01
      vertex   2.865336e+01 7.126368e+01 3.250662e+01
    endloop
  endfacet
  facet normal 8.507980e-01 6.517937e-02 -5.214350e-01
    outer loop
      vertex   2.865336e+01 7.126368e+01 3.250662e+01
      vertex   2.667965e+01 7.066776e+01 2.921174e+01
      vertex   2.667965e+01 7.166004e+01 2.933578e+01
    endloop
  endfacet
  facet normal 0.000000e+00 1.240347e-01 -9.922779e-01
    outer loop
      vertex   2.876631e+01 7.027140e+01 3.238259e+01
      vertex   2.865336e+01 7.027140e+01 3.238259e+01
      vertex   2.876631e+01 7.126368e+01 3.250662e+01
    endloop
  endfacet
  facet normal 0.000000e+00 1.240347e-01 -9.922779e-01
    outer loop
      vertex   2.876631e+01 7.126368e+01 3.250662e+01
      vertex   2.865336e+01 7.027140e+01 3.238259e+01
      vertex   2.865336e+01 7.126368e+01 3.250662e+01
    endloop
  endfacet
  facet normal -1.000000e+00 0.000000e+00 0.000000e+00
    outer loop
      vertex   2.876631e+01 7.066776e+01 2.921174e+01
      vertex   2.876631e+01 7.027140e+01 3.238259e+01
      vertex   2.876631e+01 7.166004e+01 2.933578e+01
    endloop
  endfacet
  facet normal -1.000000e+00 0.000000e+00 0.000000e+00
    outer loop
      vertex   2.876631e+01 7.166004e+01 2.933578e+01
      vertex   2.876631e+01 7.027140e+01 3.238259e+01
      vertex   2.876631e+01 7.126368e+01 3.250662e+01
    endloop
  endfacet
  facet normal 0.000000e+00 1.240347e-01 -9.922779e-01
    outer loop
      vertex   3.122874e+01 7.066776e+01 2.921174e+01
      vertex   2.876631e+01 7.066776e+01 2.921174e+01
      vertex   3.122874e+01 7.166004e+01 2.933578e+01
    endloop
  endfacet
  facet normal 0.000000e+00 1.240347e-01 -9.922779e-01
    outer loop
      vertex   3.122874e+01 7.166004e+01 2.933578e+01
      vertex   2.876631e+01 7.066776e+01 2.921174e+01
      vertex   2.876631e+01 7.166004e+01 2.933578e+01
    endloop
  endfacet
  facet normal 1.000000e+00 -0.000000e+00 0.000000e+00
    outer loop
      vertex   3.122874e+01 6.880724e+01 4.409591e+01
      vertex   3.122874e+01 7.066776e+01 2.921174e+01
      vertex   3.122874e+01 6.979952e+01 4.421995e+01
    endloop
  endfacet
  facet normal 1.000000e+00 0.000000e+00 0.000000e+00
    outer loop
      vertex   3.122874e+01 6.979952e+01 4.421995e+01
      vertex   3.122874e+01 7.066776e+01 2.921174e+01
      vertex   3.122874e+01 7.166004e+01 2.933578e+01
    endloop
  endfacet
  facet normal -1.724353e-10 9.922779e-01 1.240347e-01
    outer loop
      vertex   3.122857e+01 6.979952e+01 4.421995e+01
      vertex   3.122874e+01 6.979952e+01 4.421995e+01
      vertex   2.876614e+01 7.071113e+01 3.692700e+01
    endloop
  endfacet
  facet normal 1.082002e-15 9.922779e-01 1.240347e-01
    outer loop
      vertex   2.876614e+01 7.071113e+01 3.692700e+01
      vertex   3.122874e+01 6.979952e+01 4.421995e+01
      vertex   3.122874e+01 7.166004e+01 2.933578e+01
    endloop
  endfacet
  facet normal -1.182183e-14 9.922779e-01 1.240347e-01
    outer loop
      vertex   2.876614e+01 7.071113e+01 3.692700e+01
      vertex   3.122874e+01 7.166004e+01 2.933578e+01
      vertex   2.876631e+01 7.126368e+01 3.250662e+01
    endloop
  endfacet
  facet normal 0.000000e+00 9.922779e-01 1.240347e-01
    outer loop
      vertex   2.876631e+01 7.126368e+01 3.250662e+01
      vertex   3.122874e+01 7.166004e+01 2.933578e+01
      vertex   2.876631e+01 7.166004e+01 2.933578e+01
    endloop
  endfacet
  facet normal 0.000000e+00 9.922779e-01 1.240347e-01
    outer loop
      vertex   2.876631e+01 7.126368e+01 3.250662e+01
      vertex   2.865336e+01 7.126368e+01 3.250662e+01
      vertex   2.876614e+01 7.071113e+01 3.692700e+01
    endloop
  endfacet
  facet normal 1.841612e-14 9.922779e-01 1.240347e-01
    outer loop
      vertex   2.876614e+01 7.071113e+01 3.692700e+01
      vertex   2.865336e+01 7.126368e+01 3.250662e+01
      vertex   2.718718e+01 7.102122e+01 3.444627e+01
    endloop
  endfacet
  facet normal 1.710173e-14 9.922779e-01 1.240347e-01
    outer loop
      vertex   2.718718e+01 7.102122e+01 3.444627e+01
      vertex   2.865336e+01 7.126368e+01 3.250662e+01
      vertex   2.667965e+01 7.166004e+01 2.933578e+01
    endloop
  endfacet
  facet normal 9.393487e-15 9.922779e-01 1.240347e-01
    outer loop
      vertex   2.718718e+01 7.102122e+01 3.444627e+01
      vertex   2.667965e+01 7.166004e+01 2.933578e+01
      vertex   2.709335e+01 7.102122e+01 3.444627e+01
    endloop
  endfacet
  facet normal 0.000000e+00 9.922779e-01 1.240347e-01
    outer loop
      vertex   2.709335e+01 7.102122e+01 3.444627e+01
      vertex   2.667965e+01 7.166004e+01 2.933578e+01
      vertex   2.463076e+01 7.166004e+01 2.933578e+01
    endloop
  endfacet
  facet normal -6.982431e-15 9.922779e-01 1.240347e-01
    outer loop
      vertex   2.709335e+01 7.102122e+01 3.444627e+01
      vertex   2.463076e+01 7.166004e+01 2.933578e+01
      vertex   2.463076e+01 6.994300e+01 4.307203e+01
    endloop
  endfacet
  facet normal 1.294431e-14 9.922779e-01 1.240347e-01
    outer loop
      vertex   2.463076e+01 6.994300e+01 4.307203e+01
      vertex   2.709335e+01 6.979954e+01 4.421978e+01
      vertex   2.709335e+01 7.102122e+01 3.444627e+01
    endloop
  endfacet
  facet normal 8.969206e-15 9.922779e-01 1.240347e-01
    outer loop
      vertex   2.876614e+01 7.071113e+01 3.692700e+01
      vertex   2.876614e+01 6.994298e+01 4.307219e+01
      vertex   3.122857e+01 6.979952e+01 4.421995e+01
    endloop
  endfacet
  facet normal -1.057957e-15 -9.922779e-01 -1.240347e-01
    outer loop
      vertex   3.122874e+01 6.880724e+01 4.409591e+01
      vertex   2.876614e+01 6.971886e+01 3.680296e+01
      vertex   3.122874e+01 7.066776e+01 2.921174e+01
    endloop
  endfacet
  facet normal 1.186232e-14 -9.922779e-01 -1.240347e-01
    outer loop
      vertex   3.122874e+01 7.066776e+01 2.921174e+01
      vertex   2.876614e+01 6.971886e+01 3.680296e+01
      vertex   2.876631e+01 7.027140e+01 3.238259e+01
    endloop
  endfacet
  facet normal -0.000000e+00 -9.922779e-01 -1.240347e-01
    outer loop
      vertex   3.122874e+01 7.066776e+01 2.921174e+01
      vertex   2.876631e+01 7.027140e+01 3.238259e+01
      vertex   2.876631e+01 7.066776e+01 2.921174e+01
    endloop
  endfacet
  facet normal 1.724353e-10 -9.922779e-01 -1.240347e-01
    outer loop
      vertex   3.122874e+01 6.880724e+01 4.409591e+01
      vertex   3.122857e+01 6.880724e+01 4.409591e+01
      vertex   2.876614e+01 6.971886e+01 3.680296e+01
    endloop
  endfacet
  facet normal -8.969206e-15 -9.922779e-01 -1.240347e-01
    outer loop
      vertex   2.876614e+01 6.971886e+01 3.680296e+01
      vertex   3.122857e+01 6.880724e+01 4.409591e+01
      vertex   2.876614e+01 6.895071e+01 4.294816e+01
    endloop
  endfacet
  facet normal -0.000000e+00 -9.922779e-01 -1.240347e-01
    outer loop
      vertex   2.876631e+01 7.027140e+01 3.238259e+01
      vertex   2.876614e+01 6.971886e+01 3.680296e+01
      vertex   2.865336e+01 7.027140e+01 3.238259e+01
    endloop
  endfacet
  facet normal -1.838323e-14 -9.922779e-01 -1.240347e-01
    outer loop
      vertex   2.865336e+01 7.027140e+01 3.238259e+01
      vertex   2.876614e+01 6.971886e+01 3.680296e+01
      vertex   2.718718e+01 7.002895e+01 3.432224e+01
    endloop
  endfacet
  facet normal -1.711473e-14 -9.922779e-01 -1.240347e-01
    outer loop
      vertex   2.865336e+01 7.027140e+01 3.238259e+01
      vertex   2.718718e+01 7.002895e+01 3.432224e+01
      vertex   2.667965e+01 7.066776e+01 2.921174e+01
    endloop
  endfacet
  facet normal -1.010943e-14 -9.922779e-01 -1.240347e-01
    outer loop
      vertex   2.667965e+01 7.066776e+01 2.921174e+01
      vertex   2.718718e+01 7.002895e+01 3.432224e+01
      vertex   2.709335e+01 7.002895e+01 3.432224e+01
    endloop
  endfacet
  facet normal -0.000000e+00 -9.922779e-01 -1.240347e-01
    outer loop
      vertex   2.667965e+01 7.066776e+01 2.921174e+01
      vertex   2.709335e+01 7.002895e+01 3.432224e+01
      vertex   2.463076e+01 7.066776e+01 2.921174e+01
    endloop
  endfacet
  facet normal 6.982431e-15 -9.922779e-01 -1.240347e-01
    outer loop
      vertex   2.463076e+01 7.066776e+01 2.921174e+01
      vertex   2.709335e+01 7.002895e+01 3.432224e+01
      vertex   2.463076e+01 6.895073e+01 4.294799e+01
    endloop
  endfacet
  facet normal -1.326471e-14 -9.922779e-01 -1.240347e-01
    outer loop
      vertex   2.463076e+01 6.895073e+01 4.294799e+01
      vertex   2.709335e+01 7.002895e+01 3.432224e+01
      vertex   2.709335e+01 6.880726e+01 4.409575e+01
    endloop
  endfacet
endsolid
