solid ASCII
  facet normal -3.996803e-14 4.440892e-15 1.000000e+00
    outer loop
      vertex   3.850811e+02 5.059143e+02 6.676875e+01
      vertex   3.850811e+02 5.027143e+02 6.676875e+01
      vertex   3.854811e+02 5.063143e+02 6.676875e+01
    endloop
  endfacet
  facet normal 0.000000e+00 0.000000e+00 1.000000e+00
    outer loop
      vertex   3.854811e+02 5.063143e+02 6.676875e+01
      vertex   3.850811e+02 5.027143e+02 6.676875e+01
      vertex   3.854811e+02 5.023143e+02 6.676875e+01
    endloop
  endfacet
  facet normal 6.679102e-12 -3.796630e-25 1.000000e+00
    outer loop
      vertex   3.854811e+02 5.063143e+02 6.676875e+01
      vertex   3.854811e+02 5.023143e+02 6.676875e+01
      vertex   3.861811e+02 5.023143e+02 6.676875e+01
    endloop
  endfacet
  facet normal 6.699403e-12 3.552714e-15 1.000000e+00
    outer loop
      vertex   3.854811e+02 5.063143e+02 6.676875e+01
      vertex   3.861811e+02 5.023143e+02 6.676875e+01
      vertex   3.861811e+02 5.063143e+02 6.676875e+01
    endloop
  endfacet
  facet normal 3.197442e-14 3.552714e-15 1.000000e+00
    outer loop
      vertex   3.861811e+02 5.063143e+02 6.676875e+01
      vertex   3.861811e+02 5.023143e+02 6.676875e+01
      vertex   3.865811e+02 5.027143e+02 6.676875e+01
    endloop
  endfacet
  facet normal 0.000000e+00 0.000000e+00 1.000000e+00
    outer loop
      vertex   3.861811e+02 5.063143e+02 6.676875e+01
      vertex   3.865811e+02 5.027143e+02 6.676875e+01
      vertex   3.865811e+02 5.059143e+02 6.676875e+01
    endloop
  endfacet
  facet normal 4.440892e-15 4.440892e-15 1.000000e+00
    outer loop
      vertex   3.930811e+02 5.059143e+02 6.676875e+01
      vertex   3.926811e+02 5.063143e+02 6.676875e+01
      vertex   3.930811e+02 5.027143e+02 6.676875e+01
    endloop
  endfacet
  facet normal -3.552714e-14 1.009742e-27 1.000000e+00
    outer loop
      vertex   3.930811e+02 5.027143e+02 6.676875e+01
      vertex   3.926811e+02 5.063143e+02 6.676875e+01
      vertex   3.926811e+02 5.023143e+02 6.676875e+01
    endloop
  endfacet
  facet normal -6.597897e-12 1.875235e-25 1.000000e+00
    outer loop
      vertex   3.926811e+02 5.023143e+02 6.676875e+01
      vertex   3.926811e+02 5.063143e+02 6.676875e+01
      vertex   3.919811e+02 5.063143e+02 6.676875e+01
    endloop
  endfacet
  facet normal -6.577596e-12 3.552714e-15 1.000000e+00
    outer loop
      vertex   3.926811e+02 5.023143e+02 6.676875e+01
      vertex   3.919811e+02 5.063143e+02 6.676875e+01
      vertex   3.919811e+02 5.023143e+02 6.676875e+01
    endloop
  endfacet
  facet normal -3.197442e-14 3.552714e-15 1.000000e+00
    outer loop
      vertex   3.919811e+02 5.023143e+02 6.676875e+01
      vertex   3.919811e+02 5.063143e+02 6.676875e+01
      vertex   3.915811e+02 5.027143e+02 6.676875e+01
    endloop
  endfacet
  facet normal 0.000000e+00 0.000000e+00 1.000000e+00
    outer loop
      vertex   3.915811e+02 5.027143e+02 6.676875e+01
      vertex   3.919811e+02 5.063143e+02 6.676875e+01
      vertex   3.915811e+02 5.059143e+02 6.676875e+01
    endloop
  endfacet
  facet normal -7.071068e-01 7.071068e-01 -1.207469e-27
    outer loop
      vertex   3.919811e+02 5.063143e+02 6.676875e+01
      vertex   3.919811e+02 5.063143e+02 6.203823e+01
      vertex   3.915811e+02 5.059143e+02 6.676875e+01
    endloop
  endfacet
  facet normal -7.071068e-01 7.071068e-01 0.000000e+00
    outer loop
      vertex   3.915811e+02 5.059143e+02 6.676875e+01
      vertex   3.919811e+02 5.063143e+02 6.203823e+01
      vertex   3.915811e+02 5.059143e+02 6.203823e+01
    endloop
  endfacet
  facet normal -1.000000e+00 7.105427e-14 0.000000e+00
    outer loop
      vertex   3.915811e+02 5.059143e+02 6.676875e+01
      vertex   3.915811e+02 5.059143e+02 6.203823e+01
      vertex   3.915811e+02 5.027143e+02 6.676875e+01
    endloop
  endfacet
  facet normal -1.000000e+00 5.329071e-14 -1.201630e-14
    outer loop
      vertex   3.915811e+02 5.027143e+02 6.676875e+01
      vertex   3.915811e+02 5.059143e+02 6.203823e+01
      vertex   3.915811e+02 5.027143e+02 6.203823e+01
    endloop
  endfacet
  facet normal -7.071068e-01 -7.071068e-01 -8.496805e-15
    outer loop
      vertex   3.915811e+02 5.027143e+02 6.676875e+01
      vertex   3.915811e+02 5.027143e+02 6.203823e+01
      vertex   3.919811e+02 5.023143e+02 6.676875e+01
    endloop
  endfacet
  facet normal -7.071068e-01 -7.071068e-01 -8.496805e-15
    outer loop
      vertex   3.919811e+02 5.023143e+02 6.676875e+01
      vertex   3.915811e+02 5.027143e+02 6.203823e+01
      vertex   3.919811e+02 5.023143e+02 6.203823e+01
    endloop
  endfacet
  facet normal 8.120488e-14 1.000000e+00 -1.201630e-14
    outer loop
      vertex   3.919811e+02 5.063143e+02 6.676875e+01
      vertex   3.926811e+02 5.063143e+02 6.676875e+01
      vertex   3.919811e+02 5.063143e+02 6.203823e+01
    endloop
  endfacet
  facet normal -0.000000e+00 1.000000e+00 0.000000e+00
    outer loop
      vertex   3.919811e+02 5.063143e+02 6.203823e+01
      vertex   3.926811e+02 5.063143e+02 6.676875e+01
      vertex   3.926811e+02 5.063143e+02 5.972831e+01
    endloop
  endfacet
  facet normal -2.049916e-13 1.000000e+00 -6.212082e-14
    outer loop
      vertex   3.919811e+02 5.063143e+02 6.203823e+01
      vertex   3.926811e+02 5.063143e+02 5.972831e+01
      vertex   3.919045e+02 5.063143e+02 6.137602e+01
    endloop
  endfacet
  facet normal 6.751578e-14 1.000000e+00 6.632087e-14
    outer loop
      vertex   3.919045e+02 5.063143e+02 6.137602e+01
      vertex   3.926811e+02 5.063143e+02 5.972831e+01
      vertex   3.916786e+02 5.063143e+02 6.074880e+01
    endloop
  endfacet
  facet normal 0.000000e+00 1.000000e+00 0.000000e+00
    outer loop
      vertex   3.916786e+02 5.063143e+02 6.074880e+01
      vertex   3.926811e+02 5.063143e+02 5.972831e+01
      vertex   3.913156e+02 5.063143e+02 6.018971e+01
    endloop
  endfacet
  facet normal 6.156417e-14 1.000000e+00 1.821946e-13
    outer loop
      vertex   3.913156e+02 5.063143e+02 6.018971e+01
      vertex   3.926811e+02 5.063143e+02 5.972831e+01
      vertex   3.908344e+02 5.063143e+02 5.972831e+01
    endloop
  endfacet
  facet normal 8.120488e-14 1.000000e+00 -9.757820e-28
    outer loop
      vertex   3.861811e+02 5.063143e+02 6.676875e+01
      vertex   3.861811e+02 5.063143e+02 6.203823e+01
      vertex   3.854811e+02 5.063143e+02 6.676875e+01
    endloop
  endfacet
  facet normal 8.120488e-14 1.000000e+00 -6.556350e-28
    outer loop
      vertex   3.854811e+02 5.063143e+02 6.676875e+01
      vertex   3.861811e+02 5.063143e+02 6.203823e+01
      vertex   3.854811e+02 5.063143e+02 5.972831e+01
    endloop
  endfacet
  facet normal 2.637588e-13 1.000000e+00 -5.532130e-14
    outer loop
      vertex   3.854811e+02 5.063143e+02 5.972831e+01
      vertex   3.861811e+02 5.063143e+02 6.203823e+01
      vertex   3.862577e+02 5.063143e+02 6.137602e+01
    endloop
  endfacet
  facet normal 1.920064e-13 1.000000e+00 -2.150202e-14
    outer loop
      vertex   3.854811e+02 5.063143e+02 5.972831e+01
      vertex   3.862577e+02 5.063143e+02 6.137602e+01
      vertex   3.864835e+02 5.063143e+02 6.074880e+01
    endloop
  endfacet
  facet normal 1.024123e-13 1.000000e+00 6.650642e-14
    outer loop
      vertex   3.864835e+02 5.063143e+02 6.074880e+01
      vertex   3.868466e+02 5.063143e+02 6.018971e+01
      vertex   3.854811e+02 5.063143e+02 5.972831e+01
    endloop
  endfacet
  facet normal 6.156417e-14 1.000000e+00 1.873934e-13
    outer loop
      vertex   3.854811e+02 5.063143e+02 5.972831e+01
      vertex   3.868466e+02 5.063143e+02 6.018971e+01
      vertex   3.873277e+02 5.063143e+02 5.972831e+01
    endloop
  endfacet
  facet normal 1.000000e+00 -7.105427e-14 1.201630e-14
    outer loop
      vertex   3.865811e+02 5.027143e+02 6.676875e+01
      vertex   3.865811e+02 5.027143e+02 6.203823e+01
      vertex   3.865811e+02 5.059143e+02 6.676875e+01
    endloop
  endfacet
  facet normal 1.000000e+00 -5.329071e-14 1.280714e-27
    outer loop
      vertex   3.865811e+02 5.059143e+02 6.676875e+01
      vertex   3.865811e+02 5.027143e+02 6.203823e+01
      vertex   3.865811e+02 5.059143e+02 6.203823e+01
    endloop
  endfacet
  facet normal -9.914449e-01 5.312462e-14 1.305262e-01
    outer loop
      vertex   3.915811e+02 5.027143e+02 6.203823e+01
      vertex   3.915811e+02 5.059143e+02 6.203823e+01
      vertex   3.914959e+02 5.027143e+02 6.139118e+01
    endloop
  endfacet
  facet normal -9.914449e-01 8.834782e-14 1.305262e-01
    outer loop
      vertex   3.914959e+02 5.027143e+02 6.139118e+01
      vertex   3.915811e+02 5.059143e+02 6.203823e+01
      vertex   3.914959e+02 5.059143e+02 6.139118e+01
    endloop
  endfacet
  facet normal -9.238795e-01 8.290671e-14 3.826834e-01
    outer loop
      vertex   3.914959e+02 5.027143e+02 6.139118e+01
      vertex   3.914959e+02 5.059143e+02 6.139118e+01
      vertex   3.912461e+02 5.027143e+02 6.078823e+01
    endloop
  endfacet
  facet normal -9.238795e-01 8.375644e-14 3.826834e-01
    outer loop
      vertex   3.912461e+02 5.027143e+02 6.078823e+01
      vertex   3.914959e+02 5.059143e+02 6.139118e+01
      vertex   3.912461e+02 5.059143e+02 6.078823e+01
    endloop
  endfacet
  facet normal -7.933533e-01 7.316738e-14 6.087614e-01
    outer loop
      vertex   3.912461e+02 5.027143e+02 6.078823e+01
      vertex   3.912461e+02 5.059143e+02 6.078823e+01
      vertex   3.908488e+02 5.027143e+02 6.027046e+01
    endloop
  endfacet
  facet normal -7.933533e-01 7.181565e-14 6.087614e-01
    outer loop
      vertex   3.908488e+02 5.027143e+02 6.027046e+01
      vertex   3.912461e+02 5.059143e+02 6.078823e+01
      vertex   3.908488e+02 5.059143e+02 6.027046e+01
    endloop
  endfacet
  facet normal -6.087614e-01 5.583047e-14 7.933533e-01
    outer loop
      vertex   3.908488e+02 5.027143e+02 6.027046e+01
      vertex   3.908488e+02 5.059143e+02 6.027046e+01
      vertex   3.903311e+02 5.027143e+02 5.987316e+01
    endloop
  endfacet
  facet normal -6.087614e-01 4.501670e-14 7.933533e-01
    outer loop
      vertex   3.903311e+02 5.027143e+02 5.987316e+01
      vertex   3.908488e+02 5.059143e+02 6.027046e+01
      vertex   3.903311e+02 5.059143e+02 5.987316e+01
    endloop
  endfacet
  facet normal -3.826834e-01 2.924272e-14 9.238795e-01
    outer loop
      vertex   3.903311e+02 5.027143e+02 5.987316e+01
      vertex   3.903311e+02 5.059143e+02 5.987316e+01
      vertex   3.897281e+02 5.027143e+02 5.962341e+01
    endloop
  endfacet
  facet normal -3.826834e-01 3.604054e-14 9.238795e-01
    outer loop
      vertex   3.897281e+02 5.027143e+02 5.962341e+01
      vertex   3.903311e+02 5.059143e+02 5.987316e+01
      vertex   3.897281e+02 5.059143e+02 5.962341e+01
    endloop
  endfacet
  facet normal -1.305262e-01 1.379450e-14 9.914449e-01
    outer loop
      vertex   3.897281e+02 5.027143e+02 5.962341e+01
      vertex   3.897281e+02 5.059143e+02 5.962341e+01
      vertex   3.890811e+02 5.027143e+02 5.953823e+01
    endloop
  endfacet
  facet normal -1.305262e-01 1.147589e-14 9.914449e-01
    outer loop
      vertex   3.890811e+02 5.027143e+02 5.953823e+01
      vertex   3.897281e+02 5.059143e+02 5.962341e+01
      vertex   3.890811e+02 5.059143e+02 5.953823e+01
    endloop
  endfacet
  facet normal 1.305262e-01 -7.072994e-15 9.914449e-01
    outer loop
      vertex   3.890811e+02 5.027143e+02 5.953823e+01
      vertex   3.890811e+02 5.059143e+02 5.953823e+01
      vertex   3.884340e+02 5.027143e+02 5.962341e+01
    endloop
  endfacet
  facet normal 1.305262e-01 -7.072994e-15 9.914449e-01
    outer loop
      vertex   3.884340e+02 5.027143e+02 5.962341e+01
      vertex   3.890811e+02 5.059143e+02 5.953823e+01
      vertex   3.884340e+02 5.059143e+02 5.962341e+01
    endloop
  endfacet
  facet normal 3.826834e-01 -2.513987e-14 9.238795e-01
    outer loop
      vertex   3.884340e+02 5.027143e+02 5.962341e+01
      vertex   3.884340e+02 5.059143e+02 5.962341e+01
      vertex   3.878311e+02 5.027143e+02 5.987316e+01
    endloop
  endfacet
  facet normal 3.826834e-01 -2.513987e-14 9.238795e-01
    outer loop
      vertex   3.878311e+02 5.027143e+02 5.987316e+01
      vertex   3.884340e+02 5.059143e+02 5.962341e+01
      vertex   3.878311e+02 5.059143e+02 5.987316e+01
    endloop
  endfacet
  facet normal 6.087614e-01 -4.149350e-14 7.933533e-01
    outer loop
      vertex   3.878311e+02 5.027143e+02 5.987316e+01
      vertex   3.878311e+02 5.059143e+02 5.987316e+01
      vertex   3.873133e+02 5.027143e+02 6.027046e+01
    endloop
  endfacet
  facet normal 6.087614e-01 -4.149350e-14 7.933533e-01
    outer loop
      vertex   3.873133e+02 5.027143e+02 6.027046e+01
      vertex   3.878311e+02 5.059143e+02 5.987316e+01
      vertex   3.873133e+02 5.059143e+02 6.027046e+01
    endloop
  endfacet
  facet normal 7.933533e-01 -5.501942e-14 6.087614e-01
    outer loop
      vertex   3.873133e+02 5.027143e+02 6.027046e+01
      vertex   3.873133e+02 5.059143e+02 6.027046e+01
      vertex   3.869160e+02 5.027143e+02 6.078823e+01
    endloop
  endfacet
  facet normal 7.933533e-01 -5.501942e-14 6.087614e-01
    outer loop
      vertex   3.869160e+02 5.027143e+02 6.078823e+01
      vertex   3.873133e+02 5.059143e+02 6.027046e+01
      vertex   3.869160e+02 5.059143e+02 6.078823e+01
    endloop
  endfacet
  facet normal 9.238795e-01 -6.479586e-14 3.826834e-01
    outer loop
      vertex   3.869160e+02 5.027143e+02 6.078823e+01
      vertex   3.869160e+02 5.059143e+02 6.078823e+01
      vertex   3.866663e+02 5.027143e+02 6.139118e+01
    endloop
  endfacet
  facet normal 9.238795e-01 -6.479586e-14 3.826834e-01
    outer loop
      vertex   3.866663e+02 5.027143e+02 6.139118e+01
      vertex   3.869160e+02 5.059143e+02 6.078823e+01
      vertex   3.866663e+02 5.059143e+02 6.139118e+01
    endloop
  endfacet
  facet normal 9.914449e-01 -7.015657e-14 1.305262e-01
    outer loop
      vertex   3.866663e+02 5.027143e+02 6.139118e+01
      vertex   3.866663e+02 5.059143e+02 6.139118e+01
      vertex   3.865811e+02 5.027143e+02 6.203823e+01
    endloop
  endfacet
  facet normal 9.914449e-01 -5.254497e-14 1.305262e-01
    outer loop
      vertex   3.865811e+02 5.027143e+02 6.203823e+01
      vertex   3.866663e+02 5.059143e+02 6.139118e+01
      vertex   3.865811e+02 5.059143e+02 6.203823e+01
    endloop
  endfacet
  facet normal -1.000000e+00 5.329071e-14 7.069684e-15
    outer loop
      vertex   3.850811e+02 5.027143e+02 6.676875e+01
      vertex   3.850811e+02 5.059143e+02 6.676875e+01
      vertex   3.850811e+02 5.027143e+02 5.872831e+01
    endloop
  endfacet
  facet normal -1.000000e+00 5.329071e-14 7.069684e-15
    outer loop
      vertex   3.850811e+02 5.027143e+02 5.872831e+01
      vertex   3.850811e+02 5.059143e+02 6.676875e+01
      vertex   3.850811e+02 5.059143e+02 5.872831e+01
    endloop
  endfacet
  facet normal 1.000000e+00 -7.105427e-14 0.000000e+00
    outer loop
      vertex   3.930811e+02 5.027143e+02 5.872831e+01
      vertex   3.930811e+02 5.059143e+02 5.872831e+01
      vertex   3.930811e+02 5.027143e+02 6.676875e+01
    endloop
  endfacet
  facet normal 1.000000e+00 -8.881784e-14 -7.069684e-15
    outer loop
      vertex   3.930811e+02 5.027143e+02 6.676875e+01
      vertex   3.930811e+02 5.059143e+02 5.872831e+01
      vertex   3.930811e+02 5.059143e+02 6.676875e+01
    endloop
  endfacet
  facet normal -7.071068e-01 -7.071068e-01 4.999022e-15
    outer loop
      vertex   3.854811e+02 5.023143e+02 5.872831e+01
      vertex   3.854811e+02 5.023143e+02 6.676875e+01
      vertex   3.850811e+02 5.027143e+02 5.872831e+01
    endloop
  endfacet
  facet normal -7.071068e-01 -7.071068e-01 4.999022e-15
    outer loop
      vertex   3.850811e+02 5.027143e+02 5.872831e+01
      vertex   3.854811e+02 5.023143e+02 6.676875e+01
      vertex   3.850811e+02 5.027143e+02 6.676875e+01
    endloop
  endfacet
  facet normal 7.071068e-01 -7.071068e-01 1.699361e-14
    outer loop
      vertex   3.861811e+02 5.023143e+02 6.676875e+01
      vertex   3.861811e+02 5.023143e+02 6.203823e+01
      vertex   3.865811e+02 5.027143e+02 6.676875e+01
    endloop
  endfacet
  facet normal 7.071068e-01 -7.071068e-01 8.496805e-15
    outer loop
      vertex   3.865811e+02 5.027143e+02 6.676875e+01
      vertex   3.861811e+02 5.023143e+02 6.203823e+01
      vertex   3.865811e+02 5.027143e+02 6.203823e+01
    endloop
  endfacet
  facet normal -7.045148e-01 -7.045148e-01 8.554359e-02
    outer loop
      vertex   3.919811e+02 5.023143e+02 6.203823e+01
      vertex   3.915811e+02 5.027143e+02 6.203823e+01
      vertex   3.918968e+02 5.023143e+02 6.134421e+01
    endloop
  endfacet
  facet normal -6.978946e-01 -7.102825e-01 9.187957e-02
    outer loop
      vertex   3.918968e+02 5.023143e+02 6.134421e+01
      vertex   3.915811e+02 5.027143e+02 6.203823e+01
      vertex   3.914959e+02 5.027143e+02 6.139118e+01
    endloop
  endfacet
  facet normal -6.682024e-01 -6.994898e-01 2.534158e-01
    outer loop
      vertex   3.918968e+02 5.023143e+02 6.134421e+01
      vertex   3.914959e+02 5.027143e+02 6.139118e+01
      vertex   3.916489e+02 5.023143e+02 6.069053e+01
    endloop
  endfacet
  facet normal -6.455801e-01 -7.153455e-01 2.674081e-01
    outer loop
      vertex   3.916489e+02 5.023143e+02 6.069053e+01
      vertex   3.914959e+02 5.027143e+02 6.139118e+01
      vertex   3.912461e+02 5.027143e+02 6.078823e+01
    endloop
  endfacet
  facet normal -5.914972e-01 -6.952968e-01 4.082810e-01
    outer loop
      vertex   3.916489e+02 5.023143e+02 6.069053e+01
      vertex   3.912461e+02 5.027143e+02 6.078823e+01
      vertex   3.912518e+02 5.023143e+02 6.011517e+01
    endloop
  endfacet
  facet normal -5.511267e-01 -7.193189e-01 4.228944e-01
    outer loop
      vertex   3.912518e+02 5.023143e+02 6.011517e+01
      vertex   3.912461e+02 5.027143e+02 6.078823e+01
      vertex   3.908488e+02 5.027143e+02 6.027046e+01
    endloop
  endfacet
  facet normal -4.787168e-01 -6.919839e-01 5.403596e-01
    outer loop
      vertex   3.912518e+02 5.023143e+02 6.011517e+01
      vertex   3.908488e+02 5.027143e+02 6.027046e+01
      vertex   3.907285e+02 5.023143e+02 5.965157e+01
    endloop
  endfacet
  facet normal -4.210360e-01 -7.222547e-01 5.487048e-01
    outer loop
      vertex   3.907285e+02 5.023143e+02 5.965157e+01
      vertex   3.908488e+02 5.027143e+02 6.027046e+01
      vertex   3.903311e+02 5.027143e+02 5.987316e+01
    endloop
  endfacet
  facet normal -3.365527e-01 -6.895895e-01 6.412476e-01
    outer loop
      vertex   3.907285e+02 5.023143e+02 5.965157e+01
      vertex   3.903311e+02 5.027143e+02 5.987316e+01
      vertex   3.901094e+02 5.023143e+02 5.932668e+01
    endloop
  endfacet
  facet normal -2.638983e-01 -7.241911e-01 6.371067e-01
    outer loop
      vertex   3.901094e+02 5.023143e+02 5.932668e+01
      vertex   3.903311e+02 5.027143e+02 5.987316e+01
      vertex   3.897281e+02 5.027143e+02 5.962341e+01
    endloop
  endfacet
  facet normal -1.736418e-01 -6.881415e-01 7.044925e-01
    outer loop
      vertex   3.901094e+02 5.023143e+02 5.932668e+01
      vertex   3.897281e+02 5.027143e+02 5.962341e+01
      vertex   3.894306e+02 5.023143e+02 5.915937e+01
    endloop
  endfacet
  facet normal -8.987873e-02 -7.251531e-01 6.826967e-01
    outer loop
      vertex   3.894306e+02 5.023143e+02 5.915937e+01
      vertex   3.897281e+02 5.027143e+02 5.962341e+01
      vertex   3.890811e+02 5.027143e+02 5.953823e+01
    endloop
  endfacet
  facet normal 7.379059e-15 -6.876570e-01 7.260357e-01
    outer loop
      vertex   3.894306e+02 5.023143e+02 5.915937e+01
      vertex   3.890811e+02 5.027143e+02 5.953823e+01
      vertex   3.887315e+02 5.023143e+02 5.915937e+01
    endloop
  endfacet
  facet normal 8.987873e-02 -7.251531e-01 6.826967e-01
    outer loop
      vertex   3.887315e+02 5.023143e+02 5.915937e+01
      vertex   3.890811e+02 5.027143e+02 5.953823e+01
      vertex   3.884340e+02 5.027143e+02 5.962341e+01
    endloop
  endfacet
  facet normal 1.736418e-01 -6.881415e-01 7.044925e-01
    outer loop
      vertex   3.887315e+02 5.023143e+02 5.915937e+01
      vertex   3.884340e+02 5.027143e+02 5.962341e+01
      vertex   3.880527e+02 5.023143e+02 5.932668e+01
    endloop
  endfacet
  facet normal 2.638983e-01 -7.241911e-01 6.371067e-01
    outer loop
      vertex   3.880527e+02 5.023143e+02 5.932668e+01
      vertex   3.884340e+02 5.027143e+02 5.962341e+01
      vertex   3.878311e+02 5.027143e+02 5.987316e+01
    endloop
  endfacet
  facet normal 3.365527e-01 -6.895895e-01 6.412476e-01
    outer loop
      vertex   3.880527e+02 5.023143e+02 5.932668e+01
      vertex   3.878311e+02 5.027143e+02 5.987316e+01
      vertex   3.874337e+02 5.023143e+02 5.965157e+01
    endloop
  endfacet
  facet normal 4.210360e-01 -7.222547e-01 5.487048e-01
    outer loop
      vertex   3.874337e+02 5.023143e+02 5.965157e+01
      vertex   3.878311e+02 5.027143e+02 5.987316e+01
      vertex   3.873133e+02 5.027143e+02 6.027046e+01
    endloop
  endfacet
  facet normal 4.787168e-01 -6.919839e-01 5.403596e-01
    outer loop
      vertex   3.874337e+02 5.023143e+02 5.965157e+01
      vertex   3.873133e+02 5.027143e+02 6.027046e+01
      vertex   3.869104e+02 5.023143e+02 6.011517e+01
    endloop
  endfacet
  facet normal 5.511267e-01 -7.193189e-01 4.228944e-01
    outer loop
      vertex   3.869104e+02 5.023143e+02 6.011517e+01
      vertex   3.873133e+02 5.027143e+02 6.027046e+01
      vertex   3.869160e+02 5.027143e+02 6.078823e+01
    endloop
  endfacet
  facet normal 5.914972e-01 -6.952968e-01 4.082810e-01
    outer loop
      vertex   3.869104e+02 5.023143e+02 6.011517e+01
      vertex   3.869160e+02 5.027143e+02 6.078823e+01
      vertex   3.865133e+02 5.023143e+02 6.069053e+01
    endloop
  endfacet
  facet normal 6.455801e-01 -7.153455e-01 2.674081e-01
    outer loop
      vertex   3.865133e+02 5.023143e+02 6.069053e+01
      vertex   3.869160e+02 5.027143e+02 6.078823e+01
      vertex   3.866663e+02 5.027143e+02 6.139118e+01
    endloop
  endfacet
  facet normal 6.682024e-01 -6.994898e-01 2.534158e-01
    outer loop
      vertex   3.865133e+02 5.023143e+02 6.069053e+01
      vertex   3.866663e+02 5.027143e+02 6.139118e+01
      vertex   3.862653e+02 5.023143e+02 6.134421e+01
    endloop
  endfacet
  facet normal 6.978946e-01 -7.102825e-01 9.187957e-02
    outer loop
      vertex   3.862653e+02 5.023143e+02 6.134421e+01
      vertex   3.866663e+02 5.027143e+02 6.139118e+01
      vertex   3.865811e+02 5.027143e+02 6.203823e+01
    endloop
  endfacet
  facet normal 7.045148e-01 -7.045148e-01 8.554359e-02
    outer loop
      vertex   3.862653e+02 5.023143e+02 6.134421e+01
      vertex   3.865811e+02 5.027143e+02 6.203823e+01
      vertex   3.861811e+02 5.023143e+02 6.203823e+01
    endloop
  endfacet
  facet normal 7.071068e-01 -7.071068e-01 0.000000e+00
    outer loop
      vertex   3.930811e+02 5.027143e+02 5.872831e+01
      vertex   3.930811e+02 5.027143e+02 6.676875e+01
      vertex   3.926811e+02 5.023143e+02 5.872831e+01
    endloop
  endfacet
  facet normal 7.071068e-01 -7.071068e-01 0.000000e+00
    outer loop
      vertex   3.926811e+02 5.023143e+02 5.872831e+01
      vertex   3.930811e+02 5.027143e+02 6.676875e+01
      vertex   3.926811e+02 5.023143e+02 6.676875e+01
    endloop
  endfacet
  facet normal -7.047521e-01 7.047521e-01 8.154171e-02
    outer loop
      vertex   3.919811e+02 5.063143e+02 6.203823e+01
      vertex   3.919045e+02 5.063143e+02 6.137602e+01
      vertex   3.915811e+02 5.059143e+02 6.203823e+01
    endloop
  endfacet
  facet normal -6.949070e-01 7.132563e-01 9.148624e-02
    outer loop
      vertex   3.915811e+02 5.059143e+02 6.203823e+01
      vertex   3.919045e+02 5.063143e+02 6.137602e+01
      vertex   3.914959e+02 5.059143e+02 6.139118e+01
    endloop
  endfacet
  facet normal -6.740518e-01 6.976855e-01 2.426708e-01
    outer loop
      vertex   3.914959e+02 5.059143e+02 6.139118e+01
      vertex   3.919045e+02 5.063143e+02 6.137602e+01
      vertex   3.916786e+02 5.063143e+02 6.074880e+01
    endloop
  endfacet
  facet normal -6.414111e-01 7.197259e-01 2.656812e-01
    outer loop
      vertex   3.914959e+02 5.059143e+02 6.139118e+01
      vertex   3.916786e+02 5.063143e+02 6.074880e+01
      vertex   3.912461e+02 5.059143e+02 6.078823e+01
    endloop
  endfacet
  facet normal -6.048525e-01 6.927258e-01 3.927905e-01
    outer loop
      vertex   3.912461e+02 5.059143e+02 6.078823e+01
      vertex   3.916786e+02 5.063143e+02 6.074880e+01
      vertex   3.913156e+02 5.063143e+02 6.018971e+01
    endloop
  endfacet
  facet normal -5.475223e-01 7.236790e-01 4.201286e-01
    outer loop
      vertex   3.912461e+02 5.059143e+02 6.078823e+01
      vertex   3.913156e+02 5.063143e+02 6.018971e+01
      vertex   3.908488e+02 5.059143e+02 6.027046e+01
    endloop
  endfacet
  facet normal -5.009759e-01 6.900127e-01 5.224037e-01
    outer loop
      vertex   3.908488e+02 5.059143e+02 6.027046e+01
      vertex   3.913156e+02 5.063143e+02 6.018971e+01
      vertex   3.908344e+02 5.063143e+02 5.972831e+01
    endloop
  endfacet
  facet normal -4.191294e-01 7.252408e-01 5.462201e-01
    outer loop
      vertex   3.908488e+02 5.059143e+02 6.027046e+01
      vertex   3.908344e+02 5.063143e+02 5.972831e+01
      vertex   3.903311e+02 5.059143e+02 5.987316e+01
    endloop
  endfacet
  facet normal -3.718171e-01 6.919854e-01 6.187959e-01
    outer loop
      vertex   3.903311e+02 5.059143e+02 5.987316e+01
      vertex   3.908344e+02 5.063143e+02 5.972831e+01
      vertex   3.902975e+02 5.063143e+02 5.940568e+01
    endloop
  endfacet
  facet normal -2.642326e-01 7.233582e-01 6.379139e-01
    outer loop
      vertex   3.903311e+02 5.059143e+02 5.987316e+01
      vertex   3.902975e+02 5.063143e+02 5.940568e+01
      vertex   3.897281e+02 5.059143e+02 5.962341e+01
    endloop
  endfacet
  facet normal -2.289580e-01 6.962313e-01 6.803236e-01
    outer loop
      vertex   3.897281e+02 5.059143e+02 5.962341e+01
      vertex   3.902975e+02 5.063143e+02 5.940568e+01
      vertex   3.897038e+02 5.063143e+02 5.920588e+01
    endloop
  endfacet
  facet normal -9.105980e-02 7.164522e-01 6.916679e-01
    outer loop
      vertex   3.897281e+02 5.059143e+02 5.962341e+01
      vertex   3.897038e+02 5.063143e+02 5.920588e+01
      vertex   3.890811e+02 5.059143e+02 5.953823e+01
    endloop
  endfacet
  facet normal -7.659192e-02 7.050297e-01 7.050297e-01
    outer loop
      vertex   3.890811e+02 5.059143e+02 5.953823e+01
      vertex   3.897038e+02 5.063143e+02 5.920588e+01
      vertex   3.890811e+02 5.063143e+02 5.913823e+01
    endloop
  endfacet
  facet normal 7.659192e-02 7.050297e-01 7.050297e-01
    outer loop
      vertex   3.890811e+02 5.059143e+02 5.953823e+01
      vertex   3.890811e+02 5.063143e+02 5.913823e+01
      vertex   3.884583e+02 5.063143e+02 5.920588e+01
    endloop
  endfacet
  facet normal 9.105980e-02 7.164522e-01 6.916679e-01
    outer loop
      vertex   3.890811e+02 5.059143e+02 5.953823e+01
      vertex   3.884583e+02 5.063143e+02 5.920588e+01
      vertex   3.884340e+02 5.059143e+02 5.962341e+01
    endloop
  endfacet
  facet normal 2.289580e-01 6.962313e-01 6.803236e-01
    outer loop
      vertex   3.884340e+02 5.059143e+02 5.962341e+01
      vertex   3.884583e+02 5.063143e+02 5.920588e+01
      vertex   3.878646e+02 5.063143e+02 5.940568e+01
    endloop
  endfacet
  facet normal 2.642326e-01 7.233582e-01 6.379139e-01
    outer loop
      vertex   3.884340e+02 5.059143e+02 5.962341e+01
      vertex   3.878646e+02 5.063143e+02 5.940568e+01
      vertex   3.878311e+02 5.059143e+02 5.987316e+01
    endloop
  endfacet
  facet normal 3.718171e-01 6.919854e-01 6.187959e-01
    outer loop
      vertex   3.878311e+02 5.059143e+02 5.987316e+01
      vertex   3.878646e+02 5.063143e+02 5.940568e+01
      vertex   3.873277e+02 5.063143e+02 5.972831e+01
    endloop
  endfacet
  facet normal 4.191294e-01 7.252408e-01 5.462201e-01
    outer loop
      vertex   3.878311e+02 5.059143e+02 5.987316e+01
      vertex   3.873277e+02 5.063143e+02 5.972831e+01
      vertex   3.873133e+02 5.059143e+02 6.027046e+01
    endloop
  endfacet
  facet normal 5.009759e-01 6.900127e-01 5.224037e-01
    outer loop
      vertex   3.873133e+02 5.059143e+02 6.027046e+01
      vertex   3.873277e+02 5.063143e+02 5.972831e+01
      vertex   3.868466e+02 5.063143e+02 6.018971e+01
    endloop
  endfacet
  facet normal 5.475223e-01 7.236790e-01 4.201286e-01
    outer loop
      vertex   3.873133e+02 5.059143e+02 6.027046e+01
      vertex   3.868466e+02 5.063143e+02 6.018971e+01
      vertex   3.869160e+02 5.059143e+02 6.078823e+01
    endloop
  endfacet
  facet normal 6.048525e-01 6.927258e-01 3.927905e-01
    outer loop
      vertex   3.869160e+02 5.059143e+02 6.078823e+01
      vertex   3.868466e+02 5.063143e+02 6.018971e+01
      vertex   3.864835e+02 5.063143e+02 6.074880e+01
    endloop
  endfacet
  facet normal 6.414111e-01 7.197259e-01 2.656812e-01
    outer loop
      vertex   3.869160e+02 5.059143e+02 6.078823e+01
      vertex   3.864835e+02 5.063143e+02 6.074880e+01
      vertex   3.866663e+02 5.059143e+02 6.139118e+01
    endloop
  endfacet
  facet normal 6.740518e-01 6.976855e-01 2.426708e-01
    outer loop
      vertex   3.866663e+02 5.059143e+02 6.139118e+01
      vertex   3.864835e+02 5.063143e+02 6.074880e+01
      vertex   3.862577e+02 5.063143e+02 6.137602e+01
    endloop
  endfacet
  facet normal 6.949070e-01 7.132563e-01 9.148624e-02
    outer loop
      vertex   3.866663e+02 5.059143e+02 6.139118e+01
      vertex   3.862577e+02 5.063143e+02 6.137602e+01
      vertex   3.865811e+02 5.059143e+02 6.203823e+01
    endloop
  endfacet
  facet normal 7.047521e-01 7.047521e-01 8.154171e-02
    outer loop
      vertex   3.865811e+02 5.059143e+02 6.203823e+01
      vertex   3.862577e+02 5.063143e+02 6.137602e+01
      vertex   3.861811e+02 5.063143e+02 6.203823e+01
    endloop
  endfacet
  facet normal 7.071068e-01 7.071068e-01 -1.699361e-14
    outer loop
      vertex   3.865811e+02 5.059143e+02 6.676875e+01
      vertex   3.865811e+02 5.059143e+02 6.203823e+01
      vertex   3.861811e+02 5.063143e+02 6.676875e+01
    endloop
  endfacet
  facet normal 7.071068e-01 7.071068e-01 -8.496805e-15
    outer loop
      vertex   3.861811e+02 5.063143e+02 6.676875e+01
      vertex   3.865811e+02 5.059143e+02 6.203823e+01
      vertex   3.861811e+02 5.063143e+02 6.203823e+01
    endloop
  endfacet
  facet normal -7.071068e-01 7.071068e-01 1.457702e-12
    outer loop
      vertex   3.864811e+02 5.073143e+02 5.872831e+01
      vertex   3.850811e+02 5.059143e+02 5.872831e+01
      vertex   3.862860e+02 5.071192e+02 5.874752e+01
    endloop
  endfacet
  facet normal -7.071068e-01 7.071068e-01 -1.487513e-13
    outer loop
      vertex   3.862860e+02 5.071192e+02 5.874752e+01
      vertex   3.850811e+02 5.059143e+02 5.872831e+01
      vertex   3.860984e+02 5.069316e+02 5.880443e+01
    endloop
  endfacet
  facet normal -7.071068e-01 7.071068e-01 2.593127e-13
    outer loop
      vertex   3.860984e+02 5.069316e+02 5.880443e+01
      vertex   3.850811e+02 5.059143e+02 5.872831e+01
      vertex   3.859255e+02 5.067587e+02 5.889684e+01
    endloop
  endfacet
  facet normal -7.071068e-01 7.071068e-01 -7.336083e-14
    outer loop
      vertex   3.859255e+02 5.067587e+02 5.889684e+01
      vertex   3.850811e+02 5.059143e+02 5.872831e+01
      vertex   3.857740e+02 5.066072e+02 5.902120e+01
    endloop
  endfacet
  facet normal -7.071068e-01 7.071068e-01 1.060939e-13
    outer loop
      vertex   3.857740e+02 5.066072e+02 5.902120e+01
      vertex   3.850811e+02 5.059143e+02 5.872831e+01
      vertex   3.856496e+02 5.064828e+02 5.917274e+01
    endloop
  endfacet
  facet normal -7.071068e-01 7.071068e-01 -8.404000e-14
    outer loop
      vertex   3.856496e+02 5.064828e+02 5.917274e+01
      vertex   3.850811e+02 5.059143e+02 5.872831e+01
      vertex   3.855572e+02 5.063904e+02 5.934563e+01
    endloop
  endfacet
  facet normal -7.071068e-01 7.071068e-01 1.905316e-13
    outer loop
      vertex   3.855572e+02 5.063904e+02 5.934563e+01
      vertex   3.850811e+02 5.059143e+02 5.872831e+01
      vertex   3.855003e+02 5.063335e+02 5.953322e+01
    endloop
  endfacet
  facet normal -7.071068e-01 7.071068e-01 -2.890587e-13
    outer loop
      vertex   3.855003e+02 5.063335e+02 5.953322e+01
      vertex   3.850811e+02 5.059143e+02 5.872831e+01
      vertex   3.854859e+02 5.063191e+02 5.963029e+01
    endloop
  endfacet
  facet normal -7.071068e-01 7.071068e-01 -3.608220e-13
    outer loop
      vertex   3.854859e+02 5.063191e+02 5.963029e+01
      vertex   3.850811e+02 5.059143e+02 5.872831e+01
      vertex   3.854811e+02 5.063143e+02 5.972831e+01
    endloop
  endfacet
  facet normal -7.071068e-01 7.071068e-01 4.997801e-15
    outer loop
      vertex   3.854811e+02 5.063143e+02 5.972831e+01
      vertex   3.850811e+02 5.059143e+02 5.872831e+01
      vertex   3.850811e+02 5.059143e+02 6.676875e+01
    endloop
  endfacet
  facet normal -7.071068e-01 7.071068e-01 5.709065e-15
    outer loop
      vertex   3.854811e+02 5.063143e+02 5.972831e+01
      vertex   3.850811e+02 5.059143e+02 6.676875e+01
      vertex   3.854811e+02 5.063143e+02 6.676875e+01
    endloop
  endfacet
  facet normal 7.071068e-01 7.071068e-01 -2.918322e-13
    outer loop
      vertex   3.916811e+02 5.073143e+02 5.872831e+01
      vertex   3.918762e+02 5.071192e+02 5.874752e+01
      vertex   3.930811e+02 5.059143e+02 5.872831e+01
    endloop
  endfacet
  facet normal 7.071068e-01 7.071068e-01 5.656357e-13
    outer loop
      vertex   3.930811e+02 5.059143e+02 5.872831e+01
      vertex   3.918762e+02 5.071192e+02 5.874752e+01
      vertex   3.920638e+02 5.069316e+02 5.880443e+01
    endloop
  endfacet
  facet normal 7.071068e-01 7.071068e-01 0.000000e+00
    outer loop
      vertex   3.930811e+02 5.059143e+02 5.872831e+01
      vertex   3.920638e+02 5.069316e+02 5.880443e+01
      vertex   3.922366e+02 5.067587e+02 5.889684e+01
    endloop
  endfacet
  facet normal 7.071068e-01 7.071068e-01 -2.599198e-13
    outer loop
      vertex   3.922366e+02 5.067587e+02 5.889684e+01
      vertex   3.923882e+02 5.066072e+02 5.902120e+01
      vertex   3.930811e+02 5.059143e+02 5.872831e+01
    endloop
  endfacet
  facet normal 7.071068e-01 7.071068e-01 1.615348e-13
    outer loop
      vertex   3.930811e+02 5.059143e+02 5.872831e+01
      vertex   3.923882e+02 5.066072e+02 5.902120e+01
      vertex   3.925125e+02 5.064828e+02 5.917274e+01
    endloop
  endfacet
  facet normal 7.071068e-01 7.071068e-01 0.000000e+00
    outer loop
      vertex   3.930811e+02 5.059143e+02 5.872831e+01
      vertex   3.925125e+02 5.064828e+02 5.917274e+01
      vertex   3.926050e+02 5.063904e+02 5.934563e+01
    endloop
  endfacet
  facet normal 7.071068e-01 7.071068e-01 -1.537855e-13
    outer loop
      vertex   3.926050e+02 5.063904e+02 5.934563e+01
      vertex   3.926619e+02 5.063335e+02 5.953322e+01
      vertex   3.930811e+02 5.059143e+02 5.872831e+01
    endloop
  endfacet
  facet normal 7.071068e-01 7.071068e-01 3.111821e-13
    outer loop
      vertex   3.930811e+02 5.059143e+02 5.872831e+01
      vertex   3.926619e+02 5.063335e+02 5.953322e+01
      vertex   3.926763e+02 5.063191e+02 5.963029e+01
    endloop
  endfacet
  facet normal 7.071068e-01 7.071068e-01 -3.695887e-13
    outer loop
      vertex   3.930811e+02 5.059143e+02 5.872831e+01
      vertex   3.926763e+02 5.063191e+02 5.963029e+01
      vertex   3.926811e+02 5.063143e+02 5.972831e+01
    endloop
  endfacet
  facet normal 7.071068e-01 7.071068e-01 -5.709065e-15
    outer loop
      vertex   3.926811e+02 5.063143e+02 6.676875e+01
      vertex   3.930811e+02 5.059143e+02 6.676875e+01
      vertex   3.926811e+02 5.063143e+02 5.972831e+01
    endloop
  endfacet
  facet normal 7.071068e-01 7.071068e-01 -4.997801e-15
    outer loop
      vertex   3.926811e+02 5.063143e+02 5.972831e+01
      vertex   3.930811e+02 5.059143e+02 6.676875e+01
      vertex   3.930811e+02 5.059143e+02 5.872831e+01
    endloop
  endfacet
  facet normal 1.771218e-15 9.801714e-02 9.951847e-01
    outer loop
      vertex   3.864811e+02 5.073143e+02 5.872831e+01
      vertex   3.862860e+02 5.071192e+02 5.874752e+01
      vertex   3.873277e+02 5.073143e+02 5.872831e+01
    endloop
  endfacet
  facet normal -6.157009e-03 1.305237e-01 9.914261e-01
    outer loop
      vertex   3.873277e+02 5.073143e+02 5.872831e+01
      vertex   3.862860e+02 5.071192e+02 5.874752e+01
      vertex   3.873277e+02 5.070555e+02 5.876238e+01
    endloop
  endfacet
  facet normal 3.875871e-03 2.867312e-01 9.580032e-01
    outer loop
      vertex   3.873277e+02 5.070555e+02 5.876238e+01
      vertex   3.862860e+02 5.071192e+02 5.874752e+01
      vertex   3.860984e+02 5.069316e+02 5.880443e+01
    endloop
  endfacet
  facet normal -6.959059e-03 3.826742e-01 9.238572e-01
    outer loop
      vertex   3.873277e+02 5.070555e+02 5.876238e+01
      vertex   3.860984e+02 5.069316e+02 5.880443e+01
      vertex   3.873277e+02 5.068143e+02 5.886228e+01
    endloop
  endfacet
  facet normal 3.182918e-03 4.689169e-01 8.832366e-01
    outer loop
      vertex   3.873277e+02 5.068143e+02 5.886228e+01
      vertex   3.860984e+02 5.069316e+02 5.880443e+01
      vertex   3.859255e+02 5.067587e+02 5.889684e+01
    endloop
  endfacet
  facet normal -4.574205e-03 6.087551e-01 7.933450e-01
    outer loop
      vertex   3.873277e+02 5.068143e+02 5.886228e+01
      vertex   3.859255e+02 5.067587e+02 5.889684e+01
      vertex   3.873277e+02 5.066072e+02 5.902120e+01
    endloop
  endfacet
  facet normal 7.070098e-15 6.343933e-01 7.730105e-01
    outer loop
      vertex   3.873277e+02 5.066072e+02 5.902120e+01
      vertex   3.859255e+02 5.067587e+02 5.889684e+01
      vertex   3.857740e+02 5.066072e+02 5.902120e+01
    endloop
  endfacet
  facet normal 5.802280e-15 7.730105e-01 6.343933e-01
    outer loop
      vertex   3.873277e+02 5.066072e+02 5.902120e+01
      vertex   3.857740e+02 5.066072e+02 5.902120e+01
      vertex   3.856496e+02 5.064828e+02 5.917274e+01
    endloop
  endfacet
  facet normal -3.822168e-03 7.933475e-01 6.087570e-01
    outer loop
      vertex   3.873277e+02 5.066072e+02 5.902120e+01
      vertex   3.856496e+02 5.064828e+02 5.917274e+01
      vertex   3.873277e+02 5.064483e+02 5.922831e+01
    endloop
  endfacet
  facet normal 2.504458e-03 8.813614e-01 4.724361e-01
    outer loop
      vertex   3.873277e+02 5.064483e+02 5.922831e+01
      vertex   3.856496e+02 5.064828e+02 5.917274e+01
      vertex   3.855572e+02 5.063904e+02 5.934563e+01
    endloop
  endfacet
  facet normal -4.831938e-03 9.238687e-01 3.826790e-01
    outer loop
      vertex   3.873277e+02 5.064483e+02 5.922831e+01
      vertex   3.855572e+02 5.063904e+02 5.934563e+01
      vertex   3.873277e+02 5.063484e+02 5.946949e+01
    endloop
  endfacet
  facet normal 2.366558e-03 9.567380e-01 2.909412e-01
    outer loop
      vertex   3.873277e+02 5.063484e+02 5.946949e+01
      vertex   3.855572e+02 5.063904e+02 5.934563e+01
      vertex   3.855003e+02 5.063335e+02 5.953322e+01
    endloop
  endfacet
  facet normal -2.941738e-03 9.892355e-01 1.463029e-01
    outer loop
      vertex   3.873277e+02 5.063484e+02 5.946949e+01
      vertex   3.855003e+02 5.063335e+02 5.953322e+01
      vertex   3.854859e+02 5.063191e+02 5.963029e+01
    endloop
  endfacet
  facet normal 6.186762e-14 9.987955e-01 4.906767e-02
    outer loop
      vertex   3.854811e+02 5.063143e+02 5.972831e+01
      vertex   3.873277e+02 5.063143e+02 5.972831e+01
      vertex   3.854859e+02 5.063191e+02 5.963029e+01
    endloop
  endfacet
  facet normal -4.354188e-03 9.914355e-01 1.305250e-01
    outer loop
      vertex   3.854859e+02 5.063191e+02 5.963029e+01
      vertex   3.873277e+02 5.063143e+02 5.972831e+01
      vertex   3.873277e+02 5.063484e+02 5.946949e+01
    endloop
  endfacet
  facet normal 2.749442e-02 1.304768e-01 9.910701e-01
    outer loop
      vertex   3.873277e+02 5.070555e+02 5.876238e+01
      vertex   3.877800e+02 5.071224e+02 5.874103e+01
      vertex   3.873277e+02 5.073143e+02 5.872831e+01
    endloop
  endfacet
  facet normal 1.905365e-02 1.107583e-01 9.936647e-01
    outer loop
      vertex   3.873277e+02 5.073143e+02 5.872831e+01
      vertex   3.877800e+02 5.071224e+02 5.874103e+01
      vertex   3.881876e+02 5.070795e+02 5.873799e+01
    endloop
  endfacet
  facet normal 1.852589e-02 1.088347e-01 9.938872e-01
    outer loop
      vertex   3.873277e+02 5.073143e+02 5.872831e+01
      vertex   3.881876e+02 5.070795e+02 5.873799e+01
      vertex   3.884852e+02 5.070441e+02 5.873632e+01
    endloop
  endfacet
  facet normal 2.792176e-02 1.884182e-01 9.816919e-01
    outer loop
      vertex   3.884852e+02 5.070441e+02 5.873632e+01
      vertex   3.881876e+02 5.070795e+02 5.873799e+01
      vertex   3.884666e+02 5.069180e+02 5.876106e+01
    endloop
  endfacet
  facet normal 2.947277e-02 1.881897e-01 9.816904e-01
    outer loop
      vertex   3.884852e+02 5.070441e+02 5.873632e+01
      vertex   3.884666e+02 5.069180e+02 5.876106e+01
      vertex   3.886207e+02 5.069074e+02 5.875846e+01
    endloop
  endfacet
  facet normal 3.683546e-02 3.023272e-01 9.524922e-01
    outer loop
      vertex   3.886207e+02 5.069074e+02 5.875846e+01
      vertex   3.884666e+02 5.069180e+02 5.876106e+01
      vertex   3.886063e+02 5.067878e+02 5.879698e+01
    endloop
  endfacet
  facet normal 2.149286e-02 3.041466e-01 9.523827e-01
    outer loop
      vertex   3.886207e+02 5.069074e+02 5.875846e+01
      vertex   3.886063e+02 5.067878e+02 5.879698e+01
      vertex   3.890891e+02 5.067780e+02 5.878920e+01
    endloop
  endfacet
  facet normal 2.283067e-02 3.988235e-01 9.167435e-01
    outer loop
      vertex   3.890891e+02 5.067780e+02 5.878920e+01
      vertex   3.886063e+02 5.067878e+02 5.879698e+01
      vertex   3.890893e+02 5.066689e+02 5.883666e+01
    endloop
  endfacet
  facet normal -3.131710e-02 3.986279e-01 9.165779e-01
    outer loop
      vertex   3.890891e+02 5.067780e+02 5.878920e+01
      vertex   3.890893e+02 5.066689e+02 5.883666e+01
      vertex   3.895843e+02 5.066739e+02 5.885141e+01
    endloop
  endfacet
  facet normal -3.052551e-02 5.359045e-01 8.437266e-01
    outer loop
      vertex   3.895843e+02 5.066739e+02 5.885141e+01
      vertex   3.890893e+02 5.066689e+02 5.883666e+01
      vertex   3.895976e+02 5.065664e+02 5.892017e+01
    endloop
  endfacet
  facet normal -1.050198e-01 5.266100e-01 8.435951e-01
    outer loop
      vertex   3.895843e+02 5.066739e+02 5.885141e+01
      vertex   3.895976e+02 5.065664e+02 5.892017e+01
      vertex   3.900722e+02 5.065612e+02 5.898253e+01
    endloop
  endfacet
  facet normal -8.333451e-02 7.147782e-01 6.943685e-01
    outer loop
      vertex   3.900722e+02 5.065612e+02 5.898253e+01
      vertex   3.895976e+02 5.065664e+02 5.892017e+01
      vertex   3.900892e+02 5.064605e+02 5.908817e+01
    endloop
  endfacet
  facet normal -1.639256e-01 7.009361e-01 6.941304e-01
    outer loop
      vertex   3.900722e+02 5.065612e+02 5.898253e+01
      vertex   3.900892e+02 5.064605e+02 5.908817e+01
      vertex   3.904767e+02 5.064360e+02 5.920443e+01
    endloop
  endfacet
  facet normal -7.890126e-02 8.892958e-01 4.504749e-01
    outer loop
      vertex   3.904767e+02 5.064360e+02 5.920443e+01
      vertex   3.900892e+02 5.064605e+02 5.908817e+01
      vertex   3.904864e+02 5.063617e+02 5.935291e+01
    endloop
  endfacet
  facet normal -1.172393e-01 8.849010e-01 4.507828e-01
    outer loop
      vertex   3.904767e+02 5.064360e+02 5.920443e+01
      vertex   3.904864e+02 5.063617e+02 5.935291e+01
      vertex   3.908344e+02 5.063484e+02 5.946949e+01
    endloop
  endfacet
  facet normal -5.905001e-03 9.914276e-01 1.305239e-01
    outer loop
      vertex   3.908344e+02 5.063484e+02 5.946949e+01
      vertex   3.904864e+02 5.063617e+02 5.935291e+01
      vertex   3.908344e+02 5.063143e+02 5.972831e+01
    endloop
  endfacet
  facet normal -1.623918e-01 9.489933e-01 2.702603e-01
    outer loop
      vertex   3.908344e+02 5.063143e+02 5.972831e+01
      vertex   3.904864e+02 5.063617e+02 5.935291e+01
      vertex   3.902975e+02 5.063143e+02 5.940568e+01
    endloop
  endfacet
  facet normal -1.160946e-01 9.090727e-01 4.001361e-01
    outer loop
      vertex   3.902975e+02 5.063143e+02 5.940568e+01
      vertex   3.904864e+02 5.063617e+02 5.935291e+01
      vertex   3.901031e+02 5.063778e+02 5.920493e+01
    endloop
  endfacet
  facet normal -1.415861e-01 8.960794e-01 4.207077e-01
    outer loop
      vertex   3.902975e+02 5.063143e+02 5.940568e+01
      vertex   3.901031e+02 5.063778e+02 5.920493e+01
      vertex   3.897038e+02 5.063143e+02 5.920588e+01
    endloop
  endfacet
  facet normal -1.255169e-01 7.976327e-01 5.899387e-01
    outer loop
      vertex   3.897038e+02 5.063143e+02 5.920588e+01
      vertex   3.901031e+02 5.063778e+02 5.920493e+01
      vertex   3.896199e+02 5.063853e+02 5.909204e+01
    endloop
  endfacet
  facet normal -6.084763e-02 8.261851e-01 5.601033e-01
    outer loop
      vertex   3.897038e+02 5.063143e+02 5.920588e+01
      vertex   3.896199e+02 5.063853e+02 5.909204e+01
      vertex   3.890811e+02 5.063143e+02 5.913823e+01
    endloop
  endfacet
  facet normal -4.779510e-02 7.737136e-01 6.317301e-01
    outer loop
      vertex   3.890811e+02 5.063143e+02 5.913823e+01
      vertex   3.896199e+02 5.063853e+02 5.909204e+01
      vertex   3.890900e+02 5.063870e+02 5.904991e+01
    endloop
  endfacet
  facet normal 4.533920e-02 7.692031e-01 6.373939e-01
    outer loop
      vertex   3.890811e+02 5.063143e+02 5.913823e+01
      vertex   3.890900e+02 5.063870e+02 5.904991e+01
      vertex   3.885576e+02 5.063854e+02 5.908965e+01
    endloop
  endfacet
  facet normal 4.899060e-02 7.271934e-01 6.846822e-01
    outer loop
      vertex   3.885576e+02 5.063854e+02 5.908965e+01
      vertex   3.890900e+02 5.063870e+02 5.904991e+01
      vertex   3.885678e+02 5.064699e+02 5.899922e+01
    endloop
  endfacet
  facet normal 8.830463e-02 7.229884e-01 6.851935e-01
    outer loop
      vertex   3.885576e+02 5.063854e+02 5.908965e+01
      vertex   3.885678e+02 5.064699e+02 5.899922e+01
      vertex   3.884004e+02 5.064682e+02 5.902252e+01
    endloop
  endfacet
  facet normal 9.813689e-02 6.530458e-01 7.509329e-01
    outer loop
      vertex   3.884004e+02 5.064682e+02 5.902252e+01
      vertex   3.885678e+02 5.064699e+02 5.899922e+01
      vertex   3.884149e+02 5.065662e+02 5.893548e+01
    endloop
  endfacet
  facet normal 9.829702e-02 6.530221e-01 7.509327e-01
    outer loop
      vertex   3.884004e+02 5.064682e+02 5.902252e+01
      vertex   3.884149e+02 5.065662e+02 5.893548e+01
      vertex   3.881002e+02 5.065615e+02 5.898074e+01
    endloop
  endfacet
  facet normal 1.054456e-01 5.975367e-01 7.948780e-01
    outer loop
      vertex   3.881002e+02 5.065615e+02 5.898074e+01
      vertex   3.884149e+02 5.065662e+02 5.893548e+01
      vertex   3.881199e+02 5.066780e+02 5.889050e+01
    endloop
  endfacet
  facet normal 8.658403e-02 6.006598e-01 7.948025e-01
    outer loop
      vertex   3.881002e+02 5.065615e+02 5.898074e+01
      vertex   3.881199e+02 5.066780e+02 5.889050e+01
      vertex   3.877207e+02 5.066632e+02 5.894521e+01
    endloop
  endfacet
  facet normal 9.402668e-02 5.440739e-01 8.337521e-01
    outer loop
      vertex   3.877207e+02 5.066632e+02 5.894521e+01
      vertex   3.881199e+02 5.066780e+02 5.889050e+01
      vertex   3.877393e+02 5.068063e+02 5.884972e+01
    endloop
  endfacet
  facet normal 8.353050e-02 5.455402e-01 8.339116e-01
    outer loop
      vertex   3.877207e+02 5.066632e+02 5.894521e+01
      vertex   3.877393e+02 5.068063e+02 5.884972e+01
      vertex   3.873277e+02 5.066072e+02 5.902120e+01
    endloop
  endfacet
  facet normal 3.601841e-02 6.083664e-01 7.928386e-01
    outer loop
      vertex   3.873277e+02 5.066072e+02 5.902120e+01
      vertex   3.877393e+02 5.068063e+02 5.884972e+01
      vertex   3.873277e+02 5.068143e+02 5.886228e+01
    endloop
  endfacet
  facet normal 3.572203e-02 3.991260e-01 9.162000e-01
    outer loop
      vertex   3.873277e+02 5.068143e+02 5.886228e+01
      vertex   3.877393e+02 5.068063e+02 5.884972e+01
      vertex   3.877594e+02 5.069621e+02 5.878107e+01
    endloop
  endfacet
  facet normal 4.275680e-02 3.823335e-01 9.230347e-01
    outer loop
      vertex   3.873277e+02 5.068143e+02 5.886228e+01
      vertex   3.877594e+02 5.069621e+02 5.878107e+01
      vertex   3.873277e+02 5.070555e+02 5.876238e+01
    endloop
  endfacet
  facet normal 1.015706e-02 2.411551e-01 9.704334e-01
    outer loop
      vertex   3.873277e+02 5.070555e+02 5.876238e+01
      vertex   3.877594e+02 5.069621e+02 5.878107e+01
      vertex   3.877800e+02 5.071224e+02 5.874103e+01
    endloop
  endfacet
  facet normal 4.226214e-02 6.874317e-01 7.250183e-01
    outer loop
      vertex   3.877207e+02 5.066632e+02 5.894521e+01
      vertex   3.873277e+02 5.066072e+02 5.902120e+01
      vertex   3.877044e+02 5.065377e+02 5.906518e+01
    endloop
  endfacet
  facet normal 7.517621e-02 7.911084e-01 6.070388e-01
    outer loop
      vertex   3.877044e+02 5.065377e+02 5.906518e+01
      vertex   3.873277e+02 5.066072e+02 5.902120e+01
      vertex   3.873277e+02 5.064483e+02 5.922831e+01
    endloop
  endfacet
  facet normal 6.836181e-02 7.999561e-01 5.961517e-01
    outer loop
      vertex   3.877044e+02 5.065377e+02 5.906518e+01
      vertex   3.873277e+02 5.064483e+02 5.922831e+01
      vertex   3.876912e+02 5.064366e+02 5.920233e+01
    endloop
  endfacet
  facet normal 5.700427e-02 9.223772e-01 3.820612e-01
    outer loop
      vertex   3.876912e+02 5.064366e+02 5.920233e+01
      vertex   3.873277e+02 5.064483e+02 5.922831e+01
      vertex   3.873277e+02 5.063484e+02 5.946949e+01
    endloop
  endfacet
  facet normal 1.187353e-01 8.834652e-01 4.532010e-01
    outer loop
      vertex   3.876912e+02 5.064366e+02 5.920233e+01
      vertex   3.873277e+02 5.063484e+02 5.946949e+01
      vertex   3.876814e+02 5.063620e+02 5.935026e+01
    endloop
  endfacet
  facet normal 5.789173e-03 9.914282e-01 1.305240e-01
    outer loop
      vertex   3.876814e+02 5.063620e+02 5.935026e+01
      vertex   3.873277e+02 5.063484e+02 5.946949e+01
      vertex   3.873277e+02 5.063143e+02 5.972831e+01
    endloop
  endfacet
  facet normal 1.641262e-01 9.478679e-01 2.731467e-01
    outer loop
      vertex   3.876814e+02 5.063620e+02 5.935026e+01
      vertex   3.873277e+02 5.063143e+02 5.972831e+01
      vertex   3.878646e+02 5.063143e+02 5.940568e+01
    endloop
  endfacet
  facet normal 1.155563e-01 9.090441e-01 4.003569e-01
    outer loop
      vertex   3.876814e+02 5.063620e+02 5.935026e+01
      vertex   3.878646e+02 5.063143e+02 5.940568e+01
      vertex   3.880693e+02 5.063781e+02 5.920173e+01
    endloop
  endfacet
  facet normal 1.422839e-01 8.949924e-01 4.227811e-01
    outer loop
      vertex   3.880693e+02 5.063781e+02 5.920173e+01
      vertex   3.878646e+02 5.063143e+02 5.940568e+01
      vertex   3.884583e+02 5.063143e+02 5.920588e+01
    endloop
  endfacet
  facet normal 1.284454e-01 8.194602e-01 5.585578e-01
    outer loop
      vertex   3.880693e+02 5.063781e+02 5.920173e+01
      vertex   3.884583e+02 5.063143e+02 5.920588e+01
      vertex   3.883880e+02 5.063839e+02 5.912001e+01
    endloop
  endfacet
  facet normal 9.600372e-02 8.104806e-01 5.778447e-01
    outer loop
      vertex   3.883880e+02 5.063839e+02 5.912001e+01
      vertex   3.884583e+02 5.063143e+02 5.920588e+01
      vertex   3.885576e+02 5.063854e+02 5.908965e+01
    endloop
  endfacet
  facet normal 1.110354e-01 7.444196e-01 6.584152e-01
    outer loop
      vertex   3.883880e+02 5.063839e+02 5.912001e+01
      vertex   3.885576e+02 5.063854e+02 5.908965e+01
      vertex   3.884004e+02 5.064682e+02 5.902252e+01
    endloop
  endfacet
  facet normal 6.062818e-02 8.275671e-01 5.580832e-01
    outer loop
      vertex   3.884583e+02 5.063143e+02 5.920588e+01
      vertex   3.890811e+02 5.063143e+02 5.913823e+01
      vertex   3.885576e+02 5.063854e+02 5.908965e+01
    endloop
  endfacet
  facet normal -5.714806e-02 9.223696e-01 3.820580e-01
    outer loop
      vertex   3.908344e+02 5.063484e+02 5.946949e+01
      vertex   3.908344e+02 5.064483e+02 5.922831e+01
      vertex   3.904767e+02 5.064360e+02 5.920443e+01
    endloop
  endfacet
  facet normal -6.716089e-02 8.014442e-01 5.942866e-01
    outer loop
      vertex   3.904767e+02 5.064360e+02 5.920443e+01
      vertex   3.908344e+02 5.064483e+02 5.922831e+01
      vertex   3.904636e+02 5.065370e+02 5.906671e+01
    endloop
  endfacet
  facet normal -7.852955e-02 8.002556e-01 5.944949e-01
    outer loop
      vertex   3.904767e+02 5.064360e+02 5.920443e+01
      vertex   3.904636e+02 5.065370e+02 5.906671e+01
      vertex   3.900722e+02 5.065612e+02 5.898253e+01
    endloop
  endfacet
  facet normal -1.339165e-01 5.943360e-01 7.929887e-01
    outer loop
      vertex   3.900722e+02 5.065612e+02 5.898253e+01
      vertex   3.904636e+02 5.065370e+02 5.906671e+01
      vertex   3.900525e+02 5.066780e+02 5.889166e+01
    endloop
  endfacet
  facet normal -7.342537e-02 6.046340e-01 7.931119e-01
    outer loop
      vertex   3.900722e+02 5.065612e+02 5.898253e+01
      vertex   3.900525e+02 5.066780e+02 5.889166e+01
      vertex   3.895843e+02 5.066739e+02 5.885141e+01
    endloop
  endfacet
  facet normal -8.144190e-02 4.168607e-01 9.053145e-01
    outer loop
      vertex   3.895843e+02 5.066739e+02 5.885141e+01
      vertex   3.900525e+02 5.066780e+02 5.889166e+01
      vertex   3.895701e+02 5.067883e+02 5.879745e+01
    endloop
  endfacet
  facet normal -2.459098e-02 4.239149e-01 9.053681e-01
    outer loop
      vertex   3.895843e+02 5.066739e+02 5.885141e+01
      vertex   3.895701e+02 5.067883e+02 5.879745e+01
      vertex   3.890891e+02 5.067780e+02 5.878920e+01
    endloop
  endfacet
  facet normal -2.256437e-02 2.871275e-01 9.576266e-01
    outer loop
      vertex   3.890891e+02 5.067780e+02 5.878920e+01
      vertex   3.895701e+02 5.067883e+02 5.879745e+01
      vertex   3.890888e+02 5.068918e+02 5.875508e+01
    endloop
  endfacet
  facet normal 1.647490e-02 2.872434e-01 9.577159e-01
    outer loop
      vertex   3.890891e+02 5.067780e+02 5.878920e+01
      vertex   3.890888e+02 5.068918e+02 5.875508e+01
      vertex   3.886207e+02 5.069074e+02 5.875846e+01
    endloop
  endfacet
  facet normal 1.317522e-02 1.826243e-01 9.830945e-01
    outer loop
      vertex   3.886207e+02 5.069074e+02 5.875846e+01
      vertex   3.890888e+02 5.068918e+02 5.875508e+01
      vertex   3.886354e+02 5.070289e+02 5.873570e+01
    endloop
  endfacet
  facet normal 2.249194e-02 1.815053e-01 9.831327e-01
    outer loop
      vertex   3.886207e+02 5.069074e+02 5.875846e+01
      vertex   3.886354e+02 5.070289e+02 5.873570e+01
      vertex   3.884852e+02 5.070441e+02 5.873632e+01
    endloop
  endfacet
  facet normal 1.259945e-02 8.352138e-02 9.964263e-01
    outer loop
      vertex   3.884852e+02 5.070441e+02 5.873632e+01
      vertex   3.886354e+02 5.070289e+02 5.873570e+01
      vertex   3.873277e+02 5.073143e+02 5.872831e+01
    endloop
  endfacet
  facet normal -7.519100e-02 7.911075e-01 6.070381e-01
    outer loop
      vertex   3.908344e+02 5.064483e+02 5.922831e+01
      vertex   3.908344e+02 5.066072e+02 5.902120e+01
      vertex   3.904636e+02 5.065370e+02 5.906671e+01
    endloop
  endfacet
  facet normal -4.152264e-02 6.888364e-01 7.237267e-01
    outer loop
      vertex   3.904636e+02 5.065370e+02 5.906671e+01
      vertex   3.908344e+02 5.066072e+02 5.902120e+01
      vertex   3.904474e+02 5.066627e+02 5.894621e+01
    endloop
  endfacet
  facet normal -7.350786e-02 6.854041e-01 7.244431e-01
    outer loop
      vertex   3.904636e+02 5.065370e+02 5.906671e+01
      vertex   3.904474e+02 5.066627e+02 5.894621e+01
      vertex   3.900525e+02 5.066780e+02 5.889166e+01
    endloop
  endfacet
  facet normal -1.024628e-01 4.737107e-01 8.746997e-01
    outer loop
      vertex   3.900525e+02 5.066780e+02 5.889166e+01
      vertex   3.904474e+02 5.066627e+02 5.894621e+01
      vertex   3.900309e+02 5.068058e+02 5.881993e+01
    endloop
  endfacet
  facet normal -6.085389e-02 4.807522e-01 8.747423e-01
    outer loop
      vertex   3.900525e+02 5.066780e+02 5.889166e+01
      vertex   3.900309e+02 5.068058e+02 5.881993e+01
      vertex   3.895701e+02 5.067883e+02 5.879745e+01
    endloop
  endfacet
  facet normal -5.780792e-02 3.006903e-01 9.519683e-01
    outer loop
      vertex   3.895701e+02 5.067883e+02 5.879745e+01
      vertex   3.900309e+02 5.068058e+02 5.881993e+01
      vertex   3.895553e+02 5.069083e+02 5.875867e+01
    endloop
  endfacet
  facet normal -1.809504e-02 3.056061e-01 9.519861e-01
    outer loop
      vertex   3.895701e+02 5.067883e+02 5.879745e+01
      vertex   3.895553e+02 5.069083e+02 5.875867e+01
      vertex   3.890888e+02 5.068918e+02 5.875508e+01
    endloop
  endfacet
  facet normal -1.364895e-02 1.724356e-01 9.849262e-01
    outer loop
      vertex   3.890888e+02 5.068918e+02 5.875508e+01
      vertex   3.895553e+02 5.069083e+02 5.875867e+01
      vertex   3.890885e+02 5.070072e+02 5.873489e+01
    endloop
  endfacet
  facet normal 1.003355e-02 1.724955e-01 9.849592e-01
    outer loop
      vertex   3.890888e+02 5.068918e+02 5.875508e+01
      vertex   3.890885e+02 5.070072e+02 5.873489e+01
      vertex   3.886354e+02 5.070289e+02 5.873570e+01
    endloop
  endfacet
  facet normal 4.539681e-03 5.736242e-02 9.983431e-01
    outer loop
      vertex   3.886354e+02 5.070289e+02 5.873570e+01
      vertex   3.890885e+02 5.070072e+02 5.873489e+01
      vertex   3.890882e+02 5.071217e+02 5.872831e+01
    endloop
  endfacet
  facet normal 5.673920e-03 5.185088e-02 9.986387e-01
    outer loop
      vertex   3.886354e+02 5.070289e+02 5.873570e+01
      vertex   3.890882e+02 5.071217e+02 5.872831e+01
      vertex   3.873277e+02 5.073143e+02 5.872831e+01
    endloop
  endfacet
  facet normal -8.307328e-02 5.468097e-01 8.331254e-01
    outer loop
      vertex   3.904474e+02 5.066627e+02 5.894621e+01
      vertex   3.908344e+02 5.066072e+02 5.902120e+01
      vertex   3.904290e+02 5.068060e+02 5.885027e+01
    endloop
  endfacet
  facet normal -3.589847e-02 6.083690e-01 7.928420e-01
    outer loop
      vertex   3.904290e+02 5.068060e+02 5.885027e+01
      vertex   3.908344e+02 5.066072e+02 5.902120e+01
      vertex   3.908344e+02 5.068143e+02 5.886228e+01
    endloop
  endfacet
  facet normal -3.529414e-02 4.000618e-01 9.158083e-01
    outer loop
      vertex   3.904290e+02 5.068060e+02 5.885027e+01
      vertex   3.908344e+02 5.068143e+02 5.886228e+01
      vertex   3.904090e+02 5.069621e+02 5.878131e+01
    endloop
  endfacet
  facet normal -4.283069e-02 3.823323e-01 9.230317e-01
    outer loop
      vertex   3.904090e+02 5.069621e+02 5.878131e+01
      vertex   3.908344e+02 5.068143e+02 5.886228e+01
      vertex   3.908344e+02 5.070555e+02 5.876238e+01
    endloop
  endfacet
  facet normal -9.869587e-03 2.417069e-01 9.702991e-01
    outer loop
      vertex   3.904090e+02 5.069621e+02 5.878131e+01
      vertex   3.908344e+02 5.070555e+02 5.876238e+01
      vertex   3.903886e+02 5.071228e+02 5.874108e+01
    endloop
  endfacet
  facet normal -2.764876e-02 1.304763e-01 9.910658e-01
    outer loop
      vertex   3.903886e+02 5.071228e+02 5.874108e+01
      vertex   3.908344e+02 5.070555e+02 5.876238e+01
      vertex   3.908344e+02 5.073143e+02 5.872831e+01
    endloop
  endfacet
  facet normal -1.893523e-02 1.103677e-01 9.937104e-01
    outer loop
      vertex   3.903886e+02 5.071228e+02 5.874108e+01
      vertex   3.908344e+02 5.073143e+02 5.872831e+01
      vertex   3.899846e+02 5.070807e+02 5.873806e+01
    endloop
  endfacet
  facet normal -7.673174e-03 6.955191e-02 9.975488e-01
    outer loop
      vertex   3.899846e+02 5.070807e+02 5.873806e+01
      vertex   3.908344e+02 5.073143e+02 5.872831e+01
      vertex   3.890882e+02 5.071217e+02 5.872831e+01
    endloop
  endfacet
  facet normal -9.244561e-03 3.556634e-02 9.993246e-01
    outer loop
      vertex   3.899846e+02 5.070807e+02 5.873806e+01
      vertex   3.890882e+02 5.071217e+02 5.872831e+01
      vertex   3.895402e+02 5.070301e+02 5.873575e+01
    endloop
  endfacet
  facet normal -4.819387e-03 5.733543e-02 9.983433e-01
    outer loop
      vertex   3.895402e+02 5.070301e+02 5.873575e+01
      vertex   3.890882e+02 5.071217e+02 5.872831e+01
      vertex   3.890885e+02 5.070072e+02 5.873489e+01
    endloop
  endfacet
  facet normal -1.120398e-02 1.835016e-01 9.829556e-01
    outer loop
      vertex   3.895402e+02 5.070301e+02 5.873575e+01
      vertex   3.890885e+02 5.070072e+02 5.873489e+01
      vertex   3.895553e+02 5.069083e+02 5.875867e+01
    endloop
  endfacet
  facet normal 2.911987e-02 2.076204e-01 9.777759e-01
    outer loop
      vertex   3.881876e+02 5.070795e+02 5.873799e+01
      vertex   3.877800e+02 5.071224e+02 5.874103e+01
      vertex   3.881643e+02 5.069410e+02 5.876809e+01
    endloop
  endfacet
  facet normal 4.344347e-02 2.368975e-01 9.705628e-01
    outer loop
      vertex   3.881643e+02 5.069410e+02 5.876809e+01
      vertex   3.877800e+02 5.071224e+02 5.874103e+01
      vertex   3.877594e+02 5.069621e+02 5.878107e+01
    endloop
  endfacet
  facet normal 4.802672e-02 3.457418e-01 9.370998e-01
    outer loop
      vertex   3.881643e+02 5.069410e+02 5.876809e+01
      vertex   3.877594e+02 5.069621e+02 5.878107e+01
      vertex   3.881414e+02 5.068055e+02 5.881928e+01
    endloop
  endfacet
  facet normal 7.017549e-02 3.946518e-01 9.161470e-01
    outer loop
      vertex   3.881414e+02 5.068055e+02 5.881928e+01
      vertex   3.877594e+02 5.069621e+02 5.878107e+01
      vertex   3.877393e+02 5.068063e+02 5.884972e+01
    endloop
  endfacet
  facet normal 6.729363e-02 4.780971e-01 8.757253e-01
    outer loop
      vertex   3.881414e+02 5.068055e+02 5.881928e+01
      vertex   3.877393e+02 5.068063e+02 5.884972e+01
      vertex   3.881199e+02 5.066780e+02 5.889050e+01
    endloop
  endfacet
  facet normal -3.214353e-02 2.389189e-01 9.705074e-01
    outer loop
      vertex   3.904090e+02 5.069621e+02 5.878131e+01
      vertex   3.903886e+02 5.071228e+02 5.874108e+01
      vertex   3.899846e+02 5.070807e+02 5.873806e+01
    endloop
  endfacet
  facet normal -2.881795e-02 2.083950e-01 9.776201e-01
    outer loop
      vertex   3.899846e+02 5.070807e+02 5.873806e+01
      vertex   3.895402e+02 5.070301e+02 5.873575e+01
      vertex   3.900080e+02 5.069418e+02 5.876836e+01
    endloop
  endfacet
  facet normal -3.443236e-02 1.806283e-01 9.829485e-01
    outer loop
      vertex   3.900080e+02 5.069418e+02 5.876836e+01
      vertex   3.895402e+02 5.070301e+02 5.873575e+01
      vertex   3.895553e+02 5.069083e+02 5.875867e+01
    endloop
  endfacet
  facet normal -4.578491e-02 3.473140e-01 9.366305e-01
    outer loop
      vertex   3.900080e+02 5.069418e+02 5.876836e+01
      vertex   3.895553e+02 5.069083e+02 5.875867e+01
      vertex   3.900309e+02 5.068058e+02 5.881993e+01
    endloop
  endfacet
  facet normal 3.845039e-02 2.060488e-01 9.777860e-01
    outer loop
      vertex   3.881876e+02 5.070795e+02 5.873799e+01
      vertex   3.881643e+02 5.069410e+02 5.876809e+01
      vertex   3.884666e+02 5.069180e+02 5.876106e+01
    endloop
  endfacet
  facet normal 4.598581e-02 3.138235e-01 9.483671e-01
    outer loop
      vertex   3.884666e+02 5.069180e+02 5.876106e+01
      vertex   3.881643e+02 5.069410e+02 5.876809e+01
      vertex   3.884484e+02 5.067940e+02 5.880297e+01
    endloop
  endfacet
  facet normal 4.830019e-02 3.134821e-01 9.483649e-01
    outer loop
      vertex   3.884666e+02 5.069180e+02 5.876106e+01
      vertex   3.884484e+02 5.067940e+02 5.880297e+01
      vertex   3.886063e+02 5.067878e+02 5.879698e+01
    endloop
  endfacet
  facet normal 5.087058e-02 4.194377e-01 9.063577e-01
    outer loop
      vertex   3.886063e+02 5.067878e+02 5.879698e+01
      vertex   3.884484e+02 5.067940e+02 5.880297e+01
      vertex   3.885925e+02 5.066737e+02 5.885057e+01
    endloop
  endfacet
  facet normal 2.938812e-02 4.219365e-01 9.061489e-01
    outer loop
      vertex   3.886063e+02 5.067878e+02 5.879698e+01
      vertex   3.885925e+02 5.066737e+02 5.885057e+01
      vertex   3.890893e+02 5.066689e+02 5.883666e+01
    endloop
  endfacet
  facet normal 2.896128e-02 5.052220e-01 8.625033e-01
    outer loop
      vertex   3.890893e+02 5.066689e+02 5.883666e+01
      vertex   3.885925e+02 5.066737e+02 5.885057e+01
      vertex   3.890896e+02 5.065654e+02 5.889727e+01
    endloop
  endfacet
  facet normal -3.981996e-02 5.049162e-01 8.622494e-01
    outer loop
      vertex   3.890893e+02 5.066689e+02 5.883666e+01
      vertex   3.890896e+02 5.065654e+02 5.889727e+01
      vertex   3.895976e+02 5.065664e+02 5.892017e+01
    endloop
  endfacet
  facet normal -3.584880e-02 6.388057e-01 7.685325e-01
    outer loop
      vertex   3.895976e+02 5.065664e+02 5.892017e+01
      vertex   3.890896e+02 5.065654e+02 5.889727e+01
      vertex   3.896095e+02 5.064698e+02 5.900106e+01
    endloop
  endfacet
  facet normal -1.274429e-01 6.272816e-01 7.682942e-01
    outer loop
      vertex   3.895976e+02 5.065664e+02 5.892017e+01
      vertex   3.896095e+02 5.064698e+02 5.900106e+01
      vertex   3.900892e+02 5.064605e+02 5.908817e+01
    endloop
  endfacet
  facet normal -9.025697e-02 8.076814e-01 5.826700e-01
    outer loop
      vertex   3.900892e+02 5.064605e+02 5.908817e+01
      vertex   3.896095e+02 5.064698e+02 5.900106e+01
      vertex   3.901031e+02 5.063778e+02 5.920493e+01
    endloop
  endfacet
  facet normal -1.914561e-01 7.901024e-01 5.823081e-01
    outer loop
      vertex   3.900892e+02 5.064605e+02 5.908817e+01
      vertex   3.901031e+02 5.063778e+02 5.920493e+01
      vertex   3.904864e+02 5.063617e+02 5.935291e+01
    endloop
  endfacet
  facet normal 6.261707e-02 3.432951e-01 9.371380e-01
    outer loop
      vertex   3.884484e+02 5.067940e+02 5.880297e+01
      vertex   3.881643e+02 5.069410e+02 5.876809e+01
      vertex   3.881414e+02 5.068055e+02 5.881928e+01
    endloop
  endfacet
  facet normal -4.977560e-02 3.982600e-01 9.159210e-01
    outer loop
      vertex   3.904290e+02 5.068060e+02 5.885027e+01
      vertex   3.904090e+02 5.069621e+02 5.878131e+01
      vertex   3.900080e+02 5.069418e+02 5.876836e+01
    endloop
  endfacet
  facet normal -4.201697e-02 2.061676e-01 9.776142e-01
    outer loop
      vertex   3.900080e+02 5.069418e+02 5.876836e+01
      vertex   3.904090e+02 5.069621e+02 5.878131e+01
      vertex   3.899846e+02 5.070807e+02 5.873806e+01
    endloop
  endfacet
  facet normal -7.163635e-02 3.429494e-01 9.366184e-01
    outer loop
      vertex   3.904290e+02 5.068060e+02 5.885027e+01
      vertex   3.900080e+02 5.069418e+02 5.876836e+01
      vertex   3.900309e+02 5.068058e+02 5.881993e+01
    endloop
  endfacet
  facet normal 6.397049e-02 4.349941e-01 8.981581e-01
    outer loop
      vertex   3.884484e+02 5.067940e+02 5.880297e+01
      vertex   3.881414e+02 5.068055e+02 5.881928e+01
      vertex   3.884311e+02 5.066762e+02 5.886128e+01
    endloop
  endfacet
  facet normal 8.512922e-02 4.751251e-01 8.757906e-01
    outer loop
      vertex   3.884311e+02 5.066762e+02 5.886128e+01
      vertex   3.881414e+02 5.068055e+02 5.881928e+01
      vertex   3.881199e+02 5.066780e+02 5.889050e+01
    endloop
  endfacet
  facet normal 8.144350e-02 5.490923e-01 8.317840e-01
    outer loop
      vertex   3.884311e+02 5.066762e+02 5.886128e+01
      vertex   3.881199e+02 5.066780e+02 5.889050e+01
      vertex   3.884149e+02 5.065662e+02 5.893548e+01
    endloop
  endfacet
  facet normal -6.389886e-02 5.493033e-01 8.331763e-01
    outer loop
      vertex   3.904474e+02 5.066627e+02 5.894621e+01
      vertex   3.904290e+02 5.068060e+02 5.885027e+01
      vertex   3.900309e+02 5.068058e+02 5.881993e+01
    endloop
  endfacet
  facet normal 1.139648e-01 6.786409e-01 7.255746e-01
    outer loop
      vertex   3.877207e+02 5.066632e+02 5.894521e+01
      vertex   3.877044e+02 5.065377e+02 5.906518e+01
      vertex   3.881002e+02 5.065615e+02 5.898074e+01
    endloop
  endfacet
  facet normal 1.060062e-01 7.092868e-01 6.969038e-01
    outer loop
      vertex   3.881002e+02 5.065615e+02 5.898074e+01
      vertex   3.877044e+02 5.065377e+02 5.906518e+01
      vertex   3.880833e+02 5.064609e+02 5.908568e+01
    endloop
  endfacet
  facet normal 1.224392e-01 7.065769e-01 6.969632e-01
    outer loop
      vertex   3.881002e+02 5.065615e+02 5.898074e+01
      vertex   3.880833e+02 5.064609e+02 5.908568e+01
      vertex   3.884004e+02 5.064682e+02 5.902252e+01
    endloop
  endfacet
  facet normal 1.138962e-01 7.439922e-01 6.584097e-01
    outer loop
      vertex   3.884004e+02 5.064682e+02 5.902252e+01
      vertex   3.880833e+02 5.064609e+02 5.908568e+01
      vertex   3.883880e+02 5.063839e+02 5.912001e+01
    endloop
  endfacet
  facet normal 8.315313e-02 5.488392e-01 8.317818e-01
    outer loop
      vertex   3.884149e+02 5.065662e+02 5.893548e+01
      vertex   3.885795e+02 5.065664e+02 5.891886e+01
      vertex   3.884311e+02 5.066762e+02 5.886128e+01
    endloop
  endfacet
  facet normal 6.425239e-02 5.303807e-01 8.453212e-01
    outer loop
      vertex   3.884311e+02 5.066762e+02 5.886128e+01
      vertex   3.885795e+02 5.065664e+02 5.891886e+01
      vertex   3.885925e+02 5.066737e+02 5.885057e+01
    endloop
  endfacet
  facet normal 6.628823e-02 4.346518e-01 8.981557e-01
    outer loop
      vertex   3.884311e+02 5.066762e+02 5.886128e+01
      vertex   3.885925e+02 5.066737e+02 5.885057e+01
      vertex   3.884484e+02 5.067940e+02 5.880297e+01
    endloop
  endfacet
  facet normal 3.676206e-02 5.334999e-01 8.450008e-01
    outer loop
      vertex   3.885925e+02 5.066737e+02 5.885057e+01
      vertex   3.885795e+02 5.065664e+02 5.891886e+01
      vertex   3.890896e+02 5.065654e+02 5.889727e+01
    endloop
  endfacet
  facet normal 3.482399e-02 6.041459e-01 7.961124e-01
    outer loop
      vertex   3.890896e+02 5.065654e+02 5.889727e+01
      vertex   3.885795e+02 5.065664e+02 5.891886e+01
      vertex   3.890898e+02 5.064711e+02 5.896887e+01
    endloop
  endfacet
  facet normal -4.774696e-02 6.037036e-01 7.957778e-01
    outer loop
      vertex   3.890896e+02 5.065654e+02 5.889727e+01
      vertex   3.890898e+02 5.064711e+02 5.896887e+01
      vertex   3.896095e+02 5.064698e+02 5.900106e+01
    endloop
  endfacet
  facet normal -4.039651e-02 7.300034e-01 6.822486e-01
    outer loop
      vertex   3.896095e+02 5.064698e+02 5.900106e+01
      vertex   3.890898e+02 5.064711e+02 5.896887e+01
      vertex   3.896199e+02 5.063853e+02 5.909204e+01
    endloop
  endfacet
  facet normal -1.482560e-01 7.162766e-01 6.818856e-01
    outer loop
      vertex   3.896095e+02 5.064698e+02 5.900106e+01
      vertex   3.896199e+02 5.063853e+02 5.909204e+01
      vertex   3.901031e+02 5.063778e+02 5.920493e+01
    endloop
  endfacet
  facet normal 4.331972e-02 6.361225e-01 7.703710e-01
    outer loop
      vertex   3.890898e+02 5.064711e+02 5.896887e+01
      vertex   3.885795e+02 5.065664e+02 5.891886e+01
      vertex   3.885678e+02 5.064699e+02 5.899922e+01
    endloop
  endfacet
  facet normal 7.687531e-02 6.324228e-01 7.707994e-01
    outer loop
      vertex   3.885678e+02 5.064699e+02 5.899922e+01
      vertex   3.885795e+02 5.065664e+02 5.891886e+01
      vertex   3.884149e+02 5.065662e+02 5.893548e+01
    endloop
  endfacet
  facet normal 1.282876e-01 7.924029e-01 5.963555e-01
    outer loop
      vertex   3.877044e+02 5.065377e+02 5.906518e+01
      vertex   3.876912e+02 5.064366e+02 5.920233e+01
      vertex   3.880833e+02 5.064609e+02 5.908568e+01
    endloop
  endfacet
  facet normal 1.247222e-01 8.005964e-01 5.860800e-01
    outer loop
      vertex   3.880833e+02 5.064609e+02 5.908568e+01
      vertex   3.876912e+02 5.064366e+02 5.920233e+01
      vertex   3.880693e+02 5.063781e+02 5.920173e+01
    endloop
  endfacet
  facet normal 1.358828e-01 7.987559e-01 5.861100e-01
    outer loop
      vertex   3.880833e+02 5.064609e+02 5.908568e+01
      vertex   3.880693e+02 5.063781e+02 5.920173e+01
      vertex   3.883880e+02 5.063839e+02 5.912001e+01
    endloop
  endfacet
  facet normal 1.369214e-01 8.808795e-01 4.531046e-01
    outer loop
      vertex   3.876814e+02 5.063620e+02 5.935026e+01
      vertex   3.880693e+02 5.063781e+02 5.920173e+01
      vertex   3.876912e+02 5.064366e+02 5.920233e+01
    endloop
  endfacet
  facet normal -5.499424e-02 6.927110e-01 7.191155e-01
    outer loop
      vertex   3.896199e+02 5.063853e+02 5.909204e+01
      vertex   3.890898e+02 5.064711e+02 5.896887e+01
      vertex   3.890900e+02 5.063870e+02 5.904991e+01
    endloop
  endfacet
  facet normal 4.022971e-02 6.933120e-01 7.195137e-01
    outer loop
      vertex   3.890900e+02 5.063870e+02 5.904991e+01
      vertex   3.890898e+02 5.064711e+02 5.896887e+01
      vertex   3.885678e+02 5.064699e+02 5.899922e+01
    endloop
  endfacet
  facet normal 6.205642e-14 9.987955e-01 4.906767e-02
    outer loop
      vertex   3.926811e+02 5.063143e+02 5.972831e+01
      vertex   3.926763e+02 5.063191e+02 5.963029e+01
      vertex   3.908344e+02 5.063143e+02 5.972831e+01
    endloop
  endfacet
  facet normal 4.354188e-03 9.914355e-01 1.305250e-01
    outer loop
      vertex   3.908344e+02 5.063143e+02 5.972831e+01
      vertex   3.926763e+02 5.063191e+02 5.963029e+01
      vertex   3.908344e+02 5.063484e+02 5.946949e+01
    endloop
  endfacet
  facet normal 2.941738e-03 9.892355e-01 1.463029e-01
    outer loop
      vertex   3.908344e+02 5.063484e+02 5.946949e+01
      vertex   3.926763e+02 5.063191e+02 5.963029e+01
      vertex   3.926619e+02 5.063335e+02 5.953322e+01
    endloop
  endfacet
  facet normal -2.366558e-03 9.567380e-01 2.909412e-01
    outer loop
      vertex   3.908344e+02 5.063484e+02 5.946949e+01
      vertex   3.926619e+02 5.063335e+02 5.953322e+01
      vertex   3.926050e+02 5.063904e+02 5.934563e+01
    endloop
  endfacet
  facet normal 4.831938e-03 9.238687e-01 3.826790e-01
    outer loop
      vertex   3.908344e+02 5.063484e+02 5.946949e+01
      vertex   3.926050e+02 5.063904e+02 5.934563e+01
      vertex   3.908344e+02 5.064483e+02 5.922831e+01
    endloop
  endfacet
  facet normal -2.504458e-03 8.813614e-01 4.724361e-01
    outer loop
      vertex   3.908344e+02 5.064483e+02 5.922831e+01
      vertex   3.926050e+02 5.063904e+02 5.934563e+01
      vertex   3.925125e+02 5.064828e+02 5.917274e+01
    endloop
  endfacet
  facet normal 3.822168e-03 7.933475e-01 6.087570e-01
    outer loop
      vertex   3.908344e+02 5.064483e+02 5.922831e+01
      vertex   3.925125e+02 5.064828e+02 5.917274e+01
      vertex   3.908344e+02 5.066072e+02 5.902120e+01
    endloop
  endfacet
  facet normal 9.354460e-14 7.730105e-01 6.343933e-01
    outer loop
      vertex   3.908344e+02 5.066072e+02 5.902120e+01
      vertex   3.925125e+02 5.064828e+02 5.917274e+01
      vertex   3.923882e+02 5.066072e+02 5.902120e+01
    endloop
  endfacet
  facet normal 8.023250e-14 6.343933e-01 7.730105e-01
    outer loop
      vertex   3.908344e+02 5.066072e+02 5.902120e+01
      vertex   3.923882e+02 5.066072e+02 5.902120e+01
      vertex   3.922366e+02 5.067587e+02 5.889684e+01
    endloop
  endfacet
  facet normal 4.574205e-03 6.087551e-01 7.933450e-01
    outer loop
      vertex   3.908344e+02 5.066072e+02 5.902120e+01
      vertex   3.922366e+02 5.067587e+02 5.889684e+01
      vertex   3.908344e+02 5.068143e+02 5.886228e+01
    endloop
  endfacet
  facet normal -3.182918e-03 4.689169e-01 8.832366e-01
    outer loop
      vertex   3.908344e+02 5.068143e+02 5.886228e+01
      vertex   3.922366e+02 5.067587e+02 5.889684e+01
      vertex   3.920638e+02 5.069316e+02 5.880443e+01
    endloop
  endfacet
  facet normal 6.959059e-03 3.826742e-01 9.238572e-01
    outer loop
      vertex   3.908344e+02 5.068143e+02 5.886228e+01
      vertex   3.920638e+02 5.069316e+02 5.880443e+01
      vertex   3.908344e+02 5.070555e+02 5.876238e+01
    endloop
  endfacet
  facet normal -3.875871e-03 2.867312e-01 9.580032e-01
    outer loop
      vertex   3.908344e+02 5.070555e+02 5.876238e+01
      vertex   3.920638e+02 5.069316e+02 5.880443e+01
      vertex   3.918762e+02 5.071192e+02 5.874752e+01
    endloop
  endfacet
  facet normal 6.157009e-03 1.305237e-01 9.914261e-01
    outer loop
      vertex   3.908344e+02 5.070555e+02 5.876238e+01
      vertex   3.918762e+02 5.071192e+02 5.874752e+01
      vertex   3.908344e+02 5.073143e+02 5.872831e+01
    endloop
  endfacet
  facet normal 2.151384e-14 9.801714e-02 9.951847e-01
    outer loop
      vertex   3.908344e+02 5.073143e+02 5.872831e+01
      vertex   3.918762e+02 5.071192e+02 5.874752e+01
      vertex   3.916811e+02 5.073143e+02 5.872831e+01
    endloop
  endfacet
  facet normal -6.315935e-14 -1.000000e+00 -1.830848e-13
    outer loop
      vertex   3.926811e+02 5.023143e+02 5.872831e+01
      vertex   3.887315e+02 5.023143e+02 5.915937e+01
      vertex   3.854811e+02 5.023143e+02 5.872831e+01
    endloop
  endfacet
  facet normal -8.614577e-14 -1.000000e+00 -9.755255e-15
    outer loop
      vertex   3.854811e+02 5.023143e+02 5.872831e+01
      vertex   3.887315e+02 5.023143e+02 5.915937e+01
      vertex   3.880527e+02 5.023143e+02 5.932668e+01
    endloop
  endfacet
  facet normal -8.946318e-14 -1.000000e+00 4.502104e-15
    outer loop
      vertex   3.854811e+02 5.023143e+02 5.872831e+01
      vertex   3.880527e+02 5.023143e+02 5.932668e+01
      vertex   3.874337e+02 5.023143e+02 5.965157e+01
    endloop
  endfacet
  facet normal -1.289811e-13 -1.000000e+00 7.069684e-15
    outer loop
      vertex   3.926811e+02 5.023143e+02 6.676875e+01
      vertex   3.919811e+02 5.023143e+02 6.203823e+01
      vertex   3.926811e+02 5.023143e+02 5.872831e+01
    endloop
  endfacet
  facet normal 3.888856e-13 -1.000000e+00 1.165910e-13
    outer loop
      vertex   3.926811e+02 5.023143e+02 5.872831e+01
      vertex   3.919811e+02 5.023143e+02 6.203823e+01
      vertex   3.918968e+02 5.023143e+02 6.134421e+01
    endloop
  endfacet
  facet normal -1.280581e-13 -1.000000e+00 -3.839283e-14
    outer loop
      vertex   3.926811e+02 5.023143e+02 5.872831e+01
      vertex   3.918968e+02 5.023143e+02 6.134421e+01
      vertex   3.916489e+02 5.023143e+02 6.069053e+01
    endloop
  endfacet
  facet normal -8.120488e-14 -1.000000e+00 -9.757820e-28
    outer loop
      vertex   3.926811e+02 5.023143e+02 6.676875e+01
      vertex   3.919811e+02 5.023143e+02 6.676875e+01
      vertex   3.919811e+02 5.023143e+02 6.203823e+01
    endloop
  endfacet
  facet normal -2.381772e-14 -1.000000e+00 1.644019e-14
    outer loop
      vertex   3.916489e+02 5.023143e+02 6.069053e+01
      vertex   3.912518e+02 5.023143e+02 6.011517e+01
      vertex   3.926811e+02 5.023143e+02 5.872831e+01
    endloop
  endfacet
  facet normal -1.898093e-14 -1.000000e+00 2.142504e-14
    outer loop
      vertex   3.926811e+02 5.023143e+02 5.872831e+01
      vertex   3.912518e+02 5.023143e+02 6.011517e+01
      vertex   3.907285e+02 5.023143e+02 5.965157e+01
    endloop
  endfacet
  facet normal -5.883426e-14 -1.000000e+00 -6.286063e-14
    outer loop
      vertex   3.926811e+02 5.023143e+02 5.872831e+01
      vertex   3.907285e+02 5.023143e+02 5.965157e+01
      vertex   3.901094e+02 5.023143e+02 5.932668e+01
    endloop
  endfacet
  facet normal -6.340539e-14 -1.000000e+00 -8.250610e-14
    outer loop
      vertex   3.901094e+02 5.023143e+02 5.932668e+01
      vertex   3.894306e+02 5.023143e+02 5.915937e+01
      vertex   3.926811e+02 5.023143e+02 5.872831e+01
    endloop
  endfacet
  facet normal 4.020713e-27 -1.000000e+00 3.956035e-13
    outer loop
      vertex   3.926811e+02 5.023143e+02 5.872831e+01
      vertex   3.894306e+02 5.023143e+02 5.915937e+01
      vertex   3.887315e+02 5.023143e+02 5.915937e+01
    endloop
  endfacet
  facet normal -5.694280e-14 -1.000000e+00 -6.427513e-14
    outer loop
      vertex   3.874337e+02 5.023143e+02 5.965157e+01
      vertex   3.869104e+02 5.023143e+02 6.011517e+01
      vertex   3.854811e+02 5.023143e+02 5.872831e+01
    endloop
  endfacet
  facet normal -7.145317e-14 -1.000000e+00 -4.932056e-14
    outer loop
      vertex   3.854811e+02 5.023143e+02 5.872831e+01
      vertex   3.869104e+02 5.023143e+02 6.011517e+01
      vertex   3.865133e+02 5.023143e+02 6.069053e+01
    endloop
  endfacet
  facet normal -1.920583e-13 -1.000000e+00 1.412074e-14
    outer loop
      vertex   3.854811e+02 5.023143e+02 5.872831e+01
      vertex   3.865133e+02 5.023143e+02 6.069053e+01
      vertex   3.862653e+02 5.023143e+02 6.134421e+01
    endloop
  endfacet
  facet normal -1.031737e-13 -1.000000e+00 -1.252756e-14
    outer loop
      vertex   3.862653e+02 5.023143e+02 6.134421e+01
      vertex   3.861811e+02 5.023143e+02 6.203823e+01
      vertex   3.854811e+02 5.023143e+02 5.872831e+01
    endloop
  endfacet
  facet normal -1.624098e-13 -1.000000e+00 1.148186e-27
    outer loop
      vertex   3.854811e+02 5.023143e+02 5.872831e+01
      vertex   3.861811e+02 5.023143e+02 6.203823e+01
      vertex   3.854811e+02 5.023143e+02 6.676875e+01
    endloop
  endfacet
  facet normal -8.120488e-14 -1.000000e+00 1.201630e-14
    outer loop
      vertex   3.854811e+02 5.023143e+02 6.676875e+01
      vertex   3.861811e+02 5.023143e+02 6.203823e+01
      vertex   3.861811e+02 5.023143e+02 6.676875e+01
    endloop
  endfacet
  facet normal -9.868649e-15 1.017063e-11 -1.000000e+00
    outer loop
      vertex   3.926811e+02 5.023143e+02 5.872831e+01
      vertex   3.854811e+02 5.023143e+02 5.872831e+01
      vertex   3.930811e+02 5.027143e+02 5.872831e+01
    endloop
  endfacet
  facet normal -7.105427e-15 1.011813e-11 -1.000000e+00
    outer loop
      vertex   3.930811e+02 5.027143e+02 5.872831e+01
      vertex   3.854811e+02 5.023143e+02 5.872831e+01
      vertex   3.850811e+02 5.027143e+02 5.872831e+01
    endloop
  endfacet
  facet normal -7.105427e-15 -4.440892e-15 -1.000000e+00
    outer loop
      vertex   3.930811e+02 5.027143e+02 5.872831e+01
      vertex   3.850811e+02 5.027143e+02 5.872831e+01
      vertex   3.930811e+02 5.059143e+02 5.872831e+01
    endloop
  endfacet
  facet normal -9.904268e-15 2.556209e-15 -1.000000e+00
    outer loop
      vertex   3.930811e+02 5.059143e+02 5.872831e+01
      vertex   3.850811e+02 5.027143e+02 5.872831e+01
      vertex   3.890882e+02 5.071217e+02 5.872831e+01
    endloop
  endfacet
  facet normal -1.179815e-14 -3.707072e-15 -1.000000e+00
    outer loop
      vertex   3.930811e+02 5.059143e+02 5.872831e+01
      vertex   3.890882e+02 5.071217e+02 5.872831e+01
      vertex   3.908344e+02 5.073143e+02 5.872831e+01
    endloop
  endfacet
  facet normal -2.208340e-15 -4.440892e-15 -1.000000e+00
    outer loop
      vertex   3.850811e+02 5.027143e+02 5.872831e+01
      vertex   3.850811e+02 5.059143e+02 5.872831e+01
      vertex   3.890882e+02 5.071217e+02 5.872831e+01
    endloop
  endfacet
  facet normal -3.905567e-15 1.192125e-15 -1.000000e+00
    outer loop
      vertex   3.890882e+02 5.071217e+02 5.872831e+01
      vertex   3.850811e+02 5.059143e+02 5.872831e+01
      vertex   3.873277e+02 5.073143e+02 5.872831e+01
    endloop
  endfacet
  facet normal -8.392506e-15 8.392506e-15 -1.000000e+00
    outer loop
      vertex   3.873277e+02 5.073143e+02 5.872831e+01
      vertex   3.850811e+02 5.059143e+02 5.872831e+01
      vertex   3.864811e+02 5.073143e+02 5.872831e+01
    endloop
  endfacet
  facet normal -8.392506e-15 1.758105e-15 -1.000000e+00
    outer loop
      vertex   3.908344e+02 5.073143e+02 5.872831e+01
      vertex   3.916811e+02 5.073143e+02 5.872831e+01
      vertex   3.930811e+02 5.059143e+02 5.872831e+01
    endloop
  endfacet
endsolid
