solid ASCII
  facet normal -3.250981e-14 1.000000e+00 9.298449e-14
    outer loop
      vertex   1.395812e+02 5.063138e+02 1.028092e+02
      vertex   1.413297e+02 5.063138e+02 1.028092e+02
      vertex   1.400230e+02 5.063138e+02 1.023523e+02
    endloop
  endfacet
  facet normal -0.000000e+00 1.000000e+00 0.000000e+00
    outer loop
      vertex   1.400230e+02 5.063138e+02 1.023523e+02
      vertex   1.413297e+02 5.063138e+02 1.028092e+02
      vertex   1.403546e+02 5.063138e+02 1.018102e+02
    endloop
  endfacet
  facet normal -0.000000e+00 1.000000e+00 0.000000e+00
    outer loop
      vertex   1.403546e+02 5.063138e+02 1.018102e+02
      vertex   1.413297e+02 5.063138e+02 1.028092e+02
      vertex   1.405601e+02 5.063138e+02 1.012088e+02
    endloop
  endfacet
  facet normal -0.000000e+00 1.000000e+00 0.000000e+00
    outer loop
      vertex   1.405601e+02 5.063138e+02 1.012088e+02
      vertex   1.413297e+02 5.063138e+02 1.028092e+02
      vertex   1.413297e+02 5.063138e+02 9.996875e+01
    endloop
  endfacet
  facet normal 1.763128e-13 1.000000e+00 1.094239e-13
    outer loop
      vertex   1.405601e+02 5.063138e+02 1.012088e+02
      vertex   1.413297e+02 5.063138e+02 9.996875e+01
      vertex   1.406297e+02 5.063138e+02 1.005772e+02
    endloop
  endfacet
  facet normal 8.120488e-14 1.000000e+00 0.000000e+00
    outer loop
      vertex   1.406297e+02 5.063138e+02 1.005772e+02
      vertex   1.413297e+02 5.063138e+02 9.996875e+01
      vertex   1.406297e+02 5.063138e+02 9.996875e+01
    endloop
  endfacet
  facet normal -3.250981e-14 1.000000e+00 -9.298449e-14
    outer loop
      vertex   1.358782e+02 5.063138e+02 1.028092e+02
      vertex   1.354365e+02 5.063138e+02 1.023523e+02
      vertex   1.341297e+02 5.063138e+02 1.028092e+02
    endloop
  endfacet
  facet normal 0.000000e+00 1.000000e+00 0.000000e+00
    outer loop
      vertex   1.341297e+02 5.063138e+02 1.028092e+02
      vertex   1.354365e+02 5.063138e+02 1.023523e+02
      vertex   1.351049e+02 5.063138e+02 1.018102e+02
    endloop
  endfacet
  facet normal 0.000000e+00 1.000000e+00 0.000000e+00
    outer loop
      vertex   1.341297e+02 5.063138e+02 1.028092e+02
      vertex   1.351049e+02 5.063138e+02 1.018102e+02
      vertex   1.348994e+02 5.063138e+02 1.012088e+02
    endloop
  endfacet
  facet normal 0.000000e+00 1.000000e+00 0.000000e+00
    outer loop
      vertex   1.341297e+02 5.063138e+02 1.028092e+02
      vertex   1.348994e+02 5.063138e+02 1.012088e+02
      vertex   1.341297e+02 5.063138e+02 9.996875e+01
    endloop
  endfacet
  facet normal -1.763128e-13 1.000000e+00 1.094239e-13
    outer loop
      vertex   1.341297e+02 5.063138e+02 9.996875e+01
      vertex   1.348994e+02 5.063138e+02 1.012088e+02
      vertex   1.348297e+02 5.063138e+02 1.005772e+02
    endloop
  endfacet
  facet normal -8.120488e-14 1.000000e+00 -3.793412e-27
    outer loop
      vertex   1.341297e+02 5.063138e+02 9.996875e+01
      vertex   1.348297e+02 5.063138e+02 1.005772e+02
      vertex   1.348297e+02 5.063138e+02 9.996875e+01
    endloop
  endfacet
  facet normal 1.000000e+00 2.664535e-14 1.480125e-14
    outer loop
      vertex   1.417297e+02 5.059138e+02 9.996875e+01
      vertex   1.417297e+02 5.059138e+02 1.038092e+02
      vertex   1.417297e+02 5.027138e+02 9.996875e+01
    endloop
  endfacet
  facet normal 1.000000e+00 3.552714e-14 7.400626e-15
    outer loop
      vertex   1.417297e+02 5.027138e+02 9.996875e+01
      vertex   1.417297e+02 5.059138e+02 1.038092e+02
      vertex   1.417297e+02 5.027138e+02 1.038092e+02
    endloop
  endfacet
  facet normal 7.071068e-01 7.071068e-01 3.303185e-14
    outer loop
      vertex   1.348297e+02 5.063138e+02 9.996875e+01
      vertex   1.348297e+02 5.063138e+02 1.005772e+02
      vertex   1.352297e+02 5.059138e+02 9.996875e+01
    endloop
  endfacet
  facet normal 7.071068e-01 7.071068e-01 3.303185e-14
    outer loop
      vertex   1.352297e+02 5.059138e+02 9.996875e+01
      vertex   1.348297e+02 5.063138e+02 1.005772e+02
      vertex   1.352297e+02 5.059138e+02 1.005772e+02
    endloop
  endfacet
  facet normal 1.000000e+00 3.552714e-14 4.671408e-14
    outer loop
      vertex   1.352297e+02 5.059138e+02 9.996875e+01
      vertex   1.352297e+02 5.059138e+02 1.005772e+02
      vertex   1.352297e+02 5.027138e+02 9.996875e+01
    endloop
  endfacet
  facet normal 1.000000e+00 4.440892e-14 -0.000000e+00
    outer loop
      vertex   1.352297e+02 5.027138e+02 9.996875e+01
      vertex   1.352297e+02 5.059138e+02 1.005772e+02
      vertex   1.352297e+02 5.027138e+02 1.005772e+02
    endloop
  endfacet
  facet normal -9.914449e-01 -2.641740e-14 -1.305262e-01
    outer loop
      vertex   1.402297e+02 5.059138e+02 1.005772e+02
      vertex   1.402297e+02 5.027138e+02 1.005772e+02
      vertex   1.401446e+02 5.059138e+02 1.012242e+02
    endloop
  endfacet
  facet normal -9.914449e-01 -3.522320e-14 -1.305262e-01
    outer loop
      vertex   1.401446e+02 5.059138e+02 1.012242e+02
      vertex   1.402297e+02 5.027138e+02 1.005772e+02
      vertex   1.401446e+02 5.027138e+02 1.012242e+02
    endloop
  endfacet
  facet normal -9.238795e-01 -3.282279e-14 -3.826834e-01
    outer loop
      vertex   1.401446e+02 5.059138e+02 1.012242e+02
      vertex   1.401446e+02 5.027138e+02 1.012242e+02
      vertex   1.398948e+02 5.059138e+02 1.018272e+02
    endloop
  endfacet
  facet normal -9.238795e-01 -3.282279e-14 -3.826834e-01
    outer loop
      vertex   1.398948e+02 5.059138e+02 1.018272e+02
      vertex   1.401446e+02 5.027138e+02 1.012242e+02
      vertex   1.398948e+02 5.027138e+02 1.018272e+02
    endloop
  endfacet
  facet normal -7.933533e-01 -2.818557e-14 -6.087614e-01
    outer loop
      vertex   1.398948e+02 5.059138e+02 1.018272e+02
      vertex   1.398948e+02 5.027138e+02 1.018272e+02
      vertex   1.394975e+02 5.059138e+02 1.023449e+02
    endloop
  endfacet
  facet normal -7.933533e-01 -2.818557e-14 -6.087614e-01
    outer loop
      vertex   1.394975e+02 5.059138e+02 1.023449e+02
      vertex   1.398948e+02 5.027138e+02 1.018272e+02
      vertex   1.394975e+02 5.027138e+02 1.023449e+02
    endloop
  endfacet
  facet normal -6.087614e-01 -2.162755e-14 -7.933533e-01
    outer loop
      vertex   1.394975e+02 5.059138e+02 1.023449e+02
      vertex   1.394975e+02 5.027138e+02 1.023449e+02
      vertex   1.389797e+02 5.059138e+02 1.027422e+02
    endloop
  endfacet
  facet normal -6.087614e-01 -2.162755e-14 -7.933533e-01
    outer loop
      vertex   1.389797e+02 5.059138e+02 1.027422e+02
      vertex   1.394975e+02 5.027138e+02 1.023449e+02
      vertex   1.389797e+02 5.027138e+02 1.027422e+02
    endloop
  endfacet
  facet normal -3.826834e-01 -1.359565e-14 -9.238795e-01
    outer loop
      vertex   1.389797e+02 5.059138e+02 1.027422e+02
      vertex   1.389797e+02 5.027138e+02 1.027422e+02
      vertex   1.383768e+02 5.059138e+02 1.029920e+02
    endloop
  endfacet
  facet normal -3.826834e-01 -1.359565e-14 -9.238795e-01
    outer loop
      vertex   1.383768e+02 5.059138e+02 1.029920e+02
      vertex   1.389797e+02 5.027138e+02 1.027422e+02
      vertex   1.383768e+02 5.027138e+02 1.029920e+02
    endloop
  endfacet
  facet normal -1.305262e-01 -4.637222e-15 -9.914449e-01
    outer loop
      vertex   1.383768e+02 5.059138e+02 1.029920e+02
      vertex   1.383768e+02 5.027138e+02 1.029920e+02
      vertex   1.377297e+02 5.059138e+02 1.030772e+02
    endloop
  endfacet
  facet normal -1.305262e-01 -4.637222e-15 -9.914449e-01
    outer loop
      vertex   1.377297e+02 5.059138e+02 1.030772e+02
      vertex   1.383768e+02 5.027138e+02 1.029920e+02
      vertex   1.377297e+02 5.027138e+02 1.030772e+02
    endloop
  endfacet
  facet normal 1.305262e-01 4.637222e-15 -9.914449e-01
    outer loop
      vertex   1.377297e+02 5.059138e+02 1.030772e+02
      vertex   1.377297e+02 5.027138e+02 1.030772e+02
      vertex   1.370827e+02 5.059138e+02 1.029920e+02
    endloop
  endfacet
  facet normal 1.305262e-01 1.344302e-14 -9.914449e-01
    outer loop
      vertex   1.370827e+02 5.059138e+02 1.029920e+02
      vertex   1.377297e+02 5.027138e+02 1.030772e+02
      vertex   1.370827e+02 5.027138e+02 1.029920e+02
    endloop
  endfacet
  facet normal 3.826834e-01 2.180135e-14 -9.238795e-01
    outer loop
      vertex   1.370827e+02 5.059138e+02 1.029920e+02
      vertex   1.370827e+02 5.027138e+02 1.029920e+02
      vertex   1.364797e+02 5.059138e+02 1.027422e+02
    endloop
  endfacet
  facet normal 3.826834e-01 1.359565e-14 -9.238795e-01
    outer loop
      vertex   1.364797e+02 5.059138e+02 1.027422e+02
      vertex   1.370827e+02 5.027138e+02 1.029920e+02
      vertex   1.364797e+02 5.027138e+02 1.027422e+02
    endloop
  endfacet
  facet normal 6.087614e-01 2.162755e-14 -7.933533e-01
    outer loop
      vertex   1.364797e+02 5.059138e+02 1.027422e+02
      vertex   1.364797e+02 5.027138e+02 1.027422e+02
      vertex   1.359620e+02 5.059138e+02 1.023449e+02
    endloop
  endfacet
  facet normal 6.087614e-01 2.703444e-14 -7.933533e-01
    outer loop
      vertex   1.359620e+02 5.059138e+02 1.023449e+02
      vertex   1.364797e+02 5.027138e+02 1.027422e+02
      vertex   1.359620e+02 5.027138e+02 1.023449e+02
    endloop
  endfacet
  facet normal 7.933533e-01 3.523197e-14 -6.087614e-01
    outer loop
      vertex   1.359620e+02 5.059138e+02 1.023449e+02
      vertex   1.359620e+02 5.027138e+02 1.023449e+02
      vertex   1.355647e+02 5.059138e+02 1.018272e+02
    endloop
  endfacet
  facet normal 7.933533e-01 3.088902e-14 -6.087614e-01
    outer loop
      vertex   1.355647e+02 5.059138e+02 1.018272e+02
      vertex   1.359620e+02 5.027138e+02 1.023449e+02
      vertex   1.355647e+02 5.027138e+02 1.018272e+02
    endloop
  endfacet
  facet normal 9.238795e-01 3.452225e-14 -3.826834e-01
    outer loop
      vertex   1.355647e+02 5.059138e+02 1.018272e+02
      vertex   1.355647e+02 5.027138e+02 1.018272e+02
      vertex   1.353149e+02 5.059138e+02 1.012242e+02
    endloop
  endfacet
  facet normal 9.238795e-01 3.282279e-14 -3.826834e-01
    outer loop
      vertex   1.353149e+02 5.059138e+02 1.012242e+02
      vertex   1.355647e+02 5.027138e+02 1.018272e+02
      vertex   1.353149e+02 5.027138e+02 1.012242e+02
    endloop
  endfacet
  facet normal 9.914449e-01 3.522320e-14 -1.305262e-01
    outer loop
      vertex   1.353149e+02 5.059138e+02 1.012242e+02
      vertex   1.353149e+02 5.027138e+02 1.012242e+02
      vertex   1.352297e+02 5.059138e+02 1.005772e+02
    endloop
  endfacet
  facet normal 9.914449e-01 4.402900e-14 -1.305262e-01
    outer loop
      vertex   1.352297e+02 5.059138e+02 1.005772e+02
      vertex   1.353149e+02 5.027138e+02 1.012242e+02
      vertex   1.352297e+02 5.027138e+02 1.005772e+02
    endloop
  endfacet
  facet normal -1.000000e+00 -3.552714e-14 -4.671408e-14
    outer loop
      vertex   1.402297e+02 5.027138e+02 9.996875e+01
      vertex   1.402297e+02 5.027138e+02 1.005772e+02
      vertex   1.402297e+02 5.059138e+02 9.996875e+01
    endloop
  endfacet
  facet normal -1.000000e+00 -2.664535e-14 0.000000e+00
    outer loop
      vertex   1.402297e+02 5.059138e+02 9.996875e+01
      vertex   1.402297e+02 5.027138e+02 1.005772e+02
      vertex   1.402297e+02 5.059138e+02 1.005772e+02
    endloop
  endfacet
  facet normal -1.000000e+00 -3.552714e-14 0.000000e+00
    outer loop
      vertex   1.337297e+02 5.059138e+02 9.996875e+01
      vertex   1.337297e+02 5.027138e+02 9.996875e+01
      vertex   1.337297e+02 5.059138e+02 1.038092e+02
    endloop
  endfacet
  facet normal -1.000000e+00 -2.664535e-14 -7.400626e-15
    outer loop
      vertex   1.337297e+02 5.059138e+02 1.038092e+02
      vertex   1.337297e+02 5.027138e+02 9.996875e+01
      vertex   1.337297e+02 5.027138e+02 1.038092e+02
    endloop
  endfacet
  facet normal -7.045148e-01 -7.045148e-01 -8.554359e-02
    outer loop
      vertex   1.406297e+02 5.023138e+02 1.005772e+02
      vertex   1.405455e+02 5.023138e+02 1.012712e+02
      vertex   1.402297e+02 5.027138e+02 1.005772e+02
    endloop
  endfacet
  facet normal -6.978946e-01 -7.102825e-01 -9.187957e-02
    outer loop
      vertex   1.402297e+02 5.027138e+02 1.005772e+02
      vertex   1.405455e+02 5.023138e+02 1.012712e+02
      vertex   1.401446e+02 5.027138e+02 1.012242e+02
    endloop
  endfacet
  facet normal -6.682024e-01 -6.994898e-01 -2.534158e-01
    outer loop
      vertex   1.401446e+02 5.027138e+02 1.012242e+02
      vertex   1.405455e+02 5.023138e+02 1.012712e+02
      vertex   1.402976e+02 5.023138e+02 1.019249e+02
    endloop
  endfacet
  facet normal -6.455801e-01 -7.153455e-01 -2.674081e-01
    outer loop
      vertex   1.401446e+02 5.027138e+02 1.012242e+02
      vertex   1.402976e+02 5.023138e+02 1.019249e+02
      vertex   1.398948e+02 5.027138e+02 1.018272e+02
    endloop
  endfacet
  facet normal -5.914972e-01 -6.952968e-01 -4.082810e-01
    outer loop
      vertex   1.398948e+02 5.027138e+02 1.018272e+02
      vertex   1.402976e+02 5.023138e+02 1.019249e+02
      vertex   1.399004e+02 5.023138e+02 1.025002e+02
    endloop
  endfacet
  facet normal -5.511267e-01 -7.193189e-01 -4.228944e-01
    outer loop
      vertex   1.398948e+02 5.027138e+02 1.018272e+02
      vertex   1.399004e+02 5.023138e+02 1.025002e+02
      vertex   1.394975e+02 5.027138e+02 1.023449e+02
    endloop
  endfacet
  facet normal -4.787168e-01 -6.919839e-01 -5.403596e-01
    outer loop
      vertex   1.394975e+02 5.027138e+02 1.023449e+02
      vertex   1.399004e+02 5.023138e+02 1.025002e+02
      vertex   1.393771e+02 5.023138e+02 1.029638e+02
    endloop
  endfacet
  facet normal -4.210360e-01 -7.222547e-01 -5.487048e-01
    outer loop
      vertex   1.394975e+02 5.027138e+02 1.023449e+02
      vertex   1.393771e+02 5.023138e+02 1.029638e+02
      vertex   1.389797e+02 5.027138e+02 1.027422e+02
    endloop
  endfacet
  facet normal -3.365527e-01 -6.895895e-01 -6.412476e-01
    outer loop
      vertex   1.389797e+02 5.027138e+02 1.027422e+02
      vertex   1.393771e+02 5.023138e+02 1.029638e+02
      vertex   1.387581e+02 5.023138e+02 1.032887e+02
    endloop
  endfacet
  facet normal -2.638983e-01 -7.241911e-01 -6.371067e-01
    outer loop
      vertex   1.389797e+02 5.027138e+02 1.027422e+02
      vertex   1.387581e+02 5.023138e+02 1.032887e+02
      vertex   1.383768e+02 5.027138e+02 1.029920e+02
    endloop
  endfacet
  facet normal -1.736418e-01 -6.881415e-01 -7.044925e-01
    outer loop
      vertex   1.383768e+02 5.027138e+02 1.029920e+02
      vertex   1.387581e+02 5.023138e+02 1.032887e+02
      vertex   1.380793e+02 5.023138e+02 1.034560e+02
    endloop
  endfacet
  facet normal -8.987873e-02 -7.251531e-01 -6.826967e-01
    outer loop
      vertex   1.383768e+02 5.027138e+02 1.029920e+02
      vertex   1.380793e+02 5.023138e+02 1.034560e+02
      vertex   1.377297e+02 5.027138e+02 1.030772e+02
    endloop
  endfacet
  facet normal 0.000000e+00 -6.876570e-01 -7.260357e-01
    outer loop
      vertex   1.377297e+02 5.027138e+02 1.030772e+02
      vertex   1.380793e+02 5.023138e+02 1.034560e+02
      vertex   1.373802e+02 5.023138e+02 1.034560e+02
    endloop
  endfacet
  facet normal 8.987873e-02 -7.251531e-01 -6.826967e-01
    outer loop
      vertex   1.377297e+02 5.027138e+02 1.030772e+02
      vertex   1.373802e+02 5.023138e+02 1.034560e+02
      vertex   1.370827e+02 5.027138e+02 1.029920e+02
    endloop
  endfacet
  facet normal 1.736418e-01 -6.881415e-01 -7.044925e-01
    outer loop
      vertex   1.370827e+02 5.027138e+02 1.029920e+02
      vertex   1.373802e+02 5.023138e+02 1.034560e+02
      vertex   1.367014e+02 5.023138e+02 1.032887e+02
    endloop
  endfacet
  facet normal 2.638983e-01 -7.241911e-01 -6.371067e-01
    outer loop
      vertex   1.370827e+02 5.027138e+02 1.029920e+02
      vertex   1.367014e+02 5.023138e+02 1.032887e+02
      vertex   1.364797e+02 5.027138e+02 1.027422e+02
    endloop
  endfacet
  facet normal 3.365527e-01 -6.895895e-01 -6.412476e-01
    outer loop
      vertex   1.364797e+02 5.027138e+02 1.027422e+02
      vertex   1.367014e+02 5.023138e+02 1.032887e+02
      vertex   1.360824e+02 5.023138e+02 1.029638e+02
    endloop
  endfacet
  facet normal 4.210360e-01 -7.222547e-01 -5.487048e-01
    outer loop
      vertex   1.364797e+02 5.027138e+02 1.027422e+02
      vertex   1.360824e+02 5.023138e+02 1.029638e+02
      vertex   1.359620e+02 5.027138e+02 1.023449e+02
    endloop
  endfacet
  facet normal 4.787168e-01 -6.919839e-01 -5.403596e-01
    outer loop
      vertex   1.359620e+02 5.027138e+02 1.023449e+02
      vertex   1.360824e+02 5.023138e+02 1.029638e+02
      vertex   1.355591e+02 5.023138e+02 1.025002e+02
    endloop
  endfacet
  facet normal 5.511267e-01 -7.193189e-01 -4.228944e-01
    outer loop
      vertex   1.359620e+02 5.027138e+02 1.023449e+02
      vertex   1.355591e+02 5.023138e+02 1.025002e+02
      vertex   1.355647e+02 5.027138e+02 1.018272e+02
    endloop
  endfacet
  facet normal 5.914972e-01 -6.952968e-01 -4.082810e-01
    outer loop
      vertex   1.355647e+02 5.027138e+02 1.018272e+02
      vertex   1.355591e+02 5.023138e+02 1.025002e+02
      vertex   1.351619e+02 5.023138e+02 1.019249e+02
    endloop
  endfacet
  facet normal 6.455801e-01 -7.153455e-01 -2.674081e-01
    outer loop
      vertex   1.355647e+02 5.027138e+02 1.018272e+02
      vertex   1.351619e+02 5.023138e+02 1.019249e+02
      vertex   1.353149e+02 5.027138e+02 1.012242e+02
    endloop
  endfacet
  facet normal 6.682024e-01 -6.994898e-01 -2.534158e-01
    outer loop
      vertex   1.353149e+02 5.027138e+02 1.012242e+02
      vertex   1.351619e+02 5.023138e+02 1.019249e+02
      vertex   1.349140e+02 5.023138e+02 1.012712e+02
    endloop
  endfacet
  facet normal 6.978946e-01 -7.102825e-01 -9.187957e-02
    outer loop
      vertex   1.353149e+02 5.027138e+02 1.012242e+02
      vertex   1.349140e+02 5.023138e+02 1.012712e+02
      vertex   1.352297e+02 5.027138e+02 1.005772e+02
    endloop
  endfacet
  facet normal 7.045148e-01 -7.045148e-01 -8.554359e-02
    outer loop
      vertex   1.352297e+02 5.027138e+02 1.005772e+02
      vertex   1.349140e+02 5.023138e+02 1.012712e+02
      vertex   1.348297e+02 5.023138e+02 1.005772e+02
    endloop
  endfacet
  facet normal -7.071068e-01 -7.071068e-01 0.000000e+00
    outer loop
      vertex   1.406297e+02 5.023138e+02 9.996875e+01
      vertex   1.406297e+02 5.023138e+02 1.005772e+02
      vertex   1.402297e+02 5.027138e+02 9.996875e+01
    endloop
  endfacet
  facet normal -7.071068e-01 -7.071068e-01 -3.303185e-14
    outer loop
      vertex   1.402297e+02 5.027138e+02 9.996875e+01
      vertex   1.406297e+02 5.023138e+02 1.005772e+02
      vertex   1.402297e+02 5.027138e+02 1.005772e+02
    endloop
  endfacet
  facet normal -7.071068e-01 7.071068e-01 0.000000e+00
    outer loop
      vertex   1.402297e+02 5.059138e+02 9.996875e+01
      vertex   1.402297e+02 5.059138e+02 1.005772e+02
      vertex   1.406297e+02 5.063138e+02 9.996875e+01
    endloop
  endfacet
  facet normal -7.071068e-01 7.071068e-01 0.000000e+00
    outer loop
      vertex   1.406297e+02 5.063138e+02 9.996875e+01
      vertex   1.402297e+02 5.059138e+02 1.005772e+02
      vertex   1.406297e+02 5.063138e+02 1.005772e+02
    endloop
  endfacet
  facet normal -7.049685e-01 7.049685e-01 -7.771062e-02
    outer loop
      vertex   1.406297e+02 5.063138e+02 1.005772e+02
      vertex   1.402297e+02 5.059138e+02 1.005772e+02
      vertex   1.405601e+02 5.063138e+02 1.012088e+02
    endloop
  endfacet
  facet normal -6.923561e-01 7.157756e-01 -9.115041e-02
    outer loop
      vertex   1.405601e+02 5.063138e+02 1.012088e+02
      vertex   1.402297e+02 5.059138e+02 1.005772e+02
      vertex   1.401446e+02 5.059138e+02 1.012242e+02
    endloop
  endfacet
  facet normal -6.790007e-01 6.964838e-01 -2.320956e-01
    outer loop
      vertex   1.405601e+02 5.063138e+02 1.012088e+02
      vertex   1.401446e+02 5.059138e+02 1.012242e+02
      vertex   1.403546e+02 5.063138e+02 1.018102e+02
    endloop
  endfacet
  facet normal -6.385452e-01 7.227053e-01 -2.644941e-01
    outer loop
      vertex   1.403546e+02 5.063138e+02 1.018102e+02
      vertex   1.401446e+02 5.059138e+02 1.012242e+02
      vertex   1.398948e+02 5.059138e+02 1.018272e+02
    endloop
  endfacet
  facet normal -6.159022e-01 6.919143e-01 -3.767215e-01
    outer loop
      vertex   1.403546e+02 5.063138e+02 1.018102e+02
      vertex   1.398948e+02 5.059138e+02 1.018272e+02
      vertex   1.400230e+02 5.063138e+02 1.023523e+02
    endloop
  endfacet
  facet normal -5.462108e-01 7.252518e-01 -4.191223e-01
    outer loop
      vertex   1.400230e+02 5.063138e+02 1.023523e+02
      vertex   1.398948e+02 5.059138e+02 1.018272e+02
      vertex   1.394975e+02 5.059138e+02 1.023449e+02
    endloop
  endfacet
  facet normal -5.193470e-01 6.914930e-01 -5.021117e-01
    outer loop
      vertex   1.400230e+02 5.063138e+02 1.023523e+02
      vertex   1.394975e+02 5.059138e+02 1.023449e+02
      vertex   1.395812e+02 5.063138e+02 1.028092e+02
    endloop
  endfacet
  facet normal -4.202045e-01 7.235601e-01 -5.476212e-01
    outer loop
      vertex   1.395812e+02 5.063138e+02 1.028092e+02
      vertex   1.394975e+02 5.059138e+02 1.023449e+02
      vertex   1.389797e+02 5.059138e+02 1.027422e+02
    endloop
  endfacet
  facet normal -3.934285e-01 6.927943e-01 -6.043593e-01
    outer loop
      vertex   1.395812e+02 5.063138e+02 1.028092e+02
      vertex   1.389797e+02 5.059138e+02 1.027422e+02
      vertex   1.390215e+02 5.063138e+02 1.031736e+02
    endloop
  endfacet
  facet normal -2.657399e-01 7.195778e-01 -6.415529e-01
    outer loop
      vertex   1.390215e+02 5.063138e+02 1.031736e+02
      vertex   1.389797e+02 5.059138e+02 1.027422e+02
      vertex   1.383768e+02 5.059138e+02 1.029920e+02
    endloop
  endfacet
  facet normal -2.431014e-01 6.977462e-01 -6.738338e-01
    outer loop
      vertex   1.390215e+02 5.063138e+02 1.031736e+02
      vertex   1.383768e+02 5.059138e+02 1.029920e+02
      vertex   1.383932e+02 5.063138e+02 1.034003e+02
    endloop
  endfacet
  facet normal -9.150096e-02 7.131455e-01 -6.950188e-01
    outer loop
      vertex   1.383932e+02 5.063138e+02 1.034003e+02
      vertex   1.383768e+02 5.059138e+02 1.029920e+02
      vertex   1.377297e+02 5.059138e+02 1.030772e+02
    endloop
  endfacet
  facet normal -8.169984e-02 7.047429e-01 -7.047429e-01
    outer loop
      vertex   1.383932e+02 5.063138e+02 1.034003e+02
      vertex   1.377297e+02 5.059138e+02 1.030772e+02
      vertex   1.377297e+02 5.063138e+02 1.034772e+02
    endloop
  endfacet
  facet normal 8.169984e-02 7.047429e-01 -7.047429e-01
    outer loop
      vertex   1.377297e+02 5.063138e+02 1.034772e+02
      vertex   1.377297e+02 5.059138e+02 1.030772e+02
      vertex   1.370663e+02 5.063138e+02 1.034003e+02
    endloop
  endfacet
  facet normal 9.150096e-02 7.131455e-01 -6.950188e-01
    outer loop
      vertex   1.370663e+02 5.063138e+02 1.034003e+02
      vertex   1.377297e+02 5.059138e+02 1.030772e+02
      vertex   1.370827e+02 5.059138e+02 1.029920e+02
    endloop
  endfacet
  facet normal 2.431014e-01 6.977462e-01 -6.738338e-01
    outer loop
      vertex   1.370663e+02 5.063138e+02 1.034003e+02
      vertex   1.370827e+02 5.059138e+02 1.029920e+02
      vertex   1.364380e+02 5.063138e+02 1.031736e+02
    endloop
  endfacet
  facet normal 2.657399e-01 7.195778e-01 -6.415529e-01
    outer loop
      vertex   1.364380e+02 5.063138e+02 1.031736e+02
      vertex   1.370827e+02 5.059138e+02 1.029920e+02
      vertex   1.364797e+02 5.059138e+02 1.027422e+02
    endloop
  endfacet
  facet normal 3.934285e-01 6.927943e-01 -6.043593e-01
    outer loop
      vertex   1.364380e+02 5.063138e+02 1.031736e+02
      vertex   1.364797e+02 5.059138e+02 1.027422e+02
      vertex   1.358782e+02 5.063138e+02 1.028092e+02
    endloop
  endfacet
  facet normal 4.202045e-01 7.235601e-01 -5.476212e-01
    outer loop
      vertex   1.358782e+02 5.063138e+02 1.028092e+02
      vertex   1.364797e+02 5.059138e+02 1.027422e+02
      vertex   1.359620e+02 5.059138e+02 1.023449e+02
    endloop
  endfacet
  facet normal 5.193470e-01 6.914930e-01 -5.021117e-01
    outer loop
      vertex   1.358782e+02 5.063138e+02 1.028092e+02
      vertex   1.359620e+02 5.059138e+02 1.023449e+02
      vertex   1.354365e+02 5.063138e+02 1.023523e+02
    endloop
  endfacet
  facet normal 5.462108e-01 7.252518e-01 -4.191223e-01
    outer loop
      vertex   1.354365e+02 5.063138e+02 1.023523e+02
      vertex   1.359620e+02 5.059138e+02 1.023449e+02
      vertex   1.355647e+02 5.059138e+02 1.018272e+02
    endloop
  endfacet
  facet normal 6.159022e-01 6.919143e-01 -3.767215e-01
    outer loop
      vertex   1.354365e+02 5.063138e+02 1.023523e+02
      vertex   1.355647e+02 5.059138e+02 1.018272e+02
      vertex   1.351049e+02 5.063138e+02 1.018102e+02
    endloop
  endfacet
  facet normal 6.385452e-01 7.227053e-01 -2.644941e-01
    outer loop
      vertex   1.351049e+02 5.063138e+02 1.018102e+02
      vertex   1.355647e+02 5.059138e+02 1.018272e+02
      vertex   1.353149e+02 5.059138e+02 1.012242e+02
    endloop
  endfacet
  facet normal 6.790007e-01 6.964838e-01 -2.320956e-01
    outer loop
      vertex   1.351049e+02 5.063138e+02 1.018102e+02
      vertex   1.353149e+02 5.059138e+02 1.012242e+02
      vertex   1.348994e+02 5.063138e+02 1.012088e+02
    endloop
  endfacet
  facet normal 6.923561e-01 7.157756e-01 -9.115041e-02
    outer loop
      vertex   1.348994e+02 5.063138e+02 1.012088e+02
      vertex   1.353149e+02 5.059138e+02 1.012242e+02
      vertex   1.352297e+02 5.059138e+02 1.005772e+02
    endloop
  endfacet
  facet normal 7.049685e-01 7.049685e-01 -7.771062e-02
    outer loop
      vertex   1.348994e+02 5.063138e+02 1.012088e+02
      vertex   1.352297e+02 5.059138e+02 1.005772e+02
      vertex   1.348297e+02 5.063138e+02 1.005772e+02
    endloop
  endfacet
  facet normal 7.071068e-01 -7.071068e-01 0.000000e+00
    outer loop
      vertex   1.352297e+02 5.027138e+02 9.996875e+01
      vertex   1.352297e+02 5.027138e+02 1.005772e+02
      vertex   1.348297e+02 5.023138e+02 9.996875e+01
    endloop
  endfacet
  facet normal 7.071068e-01 -7.071068e-01 0.000000e+00
    outer loop
      vertex   1.348297e+02 5.023138e+02 9.996875e+01
      vertex   1.352297e+02 5.027138e+02 1.005772e+02
      vertex   1.348297e+02 5.023138e+02 1.005772e+02
    endloop
  endfacet
  facet normal -4.440892e-14 -8.881784e-15 -1.000000e+00
    outer loop
      vertex   1.417297e+02 5.059138e+02 9.996875e+01
      vertex   1.417297e+02 5.027138e+02 9.996875e+01
      vertex   1.413297e+02 5.063138e+02 9.996875e+01
    endloop
  endfacet
  facet normal 3.712586e-12 4.085621e-13 -1.000000e+00
    outer loop
      vertex   1.413297e+02 5.063138e+02 9.996875e+01
      vertex   1.417297e+02 5.027138e+02 9.996875e+01
      vertex   1.413297e+02 5.023138e+02 9.996875e+01
    endloop
  endfacet
  facet normal -2.354942e-12 4.085621e-13 -1.000000e+00
    outer loop
      vertex   1.413297e+02 5.063138e+02 9.996875e+01
      vertex   1.413297e+02 5.023138e+02 9.996875e+01
      vertex   1.406297e+02 5.023138e+02 9.996875e+01
    endloop
  endfacet
  facet normal 2.030122e-14 -7.105427e-15 -1.000000e+00
    outer loop
      vertex   1.413297e+02 5.063138e+02 9.996875e+01
      vertex   1.406297e+02 5.023138e+02 9.996875e+01
      vertex   1.406297e+02 5.063138e+02 9.996875e+01
    endloop
  endfacet
  facet normal -7.105427e-15 -7.105427e-15 -1.000000e+00
    outer loop
      vertex   1.406297e+02 5.063138e+02 9.996875e+01
      vertex   1.406297e+02 5.023138e+02 9.996875e+01
      vertex   1.402297e+02 5.027138e+02 9.996875e+01
    endloop
  endfacet
  facet normal 8.881784e-15 -8.881784e-15 -1.000000e+00
    outer loop
      vertex   1.406297e+02 5.063138e+02 9.996875e+01
      vertex   1.402297e+02 5.027138e+02 9.996875e+01
      vertex   1.402297e+02 5.059138e+02 9.996875e+01
    endloop
  endfacet
  facet normal -4.440892e-14 -8.881784e-15 -1.000000e+00
    outer loop
      vertex   1.352297e+02 5.059138e+02 9.996875e+01
      vertex   1.352297e+02 5.027138e+02 9.996875e+01
      vertex   1.348297e+02 5.063138e+02 9.996875e+01
    endloop
  endfacet
  facet normal 3.712586e-12 4.085621e-13 -1.000000e+00
    outer loop
      vertex   1.348297e+02 5.063138e+02 9.996875e+01
      vertex   1.352297e+02 5.027138e+02 9.996875e+01
      vertex   1.348297e+02 5.023138e+02 9.996875e+01
    endloop
  endfacet
  facet normal -2.354942e-12 4.085621e-13 -1.000000e+00
    outer loop
      vertex   1.348297e+02 5.063138e+02 9.996875e+01
      vertex   1.348297e+02 5.023138e+02 9.996875e+01
      vertex   1.341297e+02 5.023138e+02 9.996875e+01
    endloop
  endfacet
  facet normal 2.030122e-14 -7.105427e-15 -1.000000e+00
    outer loop
      vertex   1.348297e+02 5.063138e+02 9.996875e+01
      vertex   1.341297e+02 5.023138e+02 9.996875e+01
      vertex   1.341297e+02 5.063138e+02 9.996875e+01
    endloop
  endfacet
  facet normal -7.105427e-15 -7.105427e-15 -1.000000e+00
    outer loop
      vertex   1.341297e+02 5.063138e+02 9.996875e+01
      vertex   1.341297e+02 5.023138e+02 9.996875e+01
      vertex   1.337297e+02 5.027138e+02 9.996875e+01
    endloop
  endfacet
  facet normal 8.881784e-15 -8.881784e-15 -1.000000e+00
    outer loop
      vertex   1.341297e+02 5.063138e+02 9.996875e+01
      vertex   1.337297e+02 5.027138e+02 9.996875e+01
      vertex   1.337297e+02 5.059138e+02 9.996875e+01
    endloop
  endfacet
  facet normal -7.071068e-01 -7.071068e-01 -5.233033e-15
    outer loop
      vertex   1.337297e+02 5.027138e+02 1.038092e+02
      vertex   1.337297e+02 5.027138e+02 9.996875e+01
      vertex   1.341297e+02 5.023138e+02 1.038092e+02
    endloop
  endfacet
  facet normal -7.071068e-01 -7.071068e-01 -0.000000e+00
    outer loop
      vertex   1.341297e+02 5.023138e+02 1.038092e+02
      vertex   1.337297e+02 5.027138e+02 9.996875e+01
      vertex   1.341297e+02 5.023138e+02 9.996875e+01
    endloop
  endfacet
  facet normal 2.368476e-14 -1.000000e+00 1.039177e-13
    outer loop
      vertex   1.341297e+02 5.023138e+02 1.038092e+02
      vertex   1.380793e+02 5.023138e+02 1.034560e+02
      vertex   1.413297e+02 5.023138e+02 1.038092e+02
    endloop
  endfacet
  facet normal 4.989576e-14 -1.000000e+00 -1.373168e-13
    outer loop
      vertex   1.413297e+02 5.023138e+02 1.038092e+02
      vertex   1.380793e+02 5.023138e+02 1.034560e+02
      vertex   1.387581e+02 5.023138e+02 1.032887e+02
    endloop
  endfacet
  facet normal 1.595229e-14 -1.000000e+00 3.039455e-14
    outer loop
      vertex   1.413297e+02 5.023138e+02 1.038092e+02
      vertex   1.387581e+02 5.023138e+02 1.032887e+02
      vertex   1.393771e+02 5.023138e+02 1.029638e+02
    endloop
  endfacet
  facet normal -7.247952e-14 -1.000000e+00 0.000000e+00
    outer loop
      vertex   1.341297e+02 5.023138e+02 9.996875e+01
      vertex   1.349140e+02 5.023138e+02 1.012712e+02
      vertex   1.341297e+02 5.023138e+02 1.038092e+02
    endloop
  endfacet
  facet normal 9.380486e-14 -1.000000e+00 5.138337e-14
    outer loop
      vertex   1.341297e+02 5.023138e+02 1.038092e+02
      vertex   1.349140e+02 5.023138e+02 1.012712e+02
      vertex   1.351619e+02 5.023138e+02 1.019249e+02
    endloop
  endfacet
  facet normal 0.000000e+00 -1.000000e+00 0.000000e+00
    outer loop
      vertex   1.341297e+02 5.023138e+02 1.038092e+02
      vertex   1.351619e+02 5.023138e+02 1.019249e+02
      vertex   1.355591e+02 5.023138e+02 1.025002e+02
    endloop
  endfacet
  facet normal 8.120488e-14 -1.000000e+00 0.000000e+00
    outer loop
      vertex   1.348297e+02 5.023138e+02 9.996875e+01
      vertex   1.348297e+02 5.023138e+02 1.005772e+02
      vertex   1.341297e+02 5.023138e+02 9.996875e+01
    endloop
  endfacet
  facet normal 2.499640e-13 -1.000000e+00 -1.941614e-13
    outer loop
      vertex   1.341297e+02 5.023138e+02 9.996875e+01
      vertex   1.348297e+02 5.023138e+02 1.005772e+02
      vertex   1.349140e+02 5.023138e+02 1.012712e+02
    endloop
  endfacet
  facet normal 0.000000e+00 -1.000000e+00 0.000000e+00
    outer loop
      vertex   1.355591e+02 5.023138e+02 1.025002e+02
      vertex   1.360824e+02 5.023138e+02 1.029638e+02
      vertex   1.341297e+02 5.023138e+02 1.038092e+02
    endloop
  endfacet
  facet normal 0.000000e+00 -1.000000e+00 0.000000e+00
    outer loop
      vertex   1.341297e+02 5.023138e+02 1.038092e+02
      vertex   1.360824e+02 5.023138e+02 1.029638e+02
      vertex   1.367014e+02 5.023138e+02 1.032887e+02
    endloop
  endfacet
  facet normal 3.775834e-14 -1.000000e+00 1.865603e-13
    outer loop
      vertex   1.341297e+02 5.023138e+02 1.038092e+02
      vertex   1.367014e+02 5.023138e+02 1.032887e+02
      vertex   1.373802e+02 5.023138e+02 1.034560e+02
    endloop
  endfacet
  facet normal 0.000000e+00 -1.000000e+00 -1.609509e-13
    outer loop
      vertex   1.373802e+02 5.023138e+02 1.034560e+02
      vertex   1.380793e+02 5.023138e+02 1.034560e+02
      vertex   1.341297e+02 5.023138e+02 1.038092e+02
    endloop
  endfacet
  facet normal 1.955503e-14 -1.000000e+00 2.207307e-14
    outer loop
      vertex   1.393771e+02 5.023138e+02 1.029638e+02
      vertex   1.399004e+02 5.023138e+02 1.025002e+02
      vertex   1.413297e+02 5.023138e+02 1.038092e+02
    endloop
  endfacet
  facet normal 7.980211e-14 -1.000000e+00 -4.371310e-14
    outer loop
      vertex   1.413297e+02 5.023138e+02 1.038092e+02
      vertex   1.399004e+02 5.023138e+02 1.025002e+02
      vertex   1.402976e+02 5.023138e+02 1.019249e+02
    endloop
  endfacet
  facet normal 0.000000e+00 -1.000000e+00 0.000000e+00
    outer loop
      vertex   1.413297e+02 5.023138e+02 1.038092e+02
      vertex   1.402976e+02 5.023138e+02 1.019249e+02
      vertex   1.405455e+02 5.023138e+02 1.012712e+02
    endloop
  endfacet
  facet normal 0.000000e+00 -1.000000e+00 -0.000000e+00
    outer loop
      vertex   1.413297e+02 5.023138e+02 1.038092e+02
      vertex   1.405455e+02 5.023138e+02 1.012712e+02
      vertex   1.413297e+02 5.023138e+02 9.996875e+01
    endloop
  endfacet
  facet normal -1.703750e-13 -1.000000e+00 -1.025924e-13
    outer loop
      vertex   1.413297e+02 5.023138e+02 9.996875e+01
      vertex   1.405455e+02 5.023138e+02 1.012712e+02
      vertex   1.406297e+02 5.023138e+02 1.005772e+02
    endloop
  endfacet
  facet normal -8.120488e-14 -1.000000e+00 0.000000e+00
    outer loop
      vertex   1.413297e+02 5.023138e+02 9.996875e+01
      vertex   1.406297e+02 5.023138e+02 1.005772e+02
      vertex   1.406297e+02 5.023138e+02 9.996875e+01
    endloop
  endfacet
  facet normal 7.071068e-01 -7.071068e-01 5.233033e-15
    outer loop
      vertex   1.413297e+02 5.023138e+02 1.038092e+02
      vertex   1.413297e+02 5.023138e+02 9.996875e+01
      vertex   1.417297e+02 5.027138e+02 1.038092e+02
    endloop
  endfacet
  facet normal 7.071068e-01 -7.071068e-01 5.233033e-15
    outer loop
      vertex   1.417297e+02 5.027138e+02 1.038092e+02
      vertex   1.413297e+02 5.023138e+02 9.996875e+01
      vertex   1.417297e+02 5.027138e+02 9.996875e+01
    endloop
  endfacet
  facet normal 0.000000e+00 -1.015061e-14 1.000000e+00
    outer loop
      vertex   1.351297e+02 5.073138e+02 1.038092e+02
      vertex   1.337297e+02 5.059138e+02 1.038092e+02
      vertex   1.358782e+02 5.073138e+02 1.038092e+02
    endloop
  endfacet
  facet normal 5.260853e-13 -8.175038e-13 1.000000e+00
    outer loop
      vertex   1.358782e+02 5.073138e+02 1.038092e+02
      vertex   1.337297e+02 5.059138e+02 1.038092e+02
      vertex   1.377499e+02 5.070581e+02 1.038092e+02
    endloop
  endfacet
  facet normal 1.699417e-13 4.337359e-13 1.000000e+00
    outer loop
      vertex   1.377499e+02 5.070581e+02 1.038092e+02
      vertex   1.337297e+02 5.059138e+02 1.038092e+02
      vertex   1.417297e+02 5.027138e+02 1.038092e+02
    endloop
  endfacet
  facet normal -2.938147e-13 8.881784e-15 1.000000e+00
    outer loop
      vertex   1.377499e+02 5.070581e+02 1.038092e+02
      vertex   1.417297e+02 5.027138e+02 1.038092e+02
      vertex   1.417297e+02 5.059138e+02 1.038092e+02
    endloop
  endfacet
  facet normal -3.552714e-15 -9.466331e-29 1.000000e+00
    outer loop
      vertex   1.337297e+02 5.059138e+02 1.038092e+02
      vertex   1.337297e+02 5.027138e+02 1.038092e+02
      vertex   1.417297e+02 5.027138e+02 1.038092e+02
    endloop
  endfacet
  facet normal -3.552714e-15 -4.330758e-12 1.000000e+00
    outer loop
      vertex   1.417297e+02 5.027138e+02 1.038092e+02
      vertex   1.337297e+02 5.027138e+02 1.038092e+02
      vertex   1.413297e+02 5.023138e+02 1.038092e+02
    endloop
  endfacet
  facet normal -7.894919e-15 -4.413260e-12 1.000000e+00
    outer loop
      vertex   1.413297e+02 5.023138e+02 1.038092e+02
      vertex   1.337297e+02 5.027138e+02 1.038092e+02
      vertex   1.341297e+02 5.023138e+02 1.038092e+02
    endloop
  endfacet
  facet normal 3.083474e-27 -2.030122e-14 1.000000e+00
    outer loop
      vertex   1.403297e+02 5.073138e+02 1.038092e+02
      vertex   1.395812e+02 5.073138e+02 1.038092e+02
      vertex   1.417297e+02 5.059138e+02 1.038092e+02
    endloop
  endfacet
  facet normal -5.408434e-13 -8.503028e-13 1.000000e+00
    outer loop
      vertex   1.417297e+02 5.059138e+02 1.038092e+02
      vertex   1.395812e+02 5.073138e+02 1.038092e+02
      vertex   1.377499e+02 5.070581e+02 1.038092e+02
    endloop
  endfacet
  facet normal 7.071068e-01 7.071068e-01 -5.478281e-13
    outer loop
      vertex   1.413249e+02 5.063186e+02 1.029072e+02
      vertex   1.417297e+02 5.059138e+02 1.038092e+02
      vertex   1.413297e+02 5.063138e+02 1.028092e+02
    endloop
  endfacet
  facet normal 7.071068e-01 7.071068e-01 1.046351e-14
    outer loop
      vertex   1.413297e+02 5.063138e+02 1.028092e+02
      vertex   1.417297e+02 5.059138e+02 1.038092e+02
      vertex   1.417297e+02 5.059138e+02 9.996875e+01
    endloop
  endfacet
  facet normal 7.071068e-01 7.071068e-01 7.075361e-15
    outer loop
      vertex   1.413297e+02 5.063138e+02 1.028092e+02
      vertex   1.417297e+02 5.059138e+02 9.996875e+01
      vertex   1.413297e+02 5.063138e+02 9.996875e+01
    endloop
  endfacet
  facet normal 7.071068e-01 7.071068e-01 1.722012e-13
    outer loop
      vertex   1.413249e+02 5.063186e+02 1.029072e+02
      vertex   1.413105e+02 5.063330e+02 1.030043e+02
      vertex   1.417297e+02 5.059138e+02 1.038092e+02
    endloop
  endfacet
  facet normal 7.071068e-01 7.071068e-01 -4.936276e-14
    outer loop
      vertex   1.417297e+02 5.059138e+02 1.038092e+02
      vertex   1.413105e+02 5.063330e+02 1.030043e+02
      vertex   1.412536e+02 5.063899e+02 1.031919e+02
    endloop
  endfacet
  facet normal 7.071068e-01 7.071068e-01 1.774452e-13
    outer loop
      vertex   1.417297e+02 5.059138e+02 1.038092e+02
      vertex   1.412536e+02 5.063899e+02 1.031919e+02
      vertex   1.411612e+02 5.064823e+02 1.033648e+02
    endloop
  endfacet
  facet normal 7.071068e-01 7.071068e-01 -6.307351e-14
    outer loop
      vertex   1.411612e+02 5.064823e+02 1.033648e+02
      vertex   1.410368e+02 5.066067e+02 1.035163e+02
      vertex   1.417297e+02 5.059138e+02 1.038092e+02
    endloop
  endfacet
  facet normal 7.071068e-01 7.071068e-01 4.630151e-14
    outer loop
      vertex   1.417297e+02 5.059138e+02 1.038092e+02
      vertex   1.410368e+02 5.066067e+02 1.035163e+02
      vertex   1.408853e+02 5.067582e+02 1.036407e+02
    endloop
  endfacet
  facet normal 7.071068e-01 7.071068e-01 6.519443e-14
    outer loop
      vertex   1.417297e+02 5.059138e+02 1.038092e+02
      vertex   1.408853e+02 5.067582e+02 1.036407e+02
      vertex   1.407124e+02 5.069311e+02 1.037331e+02
    endloop
  endfacet
  facet normal 7.071068e-01 7.071068e-01 1.044251e-13
    outer loop
      vertex   1.407124e+02 5.069311e+02 1.037331e+02
      vertex   1.405248e+02 5.071187e+02 1.037900e+02
      vertex   1.417297e+02 5.059138e+02 1.038092e+02
    endloop
  endfacet
  facet normal 7.071068e-01 7.071068e-01 -6.128475e-13
    outer loop
      vertex   1.417297e+02 5.059138e+02 1.038092e+02
      vertex   1.405248e+02 5.071187e+02 1.037900e+02
      vertex   1.403297e+02 5.073138e+02 1.038092e+02
    endloop
  endfacet
  facet normal -7.071068e-01 7.071068e-01 5.836643e-13
    outer loop
      vertex   1.351297e+02 5.073138e+02 1.038092e+02
      vertex   1.349347e+02 5.071187e+02 1.037900e+02
      vertex   1.337297e+02 5.059138e+02 1.038092e+02
    endloop
  endfacet
  facet normal -7.071068e-01 7.071068e-01 -1.261803e-13
    outer loop
      vertex   1.337297e+02 5.059138e+02 1.038092e+02
      vertex   1.349347e+02 5.071187e+02 1.037900e+02
      vertex   1.347471e+02 5.069311e+02 1.037331e+02
    endloop
  endfacet
  facet normal -7.071068e-01 7.071068e-01 9.742539e-14
    outer loop
      vertex   1.337297e+02 5.059138e+02 1.038092e+02
      vertex   1.347471e+02 5.069311e+02 1.037331e+02
      vertex   1.345742e+02 5.067582e+02 1.036407e+02
    endloop
  endfacet
  facet normal -7.071068e-01 7.071068e-01 -5.998150e-14
    outer loop
      vertex   1.345742e+02 5.067582e+02 1.036407e+02
      vertex   1.344226e+02 5.066067e+02 1.035163e+02
      vertex   1.337297e+02 5.059138e+02 1.038092e+02
    endloop
  endfacet
  facet normal -7.071068e-01 7.071068e-01 1.340572e-13
    outer loop
      vertex   1.337297e+02 5.059138e+02 1.038092e+02
      vertex   1.344226e+02 5.066067e+02 1.035163e+02
      vertex   1.342983e+02 5.064823e+02 1.033648e+02
    endloop
  endfacet
  facet normal -7.071068e-01 7.071068e-01 -4.196719e-14
    outer loop
      vertex   1.337297e+02 5.059138e+02 1.038092e+02
      vertex   1.342983e+02 5.064823e+02 1.033648e+02
      vertex   1.342059e+02 5.063899e+02 1.031919e+02
    endloop
  endfacet
  facet normal -7.071068e-01 7.071068e-01 1.839275e-14
    outer loop
      vertex   1.342059e+02 5.063899e+02 1.031919e+02
      vertex   1.341490e+02 5.063330e+02 1.030043e+02
      vertex   1.337297e+02 5.059138e+02 1.038092e+02
    endloop
  endfacet
  facet normal -7.071068e-01 7.071068e-01 1.126111e-14
    outer loop
      vertex   1.337297e+02 5.059138e+02 1.038092e+02
      vertex   1.341490e+02 5.063330e+02 1.030043e+02
      vertex   1.341346e+02 5.063186e+02 1.029072e+02
    endloop
  endfacet
  facet normal -7.071068e-01 7.071068e-01 4.458248e-15
    outer loop
      vertex   1.337297e+02 5.059138e+02 1.038092e+02
      vertex   1.341346e+02 5.063186e+02 1.029072e+02
      vertex   1.341297e+02 5.063138e+02 1.028092e+02
    endloop
  endfacet
  facet normal -7.071068e-01 7.071068e-01 0.000000e+00
    outer loop
      vertex   1.341297e+02 5.063138e+02 9.996875e+01
      vertex   1.337297e+02 5.059138e+02 9.996875e+01
      vertex   1.341297e+02 5.063138e+02 1.028092e+02
    endloop
  endfacet
  facet normal -7.071068e-01 7.071068e-01 0.000000e+00
    outer loop
      vertex   1.341297e+02 5.063138e+02 1.028092e+02
      vertex   1.337297e+02 5.059138e+02 9.996875e+01
      vertex   1.337297e+02 5.059138e+02 1.038092e+02
    endloop
  endfacet
  facet normal -3.286945e-14 9.987955e-01 -4.906767e-02
    outer loop
      vertex   1.341297e+02 5.063138e+02 1.028092e+02
      vertex   1.341346e+02 5.063186e+02 1.029072e+02
      vertex   1.358782e+02 5.063138e+02 1.028092e+02
    endloop
  endfacet
  facet normal -4.599248e-03 9.914344e-01 -1.305248e-01
    outer loop
      vertex   1.358782e+02 5.063138e+02 1.028092e+02
      vertex   1.341346e+02 5.063186e+02 1.029072e+02
      vertex   1.358782e+02 5.063479e+02 1.030680e+02
    endloop
  endfacet
  facet normal -3.109613e-03 9.892386e-01 -1.462784e-01
    outer loop
      vertex   1.358782e+02 5.063479e+02 1.030680e+02
      vertex   1.341346e+02 5.063186e+02 1.029072e+02
      vertex   1.341490e+02 5.063330e+02 1.030043e+02
    endloop
  endfacet
  facet normal 2.502350e-03 9.567262e-01 -2.909788e-01
    outer loop
      vertex   1.358782e+02 5.063479e+02 1.030680e+02
      vertex   1.341490e+02 5.063330e+02 1.030043e+02
      vertex   1.342059e+02 5.063899e+02 1.031919e+02
    endloop
  endfacet
  facet normal -5.115480e-03 9.238674e-01 -3.826784e-01
    outer loop
      vertex   1.358782e+02 5.063479e+02 1.030680e+02
      vertex   1.342059e+02 5.063899e+02 1.031919e+02
      vertex   1.358782e+02 5.064478e+02 1.033092e+02
    endloop
  endfacet
  facet normal 2.657047e-03 8.813270e-01 -4.724993e-01
    outer loop
      vertex   1.358782e+02 5.064478e+02 1.033092e+02
      vertex   1.342059e+02 5.063899e+02 1.031919e+02
      vertex   1.342983e+02 5.064823e+02 1.033648e+02
    endloop
  endfacet
  facet normal -4.059576e-03 7.933468e-01 -6.087564e-01
    outer loop
      vertex   1.358782e+02 5.064478e+02 1.033092e+02
      vertex   1.342983e+02 5.064823e+02 1.033648e+02
      vertex   1.358782e+02 5.066067e+02 1.035163e+02
    endloop
  endfacet
  facet normal -1.238696e-14 7.730105e-01 -6.343933e-01
    outer loop
      vertex   1.358782e+02 5.066067e+02 1.035163e+02
      vertex   1.342983e+02 5.064823e+02 1.033648e+02
      vertex   1.344226e+02 5.066067e+02 1.035163e+02
    endloop
  endfacet
  facet normal -1.509355e-14 6.343933e-01 -7.730105e-01
    outer loop
      vertex   1.358782e+02 5.066067e+02 1.035163e+02
      vertex   1.344226e+02 5.066067e+02 1.035163e+02
      vertex   1.345742e+02 5.067582e+02 1.036407e+02
    endloop
  endfacet
  facet normal -4.918433e-03 6.087541e-01 -7.933437e-01
    outer loop
      vertex   1.358782e+02 5.066067e+02 1.035163e+02
      vertex   1.345742e+02 5.067582e+02 1.036407e+02
      vertex   1.358782e+02 5.068138e+02 1.036752e+02
    endloop
  endfacet
  facet normal 3.433514e-03 4.687213e-01 -8.833395e-01
    outer loop
      vertex   1.358782e+02 5.068138e+02 1.036752e+02
      vertex   1.345742e+02 5.067582e+02 1.036407e+02
      vertex   1.347471e+02 5.069311e+02 1.037331e+02
    endloop
  endfacet
  facet normal -7.562779e-03 3.826725e-01 -9.238531e-01
    outer loop
      vertex   1.358782e+02 5.068138e+02 1.036752e+02
      vertex   1.347471e+02 5.069311e+02 1.037331e+02
      vertex   1.358782e+02 5.070550e+02 1.037751e+02
    endloop
  endfacet
  facet normal 4.253935e-03 2.863842e-01 -9.581054e-01
    outer loop
      vertex   1.358782e+02 5.070550e+02 1.037751e+02
      vertex   1.347471e+02 5.069311e+02 1.037331e+02
      vertex   1.349347e+02 5.071187e+02 1.037900e+02
    endloop
  endfacet
  facet normal -6.797347e-03 1.305232e-01 -9.914220e-01
    outer loop
      vertex   1.358782e+02 5.070550e+02 1.037751e+02
      vertex   1.349347e+02 5.071187e+02 1.037900e+02
      vertex   1.358782e+02 5.073138e+02 1.038092e+02
    endloop
  endfacet
  facet normal 0.000000e+00 9.801714e-02 -9.951847e-01
    outer loop
      vertex   1.358782e+02 5.073138e+02 1.038092e+02
      vertex   1.349347e+02 5.071187e+02 1.037900e+02
      vertex   1.351297e+02 5.073138e+02 1.038092e+02
    endloop
  endfacet
  facet normal 1.225208e-01 9.744569e-01 -1.882084e-01
    outer loop
      vertex   1.364380e+02 5.063138e+02 1.031736e+02
      vertex   1.358782e+02 5.063138e+02 1.028092e+02
      vertex   1.360448e+02 5.063492e+02 1.031009e+02
    endloop
  endfacet
  facet normal 1.789494e-02 9.912861e-01 -1.305053e-01
    outer loop
      vertex   1.360448e+02 5.063492e+02 1.031009e+02
      vertex   1.358782e+02 5.063138e+02 1.028092e+02
      vertex   1.358782e+02 5.063479e+02 1.030680e+02
    endloop
  endfacet
  facet normal 6.685754e-02 9.242722e-01 -3.758337e-01
    outer loop
      vertex   1.360448e+02 5.063492e+02 1.031009e+02
      vertex   1.358782e+02 5.063479e+02 1.030680e+02
      vertex   1.360511e+02 5.064159e+02 1.032661e+02
    endloop
  endfacet
  facet normal 7.464986e-02 9.213017e-01 -3.816157e-01
    outer loop
      vertex   1.360511e+02 5.064159e+02 1.032661e+02
      vertex   1.358782e+02 5.063479e+02 1.030680e+02
      vertex   1.358782e+02 5.064478e+02 1.033092e+02
    endloop
  endfacet
  facet normal 2.183090e-02 8.438216e-01 -5.361796e-01
    outer loop
      vertex   1.360511e+02 5.064159e+02 1.032661e+02
      vertex   1.358782e+02 5.064478e+02 1.033092e+02
      vertex   1.360603e+02 5.065145e+02 1.034217e+02
    endloop
  endfacet
  facet normal 8.487167e-02 7.904908e-01 -6.065650e-01
    outer loop
      vertex   1.360603e+02 5.065145e+02 1.034217e+02
      vertex   1.358782e+02 5.064478e+02 1.033092e+02
      vertex   1.358782e+02 5.066067e+02 1.035163e+02
    endloop
  endfacet
  facet normal 1.417211e-02 7.298052e-01 -6.835083e-01
    outer loop
      vertex   1.360603e+02 5.065145e+02 1.034217e+02
      vertex   1.358782e+02 5.066067e+02 1.035163e+02
      vertex   1.360722e+02 5.066434e+02 1.035595e+02
    endloop
  endfacet
  facet normal 6.961537e-02 5.840768e-01 -8.087076e-01
    outer loop
      vertex   1.360722e+02 5.066434e+02 1.035595e+02
      vertex   1.358782e+02 5.066067e+02 1.035163e+02
      vertex   1.360859e+02 5.067940e+02 1.036695e+02
    endloop
  endfacet
  facet normal 5.135971e-02 5.858189e-01 -8.088129e-01
    outer loop
      vertex   1.360722e+02 5.066434e+02 1.035595e+02
      vertex   1.360859e+02 5.067940e+02 1.036695e+02
      vertex   1.363098e+02 5.068055e+02 1.036920e+02
    endloop
  endfacet
  facet normal 7.268175e-02 3.871081e-01 -9.191652e-01
    outer loop
      vertex   1.363098e+02 5.068055e+02 1.036920e+02
      vertex   1.360859e+02 5.067940e+02 1.036695e+02
      vertex   1.363339e+02 5.069582e+02 1.037582e+02
    endloop
  endfacet
  facet normal 6.167240e-02 3.888683e-01 -9.192268e-01
    outer loop
      vertex   1.363098e+02 5.068055e+02 1.036920e+02
      vertex   1.363339e+02 5.069582e+02 1.037582e+02
      vertex   1.367631e+02 5.069247e+02 1.037729e+02
    endloop
  endfacet
  facet normal 4.858104e-02 1.946003e-01 -9.796788e-01
    outer loop
      vertex   1.367631e+02 5.069247e+02 1.037729e+02
      vertex   1.363339e+02 5.069582e+02 1.037582e+02
      vertex   1.367910e+02 5.070560e+02 1.038003e+02
    endloop
  endfacet
  facet normal 3.672304e-02 1.971165e-01 -9.796921e-01
    outer loop
      vertex   1.367631e+02 5.069247e+02 1.037729e+02
      vertex   1.367910e+02 5.070560e+02 1.038003e+02
      vertex   1.371076e+02 5.070066e+02 1.038023e+02
    endloop
  endfacet
  facet normal 9.200629e-03 2.000460e-02 -9.997576e-01
    outer loop
      vertex   1.371076e+02 5.070066e+02 1.038023e+02
      vertex   1.367910e+02 5.070560e+02 1.038003e+02
      vertex   1.377499e+02 5.070581e+02 1.038092e+02
    endloop
  endfacet
  facet normal 8.440113e-03 2.946806e-02 -9.995301e-01
    outer loop
      vertex   1.371076e+02 5.070066e+02 1.038023e+02
      vertex   1.377499e+02 5.070581e+02 1.038092e+02
      vertex   1.372678e+02 5.069851e+02 1.038030e+02
    endloop
  endfacet
  facet normal 5.090725e-03 5.152365e-02 -9.986588e-01
    outer loop
      vertex   1.372678e+02 5.069851e+02 1.038030e+02
      vertex   1.377499e+02 5.070581e+02 1.038092e+02
      vertex   1.377500e+02 5.069552e+02 1.038039e+02
    endloop
  endfacet
  facet normal 1.228734e-02 1.678158e-01 -9.857418e-01
    outer loop
      vertex   1.372678e+02 5.069851e+02 1.038030e+02
      vertex   1.377500e+02 5.069552e+02 1.038039e+02
      vertex   1.372505e+02 5.068743e+02 1.037839e+02
    endloop
  endfacet
  facet normal 1.445139e-02 1.549611e-01 -9.878149e-01
    outer loop
      vertex   1.372505e+02 5.068743e+02 1.037839e+02
      vertex   1.377500e+02 5.069552e+02 1.038039e+02
      vertex   1.377508e+02 5.068517e+02 1.037877e+02
    endloop
  endfacet
  facet normal 1.987657e-02 2.795258e-01 -9.599324e-01
    outer loop
      vertex   1.372505e+02 5.068743e+02 1.037839e+02
      vertex   1.377508e+02 5.068517e+02 1.037877e+02
      vertex   1.372335e+02 5.067649e+02 1.037517e+02
    endloop
  endfacet
  facet normal 2.388807e-02 2.580445e-01 -9.658377e-01
    outer loop
      vertex   1.372335e+02 5.067649e+02 1.037517e+02
      vertex   1.377508e+02 5.068517e+02 1.037877e+02
      vertex   1.377516e+02 5.067493e+02 1.037603e+02
    endloop
  endfacet
  facet normal 2.706831e-02 3.882111e-01 -9.211729e-01
    outer loop
      vertex   1.372335e+02 5.067649e+02 1.037517e+02
      vertex   1.377516e+02 5.067493e+02 1.037603e+02
      vertex   1.372171e+02 5.066600e+02 1.037070e+02
    endloop
  endfacet
  facet normal 3.317189e-02 3.586738e-01 -9.328734e-01
    outer loop
      vertex   1.372171e+02 5.066600e+02 1.037070e+02
      vertex   1.377516e+02 5.067493e+02 1.037603e+02
      vertex   1.377524e+02 5.066506e+02 1.037224e+02
    endloop
  endfacet
  facet normal 3.371210e-02 4.921902e-01 -8.698346e-01
    outer loop
      vertex   1.372171e+02 5.066600e+02 1.037070e+02
      vertex   1.377524e+02 5.066506e+02 1.037224e+02
      vertex   1.372014e+02 5.065598e+02 1.036497e+02
    endloop
  endfacet
  facet normal 4.228700e-02 4.556163e-01 -8.891713e-01
    outer loop
      vertex   1.372014e+02 5.065598e+02 1.036497e+02
      vertex   1.377524e+02 5.066506e+02 1.037224e+02
      vertex   1.377531e+02 5.065554e+02 1.036737e+02
    endloop
  endfacet
  facet normal 3.978643e-02 5.893233e-01 -8.069170e-01
    outer loop
      vertex   1.372014e+02 5.065598e+02 1.036497e+02
      vertex   1.377531e+02 5.065554e+02 1.036737e+02
      vertex   1.371871e+02 5.064681e+02 1.035820e+02
    endloop
  endfacet
  facet normal 5.090372e-02 5.471996e-01 -8.354528e-01
    outer loop
      vertex   1.371871e+02 5.064681e+02 1.035820e+02
      vertex   1.377531e+02 5.065554e+02 1.036737e+02
      vertex   1.377538e+02 5.064670e+02 1.036159e+02
    endloop
  endfacet
  facet normal 4.510476e-02 6.773518e-01 -7.342753e-01
    outer loop
      vertex   1.371871e+02 5.064681e+02 1.035820e+02
      vertex   1.377538e+02 5.064670e+02 1.036159e+02
      vertex   1.371743e+02 5.063857e+02 1.035052e+02
    endloop
  endfacet
  facet normal 5.895147e-02 6.315223e-01 -7.731134e-01
    outer loop
      vertex   1.371743e+02 5.063857e+02 1.035052e+02
      vertex   1.377538e+02 5.064670e+02 1.036159e+02
      vertex   1.377545e+02 5.063862e+02 1.035498e+02
    endloop
  endfacet
  facet normal 5.434332e-02 6.981602e-01 -7.138761e-01
    outer loop
      vertex   1.371743e+02 5.063857e+02 1.035052e+02
      vertex   1.377545e+02 5.063862e+02 1.035498e+02
      vertex   1.377297e+02 5.063138e+02 1.034772e+02
    endloop
  endfacet
  facet normal -6.168516e-02 7.175736e-01 -6.937457e-01
    outer loop
      vertex   1.377297e+02 5.063138e+02 1.034772e+02
      vertex   1.377545e+02 5.063862e+02 1.035498e+02
      vertex   1.383255e+02 5.063856e+02 1.034984e+02
    endloop
  endfacet
  facet normal -7.193169e-02 7.809141e-01 -6.204828e-01
    outer loop
      vertex   1.377297e+02 5.063138e+02 1.034772e+02
      vertex   1.383255e+02 5.063856e+02 1.034984e+02
      vertex   1.383932e+02 5.063138e+02 1.034003e+02
    endloop
  endfacet
  facet normal -1.576919e-01 7.421951e-01 -6.513676e-01
    outer loop
      vertex   1.383932e+02 5.063138e+02 1.034003e+02
      vertex   1.383255e+02 5.063856e+02 1.034984e+02
      vertex   1.388349e+02 5.063796e+02 1.033683e+02
    endloop
  endfacet
  facet normal -1.633082e-01 8.766004e-01 -4.526613e-01
    outer loop
      vertex   1.383932e+02 5.063138e+02 1.034003e+02
      vertex   1.388349e+02 5.063796e+02 1.033683e+02
      vertex   1.390215e+02 5.063138e+02 1.031736e+02
    endloop
  endfacet
  facet normal -1.481293e-01 8.851910e-01 -4.410154e-01
    outer loop
      vertex   1.390215e+02 5.063138e+02 1.031736e+02
      vertex   1.388349e+02 5.063796e+02 1.033683e+02
      vertex   1.392300e+02 5.063633e+02 1.032030e+02
    endloop
  endfacet
  facet normal -1.563531e-01 8.998213e-01 -4.072780e-01
    outer loop
      vertex   1.390215e+02 5.063138e+02 1.031736e+02
      vertex   1.392300e+02 5.063633e+02 1.032030e+02
      vertex   1.394191e+02 5.063488e+02 1.030982e+02
    endloop
  endfacet
  facet normal -1.359912e-01 9.178056e-01 -3.730137e-01
    outer loop
      vertex   1.394191e+02 5.063488e+02 1.030982e+02
      vertex   1.392300e+02 5.063633e+02 1.032030e+02
      vertex   1.394130e+02 5.064152e+02 1.032639e+02
    endloop
  endfacet
  facet normal -6.440711e-02 9.254274e-01 -3.734111e-01
    outer loop
      vertex   1.394191e+02 5.063488e+02 1.030982e+02
      vertex   1.394130e+02 5.064152e+02 1.032639e+02
      vertex   1.395812e+02 5.063479e+02 1.030680e+02
    endloop
  endfacet
  facet normal -7.560410e-02 9.212353e-01 -3.815882e-01
    outer loop
      vertex   1.395812e+02 5.063479e+02 1.030680e+02
      vertex   1.394130e+02 5.064152e+02 1.032639e+02
      vertex   1.395812e+02 5.064478e+02 1.033092e+02
    endloop
  endfacet
  facet normal -1.979252e-02 8.450584e-01 -5.343075e-01
    outer loop
      vertex   1.395812e+02 5.064478e+02 1.033092e+02
      vertex   1.394130e+02 5.064152e+02 1.032639e+02
      vertex   1.394040e+02 5.065137e+02 1.034201e+02
    endloop
  endfacet
  facet normal -8.531276e-02 7.904609e-01 -6.065420e-01
    outer loop
      vertex   1.395812e+02 5.064478e+02 1.033092e+02
      vertex   1.394040e+02 5.065137e+02 1.034201e+02
      vertex   1.395812e+02 5.066067e+02 1.035163e+02
    endloop
  endfacet
  facet normal -1.306789e-02 7.310253e-01 -6.822252e-01
    outer loop
      vertex   1.395812e+02 5.066067e+02 1.035163e+02
      vertex   1.394040e+02 5.065137e+02 1.034201e+02
      vertex   1.393924e+02 5.066427e+02 1.035585e+02
    endloop
  endfacet
  facet normal -6.888929e-02 5.852505e-01 -8.079208e-01
    outer loop
      vertex   1.395812e+02 5.066067e+02 1.035163e+02
      vertex   1.393924e+02 5.066427e+02 1.035585e+02
      vertex   1.393789e+02 5.067935e+02 1.036689e+02
    endloop
  endfacet
  facet normal -9.295122e-02 5.826920e-01 -8.073600e-01
    outer loop
      vertex   1.393789e+02 5.067935e+02 1.036689e+02
      vertex   1.393924e+02 5.066427e+02 1.035585e+02
      vertex   1.391829e+02 5.066643e+02 1.035982e+02
    endloop
  endfacet
  facet normal -5.547567e-02 5.426663e-01 -8.381144e-01
    outer loop
      vertex   1.393789e+02 5.067935e+02 1.036689e+02
      vertex   1.391829e+02 5.066643e+02 1.035982e+02
      vertex   1.391610e+02 5.068053e+02 1.036910e+02
    endloop
  endfacet
  facet normal -1.101762e-01 5.341957e-01 -8.381504e-01
    outer loop
      vertex   1.391610e+02 5.068053e+02 1.036910e+02
      vertex   1.391829e+02 5.066643e+02 1.035982e+02
      vertex   1.387725e+02 5.066746e+02 1.036587e+02
    endloop
  endfacet
  facet normal -8.108698e-02 4.592269e-01 -8.846104e-01
    outer loop
      vertex   1.391610e+02 5.068053e+02 1.036910e+02
      vertex   1.387725e+02 5.066746e+02 1.036587e+02
      vertex   1.387466e+02 5.067971e+02 1.037247e+02
    endloop
  endfacet
  facet normal -9.492016e-02 4.563596e-01 -8.847181e-01
    outer loop
      vertex   1.387466e+02 5.067971e+02 1.037247e+02
      vertex   1.387725e+02 5.066746e+02 1.036587e+02
      vertex   1.382801e+02 5.066612e+02 1.037046e+02
    endloop
  endfacet
  facet normal -7.276667e-02 3.854916e-01 -9.198376e-01
    outer loop
      vertex   1.387466e+02 5.067971e+02 1.037247e+02
      vertex   1.382801e+02 5.066612e+02 1.037046e+02
      vertex   1.382627e+02 5.067671e+02 1.037504e+02
    endloop
  endfacet
  facet normal -3.884232e-02 3.909601e-01 -9.195877e-01
    outer loop
      vertex   1.382627e+02 5.067671e+02 1.037504e+02
      vertex   1.382801e+02 5.066612e+02 1.037046e+02
      vertex   1.377524e+02 5.066506e+02 1.037224e+02
    endloop
  endfacet
  facet normal -3.063585e-02 3.582679e-01 -9.331161e-01
    outer loop
      vertex   1.382627e+02 5.067671e+02 1.037504e+02
      vertex   1.377524e+02 5.066506e+02 1.037224e+02
      vertex   1.377516e+02 5.067493e+02 1.037603e+02
    endloop
  endfacet
  facet normal 3.599694e-02 6.083669e-01 -7.928392e-01
    outer loop
      vertex   1.358782e+02 5.066067e+02 1.035163e+02
      vertex   1.358782e+02 5.068138e+02 1.036752e+02
      vertex   1.360859e+02 5.067940e+02 1.036695e+02
    endloop
  endfacet
  facet normal 1.579668e-02 4.282642e-01 -9.035155e-01
    outer loop
      vertex   1.360859e+02 5.067940e+02 1.036695e+02
      vertex   1.358782e+02 5.068138e+02 1.036752e+02
      vertex   1.361010e+02 5.069606e+02 1.037487e+02
    endloop
  endfacet
  facet normal 4.137803e-02 4.260559e-01 -9.037501e-01
    outer loop
      vertex   1.360859e+02 5.067940e+02 1.036695e+02
      vertex   1.361010e+02 5.069606e+02 1.037487e+02
      vertex   1.363339e+02 5.069582e+02 1.037582e+02
    endloop
  endfacet
  facet normal 4.215787e-02 2.327436e-01 -9.716240e-01
    outer loop
      vertex   1.363339e+02 5.069582e+02 1.037582e+02
      vertex   1.361010e+02 5.069606e+02 1.037487e+02
      vertex   1.363585e+02 5.071151e+02 1.037969e+02
    endloop
  endfacet
  facet normal 3.958930e-02 2.331496e-01 -9.716347e-01
    outer loop
      vertex   1.363339e+02 5.069582e+02 1.037582e+02
      vertex   1.363585e+02 5.071151e+02 1.037969e+02
      vertex   1.367910e+02 5.070560e+02 1.038003e+02
    endloop
  endfacet
  facet normal 2.433107e-02 1.202880e-01 -9.924408e-01
    outer loop
      vertex   1.367910e+02 5.070560e+02 1.038003e+02
      vertex   1.363585e+02 5.071151e+02 1.037969e+02
      vertex   1.358782e+02 5.073138e+02 1.038092e+02
    endloop
  endfacet
  facet normal 9.083644e-03 6.648104e-02 -9.977463e-01
    outer loop
      vertex   1.367910e+02 5.070560e+02 1.038003e+02
      vertex   1.358782e+02 5.073138e+02 1.038092e+02
      vertex   1.377499e+02 5.070581e+02 1.038092e+02
    endloop
  endfacet
  facet normal 5.248041e-02 3.821561e-01 -9.226064e-01
    outer loop
      vertex   1.358782e+02 5.068138e+02 1.036752e+02
      vertex   1.358782e+02 5.070550e+02 1.037751e+02
      vertex   1.361010e+02 5.069606e+02 1.037487e+02
    endloop
  endfacet
  facet normal -5.018199e-03 2.585690e-01 -9.659797e-01
    outer loop
      vertex   1.361010e+02 5.069606e+02 1.037487e+02
      vertex   1.358782e+02 5.070550e+02 1.037751e+02
      vertex   1.361165e+02 5.071327e+02 1.037947e+02
    endloop
  endfacet
  facet normal 2.736780e-02 2.557469e-01 -9.663563e-01
    outer loop
      vertex   1.361010e+02 5.069606e+02 1.037487e+02
      vertex   1.361165e+02 5.071327e+02 1.037947e+02
      vertex   1.363585e+02 5.071151e+02 1.037969e+02
    endloop
  endfacet
  facet normal 1.638220e-02 1.012137e-01 -9.947298e-01
    outer loop
      vertex   1.363585e+02 5.071151e+02 1.037969e+02
      vertex   1.361165e+02 5.071327e+02 1.037947e+02
      vertex   1.358782e+02 5.073138e+02 1.038092e+02
    endloop
  endfacet
  facet normal 3.882431e-02 1.304278e-01 -9.906974e-01
    outer loop
      vertex   1.358782e+02 5.070550e+02 1.037751e+02
      vertex   1.358782e+02 5.073138e+02 1.038092e+02
      vertex   1.361165e+02 5.071327e+02 1.037947e+02
    endloop
  endfacet
  facet normal -5.908801e-03 5.151166e-02 -9.986549e-01
    outer loop
      vertex   1.377500e+02 5.069552e+02 1.038039e+02
      vertex   1.377499e+02 5.070581e+02 1.038092e+02
      vertex   1.382262e+02 5.069894e+02 1.038028e+02
    endloop
  endfacet
  facet normal -6.562706e-03 4.699656e-02 -9.988735e-01
    outer loop
      vertex   1.382262e+02 5.069894e+02 1.038028e+02
      vertex   1.377499e+02 5.070581e+02 1.038092e+02
      vertex   1.395812e+02 5.073138e+02 1.038092e+02
    endloop
  endfacet
  facet normal -2.337753e-02 1.171141e-01 -9.928433e-01
    outer loop
      vertex   1.382262e+02 5.069894e+02 1.038028e+02
      vertex   1.395812e+02 5.073138e+02 1.038092e+02
      vertex   1.386911e+02 5.070596e+02 1.038002e+02
    endloop
  endfacet
  facet normal -2.403193e-02 1.193954e-01 -9.925559e-01
    outer loop
      vertex   1.386911e+02 5.070596e+02 1.038002e+02
      vertex   1.395812e+02 5.073138e+02 1.038092e+02
      vertex   1.391129e+02 5.071164e+02 1.037968e+02
    endloop
  endfacet
  facet normal -3.469175e-02 1.993908e-01 -9.793058e-01
    outer loop
      vertex   1.386911e+02 5.070596e+02 1.038002e+02
      vertex   1.391129e+02 5.071164e+02 1.037968e+02
      vertex   1.387191e+02 5.069271e+02 1.037722e+02
    endloop
  endfacet
  facet normal -5.105839e-02 2.323948e-01 -9.712804e-01
    outer loop
      vertex   1.387191e+02 5.069271e+02 1.037722e+02
      vertex   1.391129e+02 5.071164e+02 1.037968e+02
      vertex   1.391373e+02 5.069587e+02 1.037578e+02
    endloop
  endfacet
  facet normal -5.756567e-02 3.320128e-01 -9.415167e-01
    outer loop
      vertex   1.387191e+02 5.069271e+02 1.037722e+02
      vertex   1.391373e+02 5.069587e+02 1.037578e+02
      vertex   1.387466e+02 5.067971e+02 1.037247e+02
    endloop
  endfacet
  facet normal -8.239495e-02 3.872766e-01 -9.182744e-01
    outer loop
      vertex   1.387466e+02 5.067971e+02 1.037247e+02
      vertex   1.391373e+02 5.069587e+02 1.037578e+02
      vertex   1.391610e+02 5.068053e+02 1.036910e+02
    endloop
  endfacet
  facet normal -1.612261e-02 1.007725e-01 -9.947789e-01
    outer loop
      vertex   1.391129e+02 5.071164e+02 1.037968e+02
      vertex   1.395812e+02 5.073138e+02 1.038092e+02
      vertex   1.393489e+02 5.071330e+02 1.037946e+02
    endloop
  endfacet
  facet normal -3.945569e-02 1.304246e-01 -9.906728e-01
    outer loop
      vertex   1.393489e+02 5.071330e+02 1.037946e+02
      vertex   1.395812e+02 5.073138e+02 1.038092e+02
      vertex   1.395812e+02 5.070550e+02 1.037751e+02
    endloop
  endfacet
  facet normal 5.803100e-03 2.590738e-01 -9.658401e-01
    outer loop
      vertex   1.393489e+02 5.071330e+02 1.037946e+02
      vertex   1.395812e+02 5.070550e+02 1.037751e+02
      vertex   1.393641e+02 5.069605e+02 1.037485e+02
    endloop
  endfacet
  facet normal -5.308204e-02 3.821439e-01 -9.225770e-01
    outer loop
      vertex   1.393641e+02 5.069605e+02 1.037485e+02
      vertex   1.395812e+02 5.070550e+02 1.037751e+02
      vertex   1.395812e+02 5.068138e+02 1.036752e+02
    endloop
  endfacet
  facet normal -1.478474e-02 4.291259e-01 -9.031237e-01
    outer loop
      vertex   1.393641e+02 5.069605e+02 1.037485e+02
      vertex   1.395812e+02 5.068138e+02 1.036752e+02
      vertex   1.393789e+02 5.067935e+02 1.036689e+02
    endloop
  endfacet
  facet normal -3.616094e-02 6.083633e-01 -7.928345e-01
    outer loop
      vertex   1.393789e+02 5.067935e+02 1.036689e+02
      vertex   1.395812e+02 5.068138e+02 1.036752e+02
      vertex   1.395812e+02 5.066067e+02 1.035163e+02
    endloop
  endfacet
  facet normal -1.877343e-02 9.912701e-01 -1.305032e-01
    outer loop
      vertex   1.395812e+02 5.063479e+02 1.030680e+02
      vertex   1.395812e+02 5.063138e+02 1.028092e+02
      vertex   1.394191e+02 5.063488e+02 1.030982e+02
    endloop
  endfacet
  facet normal -1.210179e-01 9.750876e-01 -1.858999e-01
    outer loop
      vertex   1.394191e+02 5.063488e+02 1.030982e+02
      vertex   1.395812e+02 5.063138e+02 1.028092e+02
      vertex   1.390215e+02 5.063138e+02 1.031736e+02
    endloop
  endfacet
  facet normal 7.100232e-02 7.873017e-01 -6.124661e-01
    outer loop
      vertex   1.377297e+02 5.063138e+02 1.034772e+02
      vertex   1.370663e+02 5.063138e+02 1.034003e+02
      vertex   1.371743e+02 5.063857e+02 1.035052e+02
    endloop
  endfacet
  facet normal 1.184757e-01 7.580885e-01 -6.412997e-01
    outer loop
      vertex   1.371743e+02 5.063857e+02 1.035052e+02
      vertex   1.370663e+02 5.063138e+02 1.034003e+02
      vertex   1.369901e+02 5.063848e+02 1.034701e+02
    endloop
  endfacet
  facet normal 1.368495e-01 6.638932e-01 -7.351993e-01
    outer loop
      vertex   1.371743e+02 5.063857e+02 1.035052e+02
      vertex   1.369901e+02 5.063848e+02 1.034701e+02
      vertex   1.371871e+02 5.064681e+02 1.035820e+02
    endloop
  endfacet
  facet normal 1.031406e-01 7.022619e-01 -7.044078e-01
    outer loop
      vertex   1.371871e+02 5.064681e+02 1.035820e+02
      vertex   1.369901e+02 5.063848e+02 1.034701e+02
      vertex   1.370058e+02 5.064679e+02 1.035552e+02
    endloop
  endfacet
  facet normal 1.185257e-01 5.775926e-01 -8.076747e-01
    outer loop
      vertex   1.371871e+02 5.064681e+02 1.035820e+02
      vertex   1.370058e+02 5.064679e+02 1.035552e+02
      vertex   1.372014e+02 5.065598e+02 1.036497e+02
    endloop
  endfacet
  facet normal 9.102107e-02 6.128111e-01 -7.849699e-01
    outer loop
      vertex   1.372014e+02 5.065598e+02 1.036497e+02
      vertex   1.370058e+02 5.064679e+02 1.035552e+02
      vertex   1.370235e+02 5.065619e+02 1.036307e+02
    endloop
  endfacet
  facet normal 9.863607e-02 4.823760e-01 -8.703932e-01
    outer loop
      vertex   1.372014e+02 5.065598e+02 1.036497e+02
      vertex   1.370235e+02 5.065619e+02 1.036307e+02
      vertex   1.372171e+02 5.066600e+02 1.037070e+02
    endloop
  endfacet
  facet normal 7.708827e-02 5.128983e-01 -8.549812e-01
    outer loop
      vertex   1.372171e+02 5.066600e+02 1.037070e+02
      vertex   1.370235e+02 5.065619e+02 1.036307e+02
      vertex   1.370432e+02 5.066657e+02 1.036948e+02
    endloop
  endfacet
  facet normal 7.739718e-02 3.805089e-01 -9.215328e-01
    outer loop
      vertex   1.372171e+02 5.066600e+02 1.037070e+02
      vertex   1.370432e+02 5.066657e+02 1.036948e+02
      vertex   1.372335e+02 5.067649e+02 1.037517e+02
    endloop
  endfacet
  facet normal 6.182024e-02 4.050372e-01 -9.122078e-01
    outer loop
      vertex   1.372335e+02 5.067649e+02 1.037517e+02
      vertex   1.370432e+02 5.066657e+02 1.036948e+02
      vertex   1.370639e+02 5.067754e+02 1.037448e+02
    endloop
  endfacet
  facet normal 5.568795e-02 2.739910e-01 -9.601186e-01
    outer loop
      vertex   1.372335e+02 5.067649e+02 1.037517e+02
      vertex   1.370639e+02 5.067754e+02 1.037448e+02
      vertex   1.372505e+02 5.068743e+02 1.037839e+02
    endloop
  endfacet
  facet normal 4.529367e-02 2.917495e-01 -9.554217e-01
    outer loop
      vertex   1.372505e+02 5.068743e+02 1.037839e+02
      vertex   1.370639e+02 5.067754e+02 1.037448e+02
      vertex   1.370856e+02 5.068901e+02 1.037809e+02
    endloop
  endfacet
  facet normal 3.361814e-02 1.644972e-01 -9.858045e-01
    outer loop
      vertex   1.372505e+02 5.068743e+02 1.037839e+02
      vertex   1.370856e+02 5.068901e+02 1.037809e+02
      vertex   1.372678e+02 5.069851e+02 1.038030e+02
    endloop
  endfacet
  facet normal 2.791562e-02 1.750606e-01 -9.841618e-01
    outer loop
      vertex   1.372678e+02 5.069851e+02 1.038030e+02
      vertex   1.370856e+02 5.068901e+02 1.037809e+02
      vertex   1.371076e+02 5.070066e+02 1.038023e+02
    endloop
  endfacet
  facet normal 1.579996e-01 7.734815e-01 -6.138098e-01
    outer loop
      vertex   1.369901e+02 5.063848e+02 1.034701e+02
      vertex   1.370663e+02 5.063138e+02 1.034003e+02
      vertex   1.366477e+02 5.063801e+02 1.033760e+02
    endloop
  endfacet
  facet normal 1.648599e-01 8.740747e-01 -4.569624e-01
    outer loop
      vertex   1.366477e+02 5.063801e+02 1.033760e+02
      vertex   1.370663e+02 5.063138e+02 1.034003e+02
      vertex   1.364380e+02 5.063138e+02 1.031736e+02
    endloop
  endfacet
  facet normal 1.469183e-01 8.849336e-01 -4.419362e-01
    outer loop
      vertex   1.366477e+02 5.063801e+02 1.033760e+02
      vertex   1.364380e+02 5.063138e+02 1.031736e+02
      vertex   1.362396e+02 5.063639e+02 1.032081e+02
    endloop
  endfacet
  facet normal 1.564336e-01 8.993894e-01 -4.082001e-01
    outer loop
      vertex   1.362396e+02 5.063639e+02 1.032081e+02
      vertex   1.364380e+02 5.063138e+02 1.031736e+02
      vertex   1.360448e+02 5.063492e+02 1.031009e+02
    endloop
  endfacet
  facet normal 1.939119e-01 8.605560e-01 -4.710005e-01
    outer loop
      vertex   1.362396e+02 5.063639e+02 1.032081e+02
      vertex   1.360448e+02 5.063492e+02 1.031009e+02
      vertex   1.362518e+02 5.064398e+02 1.033516e+02
    endloop
  endfacet
  facet normal 5.006374e-02 9.254087e-01 -3.756492e-01
    outer loop
      vertex   1.362518e+02 5.064398e+02 1.033516e+02
      vertex   1.360448e+02 5.063492e+02 1.031009e+02
      vertex   1.360511e+02 5.064159e+02 1.032661e+02
    endloop
  endfacet
  facet normal 1.678843e-01 7.744010e-01 -6.100147e-01
    outer loop
      vertex   1.362518e+02 5.064398e+02 1.033516e+02
      vertex   1.360511e+02 5.064159e+02 1.032661e+02
      vertex   1.362679e+02 5.065407e+02 1.034842e+02
    endloop
  endfacet
  facet normal 5.548333e-02 8.418221e-01 -5.368959e-01
    outer loop
      vertex   1.362679e+02 5.065407e+02 1.034842e+02
      vertex   1.360511e+02 5.064159e+02 1.032661e+02
      vertex   1.360603e+02 5.065145e+02 1.034217e+02
    endloop
  endfacet
  facet normal 1.377013e-01 6.637063e-01 -7.352090e-01
    outer loop
      vertex   1.362679e+02 5.065407e+02 1.034842e+02
      vertex   1.360603e+02 5.065145e+02 1.034217e+02
      vertex   1.362876e+02 5.066650e+02 1.036001e+02
    endloop
  endfacet
  facet normal 5.596908e-02 7.269372e-01 -6.844193e-01
    outer loop
      vertex   1.362876e+02 5.066650e+02 1.036001e+02
      vertex   1.360603e+02 5.065145e+02 1.034217e+02
      vertex   1.360722e+02 5.066434e+02 1.035595e+02
    endloop
  endfacet
  facet normal 1.047881e-01 5.327902e-01 -8.397345e-01
    outer loop
      vertex   1.362876e+02 5.066650e+02 1.036001e+02
      vertex   1.360722e+02 5.066434e+02 1.035595e+02
      vertex   1.363098e+02 5.068055e+02 1.036920e+02
    endloop
  endfacet
  facet normal 1.838879e-01 6.862802e-01 -7.037078e-01
    outer loop
      vertex   1.370058e+02 5.064679e+02 1.035552e+02
      vertex   1.369901e+02 5.063848e+02 1.034701e+02
      vertex   1.366477e+02 5.063801e+02 1.033760e+02
    endloop
  endfacet
  facet normal 2.257154e-01 7.510600e-01 -6.204526e-01
    outer loop
      vertex   1.366477e+02 5.063801e+02 1.033760e+02
      vertex   1.362396e+02 5.063639e+02 1.032081e+02
      vertex   1.366653e+02 5.064631e+02 1.034830e+02
    endloop
  endfacet
  facet normal 1.002154e-01 8.762438e-01 -4.713318e-01
    outer loop
      vertex   1.366653e+02 5.064631e+02 1.034830e+02
      vertex   1.362396e+02 5.063639e+02 1.032081e+02
      vertex   1.362518e+02 5.064398e+02 1.033516e+02
    endloop
  endfacet
  facet normal 1.920967e-01 6.639492e-01 -7.226827e-01
    outer loop
      vertex   1.366653e+02 5.064631e+02 1.034830e+02
      vertex   1.362518e+02 5.064398e+02 1.033516e+02
      vertex   1.366862e+02 5.065617e+02 1.035791e+02
    endloop
  endfacet
  facet normal 9.905689e-02 7.858770e-01 -6.103975e-01
    outer loop
      vertex   1.366862e+02 5.065617e+02 1.035791e+02
      vertex   1.362518e+02 5.064398e+02 1.033516e+02
      vertex   1.362679e+02 5.065407e+02 1.034842e+02
    endloop
  endfacet
  facet normal 1.561658e-01 5.615093e-01 -8.126005e-01
    outer loop
      vertex   1.366862e+02 5.065617e+02 1.035791e+02
      vertex   1.362679e+02 5.065407e+02 1.034842e+02
      vertex   1.367100e+02 5.066743e+02 1.036615e+02
    endloop
  endfacet
  facet normal 9.210608e-02 6.712202e-01 -7.355133e-01
    outer loop
      vertex   1.367100e+02 5.066743e+02 1.036615e+02
      vertex   1.362679e+02 5.065407e+02 1.034842e+02
      vertex   1.362876e+02 5.066650e+02 1.036001e+02
    endloop
  endfacet
  facet normal 1.189911e-01 4.469628e-01 -8.866033e-01
    outer loop
      vertex   1.367100e+02 5.066743e+02 1.036615e+02
      vertex   1.362876e+02 5.066650e+02 1.036001e+02
      vertex   1.367358e+02 5.067959e+02 1.037262e+02
    endloop
  endfacet
  facet normal 7.959725e-02 5.368759e-01 -8.398980e-01
    outer loop
      vertex   1.367358e+02 5.067959e+02 1.037262e+02
      vertex   1.362876e+02 5.066650e+02 1.036001e+02
      vertex   1.363098e+02 5.068055e+02 1.036920e+02
    endloop
  endfacet
  facet normal 8.301077e-02 3.235412e-01 -9.425658e-01
    outer loop
      vertex   1.367358e+02 5.067959e+02 1.037262e+02
      vertex   1.363098e+02 5.068055e+02 1.036920e+02
      vertex   1.367631e+02 5.069247e+02 1.037729e+02
    endloop
  endfacet
  facet normal -6.488322e-02 6.815822e-01 -7.288593e-01
    outer loop
      vertex   1.383255e+02 5.063856e+02 1.034984e+02
      vertex   1.377545e+02 5.063862e+02 1.035498e+02
      vertex   1.383119e+02 5.064681e+02 1.035769e+02
    endloop
  endfacet
  facet normal -5.528729e-02 6.311185e-01 -7.737136e-01
    outer loop
      vertex   1.383119e+02 5.064681e+02 1.035769e+02
      vertex   1.377545e+02 5.063862e+02 1.035498e+02
      vertex   1.377538e+02 5.064670e+02 1.036159e+02
    endloop
  endfacet
  facet normal -5.725818e-02 5.932536e-01 -8.029768e-01
    outer loop
      vertex   1.383119e+02 5.064681e+02 1.035769e+02
      vertex   1.377538e+02 5.064670e+02 1.036159e+02
      vertex   1.382967e+02 5.065603e+02 1.036460e+02
    endloop
  endfacet
  facet normal -4.743618e-02 5.467545e-01 -8.359482e-01
    outer loop
      vertex   1.382967e+02 5.065603e+02 1.036460e+02
      vertex   1.377538e+02 5.064670e+02 1.036159e+02
      vertex   1.377531e+02 5.065554e+02 1.036737e+02
    endloop
  endfacet
  facet normal -4.856069e-02 4.955988e-01 -8.671930e-01
    outer loop
      vertex   1.382967e+02 5.065603e+02 1.036460e+02
      vertex   1.377531e+02 5.065554e+02 1.036737e+02
      vertex   1.382801e+02 5.066612e+02 1.037046e+02
    endloop
  endfacet
  facet normal -3.912884e-02 4.551703e-01 -8.895442e-01
    outer loop
      vertex   1.382801e+02 5.066612e+02 1.037046e+02
      vertex   1.377531e+02 5.065554e+02 1.036737e+02
      vertex   1.377524e+02 5.066506e+02 1.037224e+02
    endloop
  endfacet
  facet normal -1.479652e-01 7.746781e-01 -6.148009e-01
    outer loop
      vertex   1.388349e+02 5.063796e+02 1.033683e+02
      vertex   1.383255e+02 5.063856e+02 1.034984e+02
      vertex   1.388174e+02 5.064625e+02 1.034770e+02
    endloop
  endfacet
  facet normal -1.366465e-01 6.703000e-01 -7.294009e-01
    outer loop
      vertex   1.388174e+02 5.064625e+02 1.034770e+02
      vertex   1.383255e+02 5.063856e+02 1.034984e+02
      vertex   1.383119e+02 5.064681e+02 1.035769e+02
    endloop
  endfacet
  facet normal -1.343384e-01 6.825222e-01 -7.184126e-01
    outer loop
      vertex   1.388174e+02 5.064625e+02 1.034770e+02
      vertex   1.383119e+02 5.064681e+02 1.035769e+02
      vertex   1.387965e+02 5.065613e+02 1.035748e+02
    endloop
  endfacet
  facet normal -1.157598e-01 5.839985e-01 -8.034584e-01
    outer loop
      vertex   1.387965e+02 5.065613e+02 1.035748e+02
      vertex   1.383119e+02 5.064681e+02 1.035769e+02
      vertex   1.382967e+02 5.065603e+02 1.036460e+02
    endloop
  endfacet
  facet normal -1.166191e-01 5.752716e-01 -8.096064e-01
    outer loop
      vertex   1.387965e+02 5.065613e+02 1.035748e+02
      vertex   1.382967e+02 5.065603e+02 1.036460e+02
      vertex   1.387725e+02 5.066746e+02 1.036587e+02
    endloop
  endfacet
  facet normal -9.418911e-02 4.883165e-01 -8.675687e-01
    outer loop
      vertex   1.387725e+02 5.066746e+02 1.036587e+02
      vertex   1.382967e+02 5.065603e+02 1.036460e+02
      vertex   1.382801e+02 5.066612e+02 1.037046e+02
    endloop
  endfacet
  facet normal -1.596685e-01 8.696826e-01 -4.670740e-01
    outer loop
      vertex   1.392300e+02 5.063633e+02 1.032030e+02
      vertex   1.388349e+02 5.063796e+02 1.033683e+02
      vertex   1.392181e+02 5.064388e+02 1.033476e+02
    endloop
  endfacet
  facet normal -1.528105e-01 7.737055e-01 -6.148405e-01
    outer loop
      vertex   1.392181e+02 5.064388e+02 1.033476e+02
      vertex   1.388349e+02 5.063796e+02 1.033683e+02
      vertex   1.388174e+02 5.064625e+02 1.034770e+02
    endloop
  endfacet
  facet normal -1.498527e-01 7.805041e-01 -6.069246e-01
    outer loop
      vertex   1.392181e+02 5.064388e+02 1.033476e+02
      vertex   1.388174e+02 5.064625e+02 1.034770e+02
      vertex   1.392023e+02 5.065397e+02 1.034813e+02
    endloop
  endfacet
  facet normal -1.291463e-01 6.835734e-01 -7.183653e-01
    outer loop
      vertex   1.392023e+02 5.065397e+02 1.034813e+02
      vertex   1.388174e+02 5.064625e+02 1.034770e+02
      vertex   1.387965e+02 5.065613e+02 1.035748e+02
    endloop
  endfacet
  facet normal -1.333639e-01 6.671522e-01 -7.328861e-01
    outer loop
      vertex   1.392023e+02 5.065397e+02 1.034813e+02
      vertex   1.387965e+02 5.065613e+02 1.035748e+02
      vertex   1.391829e+02 5.066643e+02 1.035982e+02
    endloop
  endfacet
  facet normal -1.048641e-01 5.776788e-01 -8.095003e-01
    outer loop
      vertex   1.391829e+02 5.066643e+02 1.035982e+02
      vertex   1.387965e+02 5.065613e+02 1.035748e+02
      vertex   1.387725e+02 5.066746e+02 1.036587e+02
    endloop
  endfacet
  facet normal 1.581134e-01 5.997067e-01 -7.844438e-01
    outer loop
      vertex   1.370235e+02 5.065619e+02 1.036307e+02
      vertex   1.370058e+02 5.064679e+02 1.035552e+02
      vertex   1.366653e+02 5.064631e+02 1.034830e+02
    endloop
  endfacet
  facet normal 1.210411e-01 7.742330e-01 -6.212184e-01
    outer loop
      vertex   1.366653e+02 5.064631e+02 1.034830e+02
      vertex   1.370058e+02 5.064679e+02 1.035552e+02
      vertex   1.366477e+02 5.063801e+02 1.033760e+02
    endloop
  endfacet
  facet normal 1.102352e-01 6.817952e-01 -7.231898e-01
    outer loop
      vertex   1.370235e+02 5.065619e+02 1.036307e+02
      vertex   1.366653e+02 5.064631e+02 1.034830e+02
      vertex   1.366862e+02 5.065617e+02 1.035791e+02
    endloop
  endfacet
  facet normal -1.282448e-01 8.354176e-01 -5.344443e-01
    outer loop
      vertex   1.394040e+02 5.065137e+02 1.034201e+02
      vertex   1.394130e+02 5.064152e+02 1.032639e+02
      vertex   1.392181e+02 5.064388e+02 1.033476e+02
    endloop
  endfacet
  facet normal -9.385159e-02 8.794074e-01 -4.667275e-01
    outer loop
      vertex   1.392181e+02 5.064388e+02 1.033476e+02
      vertex   1.394130e+02 5.064152e+02 1.032639e+02
      vertex   1.392300e+02 5.063633e+02 1.032030e+02
    endloop
  endfacet
  facet normal -8.205609e-02 7.907365e-01 -6.066322e-01
    outer loop
      vertex   1.394040e+02 5.065137e+02 1.034201e+02
      vertex   1.392181e+02 5.064388e+02 1.033476e+02
      vertex   1.392023e+02 5.065397e+02 1.034813e+02
    endloop
  endfacet
  facet normal 1.304340e-01 5.025957e-01 -8.546254e-01
    outer loop
      vertex   1.370432e+02 5.066657e+02 1.036948e+02
      vertex   1.370235e+02 5.065619e+02 1.036307e+02
      vertex   1.366862e+02 5.065617e+02 1.035791e+02
    endloop
  endfacet
  facet normal 9.596035e-02 5.744739e-01 -8.128784e-01
    outer loop
      vertex   1.370432e+02 5.066657e+02 1.036948e+02
      vertex   1.366862e+02 5.065617e+02 1.035791e+02
      vertex   1.367100e+02 5.066743e+02 1.036615e+02
    endloop
  endfacet
  facet normal -1.138769e-01 7.220982e-01 -6.823535e-01
    outer loop
      vertex   1.393924e+02 5.066427e+02 1.035585e+02
      vertex   1.394040e+02 5.065137e+02 1.034201e+02
      vertex   1.392023e+02 5.065397e+02 1.034813e+02
    endloop
  endfacet
  facet normal -6.902761e-02 6.770221e-01 -7.327184e-01
    outer loop
      vertex   1.393924e+02 5.066427e+02 1.035585e+02
      vertex   1.392023e+02 5.065397e+02 1.034813e+02
      vertex   1.391829e+02 5.066643e+02 1.035982e+02
    endloop
  endfacet
  facet normal 1.012917e-01 3.974828e-01 -9.120019e-01
    outer loop
      vertex   1.370432e+02 5.066657e+02 1.036948e+02
      vertex   1.367100e+02 5.066743e+02 1.036615e+02
      vertex   1.370639e+02 5.067754e+02 1.037448e+02
    endloop
  endfacet
  facet normal 7.875183e-02 4.555533e-01 -8.867183e-01
    outer loop
      vertex   1.370639e+02 5.067754e+02 1.037448e+02
      vertex   1.367100e+02 5.066743e+02 1.036615e+02
      vertex   1.367358e+02 5.067959e+02 1.037262e+02
    endloop
  endfacet
  facet normal 7.208477e-02 2.866537e-01 -9.553185e-01
    outer loop
      vertex   1.370639e+02 5.067754e+02 1.037448e+02
      vertex   1.367358e+02 5.067959e+02 1.037262e+02
      vertex   1.370856e+02 5.068901e+02 1.037809e+02
    endloop
  endfacet
  facet normal 5.876808e-02 3.286943e-01 -9.426062e-01
    outer loop
      vertex   1.370856e+02 5.068901e+02 1.037809e+02
      vertex   1.367358e+02 5.067959e+02 1.037262e+02
      vertex   1.367631e+02 5.069247e+02 1.037729e+02
    endloop
  endfacet
  facet normal 4.302507e-02 1.721979e-01 -9.841223e-01
    outer loop
      vertex   1.370856e+02 5.068901e+02 1.037809e+02
      vertex   1.367631e+02 5.069247e+02 1.037729e+02
      vertex   1.371076e+02 5.070066e+02 1.038023e+02
    endloop
  endfacet
  facet normal -7.043647e-02 3.293173e-01 -9.415885e-01
    outer loop
      vertex   1.387191e+02 5.069271e+02 1.037722e+02
      vertex   1.387466e+02 5.067971e+02 1.037247e+02
      vertex   1.382627e+02 5.067671e+02 1.037504e+02
    endloop
  endfacet
  facet normal -2.847444e-02 2.814980e-01 -9.591392e-01
    outer loop
      vertex   1.382627e+02 5.067671e+02 1.037504e+02
      vertex   1.377516e+02 5.067493e+02 1.037603e+02
      vertex   1.382446e+02 5.068775e+02 1.037833e+02
    endloop
  endfacet
  facet normal -2.197391e-02 2.577209e-01 -9.659695e-01
    outer loop
      vertex   1.382446e+02 5.068775e+02 1.037833e+02
      vertex   1.377516e+02 5.067493e+02 1.037603e+02
      vertex   1.377508e+02 5.068517e+02 1.037877e+02
    endloop
  endfacet
  facet normal -1.750416e-02 1.689775e-01 -9.854645e-01
    outer loop
      vertex   1.382446e+02 5.068775e+02 1.037833e+02
      vertex   1.377508e+02 5.068517e+02 1.037877e+02
      vertex   1.382262e+02 5.069894e+02 1.038028e+02
    endloop
  endfacet
  facet normal -1.330617e-02 1.547516e-01 -9.878638e-01
    outer loop
      vertex   1.382262e+02 5.069894e+02 1.038028e+02
      vertex   1.377508e+02 5.068517e+02 1.037877e+02
      vertex   1.377500e+02 5.069552e+02 1.038039e+02
    endloop
  endfacet
  facet normal -6.844505e-02 4.242755e-01 -9.029427e-01
    outer loop
      vertex   1.393641e+02 5.069605e+02 1.037485e+02
      vertex   1.393789e+02 5.067935e+02 1.036689e+02
      vertex   1.391610e+02 5.068053e+02 1.036910e+02
    endloop
  endfacet
  facet normal -4.077367e-02 3.937397e-01 -9.183172e-01
    outer loop
      vertex   1.393641e+02 5.069605e+02 1.037485e+02
      vertex   1.391610e+02 5.068053e+02 1.036910e+02
      vertex   1.391373e+02 5.069587e+02 1.037578e+02
    endloop
  endfacet
  facet normal -4.359995e-02 1.975122e-01 -9.793304e-01
    outer loop
      vertex   1.386911e+02 5.070596e+02 1.038002e+02
      vertex   1.387191e+02 5.069271e+02 1.037722e+02
      vertex   1.382446e+02 5.068775e+02 1.037833e+02
    endloop
  endfacet
  facet normal -5.151379e-02 2.777501e-01 -9.592712e-01
    outer loop
      vertex   1.382446e+02 5.068775e+02 1.037833e+02
      vertex   1.387191e+02 5.069271e+02 1.037722e+02
      vertex   1.382627e+02 5.067671e+02 1.037504e+02
    endloop
  endfacet
  facet normal -3.083822e-02 1.667935e-01 -9.855095e-01
    outer loop
      vertex   1.386911e+02 5.070596e+02 1.038002e+02
      vertex   1.382446e+02 5.068775e+02 1.037833e+02
      vertex   1.382262e+02 5.069894e+02 1.038028e+02
    endloop
  endfacet
  facet normal -4.165543e-02 2.549380e-01 -9.660598e-01
    outer loop
      vertex   1.393489e+02 5.071330e+02 1.037946e+02
      vertex   1.393641e+02 5.069605e+02 1.037485e+02
      vertex   1.391373e+02 5.069587e+02 1.037578e+02
    endloop
  endfacet
  facet normal -2.544161e-02 2.363640e-01 -9.713314e-01
    outer loop
      vertex   1.393489e+02 5.071330e+02 1.037946e+02
      vertex   1.391373e+02 5.069587e+02 1.037578e+02
      vertex   1.391129e+02 5.071164e+02 1.037968e+02
    endloop
  endfacet
  facet normal -1.488744e-14 9.801714e-02 -9.951847e-01
    outer loop
      vertex   1.403297e+02 5.073138e+02 1.038092e+02
      vertex   1.405248e+02 5.071187e+02 1.037900e+02
      vertex   1.395812e+02 5.073138e+02 1.038092e+02
    endloop
  endfacet
  facet normal 6.797347e-03 1.305232e-01 -9.914220e-01
    outer loop
      vertex   1.395812e+02 5.073138e+02 1.038092e+02
      vertex   1.405248e+02 5.071187e+02 1.037900e+02
      vertex   1.395812e+02 5.070550e+02 1.037751e+02
    endloop
  endfacet
  facet normal -4.253935e-03 2.863842e-01 -9.581054e-01
    outer loop
      vertex   1.395812e+02 5.070550e+02 1.037751e+02
      vertex   1.405248e+02 5.071187e+02 1.037900e+02
      vertex   1.407124e+02 5.069311e+02 1.037331e+02
    endloop
  endfacet
  facet normal 7.562779e-03 3.826725e-01 -9.238531e-01
    outer loop
      vertex   1.395812e+02 5.070550e+02 1.037751e+02
      vertex   1.407124e+02 5.069311e+02 1.037331e+02
      vertex   1.395812e+02 5.068138e+02 1.036752e+02
    endloop
  endfacet
  facet normal -3.433514e-03 4.687213e-01 -8.833395e-01
    outer loop
      vertex   1.395812e+02 5.068138e+02 1.036752e+02
      vertex   1.407124e+02 5.069311e+02 1.037331e+02
      vertex   1.408853e+02 5.067582e+02 1.036407e+02
    endloop
  endfacet
  facet normal 4.918433e-03 6.087541e-01 -7.933437e-01
    outer loop
      vertex   1.395812e+02 5.068138e+02 1.036752e+02
      vertex   1.408853e+02 5.067582e+02 1.036407e+02
      vertex   1.395812e+02 5.066067e+02 1.035163e+02
    endloop
  endfacet
  facet normal -9.680362e-15 6.343933e-01 -7.730105e-01
    outer loop
      vertex   1.395812e+02 5.066067e+02 1.035163e+02
      vertex   1.408853e+02 5.067582e+02 1.036407e+02
      vertex   1.410368e+02 5.066067e+02 1.035163e+02
    endloop
  endfacet
  facet normal -1.780014e-14 7.730105e-01 -6.343933e-01
    outer loop
      vertex   1.395812e+02 5.066067e+02 1.035163e+02
      vertex   1.410368e+02 5.066067e+02 1.035163e+02
      vertex   1.411612e+02 5.064823e+02 1.033648e+02
    endloop
  endfacet
  facet normal 4.059576e-03 7.933468e-01 -6.087564e-01
    outer loop
      vertex   1.395812e+02 5.066067e+02 1.035163e+02
      vertex   1.411612e+02 5.064823e+02 1.033648e+02
      vertex   1.395812e+02 5.064478e+02 1.033092e+02
    endloop
  endfacet
  facet normal -2.657047e-03 8.813270e-01 -4.724993e-01
    outer loop
      vertex   1.395812e+02 5.064478e+02 1.033092e+02
      vertex   1.411612e+02 5.064823e+02 1.033648e+02
      vertex   1.412536e+02 5.063899e+02 1.031919e+02
    endloop
  endfacet
  facet normal 5.115480e-03 9.238674e-01 -3.826784e-01
    outer loop
      vertex   1.395812e+02 5.064478e+02 1.033092e+02
      vertex   1.412536e+02 5.063899e+02 1.031919e+02
      vertex   1.395812e+02 5.063479e+02 1.030680e+02
    endloop
  endfacet
  facet normal -2.502350e-03 9.567262e-01 -2.909788e-01
    outer loop
      vertex   1.395812e+02 5.063479e+02 1.030680e+02
      vertex   1.412536e+02 5.063899e+02 1.031919e+02
      vertex   1.413105e+02 5.063330e+02 1.030043e+02
    endloop
  endfacet
  facet normal 3.109613e-03 9.892386e-01 -1.462784e-01
    outer loop
      vertex   1.395812e+02 5.063479e+02 1.030680e+02
      vertex   1.413105e+02 5.063330e+02 1.030043e+02
      vertex   1.413249e+02 5.063186e+02 1.029072e+02
    endloop
  endfacet
  facet normal -3.247065e-14 9.987955e-01 -4.906767e-02
    outer loop
      vertex   1.413297e+02 5.063138e+02 1.028092e+02
      vertex   1.395812e+02 5.063138e+02 1.028092e+02
      vertex   1.413249e+02 5.063186e+02 1.029072e+02
    endloop
  endfacet
  facet normal 4.599248e-03 9.914344e-01 -1.305248e-01
    outer loop
      vertex   1.413249e+02 5.063186e+02 1.029072e+02
      vertex   1.395812e+02 5.063138e+02 1.028092e+02
      vertex   1.395812e+02 5.063479e+02 1.030680e+02
    endloop
  endfacet
endsolid
