solid ASCII
  facet normal -4.451420e-01 -9.488772e-15 -8.954600e-01
    outer loop
      vertex   1.536297e+02 5.023138e+02 9.991216e+01
      vertex   1.536297e+02 5.063138e+02 9.991216e+01
      vertex   1.538500e+02 5.023138e+02 9.980268e+01
    endloop
  endfacet
  facet normal -4.451420e-01 -1.265170e-14 -8.954600e-01
    outer loop
      vertex   1.538500e+02 5.023138e+02 9.980268e+01
      vertex   1.536297e+02 5.063138e+02 9.991216e+01
      vertex   1.538500e+02 5.063138e+02 9.980268e+01
    endloop
  endfacet
  facet normal -6.502248e-01 -1.848050e-14 -7.597419e-01
    outer loop
      vertex   1.538500e+02 5.023138e+02 9.980268e+01
      vertex   1.538500e+02 5.063138e+02 9.980268e+01
      vertex   1.540368e+02 5.023138e+02 9.964278e+01
    endloop
  endfacet
  facet normal -6.502248e-01 -1.848050e-14 -7.597419e-01
    outer loop
      vertex   1.540368e+02 5.023138e+02 9.964278e+01
      vertex   1.538500e+02 5.063138e+02 9.980268e+01
      vertex   1.540368e+02 5.063138e+02 9.964278e+01
    endloop
  endfacet
  facet normal -8.159831e-01 -2.319163e-14 -5.780758e-01
    outer loop
      vertex   1.540368e+02 5.023138e+02 9.964278e+01
      vertex   1.540368e+02 5.063138e+02 9.964278e+01
      vertex   1.541790e+02 5.023138e+02 9.944211e+01
    endloop
  endfacet
  facet normal -8.159831e-01 -2.319163e-14 -5.780758e-01
    outer loop
      vertex   1.541790e+02 5.023138e+02 9.944211e+01
      vertex   1.540368e+02 5.063138e+02 9.964278e+01
      vertex   1.541790e+02 5.063138e+02 9.944211e+01
    endloop
  endfacet
  facet normal -9.323920e-01 -2.650017e-14 -3.614487e-01
    outer loop
      vertex   1.541790e+02 5.023138e+02 9.944211e+01
      vertex   1.541790e+02 5.063138e+02 9.944211e+01
      vertex   1.542678e+02 5.023138e+02 9.921281e+01
    endloop
  endfacet
  facet normal -9.323920e-01 -2.650017e-14 -3.614487e-01
    outer loop
      vertex   1.542678e+02 5.023138e+02 9.921281e+01
      vertex   1.541790e+02 5.063138e+02 9.944211e+01
      vertex   1.542678e+02 5.063138e+02 9.921281e+01
    endloop
  endfacet
  facet normal -9.924114e-01 -2.820603e-14 -1.229617e-01
    outer loop
      vertex   1.542678e+02 5.023138e+02 9.921281e+01
      vertex   1.542678e+02 5.063138e+02 9.921281e+01
      vertex   1.542981e+02 5.023138e+02 9.896875e+01
    endloop
  endfacet
  facet normal -9.924114e-01 -2.820603e-14 -1.229617e-01
    outer loop
      vertex   1.542981e+02 5.023138e+02 9.896875e+01
      vertex   1.542678e+02 5.063138e+02 9.921281e+01
      vertex   1.542981e+02 5.063138e+02 9.896875e+01
    endloop
  endfacet
  facet normal -1.000000e+00 -2.131628e-14 -0.000000e+00
    outer loop
      vertex   1.536297e+02 5.063138e+02 9.996875e+01
      vertex   1.536297e+02 5.063138e+02 9.991216e+01
      vertex   1.536297e+02 5.023138e+02 9.996875e+01
    endloop
  endfacet
  facet normal -1.000000e+00 -2.131628e-14 -0.000000e+00
    outer loop
      vertex   1.536297e+02 5.023138e+02 9.996875e+01
      vertex   1.536297e+02 5.063138e+02 9.991216e+01
      vertex   1.536297e+02 5.023138e+02 9.991216e+01
    endloop
  endfacet
  facet normal 0.000000e+00 0.000000e+00 1.000000e+00
    outer loop
      vertex   1.542981e+02 5.063138e+02 9.996875e+01
      vertex   1.536297e+02 5.063138e+02 9.996875e+01
      vertex   1.542981e+02 5.023138e+02 9.996875e+01
    endloop
  endfacet
  facet normal 0.000000e+00 0.000000e+00 1.000000e+00
    outer loop
      vertex   1.542981e+02 5.023138e+02 9.996875e+01
      vertex   1.536297e+02 5.063138e+02 9.996875e+01
      vertex   1.536297e+02 5.023138e+02 9.996875e+01
    endloop
  endfacet
  facet normal 1.000000e+00 2.842171e-14 3.979039e-13
    outer loop
      vertex   1.542981e+02 5.063138e+02 9.896875e+01
      vertex   1.542981e+02 5.063138e+02 9.996875e+01
      vertex   1.542981e+02 5.023138e+02 9.896875e+01
    endloop
  endfacet
  facet normal 1.000000e+00 2.842171e-14 3.979039e-13
    outer loop
      vertex   1.542981e+02 5.023138e+02 9.896875e+01
      vertex   1.542981e+02 5.063138e+02 9.996875e+01
      vertex   1.542981e+02 5.023138e+02 9.996875e+01
    endloop
  endfacet
  facet normal 4.163251e-10 1.000000e+00 -1.409717e-11
    outer loop
      vertex   1.542981e+02 5.063138e+02 9.896875e+01
      vertex   1.542678e+02 5.063138e+02 9.921281e+01
      vertex   1.542981e+02 5.063138e+02 9.996875e+01
    endloop
  endfacet
  facet normal 5.978224e-12 1.000000e+00 2.317503e-12
    outer loop
      vertex   1.542981e+02 5.063138e+02 9.996875e+01
      vertex   1.542678e+02 5.063138e+02 9.921281e+01
      vertex   1.541790e+02 5.063138e+02 9.944211e+01
    endloop
  endfacet
  facet normal 3.926406e-12 1.000000e+00 2.781627e-12
    outer loop
      vertex   1.542981e+02 5.063138e+02 9.996875e+01
      vertex   1.541790e+02 5.063138e+02 9.944211e+01
      vertex   1.540368e+02 5.063138e+02 9.964278e+01
    endloop
  endfacet
  facet normal 3.009599e-12 1.000000e+00 3.516505e-12
    outer loop
      vertex   1.540368e+02 5.063138e+02 9.964278e+01
      vertex   1.538500e+02 5.063138e+02 9.980268e+01
      vertex   1.542981e+02 5.063138e+02 9.996875e+01
    endloop
  endfacet
  facet normal -1.701025e-13 1.000000e+00 1.209668e-11
    outer loop
      vertex   1.542981e+02 5.063138e+02 9.996875e+01
      vertex   1.538500e+02 5.063138e+02 9.980268e+01
      vertex   1.536297e+02 5.063138e+02 9.996875e+01
    endloop
  endfacet
  facet normal -9.292584e-12 1.000000e+00 0.000000e+00
    outer loop
      vertex   1.536297e+02 5.063138e+02 9.996875e+01
      vertex   1.538500e+02 5.063138e+02 9.980268e+01
      vertex   1.536297e+02 5.063138e+02 9.991216e+01
    endloop
  endfacet
  facet normal -4.167838e-10 -1.000000e+00 1.404032e-11
    outer loop
      vertex   1.542981e+02 5.023138e+02 9.896875e+01
      vertex   1.542981e+02 5.023138e+02 9.996875e+01
      vertex   1.542678e+02 5.023138e+02 9.921281e+01
    endloop
  endfacet
  facet normal -6.154054e-12 -1.000000e+00 -2.385665e-12
    outer loop
      vertex   1.542678e+02 5.023138e+02 9.921281e+01
      vertex   1.542981e+02 5.023138e+02 9.996875e+01
      vertex   1.541790e+02 5.023138e+02 9.944211e+01
    endloop
  endfacet
  facet normal -4.041889e-12 -1.000000e+00 -2.863440e-12
    outer loop
      vertex   1.541790e+02 5.023138e+02 9.944211e+01
      vertex   1.542981e+02 5.023138e+02 9.996875e+01
      vertex   1.540368e+02 5.023138e+02 9.964278e+01
    endloop
  endfacet
  facet normal -3.098117e-12 -1.000000e+00 -3.619931e-12
    outer loop
      vertex   1.540368e+02 5.023138e+02 9.964278e+01
      vertex   1.542981e+02 5.023138e+02 9.996875e+01
      vertex   1.538500e+02 5.023138e+02 9.980268e+01
    endloop
  endfacet
  facet normal 8.505123e-14 -1.000000e+00 -1.220946e-11
    outer loop
      vertex   1.538500e+02 5.023138e+02 9.980268e+01
      vertex   1.542981e+02 5.023138e+02 9.996875e+01
      vertex   1.536297e+02 5.023138e+02 9.996875e+01
    endloop
  endfacet
  facet normal 9.292584e-12 -1.000000e+00 0.000000e+00
    outer loop
      vertex   1.538500e+02 5.023138e+02 9.980268e+01
      vertex   1.536297e+02 5.023138e+02 9.996875e+01
      vertex   1.536297e+02 5.023138e+02 9.991216e+01
    endloop
  endfacet
endsolid
