0
SECTION
2
HEADER
9
$INSUNITS
70
4
9
$ACADVER
1
AC1014
9
$HANDSEED
5
FFFF
0
ENDSEC
0
SECTION
2
TABLES
0
TABLE
2
VPORT
5
8
100
AcDbSymbolTable
0
ENDTAB
0
TABLE
2
LTYPE
5
5
100
AcDbSymbolTable
0
LTYPE
5
14
100
AcDbSymbolTableRecord
100
AcDbLinetypeTableRecord
2
BYBLOCK
70
0
0
LTYPE
5
15
100
AcDbSymbolTableRecord
100
AcDbLinetypeTableRecord
2
BYLAYER
70
0
0
LTYPE
5
16
100
AcDbSymbolTableRecord
100
AcDbLinetypeTableRecord
2
DASHED
70
0
3
Dashed __ __ __ __ __ __ __ __ __ __ __ __ __ _
72
65
73
2
40
0.75
49
0.5
74
0
49
-0.25
74
0
0
ENDTAB
0
TABLE
2
LAYER
5
2
100
AcDbSymbolTable
70
2
0
LAYER
5
50
100
AcDbSymbolTableRecord
100
AcDbLayerTableRecord
2
0
70
0
62
7
6
CONTINUOUS
0
ENDTAB
0
TABLE
2
STYLE
5
3
100
AcDbSymbolTable
70
1
0
STYLE
5
11
100
AcDbSymbolTableRecord
100
AcDbTextStyleTableRecord
2
STANDARD
70
0
0
ENDTAB
0
TABLE
2
VIEW
5
6
100
AcDbSymbolTable
70
0
0
ENDTAB
0
TABLE
2
UCS
5
7
100
AcDbSymbolTable
70
0
0
ENDTAB
0
TABLE
2
APPID
5
9
100
AcDbSymbolTable
70
2
0
APPID
5
12
100
AcDbSymbolTableRecord
100
AcDbRegAppTableRecord
2
ACAD
70
0
0
ENDTAB
0
TABLE
2
DIMSTYLE
5
A
100
AcDbSymbolTable
70
1
0
ENDTAB
0
TABLE
2
BLOCK_RECORD
5
1
100
AcDbSymbolTable
70
1
0
BLOCK_RECORD
5
1F
100
AcDbSymbolTableRecord
100
AcDbBlockTableRecord
2
*MODEL_SPACE
0
BLOCK_RECORD
5
1B
100
AcDbSymbolTableRecord
100
AcDbBlockTableRecord
2
*PAPER_SPACE
0
ENDTAB
0
ENDSEC
0
SECTION
2
BLOCKS
0
BLOCK
5
20
100
AcDbEntity
100
AcDbBlockBegin
2
*MODEL_SPACE
0
ENDBLK
5
21
100
AcDbEntity
100
AcDbBlockEnd
0
BLOCK
5
1C
100
AcDbEntity
100
AcDbBlockBegin
2
*PAPER_SPACE
0
ENDBLK
5
1D
100
AcDbEntity
100
AcDbBlockEnd
0
ENDSEC
0
SECTION
2
ENTITIES
0
LWPOLYLINE
5
100
100
AcDbEntity
8
0
100
AcDbPolyline
90
24
70
1
43
0.0
10
-52.257455010290201
20
-27.813641287340943
42
0.4142104648059185
10
-54.257433858755
20
-25.813641287452484
10
-417.15743385875498
20
-25.809803341389234
42
0.41421665994706591
10
-419.15745501029005
20
-27.809803341277227
10
-419.15745501029107
20
-38.810508649397427
42
-0.41421356237309059
10
-449.70745501029319
20
-69.360508649394859
10
-460.70514798199213
20
-69.360508649393935
42
0.41421046480586193
10
-462.70514798188026
20
-71.360487497858742
10
-462.70898592794401
20
-434.26048749791505
42
0.41421665994722723
10
-460.70898592805497
20
-436.26050864945006
10
-449.70745501030905
20
-436.26050864945006
42
-0.41421356237309437
10
-419.15745501030807
20
-466.81050864944899
10
-419.15745501030807
20
-477.80980336644302
42
0.41421046480590357
10
-417.15747616184302
20
-479.80980336633127
10
-54.257476161780929
20
-479.81364131239502
42
0.41421665994710494
10
-52.2574550102457
20
-477.81364131250706
10
-52.257455010246488
20
-466.810508649437
42
-0.41421356237309875
10
-21.707455010249102
20
-436.26050864943403
10
-10.7089859028902
20
-436.26050864943301
42
0.41421046480587398
10
-8.7089859030022492
20
-434.26052980096807
10
-8.7051480259511607
20
-71.367055344480065
42
0.41421665994705553
10
-10.705148025838971
20
-69.367034192944857
10
-21.7074550102971
20
-69.367034192942953
42
-0.41421356237309598
10
-52.257455010292105
20
-38.81703419293784
0
LWPOLYLINE
5
101
100
AcDbEntity
8
0
100
AcDbPolyline
90
4
70
1
43
0.0
10
-98.19171190190032
20
-329.76399999743808
42
0.99999999999999989
10
-98.19171190190032
20
-324.76399999743808
10
-108.19171190189999
20
-324.76399999743808
42
0.99999999999999989
10
-108.19171190189999
20
-329.76399999743813
0
LWPOLYLINE
5
102
100
AcDbEntity
8
0
100
AcDbPolyline
90
4
70
1
43
0.0
10
-383.207211259823
20
-324.76404804391791
10
-373.207211259823
20
-324.76404804391802
42
-0.99999999999999989
10
-373.207211259823
20
-329.76404804391802
10
-383.207211259823
20
-329.76404804391819
42
-0.99999999999999989
0
LWPOLYLINE
5
103
100
AcDbEntity
8
0
100
AcDbPolyline
90
4
70
1
43
0.0
10
-108.20721125982202
20
-176.76404804391908
10
-98.20721125982223
20
-176.76404804391896
42
-0.99999999999999989
10
-98.207211259822401
20
-181.76404804391896
10
-108.20721161519205
20
-181.76404804391882
42
-0.99999992892599354
0
LWPOLYLINE
5
104
100
AcDbEntity
8
0
100
AcDbPolyline
90
4
70
1
43
0.0
10
-383.20721125982197
20
-176.76404804391782
10
-373.20721125982197
20
-176.76404804391797
42
-0.99999999999999989
10
-373.20721125982197
20
-181.76404804391797
10
-383.20721125982197
20
-181.76404804391811
42
-0.99999999999999989
0
ENDSEC
0
SECTION
2
OBJECTS
0
DICTIONARY
5
C
100
AcDbDictionary
3
ACAD_GROUP
350
D
3
ACAD_MLINESTYLE
350
17
0
DICTIONARY
5
D
100
AcDbDictionary
0
DICTIONARY
5
1A
330
C
100
AcDbDictionary
0
DICTIONARY
5
17
100
AcDbDictionary
0
ENDSEC
0
EOF
