0
SECTION
2
HEADER
9
$INSUNITS
70
4
9
$ACADVER
1
AC1014
9
$HANDSEED
5
FFFF
0
ENDSEC
0
SECTION
2
TABLES
0
TABLE
2
VPORT
5
8
100
AcDbSymbolTable
0
ENDTAB
0
TABLE
2
LTYPE
5
5
100
AcDbSymbolTable
0
LTYPE
5
14
100
AcDbSymbolTableRecord
100
AcDbLinetypeTableRecord
2
BYBLOCK
70
0
0
LTYPE
5
15
100
AcDbSymbolTableRecord
100
AcDbLinetypeTableRecord
2
BYLAYER
70
0
0
LTYPE
5
16
100
AcDbSymbolTableRecord
100
AcDbLinetypeTableRecord
2
DASHED
70
0
3
Dashed __ __ __ __ __ __ __ __ __ __ __ __ __ _
72
65
73
2
40
0.75
49
0.5
74
0
49
-0.25
74
0
0
ENDTAB
0
TABLE
2
LAYER
5
2
100
AcDbSymbolTable
70
2
0
LAYER
5
50
100
AcDbSymbolTableRecord
100
AcDbLayerTableRecord
2
0
70
0
62
7
6
CONTINUOUS
0
ENDTAB
0
TABLE
2
STYLE
5
3
100
AcDbSymbolTable
70
1
0
STYLE
5
11
100
AcDbSymbolTableRecord
100
AcDbTextStyleTableRecord
2
STANDARD
70
0
0
ENDTAB
0
TABLE
2
VIEW
5
6
100
AcDbSymbolTable
70
0
0
ENDTAB
0
TABLE
2
UCS
5
7
100
AcDbSymbolTable
70
0
0
ENDTAB
0
TABLE
2
APPID
5
9
100
AcDbSymbolTable
70
2
0
APPID
5
12
100
AcDbSymbolTableRecord
100
AcDbRegAppTableRecord
2
ACAD
70
0
0
ENDTAB
0
TABLE
2
DIMSTYLE
5
A
100
AcDbSymbolTable
70
1
0
ENDTAB
0
TABLE
2
BLOCK_RECORD
5
1
100
AcDbSymbolTable
70
1
0
BLOCK_RECORD
5
1F
100
AcDbSymbolTableRecord
100
AcDbBlockTableRecord
2
*MODEL_SPACE
0
BLOCK_RECORD
5
1B
100
AcDbSymbolTableRecord
100
AcDbBlockTableRecord
2
*PAPER_SPACE
0
ENDTAB
0
ENDSEC
0
SECTION
2
BLOCKS
0
BLOCK
5
20
100
AcDbEntity
100
AcDbBlockBegin
2
*MODEL_SPACE
0
ENDBLK
5
21
100
AcDbEntity
100
AcDbBlockEnd
0
BLOCK
5
1C
100
AcDbEntity
100
AcDbBlockBegin
2
*PAPER_SPACE
0
ENDBLK
5
1D
100
AcDbEntity
100
AcDbBlockEnd
0
ENDSEC
0
SECTION
2
ENTITIES
0
LWPOLYLINE
5
100
100
AcDbEntity
8
0
100
AcDbPolyline
90
32
70
1
43
0.0
10
156.99242835982747
20
-223.71223868892139
42
0.41421356237309764
10
158.99240796564692
20
-221.71221829494874
10
158.99196949300008
20
-178.71221829718553
42
-0.41421356237309709
10
163.99191850754869
20
-173.712167312254
10
206.99191850531309
20
-173.71172883960719
42
0.41421356237309503
10
208.99189811113251
20
-171.71170844563454
10
208.98859427072398
20
152.28829153752071
42
0.41421356237308982
10
206.98857387675139
20
154.28827114334015
10
163.98857387898676
20
154.2878326706934
42
-0.41421356237309709
10
158.98852289405528
20
159.28778168524192
10
158.98808442140842
20
202.28778168300639
42
0.41421356237309503
10
156.98806402743577
20
204.28776128882578
10
-167.0119359557192
20
204.28445744841727
42
0.41421356237310542
10
-169.01191556153873
20
202.28443705444465
10
-169.01147708889195
20
159.28443705668019
42
-0.41421356237309503
10
-174.0114261034405
20
154.28438607174871
10
-217.01142610120488
20
154.28394759910188
42
0.4142135623730846
10
-219.01140570702427
20
152.28392720512926
10
-219.00810186661576
20
-171.71607277802605
42
0.41421356237310025
10
-217.00808147264314
20
-173.71605238384547
10
-174.00808147487876
20
-173.71561391119866
42
-0.41421356237309293
10
-169.0080304899472
20
-178.71556292574724
10
-169.00759201730042
20
-221.71556292351056
42
0.41421356237310025
10
-167.00757162332775
20
-223.71554252932998
10
-82.507571627720921
20
-223.71468087959371
42
0.41421356237310025
10
-80.507592021901502
20
-221.71466048562121
10
-80.507795962667473
20
-201.7146604866609
42
-0.41421356237309503
10
-77.507826553938315
20
-198.71462989570199
10
-36.507826556069922
20
-198.71421181713177
42
-0.41421356237309159
10
-33.507795965110994
20
-201.7141812258609
10
-33.50759202434503
20
-221.71418122482109
42
0.41421356237309503
10
-31.507571630372446
20
-223.71416083064054
0
CIRCLE
5
101
100
AcDbEntity
8
0
100
AcDbCircle
10
-5.0118849706839796
20
164.28448803979182
30
6.3130815131096085e-07
40
1.7500000000000002
210
-0
220
0
230
1
0
ENDSEC
0
SECTION
2
OBJECTS
0
DICTIONARY
5
C
100
AcDbDictionary
3
ACAD_GROUP
350
D
3
ACAD_MLINESTYLE
350
17
0
DICTIONARY
5
D
100
AcDbDictionary
0
DICTIONARY
5
1A
330
C
100
AcDbDictionary
0
DICTIONARY
5
17
100
AcDbDictionary
0
ENDSEC
0
EOF
