solid ASCII
  facet normal -1.000000e+00 4.263256e-14 1.324452e-11
    outer loop
      vertex   3.725106e+02 5.063143e+02 6.776875e+01
      vertex   3.725106e+02 5.063143e+02 6.676875e+01
      vertex   3.725106e+02 5.023143e+02 6.776875e+01
    endloop
  endfacet
  facet normal -1.000000e+00 5.684342e-14 1.330136e-11
    outer loop
      vertex   3.725106e+02 5.023143e+02 6.776875e+01
      vertex   3.725106e+02 5.063143e+02 6.676875e+01
      vertex   3.725106e+02 5.023143e+02 6.676875e+01
    endloop
  endfacet
  facet normal 4.433087e-01 -2.201464e-14 8.963690e-01
    outer loop
      vertex   3.731811e+02 5.023143e+02 6.682460e+01
      vertex   3.731811e+02 5.063143e+02 6.682460e+01
      vertex   3.729602e+02 5.023143e+02 6.693382e+01
    endloop
  endfacet
  facet normal 4.433087e-01 -1.571484e-14 8.963690e-01
    outer loop
      vertex   3.729602e+02 5.023143e+02 6.693382e+01
      vertex   3.731811e+02 5.063143e+02 6.682460e+01
      vertex   3.729602e+02 5.063143e+02 6.693382e+01
    endloop
  endfacet
  facet normal 6.490148e-01 -2.496635e-14 7.607758e-01
    outer loop
      vertex   3.729602e+02 5.023143e+02 6.693382e+01
      vertex   3.729602e+02 5.063143e+02 6.693382e+01
      vertex   3.727728e+02 5.023143e+02 6.709372e+01
    endloop
  endfacet
  facet normal 6.490148e-01 -3.689222e-14 7.607758e-01
    outer loop
      vertex   3.727728e+02 5.023143e+02 6.709372e+01
      vertex   3.729602e+02 5.063143e+02 6.693382e+01
      vertex   3.727728e+02 5.063143e+02 6.709372e+01
    endloop
  endfacet
  facet normal 8.153253e-01 -4.634588e-14 5.790031e-01
    outer loop
      vertex   3.727728e+02 5.023143e+02 6.709372e+01
      vertex   3.727728e+02 5.063143e+02 6.709372e+01
      vertex   3.726301e+02 5.023143e+02 6.729460e+01
    endloop
  endfacet
  facet normal 8.153253e-01 -4.634588e-14 5.790031e-01
    outer loop
      vertex   3.726301e+02 5.023143e+02 6.729460e+01
      vertex   3.727728e+02 5.063143e+02 6.709372e+01
      vertex   3.726301e+02 5.063143e+02 6.729460e+01
    endloop
  endfacet
  facet normal 9.321452e-01 -5.298632e-14 3.620846e-01
    outer loop
      vertex   3.726301e+02 5.023143e+02 6.729460e+01
      vertex   3.726301e+02 5.063143e+02 6.729460e+01
      vertex   3.725409e+02 5.023143e+02 6.752426e+01
    endloop
  endfacet
  facet normal 9.321452e-01 -5.169994e-14 3.620846e-01
    outer loop
      vertex   3.725409e+02 5.023143e+02 6.752426e+01
      vertex   3.726301e+02 5.063143e+02 6.729460e+01
      vertex   3.725409e+02 5.063143e+02 6.752426e+01
    endloop
  endfacet
  facet normal 9.923834e-01 -5.597282e-14 1.231874e-01
    outer loop
      vertex   3.725409e+02 5.023143e+02 6.752426e+01
      vertex   3.725409e+02 5.063143e+02 6.752426e+01
      vertex   3.725106e+02 5.023143e+02 6.776875e+01
    endloop
  endfacet
  facet normal 9.923834e-01 -4.187020e-14 1.231874e-01
    outer loop
      vertex   3.725106e+02 5.023143e+02 6.776875e+01
      vertex   3.725409e+02 5.063143e+02 6.752426e+01
      vertex   3.725106e+02 5.063143e+02 6.776875e+01
    endloop
  endfacet
  facet normal 1.000000e+00 -5.684342e-14 0.000000e+00
    outer loop
      vertex   3.731811e+02 5.063143e+02 6.676875e+01
      vertex   3.731811e+02 5.063143e+02 6.682460e+01
      vertex   3.731811e+02 5.023143e+02 6.676875e+01
    endloop
  endfacet
  facet normal 1.000000e+00 -5.684342e-14 0.000000e+00
    outer loop
      vertex   3.731811e+02 5.023143e+02 6.676875e+01
      vertex   3.731811e+02 5.063143e+02 6.682460e+01
      vertex   3.731811e+02 5.023143e+02 6.682460e+01
    endloop
  endfacet
  facet normal -2.119476e-14 1.204782e-27 -1.000000e+00
    outer loop
      vertex   3.725106e+02 5.063143e+02 6.676875e+01
      vertex   3.731811e+02 5.063143e+02 6.676875e+01
      vertex   3.725106e+02 5.023143e+02 6.676875e+01
    endloop
  endfacet
  facet normal -6.023912e-28 -3.552714e-15 -1.000000e+00
    outer loop
      vertex   3.725106e+02 5.023143e+02 6.676875e+01
      vertex   3.731811e+02 5.063143e+02 6.676875e+01
      vertex   3.731811e+02 5.023143e+02 6.676875e+01
    endloop
  endfacet
  facet normal 1.235488e-11 1.000000e+00 0.000000e+00
    outer loop
      vertex   3.731811e+02 5.063143e+02 6.682460e+01
      vertex   3.731811e+02 5.063143e+02 6.676875e+01
      vertex   3.729602e+02 5.063143e+02 6.693382e+01
    endloop
  endfacet
  facet normal 1.695580e-13 1.000000e+00 -1.630258e-11
    outer loop
      vertex   3.729602e+02 5.063143e+02 6.693382e+01
      vertex   3.731811e+02 5.063143e+02 6.676875e+01
      vertex   3.725106e+02 5.063143e+02 6.676875e+01
    endloop
  endfacet
  facet normal -4.065676e-12 1.000000e+00 -4.765789e-12
    outer loop
      vertex   3.729602e+02 5.063143e+02 6.693382e+01
      vertex   3.725106e+02 5.063143e+02 6.676875e+01
      vertex   3.727728e+02 5.063143e+02 6.709372e+01
    endloop
  endfacet
  facet normal -5.303985e-12 1.000000e+00 -3.766624e-12
    outer loop
      vertex   3.727728e+02 5.063143e+02 6.709372e+01
      vertex   3.725106e+02 5.063143e+02 6.676875e+01
      vertex   3.726301e+02 5.063143e+02 6.729460e+01
    endloop
  endfacet
  facet normal -8.074871e-12 1.000000e+00 -3.136621e-12
    outer loop
      vertex   3.726301e+02 5.063143e+02 6.729460e+01
      vertex   3.725106e+02 5.063143e+02 6.676875e+01
      vertex   3.725409e+02 5.063143e+02 6.752426e+01
    endloop
  endfacet
  facet normal -8.615403e-11 1.000000e+00 1.141068e-21
    outer loop
      vertex   3.725409e+02 5.063143e+02 6.752426e+01
      vertex   3.725106e+02 5.063143e+02 6.676875e+01
      vertex   3.725106e+02 5.063143e+02 6.776875e+01
    endloop
  endfacet
  facet normal -1.695580e-13 -1.000000e+00 1.630258e-11
    outer loop
      vertex   3.731811e+02 5.023143e+02 6.676875e+01
      vertex   3.729602e+02 5.023143e+02 6.693382e+01
      vertex   3.725106e+02 5.023143e+02 6.676875e+01
    endloop
  endfacet
  facet normal 4.065676e-12 -1.000000e+00 4.765789e-12
    outer loop
      vertex   3.725106e+02 5.023143e+02 6.676875e+01
      vertex   3.729602e+02 5.023143e+02 6.693382e+01
      vertex   3.727728e+02 5.023143e+02 6.709372e+01
    endloop
  endfacet
  facet normal 5.303985e-12 -1.000000e+00 3.766624e-12
    outer loop
      vertex   3.725106e+02 5.023143e+02 6.676875e+01
      vertex   3.727728e+02 5.023143e+02 6.709372e+01
      vertex   3.726301e+02 5.023143e+02 6.729460e+01
    endloop
  endfacet
  facet normal -1.235488e-11 -1.000000e+00 0.000000e+00
    outer loop
      vertex   3.731811e+02 5.023143e+02 6.676875e+01
      vertex   3.731811e+02 5.023143e+02 6.682460e+01
      vertex   3.729602e+02 5.023143e+02 6.693382e+01
    endloop
  endfacet
  facet normal 8.074871e-12 -1.000000e+00 3.136621e-12
    outer loop
      vertex   3.726301e+02 5.023143e+02 6.729460e+01
      vertex   3.725409e+02 5.023143e+02 6.752426e+01
      vertex   3.725106e+02 5.023143e+02 6.676875e+01
    endloop
  endfacet
  facet normal 8.615403e-11 -1.000000e+00 -1.145966e-21
    outer loop
      vertex   3.725106e+02 5.023143e+02 6.676875e+01
      vertex   3.725409e+02 5.023143e+02 6.752426e+01
      vertex   3.725106e+02 5.023143e+02 6.776875e+01
    endloop
  endfacet
endsolid
