solid ASCII
  facet normal -3.104397e-01 4.411613e-15 -9.505931e-01
    outer loop
      vertex   1.536043e+02 5.023134e+02 9.992071e+01
      vertex   1.536043e+02 5.063134e+02 9.992071e+01
      vertex   1.536127e+02 5.023134e+02 9.991797e+01
    endloop
  endfacet
  facet normal -3.104397e-01 2.205806e-15 -9.505931e-01
    outer loop
      vertex   1.536127e+02 5.023134e+02 9.991797e+01
      vertex   1.536043e+02 5.063134e+02 9.992071e+01
      vertex   1.536127e+02 5.063134e+02 9.991797e+01
    endloop
  endfacet
  facet normal -3.188008e-01 2.265216e-15 -9.478217e-01
    outer loop
      vertex   1.536127e+02 5.023134e+02 9.991797e+01
      vertex   1.536127e+02 5.063134e+02 9.991797e+01
      vertex   1.536211e+02 5.023134e+02 9.991516e+01
    endloop
  endfacet
  facet normal -3.188008e-01 2.265216e-15 -9.478217e-01
    outer loop
      vertex   1.536211e+02 5.023134e+02 9.991516e+01
      vertex   1.536127e+02 5.063134e+02 9.991797e+01
      vertex   1.536211e+02 5.063134e+02 9.991516e+01
    endloop
  endfacet
  facet normal -3.271372e-01 2.324450e-15 -9.449768e-01
    outer loop
      vertex   1.536211e+02 5.023134e+02 9.991516e+01
      vertex   1.536211e+02 5.063134e+02 9.991516e+01
      vertex   1.536294e+02 5.023134e+02 9.991228e+01
    endloop
  endfacet
  facet normal -3.271372e-01 4.648900e-15 -9.449768e-01
    outer loop
      vertex   1.536294e+02 5.023134e+02 9.991228e+01
      vertex   1.536211e+02 5.063134e+02 9.991516e+01
      vertex   1.536294e+02 5.063134e+02 9.991228e+01
    endloop
  endfacet
  facet normal -1.000000e+00 1.421085e-14 0.000000e+00
    outer loop
      vertex   1.536043e+02 5.063134e+02 9.996875e+01
      vertex   1.536043e+02 5.063134e+02 9.992071e+01
      vertex   1.536043e+02 5.023134e+02 9.996875e+01
    endloop
  endfacet
  facet normal -1.000000e+00 1.421085e-14 0.000000e+00
    outer loop
      vertex   1.536043e+02 5.023134e+02 9.996875e+01
      vertex   1.536043e+02 5.063134e+02 9.992071e+01
      vertex   1.536043e+02 5.023134e+02 9.992071e+01
    endloop
  endfacet
  facet normal 0.000000e+00 0.000000e+00 1.000000e+00
    outer loop
      vertex   1.536294e+02 5.063134e+02 9.996875e+01
      vertex   1.536043e+02 5.063134e+02 9.996875e+01
      vertex   1.536294e+02 5.023134e+02 9.996875e+01
    endloop
  endfacet
  facet normal 0.000000e+00 0.000000e+00 1.000000e+00
    outer loop
      vertex   1.536294e+02 5.023134e+02 9.996875e+01
      vertex   1.536043e+02 5.063134e+02 9.996875e+01
      vertex   1.536043e+02 5.023134e+02 9.996875e+01
    endloop
  endfacet
  facet normal 1.000000e+00 -1.421085e-14 -5.032786e-13
    outer loop
      vertex   1.536294e+02 5.063134e+02 9.991228e+01
      vertex   1.536294e+02 5.063134e+02 9.996875e+01
      vertex   1.536294e+02 5.023134e+02 9.991228e+01
    endloop
  endfacet
  facet normal 1.000000e+00 -7.105427e-15 -1.006557e-12
    outer loop
      vertex   1.536294e+02 5.023134e+02 9.991228e+01
      vertex   1.536294e+02 5.063134e+02 9.996875e+01
      vertex   1.536294e+02 5.023134e+02 9.996875e+01
    endloop
  endfacet
  facet normal 6.829016e-12 1.000000e+00 -3.436898e-24
    outer loop
      vertex   1.536294e+02 5.063134e+02 9.991228e+01
      vertex   1.536211e+02 5.063134e+02 9.991516e+01
      vertex   1.536294e+02 5.063134e+02 9.996875e+01
    endloop
  endfacet
  facet normal 3.390480e-13 1.000000e+00 1.008018e-12
    outer loop
      vertex   1.536294e+02 5.063134e+02 9.996875e+01
      vertex   1.536211e+02 5.063134e+02 9.991516e+01
      vertex   1.536127e+02 5.063134e+02 9.991797e+01
    endloop
  endfacet
  facet normal 0.000000e+00 1.000000e+00 1.119331e-12
    outer loop
      vertex   1.536294e+02 5.063134e+02 9.996875e+01
      vertex   1.536127e+02 5.063134e+02 9.991797e+01
      vertex   1.536043e+02 5.063134e+02 9.996875e+01
    endloop
  endfacet
  facet normal -6.788669e-12 1.000000e+00 0.000000e+00
    outer loop
      vertex   1.536043e+02 5.063134e+02 9.996875e+01
      vertex   1.536127e+02 5.063134e+02 9.991797e+01
      vertex   1.536043e+02 5.063134e+02 9.992071e+01
    endloop
  endfacet
  facet normal -6.829016e-12 -1.000000e+00 6.873796e-24
    outer loop
      vertex   1.536294e+02 5.023134e+02 9.991228e+01
      vertex   1.536294e+02 5.023134e+02 9.996875e+01
      vertex   1.536211e+02 5.023134e+02 9.991516e+01
    endloop
  endfacet
  facet normal -3.390480e-13 -1.000000e+00 -1.008018e-12
    outer loop
      vertex   1.536211e+02 5.023134e+02 9.991516e+01
      vertex   1.536294e+02 5.023134e+02 9.996875e+01
      vertex   1.536127e+02 5.023134e+02 9.991797e+01
    endloop
  endfacet
  facet normal 0.000000e+00 -1.000000e+00 -1.119331e-12
    outer loop
      vertex   1.536127e+02 5.023134e+02 9.991797e+01
      vertex   1.536294e+02 5.023134e+02 9.996875e+01
      vertex   1.536043e+02 5.023134e+02 9.996875e+01
    endloop
  endfacet
  facet normal 6.788669e-12 -1.000000e+00 0.000000e+00
    outer loop
      vertex   1.536127e+02 5.023134e+02 9.991797e+01
      vertex   1.536043e+02 5.023134e+02 9.996875e+01
      vertex   1.536043e+02 5.023134e+02 9.992071e+01
    endloop
  endfacet
endsolid
