solid ASCII
  facet normal 1.612623e-26 -7.105427e-15 -1.000000e+00
    outer loop
      vertex   1.536043e+02 5.063134e+02 6.256875e+01
      vertex   1.536294e+02 5.063134e+02 6.256875e+01
      vertex   1.536043e+02 5.023134e+02 6.256875e+01
    endloop
  endfacet
  facet normal 1.612623e-26 -7.105427e-15 -1.000000e+00
    outer loop
      vertex   1.536043e+02 5.023134e+02 6.256875e+01
      vertex   1.536294e+02 5.063134e+02 6.256875e+01
      vertex   1.536294e+02 5.023134e+02 6.256875e+01
    endloop
  endfacet
  facet normal -1.000000e+00 7.105427e-15 0.000000e+00
    outer loop
      vertex   1.536043e+02 5.063134e+02 6.261680e+01
      vertex   1.536043e+02 5.063134e+02 6.256875e+01
      vertex   1.536043e+02 5.023134e+02 6.261680e+01
    endloop
  endfacet
  facet normal -1.000000e+00 7.105427e-15 0.000000e+00
    outer loop
      vertex   1.536043e+02 5.023134e+02 6.261680e+01
      vertex   1.536043e+02 5.063134e+02 6.256875e+01
      vertex   1.536043e+02 5.023134e+02 6.256875e+01
    endloop
  endfacet
  facet normal -3.271372e-01 9.038914e-15 9.449768e-01
    outer loop
      vertex   1.536294e+02 5.023134e+02 6.262523e+01
      vertex   1.536294e+02 5.063134e+02 6.262523e+01
      vertex   1.536211e+02 5.023134e+02 6.262235e+01
    endloop
  endfacet
  facet normal -3.271372e-01 9.038914e-15 9.449768e-01
    outer loop
      vertex   1.536211e+02 5.023134e+02 6.262235e+01
      vertex   1.536294e+02 5.063134e+02 6.262523e+01
      vertex   1.536211e+02 5.063134e+02 6.262235e+01
    endloop
  endfacet
  facet normal -3.188008e-01 8.999894e-15 9.478217e-01
    outer loop
      vertex   1.536211e+02 5.023134e+02 6.262235e+01
      vertex   1.536211e+02 5.063134e+02 6.262235e+01
      vertex   1.536127e+02 5.023134e+02 6.261954e+01
    endloop
  endfacet
  facet normal -3.188008e-01 8.999894e-15 9.478217e-01
    outer loop
      vertex   1.536127e+02 5.023134e+02 6.261954e+01
      vertex   1.536211e+02 5.063134e+02 6.262235e+01
      vertex   1.536127e+02 5.063134e+02 6.261954e+01
    endloop
  endfacet
  facet normal -3.104397e-01 8.960177e-15 9.505931e-01
    outer loop
      vertex   1.536127e+02 5.023134e+02 6.261954e+01
      vertex   1.536127e+02 5.063134e+02 6.261954e+01
      vertex   1.536043e+02 5.023134e+02 6.261680e+01
    endloop
  endfacet
  facet normal -3.104397e-01 8.960177e-15 9.505931e-01
    outer loop
      vertex   1.536043e+02 5.023134e+02 6.261680e+01
      vertex   1.536127e+02 5.063134e+02 6.261954e+01
      vertex   1.536043e+02 5.063134e+02 6.261680e+01
    endloop
  endfacet
  facet normal 1.000000e+00 -7.105427e-15 -5.032786e-13
    outer loop
      vertex   1.536294e+02 5.063134e+02 6.256875e+01
      vertex   1.536294e+02 5.063134e+02 6.262523e+01
      vertex   1.536294e+02 5.023134e+02 6.256875e+01
    endloop
  endfacet
  facet normal 1.000000e+00 -7.105427e-15 -5.032786e-13
    outer loop
      vertex   1.536294e+02 5.023134e+02 6.256875e+01
      vertex   1.536294e+02 5.063134e+02 6.262523e+01
      vertex   1.536294e+02 5.023134e+02 6.262523e+01
    endloop
  endfacet
  facet normal 2.731606e-11 1.000000e+00 -1.374759e-23
    outer loop
      vertex   1.536294e+02 5.063134e+02 6.262523e+01
      vertex   1.536294e+02 5.063134e+02 6.256875e+01
      vertex   1.536211e+02 5.063134e+02 6.262235e+01
    endloop
  endfacet
  facet normal 1.356192e-12 1.000000e+00 -4.032074e-12
    outer loop
      vertex   1.536211e+02 5.063134e+02 6.262235e+01
      vertex   1.536294e+02 5.063134e+02 6.256875e+01
      vertex   1.536127e+02 5.063134e+02 6.261954e+01
    endloop
  endfacet
  facet normal -2.269565e-12 1.000000e+00 -5.222445e-12
    outer loop
      vertex   1.536127e+02 5.063134e+02 6.261954e+01
      vertex   1.536294e+02 5.063134e+02 6.256875e+01
      vertex   1.536043e+02 5.063134e+02 6.256875e+01
    endloop
  endfacet
  facet normal -3.394335e-11 1.000000e+00 0.000000e+00
    outer loop
      vertex   1.536127e+02 5.063134e+02 6.261954e+01
      vertex   1.536043e+02 5.063134e+02 6.256875e+01
      vertex   1.536043e+02 5.063134e+02 6.261680e+01
    endloop
  endfacet
  facet normal -2.048705e-11 -1.000000e+00 1.031069e-23
    outer loop
      vertex   1.536294e+02 5.023134e+02 6.262523e+01
      vertex   1.536211e+02 5.023134e+02 6.262235e+01
      vertex   1.536294e+02 5.023134e+02 6.256875e+01
    endloop
  endfacet
  facet normal -1.017144e-12 -1.000000e+00 3.024055e-12
    outer loop
      vertex   1.536294e+02 5.023134e+02 6.256875e+01
      vertex   1.536211e+02 5.023134e+02 6.262235e+01
      vertex   1.536127e+02 5.023134e+02 6.261954e+01
    endloop
  endfacet
  facet normal 2.269565e-12 -1.000000e+00 4.103114e-12
    outer loop
      vertex   1.536294e+02 5.023134e+02 6.256875e+01
      vertex   1.536127e+02 5.023134e+02 6.261954e+01
      vertex   1.536043e+02 5.023134e+02 6.256875e+01
    endloop
  endfacet
  facet normal 2.715468e-11 -1.000000e+00 0.000000e+00
    outer loop
      vertex   1.536043e+02 5.023134e+02 6.256875e+01
      vertex   1.536127e+02 5.023134e+02 6.261954e+01
      vertex   1.536043e+02 5.023134e+02 6.261680e+01
    endloop
  endfacet
endsolid
