solid ASCII
  facet normal -6.650661e-16 1.240347e-01 -9.922779e-01
    outer loop
      vertex   3.782990e+01 7.066776e+01 2.921174e+01
      vertex   3.252926e+01 7.066776e+01 2.921174e+01
      vertex   3.782990e+01 7.166004e+01 2.933578e+01
    endloop
  endfacet
  facet normal -6.650661e-16 1.240347e-01 -9.922779e-01
    outer loop
      vertex   3.782990e+01 7.166004e+01 2.933578e+01
      vertex   3.252926e+01 7.066776e+01 2.921174e+01
      vertex   3.252926e+01 7.166004e+01 2.933578e+01
    endloop
  endfacet
  facet normal 1.000000e+00 -0.000000e+00 0.000000e+00
    outer loop
      vertex   3.782990e+01 7.039264e+01 3.141268e+01
      vertex   3.782990e+01 7.066776e+01 2.921174e+01
      vertex   3.782990e+01 7.138492e+01 3.153672e+01
    endloop
  endfacet
  facet normal 1.000000e+00 0.000000e+00 0.000000e+00
    outer loop
      vertex   3.782990e+01 7.138492e+01 3.153672e+01
      vertex   3.782990e+01 7.066776e+01 2.921174e+01
      vertex   3.782990e+01 7.166004e+01 2.933578e+01
    endloop
  endfacet
  facet normal 6.210024e-16 -1.240347e-01 9.922779e-01
    outer loop
      vertex   3.499152e+01 7.039264e+01 3.141268e+01
      vertex   3.782990e+01 7.039264e+01 3.141268e+01
      vertex   3.499152e+01 7.138492e+01 3.153672e+01
    endloop
  endfacet
  facet normal 6.210024e-16 -1.240347e-01 9.922779e-01
    outer loop
      vertex   3.499152e+01 7.138492e+01 3.153672e+01
      vertex   3.782990e+01 7.039264e+01 3.141268e+01
      vertex   3.782990e+01 7.138492e+01 3.153672e+01
    endloop
  endfacet
  facet normal 1.000000e+00 -0.000000e+00 0.000000e+00
    outer loop
      vertex   3.499152e+01 6.986106e+01 3.566535e+01
      vertex   3.499152e+01 7.039264e+01 3.141268e+01
      vertex   3.499152e+01 7.085334e+01 3.578939e+01
    endloop
  endfacet
  facet normal 1.000000e+00 0.000000e+00 0.000000e+00
    outer loop
      vertex   3.499152e+01 7.085334e+01 3.578939e+01
      vertex   3.499152e+01 7.039264e+01 3.141268e+01
      vertex   3.499152e+01 7.138492e+01 3.153672e+01
    endloop
  endfacet
  facet normal 0.000000e+00 1.240347e-01 -9.922779e-01
    outer loop
      vertex   3.764193e+01 6.986106e+01 3.566535e+01
      vertex   3.499152e+01 6.986106e+01 3.566535e+01
      vertex   3.764193e+01 7.085334e+01 3.578939e+01
    endloop
  endfacet
  facet normal 0.000000e+00 1.240347e-01 -9.922779e-01
    outer loop
      vertex   3.764193e+01 7.085334e+01 3.578939e+01
      vertex   3.499152e+01 6.986106e+01 3.566535e+01
      vertex   3.499152e+01 7.085334e+01 3.578939e+01
    endloop
  endfacet
  facet normal 1.000000e+00 -0.000000e+00 0.000000e+00
    outer loop
      vertex   3.764193e+01 6.959060e+01 3.782899e+01
      vertex   3.764193e+01 6.986106e+01 3.566535e+01
      vertex   3.764193e+01 7.058288e+01 3.795302e+01
    endloop
  endfacet
  facet normal 1.000000e+00 0.000000e+00 0.000000e+00
    outer loop
      vertex   3.764193e+01 7.058288e+01 3.795302e+01
      vertex   3.764193e+01 6.986106e+01 3.566535e+01
      vertex   3.764193e+01 7.085334e+01 3.578939e+01
    endloop
  endfacet
  facet normal 0.000000e+00 -1.240347e-01 9.922779e-01
    outer loop
      vertex   3.499152e+01 6.959060e+01 3.782899e+01
      vertex   3.764193e+01 6.959060e+01 3.782899e+01
      vertex   3.499152e+01 7.058288e+01 3.795302e+01
    endloop
  endfacet
  facet normal 0.000000e+00 -1.240347e-01 9.922779e-01
    outer loop
      vertex   3.499152e+01 7.058288e+01 3.795302e+01
      vertex   3.764193e+01 6.959060e+01 3.782899e+01
      vertex   3.764193e+01 7.058288e+01 3.795302e+01
    endloop
  endfacet
  facet normal 1.000000e+00 -0.000000e+00 0.000000e+00
    outer loop
      vertex   3.499152e+01 6.908233e+01 4.189513e+01
      vertex   3.499152e+01 6.959060e+01 3.782899e+01
      vertex   3.499152e+01 7.007461e+01 4.201917e+01
    endloop
  endfacet
  facet normal 1.000000e+00 0.000000e+00 0.000000e+00
    outer loop
      vertex   3.499152e+01 7.007461e+01 4.201917e+01
      vertex   3.499152e+01 6.959060e+01 3.782899e+01
      vertex   3.499152e+01 7.058288e+01 3.795302e+01
    endloop
  endfacet
  facet normal -6.210024e-16 1.240347e-01 -9.922779e-01
    outer loop
      vertex   3.782990e+01 6.908233e+01 4.189513e+01
      vertex   3.499152e+01 6.908233e+01 4.189513e+01
      vertex   3.782990e+01 7.007461e+01 4.201917e+01
    endloop
  endfacet
  facet normal -6.210024e-16 1.240347e-01 -9.922779e-01
    outer loop
      vertex   3.782990e+01 7.007461e+01 4.201917e+01
      vertex   3.499152e+01 6.908233e+01 4.189513e+01
      vertex   3.499152e+01 7.007461e+01 4.201917e+01
    endloop
  endfacet
  facet normal 1.000000e+00 -0.000000e+00 0.000000e+00
    outer loop
      vertex   3.782990e+01 6.880724e+01 4.409591e+01
      vertex   3.782990e+01 6.908233e+01 4.189513e+01
      vertex   3.782990e+01 6.979952e+01 4.421995e+01
    endloop
  endfacet
  facet normal 1.000000e+00 0.000000e+00 0.000000e+00
    outer loop
      vertex   3.782990e+01 6.979952e+01 4.421995e+01
      vertex   3.782990e+01 6.908233e+01 4.189513e+01
      vertex   3.782990e+01 7.007461e+01 4.201917e+01
    endloop
  endfacet
  facet normal 0.000000e+00 -1.240347e-01 9.922779e-01
    outer loop
      vertex   3.252926e+01 6.880724e+01 4.409591e+01
      vertex   3.782990e+01 6.880724e+01 4.409591e+01
      vertex   3.252926e+01 6.979952e+01 4.421995e+01
    endloop
  endfacet
  facet normal 0.000000e+00 -1.240347e-01 9.922779e-01
    outer loop
      vertex   3.252926e+01 6.979952e+01 4.421995e+01
      vertex   3.782990e+01 6.880724e+01 4.409591e+01
      vertex   3.782990e+01 6.979952e+01 4.421995e+01
    endloop
  endfacet
  facet normal -1.000000e+00 0.000000e+00 0.000000e+00
    outer loop
      vertex   3.252926e+01 7.066776e+01 2.921174e+01
      vertex   3.252926e+01 6.880724e+01 4.409591e+01
      vertex   3.252926e+01 7.166004e+01 2.933578e+01
    endloop
  endfacet
  facet normal -1.000000e+00 0.000000e+00 0.000000e+00
    outer loop
      vertex   3.252926e+01 7.166004e+01 2.933578e+01
      vertex   3.252926e+01 6.880724e+01 4.409591e+01
      vertex   3.252926e+01 6.979952e+01 4.421995e+01
    endloop
  endfacet
  facet normal -7.310505e-15 9.922779e-01 1.240347e-01
    outer loop
      vertex   3.252926e+01 6.979952e+01 4.421995e+01
      vertex   3.499152e+01 7.085334e+01 3.578939e+01
      vertex   3.252926e+01 7.166004e+01 2.933578e+01
    endloop
  endfacet
  facet normal -1.237241e-14 9.922779e-01 1.240347e-01
    outer loop
      vertex   3.252926e+01 7.166004e+01 2.933578e+01
      vertex   3.499152e+01 7.085334e+01 3.578939e+01
      vertex   3.499152e+01 7.138492e+01 3.153672e+01
    endloop
  endfacet
  facet normal -5.320528e-15 9.922779e-01 1.240347e-01
    outer loop
      vertex   3.252926e+01 7.166004e+01 2.933578e+01
      vertex   3.499152e+01 7.138492e+01 3.153672e+01
      vertex   3.782990e+01 7.166004e+01 2.933578e+01
    endloop
  endfacet
  facet normal -4.972948e-15 9.922779e-01 1.240347e-01
    outer loop
      vertex   3.782990e+01 7.166004e+01 2.933578e+01
      vertex   3.499152e+01 7.138492e+01 3.153672e+01
      vertex   3.782990e+01 7.138492e+01 3.153672e+01
    endloop
  endfacet
  facet normal 0.000000e+00 9.922779e-01 1.240347e-01
    outer loop
      vertex   3.782990e+01 6.979952e+01 4.421995e+01
      vertex   3.499152e+01 7.007461e+01 4.201917e+01
      vertex   3.252926e+01 6.979952e+01 4.421995e+01
    endloop
  endfacet
  facet normal 5.501681e-16 9.922779e-01 1.240347e-01
    outer loop
      vertex   3.252926e+01 6.979952e+01 4.421995e+01
      vertex   3.499152e+01 7.007461e+01 4.201917e+01
      vertex   3.499152e+01 7.058288e+01 3.795302e+01
    endloop
  endfacet
  facet normal 1.257268e-14 9.922779e-01 1.240347e-01
    outer loop
      vertex   3.252926e+01 6.979952e+01 4.421995e+01
      vertex   3.499152e+01 7.058288e+01 3.795302e+01
      vertex   3.499152e+01 7.085334e+01 3.578939e+01
    endloop
  endfacet
  facet normal 0.000000e+00 9.922779e-01 1.240347e-01
    outer loop
      vertex   3.499152e+01 7.085334e+01 3.578939e+01
      vertex   3.499152e+01 7.058288e+01 3.795302e+01
      vertex   3.764193e+01 7.058288e+01 3.795302e+01
    endloop
  endfacet
  facet normal -0.000000e+00 9.922779e-01 1.240347e-01
    outer loop
      vertex   3.499152e+01 7.085334e+01 3.578939e+01
      vertex   3.764193e+01 7.058288e+01 3.795302e+01
      vertex   3.764193e+01 7.085334e+01 3.578939e+01
    endloop
  endfacet
  facet normal -4.973314e-15 9.922779e-01 1.240347e-01
    outer loop
      vertex   3.782990e+01 6.979952e+01 4.421995e+01
      vertex   3.782990e+01 7.007461e+01 4.201917e+01
      vertex   3.499152e+01 7.007461e+01 4.201917e+01
    endloop
  endfacet
  facet normal 7.358600e-15 -9.922779e-01 -1.240347e-01
    outer loop
      vertex   3.252926e+01 7.066776e+01 2.921174e+01
      vertex   3.499152e+01 6.986106e+01 3.566535e+01
      vertex   3.252926e+01 6.880724e+01 4.409591e+01
    endloop
  endfacet
  facet normal 9.760372e-15 -9.922779e-01 -1.240347e-01
    outer loop
      vertex   3.252926e+01 6.880724e+01 4.409591e+01
      vertex   3.499152e+01 6.986106e+01 3.566535e+01
      vertex   3.499152e+01 6.959060e+01 3.782899e+01
    endloop
  endfacet
  facet normal -3.653116e-15 -9.922779e-01 -1.240347e-01
    outer loop
      vertex   3.252926e+01 6.880724e+01 4.409591e+01
      vertex   3.499152e+01 6.959060e+01 3.782899e+01
      vertex   3.499152e+01 6.908233e+01 4.189513e+01
    endloop
  endfacet
  facet normal 1.237241e-14 -9.922779e-01 -1.240347e-01
    outer loop
      vertex   3.499152e+01 6.986106e+01 3.566535e+01
      vertex   3.252926e+01 7.066776e+01 2.921174e+01
      vertex   3.499152e+01 7.039264e+01 3.141268e+01
    endloop
  endfacet
  facet normal 5.325806e-15 -9.922779e-01 -1.240347e-01
    outer loop
      vertex   3.499152e+01 7.039264e+01 3.141268e+01
      vertex   3.252926e+01 7.066776e+01 2.921174e+01
      vertex   3.782990e+01 7.066776e+01 2.921174e+01
    endloop
  endfacet
  facet normal 4.968019e-15 -9.922779e-01 -1.240347e-01
    outer loop
      vertex   3.499152e+01 7.039264e+01 3.141268e+01
      vertex   3.782990e+01 7.066776e+01 2.921174e+01
      vertex   3.782990e+01 7.039264e+01 3.141268e+01
    endloop
  endfacet
  facet normal -0.000000e+00 -9.922779e-01 -1.240347e-01
    outer loop
      vertex   3.764193e+01 6.986106e+01 3.566535e+01
      vertex   3.764193e+01 6.959060e+01 3.782899e+01
      vertex   3.499152e+01 6.986106e+01 3.566535e+01
    endloop
  endfacet
  facet normal 0.000000e+00 -9.922779e-01 -1.240347e-01
    outer loop
      vertex   3.499152e+01 6.986106e+01 3.566535e+01
      vertex   3.764193e+01 6.959060e+01 3.782899e+01
      vertex   3.499152e+01 6.959060e+01 3.782899e+01
    endloop
  endfacet
  facet normal 4.968019e-15 -9.922779e-01 -1.240347e-01
    outer loop
      vertex   3.782990e+01 6.908233e+01 4.189513e+01
      vertex   3.782990e+01 6.880724e+01 4.409591e+01
      vertex   3.499152e+01 6.908233e+01 4.189513e+01
    endloop
  endfacet
  facet normal 0.000000e+00 -9.922779e-01 -1.240347e-01
    outer loop
      vertex   3.499152e+01 6.908233e+01 4.189513e+01
      vertex   3.782990e+01 6.880724e+01 4.409591e+01
      vertex   3.252926e+01 6.880724e+01 4.409591e+01
    endloop
  endfacet
endsolid
