solid ASCII
  facet normal 4.187537e-01 1.126359e-01 -9.010874e-01
    outer loop
      vertex   7.806130e+01 7.052691e+01 3.033856e+01
      vertex   7.559870e+01 7.066776e+01 2.921174e+01
      vertex   7.806130e+01 7.151918e+01 3.046259e+01
    endloop
  endfacet
  facet normal 4.187537e-01 1.126359e-01 -9.010874e-01
    outer loop
      vertex   7.806130e+01 7.151918e+01 3.046259e+01
      vertex   7.559870e+01 7.066776e+01 2.921174e+01
      vertex   7.559870e+01 7.166004e+01 2.933578e+01
    endloop
  endfacet
  facet normal 1.000000e+00 1.917752e-12 2.397190e-13
    outer loop
      vertex   7.806130e+01 6.908235e+01 4.189497e+01
      vertex   7.806130e+01 7.052691e+01 3.033856e+01
      vertex   7.806130e+01 7.007463e+01 4.201900e+01
    endloop
  endfacet
  facet normal 1.000000e+00 1.917752e-12 2.397190e-13
    outer loop
      vertex   7.806130e+01 7.007463e+01 4.201900e+01
      vertex   7.806130e+01 7.052691e+01 3.033856e+01
      vertex   7.806130e+01 7.151918e+01 3.046259e+01
    endloop
  endfacet
  facet normal -1.065689e-15 1.240347e-01 -9.922779e-01
    outer loop
      vertex   7.971529e+01 6.908235e+01 4.189497e+01
      vertex   7.806130e+01 6.908235e+01 4.189497e+01
      vertex   7.971529e+01 7.007463e+01 4.201900e+01
    endloop
  endfacet
  facet normal -2.131378e-15 1.240347e-01 -9.922779e-01
    outer loop
      vertex   7.971529e+01 7.007463e+01 4.201900e+01
      vertex   7.806130e+01 6.908235e+01 4.189497e+01
      vertex   7.806130e+01 7.007463e+01 4.201900e+01
    endloop
  endfacet
  facet normal -1.000000e+00 -1.917752e-12 -2.397190e-13
    outer loop
      vertex   7.971529e+01 7.066776e+01 2.921174e+01
      vertex   7.971529e+01 6.908235e+01 4.189497e+01
      vertex   7.971529e+01 7.166004e+01 2.933578e+01
    endloop
  endfacet
  facet normal -1.000000e+00 -1.917752e-12 -2.397190e-13
    outer loop
      vertex   7.971529e+01 7.166004e+01 2.933578e+01
      vertex   7.971529e+01 6.908235e+01 4.189497e+01
      vertex   7.971529e+01 7.007463e+01 4.201900e+01
    endloop
  endfacet
  facet normal 4.187772e-01 1.126346e-01 -9.010767e-01
    outer loop
      vertex   8.217772e+01 7.052691e+01 3.033856e+01
      vertex   7.971529e+01 7.066776e+01 2.921174e+01
      vertex   8.217772e+01 7.151918e+01 3.046259e+01
    endloop
  endfacet
  facet normal 4.187772e-01 1.126346e-01 -9.010767e-01
    outer loop
      vertex   8.217772e+01 7.151918e+01 3.046259e+01
      vertex   7.971529e+01 7.066776e+01 2.921174e+01
      vertex   7.971529e+01 7.166004e+01 2.933578e+01
    endloop
  endfacet
  facet normal 1.000000e+00 -1.388014e-05 1.110411e-04
    outer loop
      vertex   8.217635e+01 6.900267e+01 4.253242e+01
      vertex   8.217772e+01 7.052691e+01 3.033856e+01
      vertex   8.217635e+01 6.999495e+01 4.265645e+01
    endloop
  endfacet
  facet normal 1.000000e+00 -1.388014e-05 1.110411e-04
    outer loop
      vertex   8.217635e+01 6.999495e+01 4.265645e+01
      vertex   8.217772e+01 7.052691e+01 3.033856e+01
      vertex   8.217772e+01 7.151918e+01 3.046259e+01
    endloop
  endfacet
  facet normal 2.175825e-02 -1.240054e-01 9.920430e-01
    outer loop
      vertex   8.048597e+01 6.880724e+01 4.409591e+01
      vertex   8.072266e+01 6.880788e+01 4.409080e+01
      vertex   8.048597e+01 6.979952e+01 4.421995e+01
    endloop
  endfacet
  facet normal 2.175825e-02 -1.240054e-01 9.920430e-01
    outer loop
      vertex   8.048597e+01 6.979952e+01 4.421995e+01
      vertex   8.072266e+01 6.880788e+01 4.409080e+01
      vertex   8.072266e+01 6.980015e+01 4.421483e+01
    endloop
  endfacet
  facet normal 7.091011e-02 -1.237225e-01 9.897800e-01
    outer loop
      vertex   8.072266e+01 6.980015e+01 4.421483e+01
      vertex   8.072266e+01 6.880788e+01 4.409080e+01
      vertex   8.085090e+01 6.880901e+01 4.408175e+01
    endloop
  endfacet
  facet normal 7.091011e-02 -1.237225e-01 9.897800e-01
    outer loop
      vertex   8.072266e+01 6.980015e+01 4.421483e+01
      vertex   8.085090e+01 6.880901e+01 4.408175e+01
      vertex   8.085090e+01 6.980128e+01 4.420579e+01
    endloop
  endfacet
  facet normal 1.492686e-01 -1.226451e-01 9.811611e-01
    outer loop
      vertex   8.085090e+01 6.980128e+01 4.420579e+01
      vertex   8.085090e+01 6.880901e+01 4.408175e+01
      vertex   8.106138e+01 6.881295e+01 4.405023e+01
    endloop
  endfacet
  facet normal 1.492686e-01 -1.226451e-01 9.811611e-01
    outer loop
      vertex   8.085090e+01 6.980128e+01 4.420579e+01
      vertex   8.106138e+01 6.881295e+01 4.405023e+01
      vertex   8.106138e+01 6.980523e+01 4.417426e+01
    endloop
  endfacet
  facet normal 2.850334e-01 -1.188895e-01 9.511158e-01
    outer loop
      vertex   8.106138e+01 6.980523e+01 4.417426e+01
      vertex   8.106138e+01 6.881295e+01 4.405023e+01
      vertex   8.137944e+01 6.882468e+01 4.395637e+01
    endloop
  endfacet
  facet normal 2.850334e-01 -1.188895e-01 9.511158e-01
    outer loop
      vertex   8.106138e+01 6.980523e+01 4.417426e+01
      vertex   8.137944e+01 6.882468e+01 4.395637e+01
      vertex   8.137944e+01 6.981696e+01 4.408041e+01
    endloop
  endfacet
  facet normal 4.344003e-01 -1.117206e-01 8.937645e-01
    outer loop
      vertex   8.137944e+01 6.981696e+01 4.408041e+01
      vertex   8.137944e+01 6.882468e+01 4.395637e+01
      vertex   8.156356e+01 6.883569e+01 4.386826e+01
    endloop
  endfacet
  facet normal 4.344003e-01 -1.117206e-01 8.937645e-01
    outer loop
      vertex   8.137944e+01 6.981696e+01 4.408041e+01
      vertex   8.156356e+01 6.883569e+01 4.386826e+01
      vertex   8.156356e+01 6.982797e+01 4.399230e+01
    endloop
  endfacet
  facet normal 5.578860e-01 -1.029386e-01 8.235089e-01
    outer loop
      vertex   8.156356e+01 6.982797e+01 4.399230e+01
      vertex   8.156356e+01 6.883569e+01 4.386826e+01
      vertex   8.169891e+01 6.884698e+01 4.377798e+01
    endloop
  endfacet
  facet normal 5.578860e-01 -1.029386e-01 8.235089e-01
    outer loop
      vertex   8.156356e+01 6.982797e+01 4.399230e+01
      vertex   8.169891e+01 6.884698e+01 4.377798e+01
      vertex   8.169891e+01 6.983926e+01 4.390202e+01
    endloop
  endfacet
  facet normal 7.016142e-01 -8.838182e-02 7.070545e-01
    outer loop
      vertex   8.169891e+01 6.983926e+01 4.390202e+01
      vertex   8.169891e+01 6.884698e+01 4.377798e+01
      vertex   8.188448e+01 6.886964e+01 4.359667e+01
    endloop
  endfacet
  facet normal 7.016142e-01 -8.838182e-02 7.070545e-01
    outer loop
      vertex   8.169891e+01 6.983926e+01 4.390202e+01
      vertex   8.188448e+01 6.886964e+01 4.359667e+01
      vertex   8.188448e+01 6.986192e+01 4.372071e+01
    endloop
  endfacet
  facet normal 8.547245e-01 -6.438418e-02 5.150735e-01
    outer loop
      vertex   8.188448e+01 6.986192e+01 4.372071e+01
      vertex   8.188448e+01 6.886964e+01 4.359667e+01
      vertex   8.201449e+01 6.889620e+01 4.338425e+01
    endloop
  endfacet
  facet normal 8.547245e-01 -6.438418e-02 5.150735e-01
    outer loop
      vertex   8.188448e+01 6.986192e+01 4.372071e+01
      vertex   8.201449e+01 6.889620e+01 4.338425e+01
      vertex   8.201449e+01 6.988847e+01 4.350828e+01
    endloop
  endfacet
  facet normal 9.437411e-01 -4.101644e-02 3.281316e-01
    outer loop
      vertex   8.201449e+01 6.988847e+01 4.350828e+01
      vertex   8.201449e+01 6.889620e+01 4.338425e+01
      vertex   8.210969e+01 6.892990e+01 4.311465e+01
    endloop
  endfacet
  facet normal 9.437411e-01 -4.101644e-02 3.281316e-01
    outer loop
      vertex   8.201449e+01 6.988847e+01 4.350828e+01
      vertex   8.210969e+01 6.892990e+01 4.311465e+01
      vertex   8.210969e+01 6.992217e+01 4.323868e+01
    endloop
  endfacet
  facet normal 9.830604e-01 -2.273332e-02 1.818665e-01
    outer loop
      vertex   8.210969e+01 6.992217e+01 4.323868e+01
      vertex   8.210969e+01 6.892990e+01 4.311465e+01
      vertex   8.215552e+01 6.896038e+01 4.287074e+01
    endloop
  endfacet
  facet normal 9.830604e-01 -2.273332e-02 1.818665e-01
    outer loop
      vertex   8.210969e+01 6.992217e+01 4.323868e+01
      vertex   8.215552e+01 6.896038e+01 4.287074e+01
      vertex   8.215552e+01 6.995266e+01 4.299477e+01
    endloop
  endfacet
  facet normal 9.981399e-01 -7.561806e-03 6.049445e-02
    outer loop
      vertex   8.215552e+01 6.995266e+01 4.299477e+01
      vertex   8.215552e+01 6.896038e+01 4.287074e+01
      vertex   8.217635e+01 6.900267e+01 4.253242e+01
    endloop
  endfacet
  facet normal 9.981399e-01 -7.561806e-03 6.049445e-02
    outer loop
      vertex   8.215552e+01 6.995266e+01 4.299477e+01
      vertex   8.217635e+01 6.900267e+01 4.253242e+01
      vertex   8.217635e+01 6.999495e+01 4.265645e+01
    endloop
  endfacet
  facet normal -1.102599e-15 -1.240347e-01 9.922779e-01
    outer loop
      vertex   7.728873e+01 6.880724e+01 4.409591e+01
      vertex   8.048597e+01 6.880724e+01 4.409591e+01
      vertex   7.728873e+01 6.979952e+01 4.421995e+01
    endloop
  endfacet
  facet normal -4.961694e-15 -1.240347e-01 9.922779e-01
    outer loop
      vertex   7.728873e+01 6.979952e+01 4.421995e+01
      vertex   8.048597e+01 6.880724e+01 4.409591e+01
      vertex   8.048597e+01 6.979952e+01 4.421995e+01
    endloop
  endfacet
  facet normal -9.990158e-01 -5.501699e-03 4.401359e-02
    outer loop
      vertex   7.559870e+01 6.900308e+01 4.252914e+01
      vertex   7.561113e+01 6.896837e+01 4.280682e+01
      vertex   7.559870e+01 6.999536e+01 4.265317e+01
    endloop
  endfacet
  facet normal -9.990158e-01 -5.501699e-03 4.401359e-02
    outer loop
      vertex   7.559870e+01 6.999536e+01 4.265317e+01
      vertex   7.561113e+01 6.896837e+01 4.280682e+01
      vertex   7.561113e+01 6.996065e+01 4.293085e+01
    endloop
  endfacet
  facet normal -9.921459e-01 -1.551498e-02 1.241199e-01
    outer loop
      vertex   7.561113e+01 6.996065e+01 4.293085e+01
      vertex   7.561113e+01 6.896837e+01 4.280682e+01
      vertex   7.563358e+01 6.894629e+01 4.298350e+01
    endloop
  endfacet
  facet normal -9.921459e-01 -1.551498e-02 1.241199e-01
    outer loop
      vertex   7.561113e+01 6.996065e+01 4.293085e+01
      vertex   7.563358e+01 6.894629e+01 4.298350e+01
      vertex   7.563358e+01 6.993857e+01 4.310754e+01
    endloop
  endfacet
  facet normal -9.581755e-01 -3.549643e-02 2.839715e-01
    outer loop
      vertex   7.563358e+01 6.993857e+01 4.310754e+01
      vertex   7.563358e+01 6.894629e+01 4.298350e+01
      vertex   7.574553e+01 6.889980e+01 4.335544e+01
    endloop
  endfacet
  facet normal -9.581755e-01 -3.549643e-02 2.839715e-01
    outer loop
      vertex   7.563358e+01 6.993857e+01 4.310754e+01
      vertex   7.574553e+01 6.889980e+01 4.335544e+01
      vertex   7.574553e+01 6.989207e+01 4.347947e+01
    endloop
  endfacet
  facet normal -8.750705e-01 -6.003225e-02 4.802580e-01
    outer loop
      vertex   7.574553e+01 6.989207e+01 4.347947e+01
      vertex   7.574553e+01 6.889980e+01 4.335544e+01
      vertex   7.585549e+01 6.887514e+01 4.355272e+01
    endloop
  endfacet
  facet normal -8.750705e-01 -6.003225e-02 4.802580e-01
    outer loop
      vertex   7.574553e+01 6.989207e+01 4.347947e+01
      vertex   7.585549e+01 6.887514e+01 4.355272e+01
      vertex   7.585549e+01 6.986741e+01 4.367675e+01
    endloop
  endfacet
  facet normal -7.528645e-01 -8.163663e-02 6.530930e-01
    outer loop
      vertex   7.585549e+01 6.986741e+01 4.367675e+01
      vertex   7.585549e+01 6.887514e+01 4.355272e+01
      vertex   7.599442e+01 6.885543e+01 4.371040e+01
    endloop
  endfacet
  facet normal -7.528645e-01 -8.163663e-02 6.530930e-01
    outer loop
      vertex   7.585549e+01 6.986741e+01 4.367675e+01
      vertex   7.599442e+01 6.885543e+01 4.371040e+01
      vertex   7.599442e+01 6.984770e+01 4.383444e+01
    endloop
  endfacet
  facet normal -6.202588e-01 -9.729250e-02 7.783400e-01
    outer loop
      vertex   7.599442e+01 6.984770e+01 4.383444e+01
      vertex   7.599442e+01 6.885543e+01 4.371040e+01
      vertex   7.614300e+01 6.884085e+01 4.382698e+01
    endloop
  endfacet
  facet normal -6.202588e-01 -9.729250e-02 7.783400e-01
    outer loop
      vertex   7.599442e+01 6.984770e+01 4.383444e+01
      vertex   7.614300e+01 6.884085e+01 4.382698e+01
      vertex   7.614300e+01 6.983313e+01 4.395102e+01
    endloop
  endfacet
  facet normal -4.956995e-01 -1.077234e-01 8.617875e-01
    outer loop
      vertex   7.614300e+01 6.983313e+01 4.395102e+01
      vertex   7.614300e+01 6.884085e+01 4.382698e+01
      vertex   7.629507e+01 6.883009e+01 4.391311e+01
    endloop
  endfacet
  facet normal -4.956995e-01 -1.077234e-01 8.617875e-01
    outer loop
      vertex   7.614300e+01 6.983313e+01 4.395102e+01
      vertex   7.629507e+01 6.883009e+01 4.391311e+01
      vertex   7.629507e+01 6.982237e+01 4.403714e+01
    endloop
  endfacet
  facet normal -3.423075e-01 -1.165415e-01 9.323324e-01
    outer loop
      vertex   7.629507e+01 6.982237e+01 4.403714e+01
      vertex   7.629507e+01 6.883009e+01 4.391311e+01
      vertex   7.659406e+01 6.881658e+01 4.402120e+01
    endloop
  endfacet
  facet normal -3.423075e-01 -1.165415e-01 9.323324e-01
    outer loop
      vertex   7.629507e+01 6.982237e+01 4.403714e+01
      vertex   7.659406e+01 6.881658e+01 4.402120e+01
      vertex   7.659406e+01 6.980885e+01 4.414523e+01
    endloop
  endfacet
  facet normal -1.910952e-01 -1.217490e-01 9.739917e-01
    outer loop
      vertex   7.659406e+01 6.980885e+01 4.414523e+01
      vertex   7.659406e+01 6.881658e+01 4.402120e+01
      vertex   7.686758e+01 6.880997e+01 4.407403e+01
    endloop
  endfacet
  facet normal -1.910952e-01 -1.217490e-01 9.739917e-01
    outer loop
      vertex   7.659406e+01 6.980885e+01 4.414523e+01
      vertex   7.686758e+01 6.880997e+01 4.407403e+01
      vertex   7.686758e+01 6.980225e+01 4.419807e+01
    endloop
  endfacet
  facet normal -7.939460e-02 -1.236432e-01 9.891455e-01
    outer loop
      vertex   7.686758e+01 6.980225e+01 4.419807e+01
      vertex   7.686758e+01 6.880997e+01 4.407403e+01
      vertex   7.710205e+01 6.880766e+01 4.409257e+01
    endloop
  endfacet
  facet normal -7.939460e-02 -1.236432e-01 9.891455e-01
    outer loop
      vertex   7.686758e+01 6.980225e+01 4.419807e+01
      vertex   7.710205e+01 6.880766e+01 4.409257e+01
      vertex   7.710205e+01 6.979993e+01 4.421660e+01
    endloop
  endfacet
  facet normal -1.806121e-02 -1.240145e-01 9.921160e-01
    outer loop
      vertex   7.710205e+01 6.979993e+01 4.421660e+01
      vertex   7.710205e+01 6.880766e+01 4.409257e+01
      vertex   7.728873e+01 6.880724e+01 4.409591e+01
    endloop
  endfacet
  facet normal -1.806121e-02 -1.240145e-01 9.921160e-01
    outer loop
      vertex   7.710205e+01 6.979993e+01 4.421660e+01
      vertex   7.728873e+01 6.880724e+01 4.409591e+01
      vertex   7.728873e+01 6.979952e+01 4.421995e+01
    endloop
  endfacet
  facet normal -1.000000e+00 -1.889287e-12 -2.382951e-13
    outer loop
      vertex   7.559870e+01 7.066776e+01 2.921174e+01
      vertex   7.559870e+01 6.900308e+01 4.252914e+01
      vertex   7.559870e+01 7.166004e+01 2.933578e+01
    endloop
  endfacet
  facet normal -1.000000e+00 -1.917227e-12 -2.439217e-13
    outer loop
      vertex   7.559870e+01 7.166004e+01 2.933578e+01
      vertex   7.559870e+01 6.900308e+01 4.252914e+01
      vertex   7.559870e+01 6.999536e+01 4.265317e+01
    endloop
  endfacet
  facet normal -1.914641e-12 9.922779e-01 1.240347e-01
    outer loop
      vertex   7.559870e+01 7.166004e+01 2.933578e+01
      vertex   7.559870e+01 6.999536e+01 4.265317e+01
      vertex   7.806130e+01 7.151918e+01 3.046259e+01
    endloop
  endfacet
  facet normal -1.915574e-12 9.922779e-01 1.240347e-01
    outer loop
      vertex   7.806130e+01 7.151918e+01 3.046259e+01
      vertex   7.559870e+01 6.999536e+01 4.265317e+01
      vertex   7.806130e+01 7.007463e+01 4.201900e+01
    endloop
  endfacet
  facet normal -1.938750e-12 9.922779e-01 1.240347e-01
    outer loop
      vertex   7.806130e+01 7.007463e+01 4.201900e+01
      vertex   7.559870e+01 6.999536e+01 4.265317e+01
      vertex   7.659406e+01 6.980885e+01 4.414523e+01
    endloop
  endfacet
  facet normal -2.455943e-12 9.922779e-01 1.240347e-01
    outer loop
      vertex   7.806130e+01 7.007463e+01 4.201900e+01
      vertex   7.659406e+01 6.980885e+01 4.414523e+01
      vertex   7.686758e+01 6.980225e+01 4.419807e+01
    endloop
  endfacet
  facet normal -2.060163e-12 9.922779e-01 1.240347e-01
    outer loop
      vertex   7.561113e+01 6.996065e+01 4.293085e+01
      vertex   7.585549e+01 6.986741e+01 4.367675e+01
      vertex   7.559870e+01 6.999536e+01 4.265317e+01
    endloop
  endfacet
  facet normal -8.329236e-13 9.922779e-01 1.240347e-01
    outer loop
      vertex   7.559870e+01 6.999536e+01 4.265317e+01
      vertex   7.585549e+01 6.986741e+01 4.367675e+01
      vertex   7.599442e+01 6.984770e+01 4.383444e+01
    endloop
  endfacet
  facet normal -1.740671e-12 9.922779e-01 1.240347e-01
    outer loop
      vertex   7.559870e+01 6.999536e+01 4.265317e+01
      vertex   7.599442e+01 6.984770e+01 4.383444e+01
      vertex   7.614300e+01 6.983313e+01 4.395102e+01
    endloop
  endfacet
  facet normal -1.579548e-12 9.922779e-01 1.240347e-01
    outer loop
      vertex   7.563358e+01 6.993857e+01 4.310754e+01
      vertex   7.574553e+01 6.989207e+01 4.347947e+01
      vertex   7.561113e+01 6.996065e+01 4.293085e+01
    endloop
  endfacet
  facet normal -1.972333e-12 9.922779e-01 1.240347e-01
    outer loop
      vertex   7.561113e+01 6.996065e+01 4.293085e+01
      vertex   7.574553e+01 6.989207e+01 4.347947e+01
      vertex   7.585549e+01 6.986741e+01 4.367675e+01
    endloop
  endfacet
  facet normal -2.637356e-12 9.922779e-01 1.240347e-01
    outer loop
      vertex   7.614300e+01 6.983313e+01 4.395102e+01
      vertex   7.629507e+01 6.982237e+01 4.403714e+01
      vertex   7.559870e+01 6.999536e+01 4.265317e+01
    endloop
  endfacet
  facet normal -2.299064e-12 9.922779e-01 1.240347e-01
    outer loop
      vertex   7.559870e+01 6.999536e+01 4.265317e+01
      vertex   7.629507e+01 6.982237e+01 4.403714e+01
      vertex   7.659406e+01 6.980885e+01 4.414523e+01
    endloop
  endfacet
  facet normal -2.553531e-12 9.922779e-01 1.240347e-01
    outer loop
      vertex   7.686758e+01 6.980225e+01 4.419807e+01
      vertex   7.710205e+01 6.979993e+01 4.421660e+01
      vertex   7.806130e+01 7.007463e+01 4.201900e+01
    endloop
  endfacet
  facet normal 5.283855e-13 9.922779e-01 1.240347e-01
    outer loop
      vertex   7.806130e+01 7.007463e+01 4.201900e+01
      vertex   7.710205e+01 6.979993e+01 4.421660e+01
      vertex   7.728873e+01 6.979952e+01 4.421995e+01
    endloop
  endfacet
  facet normal -1.913286e-12 9.922779e-01 1.240347e-01
    outer loop
      vertex   7.806130e+01 7.007463e+01 4.201900e+01
      vertex   7.728873e+01 6.979952e+01 4.421995e+01
      vertex   8.048597e+01 6.979952e+01 4.421995e+01
    endloop
  endfacet
  facet normal -1.921970e-12 9.922779e-01 1.240347e-01
    outer loop
      vertex   7.806130e+01 7.007463e+01 4.201900e+01
      vertex   8.048597e+01 6.979952e+01 4.421995e+01
      vertex   7.971529e+01 7.007463e+01 4.201900e+01
    endloop
  endfacet
  facet normal -1.594934e-12 9.922779e-01 1.240347e-01
    outer loop
      vertex   7.971529e+01 7.007463e+01 4.201900e+01
      vertex   8.048597e+01 6.979952e+01 4.421995e+01
      vertex   8.072266e+01 6.980015e+01 4.421483e+01
    endloop
  endfacet
  facet normal -1.679610e-12 9.922779e-01 1.240347e-01
    outer loop
      vertex   7.971529e+01 7.007463e+01 4.201900e+01
      vertex   8.072266e+01 6.980015e+01 4.421483e+01
      vertex   8.085090e+01 6.980128e+01 4.420579e+01
    endloop
  endfacet
  facet normal -2.015033e-12 9.922779e-01 1.240347e-01
    outer loop
      vertex   8.085090e+01 6.980128e+01 4.420579e+01
      vertex   8.106138e+01 6.980523e+01 4.417426e+01
      vertex   7.971529e+01 7.007463e+01 4.201900e+01
    endloop
  endfacet
  facet normal -1.920957e-12 9.922779e-01 1.240347e-01
    outer loop
      vertex   7.971529e+01 7.007463e+01 4.201900e+01
      vertex   8.106138e+01 6.980523e+01 4.417426e+01
      vertex   8.217635e+01 6.999495e+01 4.265645e+01
    endloop
  endfacet
  facet normal -1.911484e-12 9.922779e-01 1.240347e-01
    outer loop
      vertex   7.971529e+01 7.007463e+01 4.201900e+01
      vertex   8.217635e+01 6.999495e+01 4.265645e+01
      vertex   8.217772e+01 7.151918e+01 3.046259e+01
    endloop
  endfacet
  facet normal -2.334840e-12 9.922779e-01 1.240347e-01
    outer loop
      vertex   8.106138e+01 6.980523e+01 4.417426e+01
      vertex   8.137944e+01 6.981696e+01 4.408041e+01
      vertex   8.217635e+01 6.999495e+01 4.265645e+01
    endloop
  endfacet
  facet normal -2.110229e-12 9.922779e-01 1.240347e-01
    outer loop
      vertex   8.217635e+01 6.999495e+01 4.265645e+01
      vertex   8.137944e+01 6.981696e+01 4.408041e+01
      vertex   8.156356e+01 6.982797e+01 4.399230e+01
    endloop
  endfacet
  facet normal -1.646124e-12 9.922779e-01 1.240347e-01
    outer loop
      vertex   8.217635e+01 6.999495e+01 4.265645e+01
      vertex   8.156356e+01 6.982797e+01 4.399230e+01
      vertex   8.169891e+01 6.983926e+01 4.390202e+01
    endloop
  endfacet
  facet normal -1.682334e-12 9.922779e-01 1.240347e-01
    outer loop
      vertex   8.169891e+01 6.983926e+01 4.390202e+01
      vertex   8.188448e+01 6.986192e+01 4.372071e+01
      vertex   8.217635e+01 6.999495e+01 4.265645e+01
    endloop
  endfacet
  facet normal -3.313296e-12 9.922779e-01 1.240347e-01
    outer loop
      vertex   8.217635e+01 6.999495e+01 4.265645e+01
      vertex   8.188448e+01 6.986192e+01 4.372071e+01
      vertex   8.201449e+01 6.988847e+01 4.350828e+01
    endloop
  endfacet
  facet normal -4.836698e-12 9.922779e-01 1.240347e-01
    outer loop
      vertex   8.217635e+01 6.999495e+01 4.265645e+01
      vertex   8.201449e+01 6.988847e+01 4.350828e+01
      vertex   8.215552e+01 6.995266e+01 4.299477e+01
    endloop
  endfacet
  facet normal -1.172319e-12 9.922779e-01 1.240347e-01
    outer loop
      vertex   8.215552e+01 6.995266e+01 4.299477e+01
      vertex   8.201449e+01 6.988847e+01 4.350828e+01
      vertex   8.210969e+01 6.992217e+01 4.323868e+01
    endloop
  endfacet
  facet normal -1.919490e-12 9.922779e-01 1.240347e-01
    outer loop
      vertex   8.217772e+01 7.151918e+01 3.046259e+01
      vertex   7.971529e+01 7.166004e+01 2.933578e+01
      vertex   7.971529e+01 7.007463e+01 4.201900e+01
    endloop
  endfacet
  facet normal 1.915454e-12 -9.922779e-01 -1.240347e-01
    outer loop
      vertex   7.559870e+01 7.066776e+01 2.921174e+01
      vertex   7.806130e+01 7.052691e+01 3.033856e+01
      vertex   7.559870e+01 6.900308e+01 4.252914e+01
    endloop
  endfacet
  facet normal 1.920900e-12 -9.922779e-01 -1.240347e-01
    outer loop
      vertex   7.559870e+01 6.900308e+01 4.252914e+01
      vertex   7.806130e+01 7.052691e+01 3.033856e+01
      vertex   7.806130e+01 6.908235e+01 4.189497e+01
    endloop
  endfacet
  facet normal 1.945284e-12 -9.922779e-01 -1.240347e-01
    outer loop
      vertex   7.559870e+01 6.900308e+01 4.252914e+01
      vertex   7.806130e+01 6.908235e+01 4.189497e+01
      vertex   7.659406e+01 6.881658e+01 4.402120e+01
    endloop
  endfacet
  facet normal 2.455857e-12 -9.922779e-01 -1.240347e-01
    outer loop
      vertex   7.659406e+01 6.881658e+01 4.402120e+01
      vertex   7.806130e+01 6.908235e+01 4.189497e+01
      vertex   7.686758e+01 6.880997e+01 4.407403e+01
    endloop
  endfacet
  facet normal 2.495888e-12 -9.922779e-01 -1.240347e-01
    outer loop
      vertex   7.686758e+01 6.880997e+01 4.407403e+01
      vertex   7.806130e+01 6.908235e+01 4.189497e+01
      vertex   7.710205e+01 6.880766e+01 4.409257e+01
    endloop
  endfacet
  facet normal -4.485901e-13 -9.922779e-01 -1.240347e-01
    outer loop
      vertex   7.710205e+01 6.880766e+01 4.409257e+01
      vertex   7.806130e+01 6.908235e+01 4.189497e+01
      vertex   7.728873e+01 6.880724e+01 4.409591e+01
    endloop
  endfacet
  facet normal 1.908323e-12 -9.922779e-01 -1.240347e-01
    outer loop
      vertex   7.728873e+01 6.880724e+01 4.409591e+01
      vertex   7.806130e+01 6.908235e+01 4.189497e+01
      vertex   8.048597e+01 6.880724e+01 4.409591e+01
    endloop
  endfacet
  facet normal 1.913425e-12 -9.922779e-01 -1.240347e-01
    outer loop
      vertex   8.048597e+01 6.880724e+01 4.409591e+01
      vertex   7.806130e+01 6.908235e+01 4.189497e+01
      vertex   7.971529e+01 6.908235e+01 4.189497e+01
    endloop
  endfacet
  facet normal 1.594895e-12 -9.922779e-01 -1.240347e-01
    outer loop
      vertex   8.048597e+01 6.880724e+01 4.409591e+01
      vertex   7.971529e+01 6.908235e+01 4.189497e+01
      vertex   8.072266e+01 6.880788e+01 4.409080e+01
    endloop
  endfacet
  facet normal 1.686419e-12 -9.922779e-01 -1.240347e-01
    outer loop
      vertex   8.072266e+01 6.880788e+01 4.409080e+01
      vertex   7.971529e+01 6.908235e+01 4.189497e+01
      vertex   8.085090e+01 6.880901e+01 4.408175e+01
    endloop
  endfacet
  facet normal 2.018916e-12 -9.922779e-01 -1.240347e-01
    outer loop
      vertex   8.085090e+01 6.880901e+01 4.408175e+01
      vertex   7.971529e+01 6.908235e+01 4.189497e+01
      vertex   8.106138e+01 6.881295e+01 4.405023e+01
    endloop
  endfacet
  facet normal 1.928087e-12 -9.922779e-01 -1.240347e-01
    outer loop
      vertex   8.106138e+01 6.881295e+01 4.405023e+01
      vertex   7.971529e+01 6.908235e+01 4.189497e+01
      vertex   8.217635e+01 6.900267e+01 4.253242e+01
    endloop
  endfacet
  facet normal 2.441010e-12 -9.922779e-01 -1.240347e-01
    outer loop
      vertex   8.106138e+01 6.881295e+01 4.405023e+01
      vertex   8.217635e+01 6.900267e+01 4.253242e+01
      vertex   8.137944e+01 6.882468e+01 4.395637e+01
    endloop
  endfacet
  facet normal 2.024754e-12 -9.922779e-01 -1.240347e-01
    outer loop
      vertex   8.137944e+01 6.882468e+01 4.395637e+01
      vertex   8.217635e+01 6.900267e+01 4.253242e+01
      vertex   8.156356e+01 6.883569e+01 4.386826e+01
    endloop
  endfacet
  facet normal 1.477959e-12 -9.922779e-01 -1.240347e-01
    outer loop
      vertex   8.156356e+01 6.883569e+01 4.386826e+01
      vertex   8.217635e+01 6.900267e+01 4.253242e+01
      vertex   8.169891e+01 6.884698e+01 4.377798e+01
    endloop
  endfacet
  facet normal 1.792633e-12 -9.922779e-01 -1.240347e-01
    outer loop
      vertex   8.169891e+01 6.884698e+01 4.377798e+01
      vertex   8.217635e+01 6.900267e+01 4.253242e+01
      vertex   8.188448e+01 6.886964e+01 4.359667e+01
    endloop
  endfacet
  facet normal 3.129093e-12 -9.922779e-01 -1.240347e-01
    outer loop
      vertex   8.188448e+01 6.886964e+01 4.359667e+01
      vertex   8.217635e+01 6.900267e+01 4.253242e+01
      vertex   8.201449e+01 6.889620e+01 4.338425e+01
    endloop
  endfacet
  facet normal 4.633038e-12 -9.922779e-01 -1.240347e-01
    outer loop
      vertex   8.201449e+01 6.889620e+01 4.338425e+01
      vertex   8.217635e+01 6.900267e+01 4.253242e+01
      vertex   8.215552e+01 6.896038e+01 4.287074e+01
    endloop
  endfacet
  facet normal 1.818996e-12 -9.922779e-01 -1.240347e-01
    outer loop
      vertex   8.201449e+01 6.889620e+01 4.338425e+01
      vertex   8.215552e+01 6.896038e+01 4.287074e+01
      vertex   8.210969e+01 6.892990e+01 4.311465e+01
    endloop
  endfacet
  facet normal 1.919998e-12 -9.922779e-01 -1.240347e-01
    outer loop
      vertex   7.971529e+01 7.066776e+01 2.921174e+01
      vertex   8.217772e+01 7.052691e+01 3.033856e+01
      vertex   7.971529e+01 6.908235e+01 4.189497e+01
    endloop
  endfacet
  facet normal 1.917552e-12 -9.922779e-01 -1.240347e-01
    outer loop
      vertex   7.971529e+01 6.908235e+01 4.189497e+01
      vertex   8.217772e+01 7.052691e+01 3.033856e+01
      vertex   8.217635e+01 6.900267e+01 4.253242e+01
    endloop
  endfacet
  facet normal 2.294844e-12 -9.922779e-01 -1.240347e-01
    outer loop
      vertex   7.659406e+01 6.881658e+01 4.402120e+01
      vertex   7.629507e+01 6.883009e+01 4.391311e+01
      vertex   7.559870e+01 6.900308e+01 4.252914e+01
    endloop
  endfacet
  facet normal 2.621697e-12 -9.922779e-01 -1.240347e-01
    outer loop
      vertex   7.559870e+01 6.900308e+01 4.252914e+01
      vertex   7.629507e+01 6.883009e+01 4.391311e+01
      vertex   7.614300e+01 6.884085e+01 4.382698e+01
    endloop
  endfacet
  facet normal 1.736626e-12 -9.922779e-01 -1.240347e-01
    outer loop
      vertex   7.559870e+01 6.900308e+01 4.252914e+01
      vertex   7.614300e+01 6.884085e+01 4.382698e+01
      vertex   7.599442e+01 6.885543e+01 4.371040e+01
    endloop
  endfacet
  facet normal 9.660127e-13 -9.922779e-01 -1.240347e-01
    outer loop
      vertex   7.599442e+01 6.885543e+01 4.371040e+01
      vertex   7.585549e+01 6.887514e+01 4.355272e+01
      vertex   7.559870e+01 6.900308e+01 4.252914e+01
    endloop
  endfacet
  facet normal 2.060280e-12 -9.922779e-01 -1.240347e-01
    outer loop
      vertex   7.559870e+01 6.900308e+01 4.252914e+01
      vertex   7.585549e+01 6.887514e+01 4.355272e+01
      vertex   7.561113e+01 6.896837e+01 4.280682e+01
    endloop
  endfacet
  facet normal 1.991678e-12 -9.922779e-01 -1.240347e-01
    outer loop
      vertex   7.561113e+01 6.896837e+01 4.280682e+01
      vertex   7.585549e+01 6.887514e+01 4.355272e+01
      vertex   7.574553e+01 6.889980e+01 4.335544e+01
    endloop
  endfacet
  facet normal 1.608160e-12 -9.922779e-01 -1.240347e-01
    outer loop
      vertex   7.561113e+01 6.896837e+01 4.280682e+01
      vertex   7.574553e+01 6.889980e+01 4.335544e+01
      vertex   7.563358e+01 6.894629e+01 4.298350e+01
    endloop
  endfacet
endsolid
