solid ASCII
  facet normal 1.000000e+00 -5.875465e-17 4.700372e-16
    outer loop
      vertex   5.596790e+01 6.880724e+01 4.409591e+01
      vertex   5.596790e+01 7.066776e+01 2.921174e+01
      vertex   5.596790e+01 6.979952e+01 4.421995e+01
    endloop
  endfacet
  facet normal 1.000000e+00 -5.875465e-17 4.700372e-16
    outer loop
      vertex   5.596790e+01 6.979952e+01 4.421995e+01
      vertex   5.596790e+01 7.066776e+01 2.921174e+01
      vertex   5.596790e+01 7.166004e+01 2.933578e+01
    endloop
  endfacet
  facet normal -4.251402e-01 -1.122672e-01 8.981380e-01
    outer loop
      vertex   5.350530e+01 6.895071e+01 4.294816e+01
      vertex   5.596790e+01 6.880724e+01 4.409591e+01
      vertex   5.350530e+01 6.994298e+01 4.307219e+01
    endloop
  endfacet
  facet normal -4.251402e-01 -1.122672e-01 8.981380e-01
    outer loop
      vertex   5.350530e+01 6.994298e+01 4.307219e+01
      vertex   5.596790e+01 6.880724e+01 4.409591e+01
      vertex   5.596790e+01 6.979952e+01 4.421995e+01
    endloop
  endfacet
  facet normal -1.000000e+00 6.366394e-17 -5.093115e-16
    outer loop
      vertex   5.350530e+01 7.066776e+01 2.921174e+01
      vertex   5.350530e+01 6.895071e+01 4.294816e+01
      vertex   5.350530e+01 7.166004e+01 2.933578e+01
    endloop
  endfacet
  facet normal -1.000000e+00 6.366394e-17 -5.093115e-16
    outer loop
      vertex   5.350530e+01 7.166004e+01 2.933578e+01
      vertex   5.350530e+01 6.895071e+01 4.294816e+01
      vertex   5.350530e+01 6.994298e+01 4.307219e+01
    endloop
  endfacet
  facet normal 0.000000e+00 1.240347e-01 -9.922779e-01
    outer loop
      vertex   5.596790e+01 7.066776e+01 2.921174e+01
      vertex   5.350530e+01 7.066776e+01 2.921174e+01
      vertex   5.596790e+01 7.166004e+01 2.933578e+01
    endloop
  endfacet
  facet normal 0.000000e+00 1.240347e-01 -9.922779e-01
    outer loop
      vertex   5.596790e+01 7.166004e+01 2.933578e+01
      vertex   5.350530e+01 7.066776e+01 2.921174e+01
      vertex   5.350530e+01 7.166004e+01 2.933578e+01
    endloop
  endfacet
  facet normal -0.000000e+00 9.922779e-01 1.240347e-01
    outer loop
      vertex   5.350530e+01 7.166004e+01 2.933578e+01
      vertex   5.350530e+01 6.994298e+01 4.307219e+01
      vertex   5.596790e+01 7.166004e+01 2.933578e+01
    endloop
  endfacet
  facet normal 3.654762e-15 9.922779e-01 1.240347e-01
    outer loop
      vertex   5.596790e+01 7.166004e+01 2.933578e+01
      vertex   5.350530e+01 6.994298e+01 4.307219e+01
      vertex   5.596790e+01 6.979952e+01 4.421995e+01
    endloop
  endfacet
  facet normal 0.000000e+00 -9.922779e-01 -1.240347e-01
    outer loop
      vertex   5.350530e+01 7.066776e+01 2.921174e+01
      vertex   5.596790e+01 7.066776e+01 2.921174e+01
      vertex   5.350530e+01 6.895071e+01 4.294816e+01
    endloop
  endfacet
  facet normal -3.606673e-15 -9.922779e-01 -1.240347e-01
    outer loop
      vertex   5.350530e+01 6.895071e+01 4.294816e+01
      vertex   5.596790e+01 7.066776e+01 2.921174e+01
      vertex   5.596790e+01 6.880724e+01 4.409591e+01
    endloop
  endfacet
endsolid
