solid ASCII
  facet normal -4.560141e-09 3.947460e-15 1.000000e+00
    outer loop
      vertex   8.972974e+01 5.063138e+02 6.256875e+01
      vertex   8.972934e+01 5.063138e+02 6.256875e+01
      vertex   8.972974e+01 5.027138e+02 6.256875e+01
    endloop
  endfacet
  facet normal -4.577615e-09 1.973507e-15 1.000000e+00
    outer loop
      vertex   8.972974e+01 5.027138e+02 6.256875e+01
      vertex   8.972934e+01 5.063138e+02 6.256875e+01
      vertex   8.972934e+01 5.027134e+02 6.256875e+01
    endloop
  endfacet
  facet normal -1.000000e+00 7.894028e-15 7.400626e-15
    outer loop
      vertex   8.972934e+01 5.063138e+02 6.256875e+01
      vertex   8.972934e+01 5.063138e+02 5.872831e+01
      vertex   8.972934e+01 5.027134e+02 6.256875e+01
    endloop
  endfacet
  facet normal -1.000000e+00 7.894028e-15 7.400626e-15
    outer loop
      vertex   8.972934e+01 5.027134e+02 6.256875e+01
      vertex   8.972934e+01 5.063138e+02 5.872831e+01
      vertex   8.972934e+01 5.027134e+02 5.872831e+01
    endloop
  endfacet
  facet normal 1.216038e-08 1.000000e+00 0.000000e+00
    outer loop
      vertex   8.972974e+01 5.063138e+02 6.256875e+01
      vertex   8.972974e+01 5.063138e+02 5.972831e+01
      vertex   8.972934e+01 5.063138e+02 6.256875e+01
    endloop
  endfacet
  facet normal 1.216038e-08 1.000000e+00 -8.999440e-23
    outer loop
      vertex   8.972934e+01 5.063138e+02 6.256875e+01
      vertex   8.972974e+01 5.063138e+02 5.972831e+01
      vertex   8.972934e+01 5.063138e+02 5.872831e+01
    endloop
  endfacet
  facet normal 3.412202e-11 1.000000e+00 4.931501e-12
    outer loop
      vertex   8.972934e+01 5.063138e+02 5.872831e+01
      vertex   8.972974e+01 5.063138e+02 5.972831e+01
      vertex   8.976382e+01 5.063138e+02 5.946949e+01
    endloop
  endfacet
  facet normal 1.414893e-11 1.000000e+00 5.860679e-12
    outer loop
      vertex   8.972934e+01 5.063138e+02 5.872831e+01
      vertex   8.976382e+01 5.063138e+02 5.946949e+01
      vertex   8.986372e+01 5.063138e+02 5.922831e+01
    endloop
  endfacet
  facet normal 9.326782e-12 1.000000e+00 7.156691e-12
    outer loop
      vertex   8.986372e+01 5.063138e+02 5.922831e+01
      vertex   9.002264e+01 5.063138e+02 5.902120e+01
      vertex   8.972934e+01 5.063138e+02 5.872831e+01
    endloop
  endfacet
  facet normal 7.157999e-12 1.000000e+00 9.328486e-12
    outer loop
      vertex   8.972934e+01 5.063138e+02 5.872831e+01
      vertex   9.002264e+01 5.063138e+02 5.902120e+01
      vertex   9.022974e+01 5.063138e+02 5.886228e+01
    endloop
  endfacet
  facet normal 5.864770e-12 1.000000e+00 1.415881e-11
    outer loop
      vertex   8.972934e+01 5.063138e+02 5.872831e+01
      vertex   9.022974e+01 5.063138e+02 5.886228e+01
      vertex   9.047092e+01 5.063138e+02 5.876238e+01
    endloop
  endfacet
  facet normal 4.829726e-12 1.000000e+00 3.668541e-11
    outer loop
      vertex   9.047092e+01 5.063138e+02 5.876238e+01
      vertex   9.072974e+01 5.063138e+02 5.872831e+01
      vertex   8.972934e+01 5.063138e+02 5.872831e+01
    endloop
  endfacet
  facet normal 9.663381e-13 1.973730e-15 -1.000000e+00
    outer loop
      vertex   9.072974e+01 5.027138e+02 5.872831e+01
      vertex   8.972974e+01 5.027138e+02 5.872831e+01
      vertex   9.072974e+01 5.063138e+02 5.872831e+01
    endloop
  endfacet
  facet normal 9.801504e-13 -1.863006e-15 -1.000000e+00
    outer loop
      vertex   9.072974e+01 5.063138e+02 5.872831e+01
      vertex   8.972974e+01 5.027138e+02 5.872831e+01
      vertex   8.972934e+01 5.063138e+02 5.872831e+01
    endloop
  endfacet
  facet normal 1.973507e-15 -1.973507e-15 -1.000000e+00
    outer loop
      vertex   8.972934e+01 5.063138e+02 5.872831e+01
      vertex   8.972974e+01 5.027138e+02 5.872831e+01
      vertex   8.972934e+01 5.027134e+02 5.872831e+01
    endloop
  endfacet
  facet normal 7.071068e-01 -7.071068e-01 0.000000e+00
    outer loop
      vertex   8.972974e+01 5.027138e+02 6.256875e+01
      vertex   8.972934e+01 5.027134e+02 6.256875e+01
      vertex   8.972974e+01 5.027138e+02 5.972831e+01
    endloop
  endfacet
  facet normal 7.071068e-01 -7.071068e-01 -5.233034e-15
    outer loop
      vertex   8.972974e+01 5.027138e+02 5.972831e+01
      vertex   8.972934e+01 5.027134e+02 6.256875e+01
      vertex   8.972934e+01 5.027134e+02 5.872831e+01
    endloop
  endfacet
  facet normal 7.071068e-01 -7.071068e-01 -7.397114e-14
    outer loop
      vertex   8.972974e+01 5.027138e+02 5.972831e+01
      vertex   8.972934e+01 5.027134e+02 5.872831e+01
      vertex   8.973456e+01 5.027186e+02 5.963029e+01
    endloop
  endfacet
  facet normal 7.071068e-01 -7.071068e-01 -3.699740e-14
    outer loop
      vertex   8.973456e+01 5.027186e+02 5.963029e+01
      vertex   8.972934e+01 5.027134e+02 5.872831e+01
      vertex   8.974896e+01 5.027330e+02 5.953322e+01
    endloop
  endfacet
  facet normal 7.071068e-01 -7.071068e-01 2.434324e-12
    outer loop
      vertex   8.974896e+01 5.027330e+02 5.953322e+01
      vertex   8.972934e+01 5.027134e+02 5.872831e+01
      vertex   8.972974e+01 5.027138e+02 5.872831e+01
    endloop
  endfacet
  facet normal 7.071068e-01 -7.071068e-01 7.725347e-14
    outer loop
      vertex   8.974896e+01 5.027330e+02 5.953322e+01
      vertex   8.972974e+01 5.027138e+02 5.872831e+01
      vertex   8.980586e+01 5.027899e+02 5.934563e+01
    endloop
  endfacet
  facet normal 7.071068e-01 -7.071068e-01 5.290472e-14
    outer loop
      vertex   8.980586e+01 5.027899e+02 5.934563e+01
      vertex   8.972974e+01 5.027138e+02 5.872831e+01
      vertex   8.989827e+01 5.028823e+02 5.917274e+01
    endloop
  endfacet
  facet normal 7.071068e-01 -7.071068e-01 -1.001842e-15
    outer loop
      vertex   8.989827e+01 5.028823e+02 5.917274e+01
      vertex   8.972974e+01 5.027138e+02 5.872831e+01
      vertex   9.002264e+01 5.030067e+02 5.902120e+01
    endloop
  endfacet
  facet normal 4.019437e-14 -7.071068e-01 7.071068e-01
    outer loop
      vertex   9.072974e+01 5.027138e+02 5.872831e+01
      vertex   9.063173e+01 5.027186e+02 5.873312e+01
      vertex   8.972974e+01 5.027138e+02 5.872831e+01
    endloop
  endfacet
  facet normal 7.169568e-14 -7.071068e-01 7.071068e-01
    outer loop
      vertex   8.972974e+01 5.027138e+02 5.872831e+01
      vertex   9.063173e+01 5.027186e+02 5.873312e+01
      vertex   9.053465e+01 5.027330e+02 5.874752e+01
    endloop
  endfacet
  facet normal 8.116362e-14 -7.071068e-01 7.071068e-01
    outer loop
      vertex   8.972974e+01 5.027138e+02 5.872831e+01
      vertex   9.053465e+01 5.027330e+02 5.874752e+01
      vertex   9.034706e+01 5.027899e+02 5.880443e+01
    endloop
  endfacet
  facet normal 2.878485e-14 -7.071068e-01 7.071068e-01
    outer loop
      vertex   9.034706e+01 5.027899e+02 5.880443e+01
      vertex   9.017417e+01 5.028823e+02 5.889684e+01
      vertex   8.972974e+01 5.027138e+02 5.872831e+01
    endloop
  endfacet
  facet normal 8.281892e-14 -7.071068e-01 7.071068e-01
    outer loop
      vertex   8.972974e+01 5.027138e+02 5.872831e+01
      vertex   9.017417e+01 5.028823e+02 5.889684e+01
      vertex   9.002264e+01 5.030067e+02 5.902120e+01
    endloop
  endfacet
  facet normal 4.906767e-02 -6.155037e-16 9.987955e-01
    outer loop
      vertex   9.072974e+01 5.027138e+02 5.872831e+01
      vertex   9.072974e+01 5.063138e+02 5.872831e+01
      vertex   9.063173e+01 5.027186e+02 5.873312e+01
    endloop
  endfacet
  facet normal 1.305259e-01 -2.230680e-03 9.914424e-01
    outer loop
      vertex   9.063173e+01 5.027186e+02 5.873312e+01
      vertex   9.072974e+01 5.063138e+02 5.872831e+01
      vertex   9.047092e+01 5.063138e+02 5.876238e+01
    endloop
  endfacet
  facet normal 1.465130e-01 -1.497437e-03 9.892076e-01
    outer loop
      vertex   9.063173e+01 5.027186e+02 5.873312e+01
      vertex   9.047092e+01 5.063138e+02 5.876238e+01
      vertex   9.053465e+01 5.027330e+02 5.874752e+01
    endloop
  endfacet
  facet normal 2.906182e-01 1.201589e-03 9.568383e-01
    outer loop
      vertex   9.053465e+01 5.027330e+02 5.874752e+01
      vertex   9.047092e+01 5.063138e+02 5.876238e+01
      vertex   9.034706e+01 5.027899e+02 5.880443e+01
    endloop
  endfacet
  facet normal 3.826823e-01 -2.427754e-03 9.238768e-01
    outer loop
      vertex   9.034706e+01 5.027899e+02 5.880443e+01
      vertex   9.047092e+01 5.063138e+02 5.876238e+01
      vertex   9.022974e+01 5.063138e+02 5.886228e+01
    endloop
  endfacet
  facet normal 4.719102e-01 1.236149e-03 8.816458e-01
    outer loop
      vertex   9.034706e+01 5.027899e+02 5.880443e+01
      vertex   9.022974e+01 5.063138e+02 5.886228e+01
      vertex   9.017417e+01 5.028823e+02 5.889684e+01
    endloop
  endfacet
  facet normal 6.087604e-01 -1.869185e-03 7.933520e-01
    outer loop
      vertex   9.017417e+01 5.028823e+02 5.889684e+01
      vertex   9.022974e+01 5.063138e+02 5.886228e+01
      vertex   9.002264e+01 5.063138e+02 5.902120e+01
    endloop
  endfacet
  facet normal 6.343933e-01 1.801333e-14 7.730105e-01
    outer loop
      vertex   9.017417e+01 5.028823e+02 5.889684e+01
      vertex   9.002264e+01 5.063138e+02 5.902120e+01
      vertex   9.002264e+01 5.030067e+02 5.902120e+01
    endloop
  endfacet
  facet normal 7.730105e-01 2.129307e-14 6.343933e-01
    outer loop
      vertex   9.002264e+01 5.030067e+02 5.902120e+01
      vertex   9.002264e+01 5.063138e+02 5.902120e+01
      vertex   8.989827e+01 5.028823e+02 5.917274e+01
    endloop
  endfacet
  facet normal 7.933520e-01 -1.869185e-03 6.087604e-01
    outer loop
      vertex   8.989827e+01 5.028823e+02 5.917274e+01
      vertex   9.002264e+01 5.063138e+02 5.902120e+01
      vertex   8.986372e+01 5.063138e+02 5.922831e+01
    endloop
  endfacet
  facet normal 8.816458e-01 1.236149e-03 4.719102e-01
    outer loop
      vertex   8.989827e+01 5.028823e+02 5.917274e+01
      vertex   8.986372e+01 5.063138e+02 5.922831e+01
      vertex   8.980586e+01 5.027899e+02 5.934563e+01
    endloop
  endfacet
  facet normal 9.238768e-01 -2.427754e-03 3.826823e-01
    outer loop
      vertex   8.980586e+01 5.027899e+02 5.934563e+01
      vertex   8.986372e+01 5.063138e+02 5.922831e+01
      vertex   8.976382e+01 5.063138e+02 5.946949e+01
    endloop
  endfacet
  facet normal 9.568383e-01 1.201589e-03 2.906182e-01
    outer loop
      vertex   8.980586e+01 5.027899e+02 5.934563e+01
      vertex   8.976382e+01 5.063138e+02 5.946949e+01
      vertex   8.974896e+01 5.027330e+02 5.953322e+01
    endloop
  endfacet
  facet normal 9.892076e-01 -1.497437e-03 1.465130e-01
    outer loop
      vertex   8.974896e+01 5.027330e+02 5.953322e+01
      vertex   8.976382e+01 5.063138e+02 5.946949e+01
      vertex   8.973456e+01 5.027186e+02 5.963029e+01
    endloop
  endfacet
  facet normal 9.914424e-01 -2.230680e-03 1.305259e-01
    outer loop
      vertex   8.973456e+01 5.027186e+02 5.963029e+01
      vertex   8.976382e+01 5.063138e+02 5.946949e+01
      vertex   8.972974e+01 5.063138e+02 5.972831e+01
    endloop
  endfacet
  facet normal 9.987955e-01 2.759905e-14 4.906767e-02
    outer loop
      vertex   8.973456e+01 5.027186e+02 5.963029e+01
      vertex   8.972974e+01 5.063138e+02 5.972831e+01
      vertex   8.972974e+01 5.027138e+02 5.972831e+01
    endloop
  endfacet
  facet normal 1.000000e+00 2.763222e-14 0.000000e+00
    outer loop
      vertex   8.972974e+01 5.063138e+02 6.256875e+01
      vertex   8.972974e+01 5.027138e+02 6.256875e+01
      vertex   8.972974e+01 5.063138e+02 5.972831e+01
    endloop
  endfacet
  facet normal 1.000000e+00 2.763222e-14 0.000000e+00
    outer loop
      vertex   8.972974e+01 5.063138e+02 5.972831e+01
      vertex   8.972974e+01 5.027138e+02 6.256875e+01
      vertex   8.972974e+01 5.027138e+02 5.972831e+01
    endloop
  endfacet
endsolid
