0
SECTION
2
HEADER
9
$INSUNITS
70
4
9
$ACADVER
1
AC1014
9
$HANDSEED
5
FFFF
0
ENDSEC
0
SECTION
2
TABLES
0
TABLE
2
VPORT
5
8
100
AcDbSymbolTable
0
ENDTAB
0
TABLE
2
LTYPE
5
5
100
AcDbSymbolTable
0
LTYPE
5
14
100
AcDbSymbolTableRecord
100
AcDbLinetypeTableRecord
2
BYBLOCK
70
0
0
LTYPE
5
15
100
AcDbSymbolTableRecord
100
AcDbLinetypeTableRecord
2
BYLAYER
70
0
0
LTYPE
5
16
100
AcDbSymbolTableRecord
100
AcDbLinetypeTableRecord
2
DASHED
70
0
3
Dashed __ __ __ __ __ __ __ __ __ __ __ __ __ _
72
65
73
2
40
0.75
49
0.5
74
0
49
-0.25
74
0
0
ENDTAB
0
TABLE
2
LAYER
5
2
100
AcDbSymbolTable
70
2
0
LAYER
5
50
100
AcDbSymbolTableRecord
100
AcDbLayerTableRecord
2
0
70
0
62
7
6
CONTINUOUS
0
ENDTAB
0
TABLE
2
STYLE
5
3
100
AcDbSymbolTable
70
1
0
STYLE
5
11
100
AcDbSymbolTableRecord
100
AcDbTextStyleTableRecord
2
STANDARD
70
0
0
ENDTAB
0
TABLE
2
VIEW
5
6
100
AcDbSymbolTable
70
0
0
ENDTAB
0
TABLE
2
UCS
5
7
100
AcDbSymbolTable
70
0
0
ENDTAB
0
TABLE
2
APPID
5
9
100
AcDbSymbolTable
70
2
0
APPID
5
12
100
AcDbSymbolTableRecord
100
AcDbRegAppTableRecord
2
ACAD
70
0
0
ENDTAB
0
TABLE
2
DIMSTYLE
5
A
100
AcDbSymbolTable
70
1
0
ENDTAB
0
TABLE
2
BLOCK_RECORD
5
1
100
AcDbSymbolTable
70
1
0
BLOCK_RECORD
5
1F
100
AcDbSymbolTableRecord
100
AcDbBlockTableRecord
2
*MODEL_SPACE
0
BLOCK_RECORD
5
1B
100
AcDbSymbolTableRecord
100
AcDbBlockTableRecord
2
*PAPER_SPACE
0
ENDTAB
0
ENDSEC
0
SECTION
2
BLOCKS
0
BLOCK
5
20
100
AcDbEntity
100
AcDbBlockBegin
2
*MODEL_SPACE
0
ENDBLK
5
21
100
AcDbEntity
100
AcDbBlockEnd
0
BLOCK
5
1C
100
AcDbEntity
100
AcDbBlockBegin
2
*PAPER_SPACE
0
ENDBLK
5
1D
100
AcDbEntity
100
AcDbBlockEnd
0
ENDSEC
0
SECTION
2
ENTITIES
0
LWPOLYLINE
5
100
100
AcDbEntity
8
0
100
AcDbPolyline
90
32
70
1
43
0.0
10
-33.507792662860055
20
-201.71417256630588
10
-33.507588722094098
20
-221.71417256526607
42
0.41421356237309309
10
-31.507568328121479
20
-223.71415217108546
10
156.99243166207845
20
-223.71223002936631
42
0.41421356237310025
10
158.99241126789792
20
-221.71220963539372
10
158.99198299228942
20
-179.7122096375773
42
-0.41421356237309681
10
164.99192180974771
20
-173.71214845565945
10
206.9919218075641
20
-173.71172018005095
42
0.41421356237308982
10
208.99190141338349
20
-171.71169978607838
10
208.98869954335794
20
142.28830019759675
42
0.41421356237309243
10
206.9886791493854
20
144.2882798034162
10
164.98867915156893
20
144.28785152780773
42
-0.41421356237309337
10
158.9886179696511
20
150.28779034526599
10
158.9881896940426
20
192.28779034308232
42
0.41421356237310802
10
156.98816930006996
20
194.28776994890183
10
-157.01183068360518
20
194.2845680788763
42
0.41421356237308721
10
-159.01181028942457
20
192.28454768490366
10
-159.01138201381616
20
150.2845476870873
42
-0.41421356237309503
10
-165.01132083127445
20
144.28448650516938
10
-207.01132082909083
20
144.28405822956086
42
0.41421356237308721
10
-209.0113004349102
20
142.28403783558826
10
-209.00809856488468
20
-171.71596214808682
42
0.41421356237310542
10
-207.00807817091214
20
-173.71594175390629
10
-165.00807817309567
20
-173.71551347829768
42
-0.41421356237309503
10
-159.00801699117784
20
-179.71545229575599
10
-159.00758871556934
20
-221.71545229357241
42
0.41421356237309764
10
-157.00756832159664
20
-223.71543189939186
10
-82.507568325469975
20
-223.71467222003866
42
0.41421356237309764
10
-80.507588719650514
20
-221.71465182606607
10
-80.507792660416527
20
-201.71465182710588
42
-0.41421356237308721
10
-77.50782325168737
20
-198.71462123614694
10
-36.50782325381897
20
-198.71420315757672
42
-0.41421356237309243
0
CIRCLE
5
101
100
AcDbEntity
8
0
100
AcDbCircle
10
-0.01183068350123051
20
159.28454768479975
30
4.0258017565204813e-23
40
1.7500000000000002
210
0
220
0
230
1
0
ENDSEC
0
SECTION
2
OBJECTS
0
DICTIONARY
5
C
100
AcDbDictionary
3
ACAD_GROUP
350
D
3
ACAD_MLINESTYLE
350
17
0
DICTIONARY
5
D
100
AcDbDictionary
0
DICTIONARY
5
1A
330
C
100
AcDbDictionary
0
DICTIONARY
5
17
100
AcDbDictionary
0
ENDSEC
0
EOF
