0
SECTION
2
HEADER
9
$INSUNITS
70
4
9
$ACADVER
1
AC1014
9
$HANDSEED
5
FFFF
0
ENDSEC
0
SECTION
2
TABLES
0
TABLE
2
VPORT
5
8
100
AcDbSymbolTable
0
ENDTAB
0
TABLE
2
LTYPE
5
5
100
AcDbSymbolTable
0
LTYPE
5
14
100
AcDbSymbolTableRecord
100
AcDbLinetypeTableRecord
2
BYBLOCK
70
0
0
LTYPE
5
15
100
AcDbSymbolTableRecord
100
AcDbLinetypeTableRecord
2
BYLAYER
70
0
0
LTYPE
5
16
100
AcDbSymbolTableRecord
100
AcDbLinetypeTableRecord
2
DASHED
70
0
3
Dashed __ __ __ __ __ __ __ __ __ __ __ __ __ _
72
65
73
2
40
0.75
49
0.5
74
0
49
-0.25
74
0
0
ENDTAB
0
TABLE
2
LAYER
5
2
100
AcDbSymbolTable
70
2
0
LAYER
5
50
100
AcDbSymbolTableRecord
100
AcDbLayerTableRecord
2
0
70
0
62
7
6
CONTINUOUS
0
ENDTAB
0
TABLE
2
STYLE
5
3
100
AcDbSymbolTable
70
1
0
STYLE
5
11
100
AcDbSymbolTableRecord
100
AcDbTextStyleTableRecord
2
STANDARD
70
0
0
ENDTAB
0
TABLE
2
VIEW
5
6
100
AcDbSymbolTable
70
0
0
ENDTAB
0
TABLE
2
UCS
5
7
100
AcDbSymbolTable
70
0
0
ENDTAB
0
TABLE
2
APPID
5
9
100
AcDbSymbolTable
70
2
0
APPID
5
12
100
AcDbSymbolTableRecord
100
AcDbRegAppTableRecord
2
ACAD
70
0
0
ENDTAB
0
TABLE
2
DIMSTYLE
5
A
100
AcDbSymbolTable
70
1
0
ENDTAB
0
TABLE
2
BLOCK_RECORD
5
1
100
AcDbSymbolTable
70
1
0
BLOCK_RECORD
5
1F
100
AcDbSymbolTableRecord
100
AcDbBlockTableRecord
2
*MODEL_SPACE
0
BLOCK_RECORD
5
1B
100
AcDbSymbolTableRecord
100
AcDbBlockTableRecord
2
*PAPER_SPACE
0
ENDTAB
0
ENDSEC
0
SECTION
2
BLOCKS
0
BLOCK
5
20
100
AcDbEntity
100
AcDbBlockBegin
2
*MODEL_SPACE
0
ENDBLK
5
21
100
AcDbEntity
100
AcDbBlockEnd
0
BLOCK
5
1C
100
AcDbEntity
100
AcDbBlockBegin
2
*PAPER_SPACE
0
ENDBLK
5
1D
100
AcDbEntity
100
AcDbBlockEnd
0
ENDSEC
0
SECTION
2
ENTITIES
0
ELLIPSE
5
100
100
AcDbEntity
8
0
100
AcDbEllipse
10
-10.708977066587265
20
-434.26050433593969
30
-2.131701988261625e-06
11
1.4142060841564339
21
-1.414221040550212
31
-1.8530535692308178e-08
40
0.99999999999999989
41
5.4977924316659719
42
7.0685781826931606
0
LINE
5
101
100
AcDbEntity
8
0
100
AcDbLine
10
-8.7089770666991111
20
-434.26052548747492
30
-2.131701988261625e-06
11
-8.7052449473241023
21
-81.367051030986602
31
2.4923094610329599e-06
0
ARC
5
102
100
AcDbEntity
8
0
100
AcDbCircle
10
-10.705244947212265
20
-81.367029879451366
30
2.4923090347073185e-06
40
2.0000000000000093
210
-2.1316282071610831e-13
220
2.254360455700855e-18
230
1
100
AcDbArc
50
-0.00060594595932697841
51
89.999999999990436
0
LINE
5
103
100
AcDbEntity
8
0
100
AcDbLine
10
-10.705244947211931
20
-79.367029879451366
30
2.5185153074147593e-06
11
-21.707446173993997
21
-79.367029879449518
31
2.5185151208972911e-06
0
ARC
5
104
100
AcDbEntity
8
0
100
AcDbCircle
10
-21.707446173988952
20
-48.817029879449493
30
2.9188146566383466e-06
40
30.550000000000011
210
-1.3867793983533867e-13
220
2.3182711369517696e-26
230
1
100
AcDbArc
50
180
51
269.99999999999056
0
LINE
5
105
100
AcDbEntity
8
0
100
AcDbLine
10
-52.25744617398896
20
-48.817029879444391
30
2.9188104200272846e-06
11
-52.25744617398712
21
-37.813636974406734
31
3.0629897640466197e-06
0
ARC
5
106
100
AcDbEntity
8
0
100
AcDbCircle
10
-54.257446173987091
20
-37.8136369744064
30
3.062989506474878e-06
40
1.9999999999999662
210
-1.2878587085652033e-13
220
2.1161193782554356e-26
230
1
100
AcDbArc
50
0
51
89.999394053151164
0
LINE
5
107
100
AcDbEntity
8
0
100
AcDbLine
10
-54.257425022451883
20
-35.813636974518246
30
3.089195788064103e-06
11
-407.15742502245143
21
-35.809904786131042
31
3.0891957614187504e-06
0
ARC
5
108
100
AcDbEntity
8
0
100
AcDbCircle
10
-407.15744617398661
20
-37.809904786019153
30
3.5586046673317474e-06
40
1.9999999999999916
210
-1.3861423695001198e-13
220
-1.3106777884508255e-08
230
1
100
AcDbArc
50
89.999394053151988
51
180
0
LINE
5
109
100
AcDbEntity
8
0
100
AcDbLine
10
-409.15744617398667
20
-37.809904786019018
30
3.0629818770222528e-06
11
-409.15744617398752
21
-48.810504335904014
31
2.9188468531060607e-06
0
ELLIPSE
5
110
100
AcDbEntity
8
0
100
AcDbEllipse
10
-439.70744617398759
20
-48.810504335901413
30
2.918842625376783e-06
11
-21.602112165250848
21
-21.60211216524722
31
-2.8305842298073952e-07
40
1
41
0.78539816339744584
42
2.35619449019234
0
LINE
5
111
100
AcDbEntity
8
0
100
AcDbLine
10
-439.70744617399021
20
-79.360504335901425
30
2.5185417928952347e-06
11
-450.70524490280661
21
-79.360504335900472
31
2.5185402563465686e-06
0
ELLIPSE
5
112
100
AcDbEntity
8
0
100
AcDbEllipse
10
-450.70524490280673
20
-81.360504335900501
30
2.4923339836391278e-06
11
-1.4142060841562865
21
1.4142210405503597
31
1.8530535692310114e-08
40
0.99999999999999989
41
5.497792431665891
42
7.0685781826932814
0
LINE
5
113
100
AcDbEntity
8
0
100
AcDbLine
10
-452.70524490269497
20
-81.360483184365293
30
2.4923339836391278e-06
11
-452.70897709108203
21
-434.26048318442213
31
-2.1317629617101375e-06
0
ARC
5
114
100
AcDbEntity
8
0
100
AcDbCircle
10
-450.70897709119401
20
-434.26050433595719
30
-2.1317629617101375e-06
40
1.9999999999998939
210
0
220
0
230
1
100
AcDbArc
50
179.99939405404069
51
270.00000000000324
0
LINE
5
115
100
AcDbEntity
8
0
100
AcDbLine
10
-450.7089770911939
20
-436.26050433595719
30
-2.1579692344175783e-06
11
-439.70744617400641
21
-436.26050433595685
31
-2.1579677067506964e-06
0
ELLIPSE
5
116
100
AcDbEntity
8
0
100
AcDbEllipse
10
-439.70744617400521
20
-466.81050433595686
30
-2.5582685303504604e-06
11
-21.602112165249856
21
21.602112165248208
31
2.8305243592392414e-07
40
0.99999999999999989
41
3.9269908169872396
42
5.4977871437821388
0
LINE
5
117
100
AcDbEntity
8
0
100
AcDbLine
10
-409.1574461740052
20
-466.81050433595567
30
-2.5582642937393985e-06
11
-409.15744617400486
21
-477.80990481062577
31
-2.7023909510148769e-06
0
ARC
5
118
100
AcDbEntity
8
0
100
AcDbCircle
10
-407.15744617400469
20
-477.80990481062565
30
-2.7037882425245198e-06
40
2.0000000000001705
210
3.4150460237466903e-12
220
1.2132680722297093e-25
230
1
100
AcDbArc
50
180
51
269.999394053152
0
LINE
5
119
100
AcDbEntity
8
0
100
AcDbLine
10
-407.15746732553987
20
-479.80990481051379
30
-2.7286041071050704e-06
11
-54.257467325477826
21
-479.81363699890147
31
-2.7285969483870076e-06
0
ARC
5
120
100
AcDbEntity
8
0
100
AcDbCircle
10
-54.257446173942625
20
-477.81363699901328
30
3.5601659376913811e-06
40
2.000000000000036
210
-1.3861301577988813e-13
220
-1.3106662421313408e-08
230
1
100
AcDbArc
50
-90.000605946848623
51
0
0
LINE
5
121
100
AcDbEntity
8
0
100
AcDbLine
10
-52.257446173942625
20
-477.81363699901311
30
-2.7023832949168991e-06
11
-52.257446173943514
21
-466.81050433594322
31
-2.5582148399649896e-06
0
ARC
5
122
100
AcDbEntity
8
0
100
AcDbCircle
10
-21.707446173943445
20
-466.81050433594066
30
3.5584711995710825e-06
40
30.549999999999997
210
1.0971266361971081e-21
220
-1.3103136615376893e-08
230
1
100
AcDbArc
50
90.000000000004803
51
180
0
LINE
5
123
100
AcDbEntity
8
0
100
AcDbLine
10
-21.707446173946003
20
-436.26050433594065
30
-2.1579097886359477e-06
11
-10.708977066587089
21
-436.26050433593974
31
-2.1579082609690659e-06
0
LINE
5
124
100
AcDbEntity
8
0
100
AcDbLine
10
-378.20720242351922
20
-181.76404373042428
30
-2.072134401842618e-06
11
-368.20720242351922
21
-181.76404373042433
31
-2.072134401842618e-06
0
ELLIPSE
5
125
100
AcDbEntity
8
0
100
AcDbEllipse
10
-368.20720242351922
20
-184.26404373042433
30
1.1439862745987739e-06
11
-1.3893505812973295e-14
21
-2.5
31
-3.2757841835912669e-08
40
0.99999999999999989
41
2.8421709430404007e-14
42
3.1415926535897931
0
LINE
5
126
100
AcDbEntity
8
0
100
AcDbLine
10
-368.20720242351922
20
-186.76404373042433
30
1.1112284337144729e-06
11
-378.20720242351922
21
-186.76404373042428
31
-2.072134401842618e-06
0
ELLIPSE
5
127
100
AcDbEntity
8
0
100
AcDbEllipse
10
-378.20720242351922
20
-184.26404373042428
30
1.1439848890404392e-06
11
-1.3893505812973295e-14
21
-2.5
31
-3.2757841835912669e-08
40
0.99999999999999989
41
3.1415926535897931
42
6.2831853071796147
0
LINE
5
128
100
AcDbEntity
8
0
100
AcDbLine
10
-103.20720242351922
20
-181.76404373042578
30
-2.072134401842618e-06
11
-93.20720242351922
21
-181.76404373042584
31
-2.072134401842618e-06
0
ELLIPSE
5
129
100
AcDbEntity
8
0
100
AcDbEllipse
10
-93.20720242351922
20
-184.26404373042584
30
1.1440243863347632e-06
11
-1.3893505812973295e-14
21
-2.5
31
-3.2757841835912669e-08
40
0.99999999999999989
41
6.2831853071795578
42
9.4247779607693865
0
LINE
5
130
100
AcDbEntity
8
0
100
AcDbLine
10
-93.207202423519277
20
-186.76404373042584
30
1.1112665454504622e-06
11
-103.20720242351928
21
-186.76404156230686
31
-2.072134401842618e-06
0
ELLIPSE
5
131
100
AcDbEntity
8
0
100
AcDbEllipse
10
-103.20720242351922
20
-184.26404373042578
30
1.1440230007764285e-06
11
-1.3893505812973395e-14
21
-2.5000000000000178
31
-3.27578418359129e-08
40
0.99999999999999978
41
3.1415926535898002
42
6.2831853071795578
0
LINE
5
132
100
AcDbEntity
8
0
100
AcDbLine
10
-378.20720242352013
20
-329.76404373042431
30
-2.0721343929608338e-06
11
-368.20720242352013
21
-329.76404373042436
31
-2.0721343929608338e-06
0
ELLIPSE
5
133
100
AcDbEntity
8
0
100
AcDbEllipse
10
-368.20720242352013
20
-332.26404373042436
30
-7.9527795904255072e-07
11
-1.3893505812973295e-14
21
-2.5
31
-3.2757841835912669e-08
40
0.99999999999999989
41
0
42
3.1415926535897931
0
LINE
5
134
100
AcDbEntity
8
0
100
AcDbLine
10
-368.20720242352013
20
-334.76404373042436
30
-8.2803579992685172e-07
11
-378.20720242352013
21
-334.76404373042431
31
-2.0721343929608338e-06
0
ELLIPSE
5
135
100
AcDbEntity
8
0
100
AcDbEllipse
10
-378.20720242352013
20
-332.26404373042431
30
-7.9527934460088545e-07
11
-1.3893505812973294e-14
21
-2.4999999999999996
31
-3.2757841835912662e-08
40
0.99999999999999989
41
3.1415926535897931
42
6.2831853071795862
0
LINE
5
136
100
AcDbEntity
8
0
100
AcDbLine
10
-93.191703065597238
20
-334.76399568394498
30
-2.0721343929608338e-06
11
-103.19170306559724
21
-334.76399568394493
31
-2.0721343929608338e-06
0
ELLIPSE
5
137
100
AcDbEntity
8
0
100
AcDbEllipse
10
-103.20720242352007
20
-332.26404373042584
30
-7.9524123286489612e-07
11
-1.3893505812973399e-14
21
-2.5000000000000187
31
-3.2757841835912914e-08
40
0.99999999999999978
41
3.1353928707035821
42
6.2893850900658119
0
LINE
5
138
100
AcDbEntity
8
0
100
AcDbLine
10
-103.19170306559724
20
-329.7640917769067
30
-7.624840225872731e-07
11
-103.19170306559724
21
-329.76399568394493
31
-2.0721343929608338e-06
0
LINE
5
139
100
AcDbEntity
8
0
100
AcDbLine
10
-103.19170306559724
20
-329.76399568394493
30
-2.0721343929608338e-06
11
-93.191703065597238
21
-329.76399568394498
31
-2.0721343929608338e-06
0
LINE
5
140
100
AcDbEntity
8
0
100
AcDbLine
10
-93.191703065597238
20
-329.76399568394498
30
-2.0721343929608338e-06
11
-93.191703065597238
21
-329.76409177690675
31
-2.0721343929608338e-06
0
ELLIPSE
5
141
100
AcDbEntity
8
0
100
AcDbEllipse
10
-93.207202423520073
20
-332.2640437304259
30
-7.9523984730656139e-07
11
-1.389350581297335e-14
21
-2.5000000000000098
31
-3.2757841835912801e-08
40
0.99999999999999978
41
0.0061997828862254316
42
3.1353928707035825
0
ENDSEC
0
SECTION
2
OBJECTS
0
DICTIONARY
5
C
100
AcDbDictionary
3
ACAD_GROUP
350
D
3
ACAD_MLINESTYLE
350
17
0
DICTIONARY
5
D
100
AcDbDictionary
0
DICTIONARY
5
1A
330
C
100
AcDbDictionary
0
DICTIONARY
5
17
100
AcDbDictionary
0
ENDSEC
0
EOF
