solid ASCII
  facet normal 0.000000e+00 0.000000e+00 1.000000e+00
    outer loop
      vertex   4.327946e+03 1.200790e+03 -4.677312e+02
      vertex   4.322054e+03 1.200790e+03 -4.677312e+02
      vertex   4.328050e+03 1.200000e+03 -4.677312e+02
    endloop
  endfacet
  facet normal 0.000000e+00 0.000000e+00 1.000000e+00
    outer loop
      vertex   4.328050e+03 1.200000e+03 -4.677312e+02
      vertex   4.322054e+03 1.200790e+03 -4.677312e+02
      vertex   4.321950e+03 1.200000e+03 -4.677312e+02
    endloop
  endfacet
  facet normal 0.000000e+00 0.000000e+00 1.000000e+00
    outer loop
      vertex   4.328050e+03 1.200000e+03 -4.677312e+02
      vertex   4.321950e+03 1.200000e+03 -4.677312e+02
      vertex   4.327946e+03 1.199211e+03 -4.677312e+02
    endloop
  endfacet
  facet normal 0.000000e+00 0.000000e+00 1.000000e+00
    outer loop
      vertex   4.327946e+03 1.199211e+03 -4.677312e+02
      vertex   4.321950e+03 1.200000e+03 -4.677312e+02
      vertex   4.322054e+03 1.199211e+03 -4.677312e+02
    endloop
  endfacet
  facet normal 0.000000e+00 0.000000e+00 1.000000e+00
    outer loop
      vertex   4.327946e+03 1.199211e+03 -4.677312e+02
      vertex   4.322054e+03 1.199211e+03 -4.677312e+02
      vertex   4.327641e+03 1.198475e+03 -4.677312e+02
    endloop
  endfacet
  facet normal 0.000000e+00 0.000000e+00 1.000000e+00
    outer loop
      vertex   4.327641e+03 1.198475e+03 -4.677312e+02
      vertex   4.322054e+03 1.199211e+03 -4.677312e+02
      vertex   4.322359e+03 1.198475e+03 -4.677312e+02
    endloop
  endfacet
  facet normal 0.000000e+00 0.000000e+00 1.000000e+00
    outer loop
      vertex   4.327641e+03 1.198475e+03 -4.677312e+02
      vertex   4.322359e+03 1.198475e+03 -4.677312e+02
      vertex   4.327157e+03 1.197843e+03 -4.677312e+02
    endloop
  endfacet
  facet normal 0.000000e+00 0.000000e+00 1.000000e+00
    outer loop
      vertex   4.327157e+03 1.197843e+03 -4.677312e+02
      vertex   4.322359e+03 1.198475e+03 -4.677312e+02
      vertex   4.322843e+03 1.197843e+03 -4.677312e+02
    endloop
  endfacet
  facet normal 0.000000e+00 0.000000e+00 1.000000e+00
    outer loop
      vertex   4.327157e+03 1.197843e+03 -4.677312e+02
      vertex   4.322843e+03 1.197843e+03 -4.677312e+02
      vertex   4.326525e+03 1.197359e+03 -4.677312e+02
    endloop
  endfacet
  facet normal 0.000000e+00 0.000000e+00 1.000000e+00
    outer loop
      vertex   4.326525e+03 1.197359e+03 -4.677312e+02
      vertex   4.322843e+03 1.197843e+03 -4.677312e+02
      vertex   4.323475e+03 1.197359e+03 -4.677312e+02
    endloop
  endfacet
  facet normal 0.000000e+00 0.000000e+00 1.000000e+00
    outer loop
      vertex   4.326525e+03 1.197359e+03 -4.677312e+02
      vertex   4.323475e+03 1.197359e+03 -4.677312e+02
      vertex   4.325789e+03 1.197054e+03 -4.677312e+02
    endloop
  endfacet
  facet normal 0.000000e+00 0.000000e+00 1.000000e+00
    outer loop
      vertex   4.325789e+03 1.197054e+03 -4.677312e+02
      vertex   4.323475e+03 1.197359e+03 -4.677312e+02
      vertex   4.324211e+03 1.197054e+03 -4.677312e+02
    endloop
  endfacet
  facet normal 0.000000e+00 0.000000e+00 1.000000e+00
    outer loop
      vertex   4.325789e+03 1.197054e+03 -4.677312e+02
      vertex   4.324211e+03 1.197054e+03 -4.677312e+02
      vertex   4.325000e+03 1.196950e+03 -4.677312e+02
    endloop
  endfacet
  facet normal 0.000000e+00 0.000000e+00 1.000000e+00
    outer loop
      vertex   4.322054e+03 1.200790e+03 -4.677312e+02
      vertex   4.327946e+03 1.200790e+03 -4.677312e+02
      vertex   4.322359e+03 1.201525e+03 -4.677312e+02
    endloop
  endfacet
  facet normal -0.000000e+00 0.000000e+00 1.000000e+00
    outer loop
      vertex   4.322359e+03 1.201525e+03 -4.677312e+02
      vertex   4.327946e+03 1.200790e+03 -4.677312e+02
      vertex   4.327641e+03 1.201525e+03 -4.677312e+02
    endloop
  endfacet
  facet normal 0.000000e+00 0.000000e+00 1.000000e+00
    outer loop
      vertex   4.322359e+03 1.201525e+03 -4.677312e+02
      vertex   4.327641e+03 1.201525e+03 -4.677312e+02
      vertex   4.322843e+03 1.202157e+03 -4.677312e+02
    endloop
  endfacet
  facet normal -0.000000e+00 0.000000e+00 1.000000e+00
    outer loop
      vertex   4.322843e+03 1.202157e+03 -4.677312e+02
      vertex   4.327641e+03 1.201525e+03 -4.677312e+02
      vertex   4.327157e+03 1.202157e+03 -4.677312e+02
    endloop
  endfacet
  facet normal 0.000000e+00 0.000000e+00 1.000000e+00
    outer loop
      vertex   4.322843e+03 1.202157e+03 -4.677312e+02
      vertex   4.327157e+03 1.202157e+03 -4.677312e+02
      vertex   4.323475e+03 1.202642e+03 -4.677312e+02
    endloop
  endfacet
  facet normal -0.000000e+00 0.000000e+00 1.000000e+00
    outer loop
      vertex   4.323475e+03 1.202642e+03 -4.677312e+02
      vertex   4.327157e+03 1.202157e+03 -4.677312e+02
      vertex   4.326525e+03 1.202642e+03 -4.677312e+02
    endloop
  endfacet
  facet normal 0.000000e+00 0.000000e+00 1.000000e+00
    outer loop
      vertex   4.323475e+03 1.202642e+03 -4.677312e+02
      vertex   4.326525e+03 1.202642e+03 -4.677312e+02
      vertex   4.324211e+03 1.202946e+03 -4.677312e+02
    endloop
  endfacet
  facet normal -0.000000e+00 0.000000e+00 1.000000e+00
    outer loop
      vertex   4.324211e+03 1.202946e+03 -4.677312e+02
      vertex   4.326525e+03 1.202642e+03 -4.677312e+02
      vertex   4.325789e+03 1.202946e+03 -4.677312e+02
    endloop
  endfacet
  facet normal 0.000000e+00 0.000000e+00 1.000000e+00
    outer loop
      vertex   4.324211e+03 1.202946e+03 -4.677312e+02
      vertex   4.325789e+03 1.202946e+03 -4.677312e+02
      vertex   4.325000e+03 1.203050e+03 -4.677312e+02
    endloop
  endfacet
  facet normal -9.914449e-01 -1.305262e-01 -0.000000e+00
    outer loop
      vertex   4.327946e+03 1.200790e+03 -4.647312e+02
      vertex   4.327946e+03 1.200790e+03 -4.677312e+02
      vertex   4.328050e+03 1.200000e+03 -4.647312e+02
    endloop
  endfacet
  facet normal -9.914449e-01 -1.305262e-01 -0.000000e+00
    outer loop
      vertex   4.328050e+03 1.200000e+03 -4.647312e+02
      vertex   4.327946e+03 1.200790e+03 -4.677312e+02
      vertex   4.328050e+03 1.200000e+03 -4.677312e+02
    endloop
  endfacet
  facet normal -9.914449e-01 1.305262e-01 0.000000e+00
    outer loop
      vertex   4.328050e+03 1.200000e+03 -4.647312e+02
      vertex   4.328050e+03 1.200000e+03 -4.677312e+02
      vertex   4.327946e+03 1.199211e+03 -4.647312e+02
    endloop
  endfacet
  facet normal -9.914449e-01 1.305262e-01 0.000000e+00
    outer loop
      vertex   4.327946e+03 1.199211e+03 -4.647312e+02
      vertex   4.328050e+03 1.200000e+03 -4.677312e+02
      vertex   4.327946e+03 1.199211e+03 -4.677312e+02
    endloop
  endfacet
  facet normal -9.238795e-01 3.826834e-01 0.000000e+00
    outer loop
      vertex   4.327946e+03 1.199211e+03 -4.647312e+02
      vertex   4.327946e+03 1.199211e+03 -4.677312e+02
      vertex   4.327641e+03 1.198475e+03 -4.647312e+02
    endloop
  endfacet
  facet normal -9.238795e-01 3.826834e-01 0.000000e+00
    outer loop
      vertex   4.327641e+03 1.198475e+03 -4.647312e+02
      vertex   4.327946e+03 1.199211e+03 -4.677312e+02
      vertex   4.327641e+03 1.198475e+03 -4.677312e+02
    endloop
  endfacet
  facet normal -7.933533e-01 6.087614e-01 0.000000e+00
    outer loop
      vertex   4.327641e+03 1.198475e+03 -4.647312e+02
      vertex   4.327641e+03 1.198475e+03 -4.677312e+02
      vertex   4.327157e+03 1.197843e+03 -4.647312e+02
    endloop
  endfacet
  facet normal -7.933533e-01 6.087614e-01 0.000000e+00
    outer loop
      vertex   4.327157e+03 1.197843e+03 -4.647312e+02
      vertex   4.327641e+03 1.198475e+03 -4.677312e+02
      vertex   4.327157e+03 1.197843e+03 -4.677312e+02
    endloop
  endfacet
  facet normal -6.087614e-01 7.933533e-01 0.000000e+00
    outer loop
      vertex   4.327157e+03 1.197843e+03 -4.647312e+02
      vertex   4.327157e+03 1.197843e+03 -4.677312e+02
      vertex   4.326525e+03 1.197359e+03 -4.647312e+02
    endloop
  endfacet
  facet normal -6.087614e-01 7.933533e-01 0.000000e+00
    outer loop
      vertex   4.326525e+03 1.197359e+03 -4.647312e+02
      vertex   4.327157e+03 1.197843e+03 -4.677312e+02
      vertex   4.326525e+03 1.197359e+03 -4.677312e+02
    endloop
  endfacet
  facet normal -3.826834e-01 9.238795e-01 0.000000e+00
    outer loop
      vertex   4.326525e+03 1.197359e+03 -4.647312e+02
      vertex   4.326525e+03 1.197359e+03 -4.677312e+02
      vertex   4.325789e+03 1.197054e+03 -4.647312e+02
    endloop
  endfacet
  facet normal -3.826834e-01 9.238795e-01 0.000000e+00
    outer loop
      vertex   4.325789e+03 1.197054e+03 -4.647312e+02
      vertex   4.326525e+03 1.197359e+03 -4.677312e+02
      vertex   4.325789e+03 1.197054e+03 -4.677312e+02
    endloop
  endfacet
  facet normal -1.305262e-01 9.914449e-01 0.000000e+00
    outer loop
      vertex   4.325789e+03 1.197054e+03 -4.647312e+02
      vertex   4.325789e+03 1.197054e+03 -4.677312e+02
      vertex   4.325000e+03 1.196950e+03 -4.647312e+02
    endloop
  endfacet
  facet normal -1.305262e-01 9.914449e-01 0.000000e+00
    outer loop
      vertex   4.325000e+03 1.196950e+03 -4.647312e+02
      vertex   4.325789e+03 1.197054e+03 -4.677312e+02
      vertex   4.325000e+03 1.196950e+03 -4.677312e+02
    endloop
  endfacet
  facet normal 1.305262e-01 9.914449e-01 0.000000e+00
    outer loop
      vertex   4.325000e+03 1.196950e+03 -4.647312e+02
      vertex   4.325000e+03 1.196950e+03 -4.677312e+02
      vertex   4.324211e+03 1.197054e+03 -4.647312e+02
    endloop
  endfacet
  facet normal 1.305262e-01 9.914449e-01 0.000000e+00
    outer loop
      vertex   4.324211e+03 1.197054e+03 -4.647312e+02
      vertex   4.325000e+03 1.196950e+03 -4.677312e+02
      vertex   4.324211e+03 1.197054e+03 -4.677312e+02
    endloop
  endfacet
  facet normal 3.826834e-01 9.238795e-01 0.000000e+00
    outer loop
      vertex   4.324211e+03 1.197054e+03 -4.647312e+02
      vertex   4.324211e+03 1.197054e+03 -4.677312e+02
      vertex   4.323475e+03 1.197359e+03 -4.647312e+02
    endloop
  endfacet
  facet normal 3.826834e-01 9.238795e-01 0.000000e+00
    outer loop
      vertex   4.323475e+03 1.197359e+03 -4.647312e+02
      vertex   4.324211e+03 1.197054e+03 -4.677312e+02
      vertex   4.323475e+03 1.197359e+03 -4.677312e+02
    endloop
  endfacet
  facet normal 6.087614e-01 7.933533e-01 0.000000e+00
    outer loop
      vertex   4.323475e+03 1.197359e+03 -4.647312e+02
      vertex   4.323475e+03 1.197359e+03 -4.677312e+02
      vertex   4.322843e+03 1.197843e+03 -4.647312e+02
    endloop
  endfacet
  facet normal 6.087614e-01 7.933533e-01 0.000000e+00
    outer loop
      vertex   4.322843e+03 1.197843e+03 -4.647312e+02
      vertex   4.323475e+03 1.197359e+03 -4.677312e+02
      vertex   4.322843e+03 1.197843e+03 -4.677312e+02
    endloop
  endfacet
  facet normal 7.933533e-01 6.087614e-01 0.000000e+00
    outer loop
      vertex   4.322843e+03 1.197843e+03 -4.647312e+02
      vertex   4.322843e+03 1.197843e+03 -4.677312e+02
      vertex   4.322359e+03 1.198475e+03 -4.647312e+02
    endloop
  endfacet
  facet normal 7.933533e-01 6.087614e-01 0.000000e+00
    outer loop
      vertex   4.322359e+03 1.198475e+03 -4.647312e+02
      vertex   4.322843e+03 1.197843e+03 -4.677312e+02
      vertex   4.322359e+03 1.198475e+03 -4.677312e+02
    endloop
  endfacet
  facet normal 9.238795e-01 3.826834e-01 0.000000e+00
    outer loop
      vertex   4.322359e+03 1.198475e+03 -4.647312e+02
      vertex   4.322359e+03 1.198475e+03 -4.677312e+02
      vertex   4.322054e+03 1.199211e+03 -4.647312e+02
    endloop
  endfacet
  facet normal 9.238795e-01 3.826834e-01 0.000000e+00
    outer loop
      vertex   4.322054e+03 1.199211e+03 -4.647312e+02
      vertex   4.322359e+03 1.198475e+03 -4.677312e+02
      vertex   4.322054e+03 1.199211e+03 -4.677312e+02
    endloop
  endfacet
  facet normal 9.914449e-01 1.305262e-01 0.000000e+00
    outer loop
      vertex   4.322054e+03 1.199211e+03 -4.647312e+02
      vertex   4.322054e+03 1.199211e+03 -4.677312e+02
      vertex   4.321950e+03 1.200000e+03 -4.647312e+02
    endloop
  endfacet
  facet normal 9.914449e-01 1.305262e-01 0.000000e+00
    outer loop
      vertex   4.321950e+03 1.200000e+03 -4.647312e+02
      vertex   4.322054e+03 1.199211e+03 -4.677312e+02
      vertex   4.321950e+03 1.200000e+03 -4.677312e+02
    endloop
  endfacet
  facet normal 9.914449e-01 -1.305262e-01 0.000000e+00
    outer loop
      vertex   4.321950e+03 1.200000e+03 -4.647312e+02
      vertex   4.321950e+03 1.200000e+03 -4.677312e+02
      vertex   4.322054e+03 1.200790e+03 -4.647312e+02
    endloop
  endfacet
  facet normal 9.914449e-01 -1.305262e-01 0.000000e+00
    outer loop
      vertex   4.322054e+03 1.200790e+03 -4.647312e+02
      vertex   4.321950e+03 1.200000e+03 -4.677312e+02
      vertex   4.322054e+03 1.200790e+03 -4.677312e+02
    endloop
  endfacet
  facet normal 9.238795e-01 -3.826834e-01 0.000000e+00
    outer loop
      vertex   4.322054e+03 1.200790e+03 -4.647312e+02
      vertex   4.322054e+03 1.200790e+03 -4.677312e+02
      vertex   4.322359e+03 1.201525e+03 -4.647312e+02
    endloop
  endfacet
  facet normal 9.238795e-01 -3.826834e-01 0.000000e+00
    outer loop
      vertex   4.322359e+03 1.201525e+03 -4.647312e+02
      vertex   4.322054e+03 1.200790e+03 -4.677312e+02
      vertex   4.322359e+03 1.201525e+03 -4.677312e+02
    endloop
  endfacet
  facet normal 7.933533e-01 -6.087614e-01 0.000000e+00
    outer loop
      vertex   4.322359e+03 1.201525e+03 -4.647312e+02
      vertex   4.322359e+03 1.201525e+03 -4.677312e+02
      vertex   4.322843e+03 1.202157e+03 -4.647312e+02
    endloop
  endfacet
  facet normal 7.933533e-01 -6.087614e-01 0.000000e+00
    outer loop
      vertex   4.322843e+03 1.202157e+03 -4.647312e+02
      vertex   4.322359e+03 1.201525e+03 -4.677312e+02
      vertex   4.322843e+03 1.202157e+03 -4.677312e+02
    endloop
  endfacet
  facet normal 6.087614e-01 -7.933533e-01 0.000000e+00
    outer loop
      vertex   4.322843e+03 1.202157e+03 -4.647312e+02
      vertex   4.322843e+03 1.202157e+03 -4.677312e+02
      vertex   4.323475e+03 1.202642e+03 -4.647312e+02
    endloop
  endfacet
  facet normal 6.087614e-01 -7.933533e-01 0.000000e+00
    outer loop
      vertex   4.323475e+03 1.202642e+03 -4.647312e+02
      vertex   4.322843e+03 1.202157e+03 -4.677312e+02
      vertex   4.323475e+03 1.202642e+03 -4.677312e+02
    endloop
  endfacet
  facet normal 3.826834e-01 -9.238795e-01 0.000000e+00
    outer loop
      vertex   4.323475e+03 1.202642e+03 -4.647312e+02
      vertex   4.323475e+03 1.202642e+03 -4.677312e+02
      vertex   4.324211e+03 1.202946e+03 -4.647312e+02
    endloop
  endfacet
  facet normal 3.826834e-01 -9.238795e-01 0.000000e+00
    outer loop
      vertex   4.324211e+03 1.202946e+03 -4.647312e+02
      vertex   4.323475e+03 1.202642e+03 -4.677312e+02
      vertex   4.324211e+03 1.202946e+03 -4.677312e+02
    endloop
  endfacet
  facet normal 1.305262e-01 -9.914449e-01 0.000000e+00
    outer loop
      vertex   4.324211e+03 1.202946e+03 -4.647312e+02
      vertex   4.324211e+03 1.202946e+03 -4.677312e+02
      vertex   4.325000e+03 1.203050e+03 -4.647312e+02
    endloop
  endfacet
  facet normal 1.305262e-01 -9.914449e-01 0.000000e+00
    outer loop
      vertex   4.325000e+03 1.203050e+03 -4.647312e+02
      vertex   4.324211e+03 1.202946e+03 -4.677312e+02
      vertex   4.325000e+03 1.203050e+03 -4.677312e+02
    endloop
  endfacet
  facet normal -1.305262e-01 -9.914449e-01 -0.000000e+00
    outer loop
      vertex   4.325000e+03 1.203050e+03 -4.647312e+02
      vertex   4.325000e+03 1.203050e+03 -4.677312e+02
      vertex   4.325789e+03 1.202946e+03 -4.647312e+02
    endloop
  endfacet
  facet normal -1.305262e-01 -9.914449e-01 -0.000000e+00
    outer loop
      vertex   4.325789e+03 1.202946e+03 -4.647312e+02
      vertex   4.325000e+03 1.203050e+03 -4.677312e+02
      vertex   4.325789e+03 1.202946e+03 -4.677312e+02
    endloop
  endfacet
  facet normal -3.826834e-01 -9.238795e-01 -0.000000e+00
    outer loop
      vertex   4.325789e+03 1.202946e+03 -4.647312e+02
      vertex   4.325789e+03 1.202946e+03 -4.677312e+02
      vertex   4.326525e+03 1.202642e+03 -4.647312e+02
    endloop
  endfacet
  facet normal -3.826834e-01 -9.238795e-01 -0.000000e+00
    outer loop
      vertex   4.326525e+03 1.202642e+03 -4.647312e+02
      vertex   4.325789e+03 1.202946e+03 -4.677312e+02
      vertex   4.326525e+03 1.202642e+03 -4.677312e+02
    endloop
  endfacet
  facet normal -6.087614e-01 -7.933533e-01 -0.000000e+00
    outer loop
      vertex   4.326525e+03 1.202642e+03 -4.647312e+02
      vertex   4.326525e+03 1.202642e+03 -4.677312e+02
      vertex   4.327157e+03 1.202157e+03 -4.647312e+02
    endloop
  endfacet
  facet normal -6.087614e-01 -7.933533e-01 -0.000000e+00
    outer loop
      vertex   4.327157e+03 1.202157e+03 -4.647312e+02
      vertex   4.326525e+03 1.202642e+03 -4.677312e+02
      vertex   4.327157e+03 1.202157e+03 -4.677312e+02
    endloop
  endfacet
  facet normal -7.933533e-01 -6.087614e-01 -0.000000e+00
    outer loop
      vertex   4.327157e+03 1.202157e+03 -4.647312e+02
      vertex   4.327157e+03 1.202157e+03 -4.677312e+02
      vertex   4.327641e+03 1.201525e+03 -4.647312e+02
    endloop
  endfacet
  facet normal -7.933533e-01 -6.087614e-01 -0.000000e+00
    outer loop
      vertex   4.327641e+03 1.201525e+03 -4.647312e+02
      vertex   4.327157e+03 1.202157e+03 -4.677312e+02
      vertex   4.327641e+03 1.201525e+03 -4.677312e+02
    endloop
  endfacet
  facet normal -9.238795e-01 -3.826834e-01 -0.000000e+00
    outer loop
      vertex   4.327641e+03 1.201525e+03 -4.647312e+02
      vertex   4.327641e+03 1.201525e+03 -4.677312e+02
      vertex   4.327946e+03 1.200790e+03 -4.647312e+02
    endloop
  endfacet
  facet normal -9.238795e-01 -3.826834e-01 -0.000000e+00
    outer loop
      vertex   4.327946e+03 1.200790e+03 -4.647312e+02
      vertex   4.327641e+03 1.201525e+03 -4.677312e+02
      vertex   4.327946e+03 1.200790e+03 -4.677312e+02
    endloop
  endfacet
  facet normal 0.000000e+00 0.000000e+00 1.000000e+00
    outer loop
      vertex   4.327946e+03 1.382690e+03 -4.677312e+02
      vertex   4.322054e+03 1.382690e+03 -4.677312e+02
      vertex   4.328050e+03 1.381900e+03 -4.677312e+02
    endloop
  endfacet
  facet normal 0.000000e+00 0.000000e+00 1.000000e+00
    outer loop
      vertex   4.328050e+03 1.381900e+03 -4.677312e+02
      vertex   4.322054e+03 1.382690e+03 -4.677312e+02
      vertex   4.321950e+03 1.381900e+03 -4.677312e+02
    endloop
  endfacet
  facet normal 0.000000e+00 0.000000e+00 1.000000e+00
    outer loop
      vertex   4.328050e+03 1.381900e+03 -4.677312e+02
      vertex   4.321950e+03 1.381900e+03 -4.677312e+02
      vertex   4.327946e+03 1.381111e+03 -4.677312e+02
    endloop
  endfacet
  facet normal 0.000000e+00 0.000000e+00 1.000000e+00
    outer loop
      vertex   4.327946e+03 1.381111e+03 -4.677312e+02
      vertex   4.321950e+03 1.381900e+03 -4.677312e+02
      vertex   4.322054e+03 1.381111e+03 -4.677312e+02
    endloop
  endfacet
  facet normal 0.000000e+00 0.000000e+00 1.000000e+00
    outer loop
      vertex   4.327946e+03 1.381111e+03 -4.677312e+02
      vertex   4.322054e+03 1.381111e+03 -4.677312e+02
      vertex   4.327641e+03 1.380375e+03 -4.677312e+02
    endloop
  endfacet
  facet normal 0.000000e+00 0.000000e+00 1.000000e+00
    outer loop
      vertex   4.327641e+03 1.380375e+03 -4.677312e+02
      vertex   4.322054e+03 1.381111e+03 -4.677312e+02
      vertex   4.322359e+03 1.380375e+03 -4.677312e+02
    endloop
  endfacet
  facet normal 0.000000e+00 0.000000e+00 1.000000e+00
    outer loop
      vertex   4.327641e+03 1.380375e+03 -4.677312e+02
      vertex   4.322359e+03 1.380375e+03 -4.677312e+02
      vertex   4.327157e+03 1.379743e+03 -4.677312e+02
    endloop
  endfacet
  facet normal 0.000000e+00 0.000000e+00 1.000000e+00
    outer loop
      vertex   4.327157e+03 1.379743e+03 -4.677312e+02
      vertex   4.322359e+03 1.380375e+03 -4.677312e+02
      vertex   4.322843e+03 1.379743e+03 -4.677312e+02
    endloop
  endfacet
  facet normal 0.000000e+00 0.000000e+00 1.000000e+00
    outer loop
      vertex   4.327157e+03 1.379743e+03 -4.677312e+02
      vertex   4.322843e+03 1.379743e+03 -4.677312e+02
      vertex   4.326525e+03 1.379259e+03 -4.677312e+02
    endloop
  endfacet
  facet normal 0.000000e+00 0.000000e+00 1.000000e+00
    outer loop
      vertex   4.326525e+03 1.379259e+03 -4.677312e+02
      vertex   4.322843e+03 1.379743e+03 -4.677312e+02
      vertex   4.323475e+03 1.379259e+03 -4.677312e+02
    endloop
  endfacet
  facet normal 0.000000e+00 0.000000e+00 1.000000e+00
    outer loop
      vertex   4.326525e+03 1.379259e+03 -4.677312e+02
      vertex   4.323475e+03 1.379259e+03 -4.677312e+02
      vertex   4.325789e+03 1.378954e+03 -4.677312e+02
    endloop
  endfacet
  facet normal 0.000000e+00 0.000000e+00 1.000000e+00
    outer loop
      vertex   4.325789e+03 1.378954e+03 -4.677312e+02
      vertex   4.323475e+03 1.379259e+03 -4.677312e+02
      vertex   4.324211e+03 1.378954e+03 -4.677312e+02
    endloop
  endfacet
  facet normal 0.000000e+00 0.000000e+00 1.000000e+00
    outer loop
      vertex   4.325789e+03 1.378954e+03 -4.677312e+02
      vertex   4.324211e+03 1.378954e+03 -4.677312e+02
      vertex   4.325000e+03 1.378850e+03 -4.677312e+02
    endloop
  endfacet
  facet normal 0.000000e+00 0.000000e+00 1.000000e+00
    outer loop
      vertex   4.322054e+03 1.382690e+03 -4.677312e+02
      vertex   4.327946e+03 1.382690e+03 -4.677312e+02
      vertex   4.322359e+03 1.383425e+03 -4.677312e+02
    endloop
  endfacet
  facet normal -0.000000e+00 0.000000e+00 1.000000e+00
    outer loop
      vertex   4.322359e+03 1.383425e+03 -4.677312e+02
      vertex   4.327946e+03 1.382690e+03 -4.677312e+02
      vertex   4.327641e+03 1.383425e+03 -4.677312e+02
    endloop
  endfacet
  facet normal 0.000000e+00 0.000000e+00 1.000000e+00
    outer loop
      vertex   4.322359e+03 1.383425e+03 -4.677312e+02
      vertex   4.327641e+03 1.383425e+03 -4.677312e+02
      vertex   4.322843e+03 1.384057e+03 -4.677312e+02
    endloop
  endfacet
  facet normal -0.000000e+00 0.000000e+00 1.000000e+00
    outer loop
      vertex   4.322843e+03 1.384057e+03 -4.677312e+02
      vertex   4.327641e+03 1.383425e+03 -4.677312e+02
      vertex   4.327157e+03 1.384057e+03 -4.677312e+02
    endloop
  endfacet
  facet normal 0.000000e+00 0.000000e+00 1.000000e+00
    outer loop
      vertex   4.322843e+03 1.384057e+03 -4.677312e+02
      vertex   4.327157e+03 1.384057e+03 -4.677312e+02
      vertex   4.323475e+03 1.384542e+03 -4.677312e+02
    endloop
  endfacet
  facet normal -0.000000e+00 0.000000e+00 1.000000e+00
    outer loop
      vertex   4.323475e+03 1.384542e+03 -4.677312e+02
      vertex   4.327157e+03 1.384057e+03 -4.677312e+02
      vertex   4.326525e+03 1.384542e+03 -4.677312e+02
    endloop
  endfacet
  facet normal 0.000000e+00 0.000000e+00 1.000000e+00
    outer loop
      vertex   4.323475e+03 1.384542e+03 -4.677312e+02
      vertex   4.326525e+03 1.384542e+03 -4.677312e+02
      vertex   4.324211e+03 1.384846e+03 -4.677312e+02
    endloop
  endfacet
  facet normal -0.000000e+00 0.000000e+00 1.000000e+00
    outer loop
      vertex   4.324211e+03 1.384846e+03 -4.677312e+02
      vertex   4.326525e+03 1.384542e+03 -4.677312e+02
      vertex   4.325789e+03 1.384846e+03 -4.677312e+02
    endloop
  endfacet
  facet normal 0.000000e+00 0.000000e+00 1.000000e+00
    outer loop
      vertex   4.324211e+03 1.384846e+03 -4.677312e+02
      vertex   4.325789e+03 1.384846e+03 -4.677312e+02
      vertex   4.325000e+03 1.384950e+03 -4.677312e+02
    endloop
  endfacet
  facet normal -9.914449e-01 -1.305262e-01 -0.000000e+00
    outer loop
      vertex   4.327946e+03 1.382690e+03 -4.647312e+02
      vertex   4.327946e+03 1.382690e+03 -4.677312e+02
      vertex   4.328050e+03 1.381900e+03 -4.647312e+02
    endloop
  endfacet
  facet normal -9.914449e-01 -1.305262e-01 -0.000000e+00
    outer loop
      vertex   4.328050e+03 1.381900e+03 -4.647312e+02
      vertex   4.327946e+03 1.382690e+03 -4.677312e+02
      vertex   4.328050e+03 1.381900e+03 -4.677312e+02
    endloop
  endfacet
  facet normal -9.914449e-01 1.305262e-01 0.000000e+00
    outer loop
      vertex   4.328050e+03 1.381900e+03 -4.647312e+02
      vertex   4.328050e+03 1.381900e+03 -4.677312e+02
      vertex   4.327946e+03 1.381111e+03 -4.647312e+02
    endloop
  endfacet
  facet normal -9.914449e-01 1.305262e-01 0.000000e+00
    outer loop
      vertex   4.327946e+03 1.381111e+03 -4.647312e+02
      vertex   4.328050e+03 1.381900e+03 -4.677312e+02
      vertex   4.327946e+03 1.381111e+03 -4.677312e+02
    endloop
  endfacet
  facet normal -9.238795e-01 3.826834e-01 0.000000e+00
    outer loop
      vertex   4.327946e+03 1.381111e+03 -4.647312e+02
      vertex   4.327946e+03 1.381111e+03 -4.677312e+02
      vertex   4.327641e+03 1.380375e+03 -4.647312e+02
    endloop
  endfacet
  facet normal -9.238795e-01 3.826834e-01 0.000000e+00
    outer loop
      vertex   4.327641e+03 1.380375e+03 -4.647312e+02
      vertex   4.327946e+03 1.381111e+03 -4.677312e+02
      vertex   4.327641e+03 1.380375e+03 -4.677312e+02
    endloop
  endfacet
  facet normal -7.933533e-01 6.087614e-01 0.000000e+00
    outer loop
      vertex   4.327641e+03 1.380375e+03 -4.647312e+02
      vertex   4.327641e+03 1.380375e+03 -4.677312e+02
      vertex   4.327157e+03 1.379743e+03 -4.647312e+02
    endloop
  endfacet
  facet normal -7.933533e-01 6.087614e-01 0.000000e+00
    outer loop
      vertex   4.327157e+03 1.379743e+03 -4.647312e+02
      vertex   4.327641e+03 1.380375e+03 -4.677312e+02
      vertex   4.327157e+03 1.379743e+03 -4.677312e+02
    endloop
  endfacet
  facet normal -6.087614e-01 7.933533e-01 0.000000e+00
    outer loop
      vertex   4.327157e+03 1.379743e+03 -4.647312e+02
      vertex   4.327157e+03 1.379743e+03 -4.677312e+02
      vertex   4.326525e+03 1.379259e+03 -4.647312e+02
    endloop
  endfacet
  facet normal -6.087614e-01 7.933533e-01 0.000000e+00
    outer loop
      vertex   4.326525e+03 1.379259e+03 -4.647312e+02
      vertex   4.327157e+03 1.379743e+03 -4.677312e+02
      vertex   4.326525e+03 1.379259e+03 -4.677312e+02
    endloop
  endfacet
  facet normal -3.826834e-01 9.238795e-01 0.000000e+00
    outer loop
      vertex   4.326525e+03 1.379259e+03 -4.647312e+02
      vertex   4.326525e+03 1.379259e+03 -4.677312e+02
      vertex   4.325789e+03 1.378954e+03 -4.647312e+02
    endloop
  endfacet
  facet normal -3.826834e-01 9.238795e-01 0.000000e+00
    outer loop
      vertex   4.325789e+03 1.378954e+03 -4.647312e+02
      vertex   4.326525e+03 1.379259e+03 -4.677312e+02
      vertex   4.325789e+03 1.378954e+03 -4.677312e+02
    endloop
  endfacet
  facet normal -1.305262e-01 9.914449e-01 0.000000e+00
    outer loop
      vertex   4.325789e+03 1.378954e+03 -4.647312e+02
      vertex   4.325789e+03 1.378954e+03 -4.677312e+02
      vertex   4.325000e+03 1.378850e+03 -4.647312e+02
    endloop
  endfacet
  facet normal -1.305262e-01 9.914449e-01 0.000000e+00
    outer loop
      vertex   4.325000e+03 1.378850e+03 -4.647312e+02
      vertex   4.325789e+03 1.378954e+03 -4.677312e+02
      vertex   4.325000e+03 1.378850e+03 -4.677312e+02
    endloop
  endfacet
  facet normal 1.305262e-01 9.914449e-01 0.000000e+00
    outer loop
      vertex   4.325000e+03 1.378850e+03 -4.647312e+02
      vertex   4.325000e+03 1.378850e+03 -4.677312e+02
      vertex   4.324211e+03 1.378954e+03 -4.647312e+02
    endloop
  endfacet
  facet normal 1.305262e-01 9.914449e-01 0.000000e+00
    outer loop
      vertex   4.324211e+03 1.378954e+03 -4.647312e+02
      vertex   4.325000e+03 1.378850e+03 -4.677312e+02
      vertex   4.324211e+03 1.378954e+03 -4.677312e+02
    endloop
  endfacet
  facet normal 3.826834e-01 9.238795e-01 0.000000e+00
    outer loop
      vertex   4.324211e+03 1.378954e+03 -4.647312e+02
      vertex   4.324211e+03 1.378954e+03 -4.677312e+02
      vertex   4.323475e+03 1.379259e+03 -4.647312e+02
    endloop
  endfacet
  facet normal 3.826834e-01 9.238795e-01 0.000000e+00
    outer loop
      vertex   4.323475e+03 1.379259e+03 -4.647312e+02
      vertex   4.324211e+03 1.378954e+03 -4.677312e+02
      vertex   4.323475e+03 1.379259e+03 -4.677312e+02
    endloop
  endfacet
  facet normal 6.087614e-01 7.933533e-01 0.000000e+00
    outer loop
      vertex   4.323475e+03 1.379259e+03 -4.647312e+02
      vertex   4.323475e+03 1.379259e+03 -4.677312e+02
      vertex   4.322843e+03 1.379743e+03 -4.647312e+02
    endloop
  endfacet
  facet normal 6.087614e-01 7.933533e-01 0.000000e+00
    outer loop
      vertex   4.322843e+03 1.379743e+03 -4.647312e+02
      vertex   4.323475e+03 1.379259e+03 -4.677312e+02
      vertex   4.322843e+03 1.379743e+03 -4.677312e+02
    endloop
  endfacet
  facet normal 7.933533e-01 6.087614e-01 0.000000e+00
    outer loop
      vertex   4.322843e+03 1.379743e+03 -4.647312e+02
      vertex   4.322843e+03 1.379743e+03 -4.677312e+02
      vertex   4.322359e+03 1.380375e+03 -4.647312e+02
    endloop
  endfacet
  facet normal 7.933533e-01 6.087614e-01 0.000000e+00
    outer loop
      vertex   4.322359e+03 1.380375e+03 -4.647312e+02
      vertex   4.322843e+03 1.379743e+03 -4.677312e+02
      vertex   4.322359e+03 1.380375e+03 -4.677312e+02
    endloop
  endfacet
  facet normal 9.238795e-01 3.826834e-01 0.000000e+00
    outer loop
      vertex   4.322359e+03 1.380375e+03 -4.647312e+02
      vertex   4.322359e+03 1.380375e+03 -4.677312e+02
      vertex   4.322054e+03 1.381111e+03 -4.647312e+02
    endloop
  endfacet
  facet normal 9.238795e-01 3.826834e-01 0.000000e+00
    outer loop
      vertex   4.322054e+03 1.381111e+03 -4.647312e+02
      vertex   4.322359e+03 1.380375e+03 -4.677312e+02
      vertex   4.322054e+03 1.381111e+03 -4.677312e+02
    endloop
  endfacet
  facet normal 9.914449e-01 1.305262e-01 0.000000e+00
    outer loop
      vertex   4.322054e+03 1.381111e+03 -4.647312e+02
      vertex   4.322054e+03 1.381111e+03 -4.677312e+02
      vertex   4.321950e+03 1.381900e+03 -4.647312e+02
    endloop
  endfacet
  facet normal 9.914449e-01 1.305262e-01 0.000000e+00
    outer loop
      vertex   4.321950e+03 1.381900e+03 -4.647312e+02
      vertex   4.322054e+03 1.381111e+03 -4.677312e+02
      vertex   4.321950e+03 1.381900e+03 -4.677312e+02
    endloop
  endfacet
  facet normal 9.914449e-01 -1.305262e-01 0.000000e+00
    outer loop
      vertex   4.321950e+03 1.381900e+03 -4.647312e+02
      vertex   4.321950e+03 1.381900e+03 -4.677312e+02
      vertex   4.322054e+03 1.382690e+03 -4.647312e+02
    endloop
  endfacet
  facet normal 9.914449e-01 -1.305262e-01 0.000000e+00
    outer loop
      vertex   4.322054e+03 1.382690e+03 -4.647312e+02
      vertex   4.321950e+03 1.381900e+03 -4.677312e+02
      vertex   4.322054e+03 1.382690e+03 -4.677312e+02
    endloop
  endfacet
  facet normal 9.238795e-01 -3.826834e-01 0.000000e+00
    outer loop
      vertex   4.322054e+03 1.382690e+03 -4.647312e+02
      vertex   4.322054e+03 1.382690e+03 -4.677312e+02
      vertex   4.322359e+03 1.383425e+03 -4.647312e+02
    endloop
  endfacet
  facet normal 9.238795e-01 -3.826834e-01 0.000000e+00
    outer loop
      vertex   4.322359e+03 1.383425e+03 -4.647312e+02
      vertex   4.322054e+03 1.382690e+03 -4.677312e+02
      vertex   4.322359e+03 1.383425e+03 -4.677312e+02
    endloop
  endfacet
  facet normal 7.933533e-01 -6.087614e-01 0.000000e+00
    outer loop
      vertex   4.322359e+03 1.383425e+03 -4.647312e+02
      vertex   4.322359e+03 1.383425e+03 -4.677312e+02
      vertex   4.322843e+03 1.384057e+03 -4.647312e+02
    endloop
  endfacet
  facet normal 7.933533e-01 -6.087614e-01 0.000000e+00
    outer loop
      vertex   4.322843e+03 1.384057e+03 -4.647312e+02
      vertex   4.322359e+03 1.383425e+03 -4.677312e+02
      vertex   4.322843e+03 1.384057e+03 -4.677312e+02
    endloop
  endfacet
  facet normal 6.087614e-01 -7.933533e-01 0.000000e+00
    outer loop
      vertex   4.322843e+03 1.384057e+03 -4.647312e+02
      vertex   4.322843e+03 1.384057e+03 -4.677312e+02
      vertex   4.323475e+03 1.384542e+03 -4.647312e+02
    endloop
  endfacet
  facet normal 6.087614e-01 -7.933533e-01 0.000000e+00
    outer loop
      vertex   4.323475e+03 1.384542e+03 -4.647312e+02
      vertex   4.322843e+03 1.384057e+03 -4.677312e+02
      vertex   4.323475e+03 1.384542e+03 -4.677312e+02
    endloop
  endfacet
  facet normal 3.826834e-01 -9.238795e-01 0.000000e+00
    outer loop
      vertex   4.323475e+03 1.384542e+03 -4.647312e+02
      vertex   4.323475e+03 1.384542e+03 -4.677312e+02
      vertex   4.324211e+03 1.384846e+03 -4.647312e+02
    endloop
  endfacet
  facet normal 3.826834e-01 -9.238795e-01 0.000000e+00
    outer loop
      vertex   4.324211e+03 1.384846e+03 -4.647312e+02
      vertex   4.323475e+03 1.384542e+03 -4.677312e+02
      vertex   4.324211e+03 1.384846e+03 -4.677312e+02
    endloop
  endfacet
  facet normal 1.305262e-01 -9.914449e-01 0.000000e+00
    outer loop
      vertex   4.324211e+03 1.384846e+03 -4.647312e+02
      vertex   4.324211e+03 1.384846e+03 -4.677312e+02
      vertex   4.325000e+03 1.384950e+03 -4.647312e+02
    endloop
  endfacet
  facet normal 1.305262e-01 -9.914449e-01 0.000000e+00
    outer loop
      vertex   4.325000e+03 1.384950e+03 -4.647312e+02
      vertex   4.324211e+03 1.384846e+03 -4.677312e+02
      vertex   4.325000e+03 1.384950e+03 -4.677312e+02
    endloop
  endfacet
  facet normal -1.305262e-01 -9.914449e-01 -0.000000e+00
    outer loop
      vertex   4.325000e+03 1.384950e+03 -4.647312e+02
      vertex   4.325000e+03 1.384950e+03 -4.677312e+02
      vertex   4.325789e+03 1.384846e+03 -4.647312e+02
    endloop
  endfacet
  facet normal -1.305262e-01 -9.914449e-01 -0.000000e+00
    outer loop
      vertex   4.325789e+03 1.384846e+03 -4.647312e+02
      vertex   4.325000e+03 1.384950e+03 -4.677312e+02
      vertex   4.325789e+03 1.384846e+03 -4.677312e+02
    endloop
  endfacet
  facet normal -3.826834e-01 -9.238795e-01 -0.000000e+00
    outer loop
      vertex   4.325789e+03 1.384846e+03 -4.647312e+02
      vertex   4.325789e+03 1.384846e+03 -4.677312e+02
      vertex   4.326525e+03 1.384542e+03 -4.647312e+02
    endloop
  endfacet
  facet normal -3.826834e-01 -9.238795e-01 -0.000000e+00
    outer loop
      vertex   4.326525e+03 1.384542e+03 -4.647312e+02
      vertex   4.325789e+03 1.384846e+03 -4.677312e+02
      vertex   4.326525e+03 1.384542e+03 -4.677312e+02
    endloop
  endfacet
  facet normal -6.087614e-01 -7.933533e-01 -0.000000e+00
    outer loop
      vertex   4.326525e+03 1.384542e+03 -4.647312e+02
      vertex   4.326525e+03 1.384542e+03 -4.677312e+02
      vertex   4.327157e+03 1.384057e+03 -4.647312e+02
    endloop
  endfacet
  facet normal -6.087614e-01 -7.933533e-01 -0.000000e+00
    outer loop
      vertex   4.327157e+03 1.384057e+03 -4.647312e+02
      vertex   4.326525e+03 1.384542e+03 -4.677312e+02
      vertex   4.327157e+03 1.384057e+03 -4.677312e+02
    endloop
  endfacet
  facet normal -7.933533e-01 -6.087614e-01 -0.000000e+00
    outer loop
      vertex   4.327157e+03 1.384057e+03 -4.647312e+02
      vertex   4.327157e+03 1.384057e+03 -4.677312e+02
      vertex   4.327641e+03 1.383425e+03 -4.647312e+02
    endloop
  endfacet
  facet normal -7.933533e-01 -6.087614e-01 -0.000000e+00
    outer loop
      vertex   4.327641e+03 1.383425e+03 -4.647312e+02
      vertex   4.327157e+03 1.384057e+03 -4.677312e+02
      vertex   4.327641e+03 1.383425e+03 -4.677312e+02
    endloop
  endfacet
  facet normal -9.238795e-01 -3.826834e-01 -0.000000e+00
    outer loop
      vertex   4.327641e+03 1.383425e+03 -4.647312e+02
      vertex   4.327641e+03 1.383425e+03 -4.677312e+02
      vertex   4.327946e+03 1.382690e+03 -4.647312e+02
    endloop
  endfacet
  facet normal -9.238795e-01 -3.826834e-01 -0.000000e+00
    outer loop
      vertex   4.327946e+03 1.382690e+03 -4.647312e+02
      vertex   4.327641e+03 1.383425e+03 -4.677312e+02
      vertex   4.327946e+03 1.382690e+03 -4.677312e+02
    endloop
  endfacet
  facet normal 7.071068e-01 -7.078640e-14 -7.071068e-01
    outer loop
      vertex   4.333381e+03 1.193000e+03 -4.682312e+02
      vertex   4.331881e+03 1.193000e+03 -4.697312e+02
      vertex   4.333381e+03 1.388900e+03 -4.682312e+02
    endloop
  endfacet
  facet normal 7.071068e-01 -3.282848e-15 -7.071068e-01
    outer loop
      vertex   4.333381e+03 1.388900e+03 -4.682312e+02
      vertex   4.331881e+03 1.193000e+03 -4.697312e+02
      vertex   4.331881e+03 1.388900e+03 -4.697312e+02
    endloop
  endfacet
  facet normal -2.105312e-15 -4.642648e-15 -1.000000e+00
    outer loop
      vertex   4.331881e+03 1.193000e+03 -4.697312e+02
      vertex   4.304881e+03 1.193000e+03 -4.697312e+02
      vertex   4.331881e+03 1.388900e+03 -4.697312e+02
    endloop
  endfacet
  facet normal -2.105312e-15 -4.642648e-15 -1.000000e+00
    outer loop
      vertex   4.331881e+03 1.388900e+03 -4.697312e+02
      vertex   4.304881e+03 1.193000e+03 -4.697312e+02
      vertex   4.304881e+03 1.388900e+03 -4.697312e+02
    endloop
  endfacet
  facet normal 0.000000e+00 -1.000000e+00 0.000000e+00
    outer loop
      vertex   4.304881e+03 1.193000e+03 -4.697312e+02
      vertex   4.331881e+03 1.193000e+03 -4.697312e+02
      vertex   4.303381e+03 1.193000e+03 -4.682312e+02
    endloop
  endfacet
  facet normal 0.000000e+00 -1.000000e+00 0.000000e+00
    outer loop
      vertex   4.303381e+03 1.193000e+03 -4.682312e+02
      vertex   4.331881e+03 1.193000e+03 -4.697312e+02
      vertex   4.333381e+03 1.193000e+03 -4.682312e+02
    endloop
  endfacet
  facet normal 1.230924e-28 -1.000000e+00 6.496391e-14
    outer loop
      vertex   4.303381e+03 1.193000e+03 -4.682312e+02
      vertex   4.333381e+03 1.193000e+03 -4.682312e+02
      vertex   4.303381e+03 1.193000e+03 -4.647312e+02
    endloop
  endfacet
  facet normal 0.000000e+00 -1.000000e+00 6.496391e-14
    outer loop
      vertex   4.303381e+03 1.193000e+03 -4.647312e+02
      vertex   4.333381e+03 1.193000e+03 -4.682312e+02
      vertex   4.333381e+03 1.193000e+03 -4.647312e+02
    endloop
  endfacet
  facet normal -7.071068e-01 -7.058123e-14 -7.071068e-01
    outer loop
      vertex   4.303381e+03 1.388900e+03 -4.682312e+02
      vertex   4.304881e+03 1.388900e+03 -4.697312e+02
      vertex   4.303381e+03 1.193000e+03 -4.682312e+02
    endloop
  endfacet
  facet normal -7.071068e-01 -3.282848e-15 -7.071068e-01
    outer loop
      vertex   4.303381e+03 1.193000e+03 -4.682312e+02
      vertex   4.304881e+03 1.388900e+03 -4.697312e+02
      vertex   4.304881e+03 1.193000e+03 -4.697312e+02
    endloop
  endfacet
  facet normal -3.191283e-28 1.000000e+00 -1.515825e-13
    outer loop
      vertex   4.331881e+03 1.388900e+03 -4.697312e+02
      vertex   4.304881e+03 1.388900e+03 -4.697312e+02
      vertex   4.333381e+03 1.388900e+03 -4.682312e+02
    endloop
  endfacet
  facet normal -5.744310e-28 1.000000e+00 -1.515825e-13
    outer loop
      vertex   4.333381e+03 1.388900e+03 -4.682312e+02
      vertex   4.304881e+03 1.388900e+03 -4.697312e+02
      vertex   4.303381e+03 1.388900e+03 -4.682312e+02
    endloop
  endfacet
  facet normal -2.461847e-28 1.000000e+00 -6.496391e-14
    outer loop
      vertex   4.333381e+03 1.388900e+03 -4.682312e+02
      vertex   4.303381e+03 1.388900e+03 -4.682312e+02
      vertex   4.333381e+03 1.388900e+03 -4.647312e+02
    endloop
  endfacet
  facet normal 0.000000e+00 1.000000e+00 -6.496391e-14
    outer loop
      vertex   4.333381e+03 1.388900e+03 -4.647312e+02
      vertex   4.303381e+03 1.388900e+03 -4.682312e+02
      vertex   4.303381e+03 1.388900e+03 -4.647312e+02
    endloop
  endfacet
  facet normal -1.000000e+00 0.000000e+00 0.000000e+00
    outer loop
      vertex   4.303381e+03 1.388900e+03 -4.682312e+02
      vertex   4.303381e+03 1.193000e+03 -4.682312e+02
      vertex   4.303381e+03 1.388900e+03 -4.647312e+02
    endloop
  endfacet
  facet normal -1.000000e+00 4.642648e-15 -2.598556e-13
    outer loop
      vertex   4.303381e+03 1.388900e+03 -4.647312e+02
      vertex   4.303381e+03 1.193000e+03 -4.682312e+02
      vertex   4.303381e+03 1.193000e+03 -4.647312e+02
    endloop
  endfacet
  facet normal 1.000000e+00 2.601339e-26 2.598556e-13
    outer loop
      vertex   4.333381e+03 1.193000e+03 -4.682312e+02
      vertex   4.333381e+03 1.388900e+03 -4.682312e+02
      vertex   4.333381e+03 1.193000e+03 -4.647312e+02
    endloop
  endfacet
  facet normal 1.000000e+00 -4.642648e-15 3.016045e-28
    outer loop
      vertex   4.333381e+03 1.193000e+03 -4.647312e+02
      vertex   4.333381e+03 1.388900e+03 -4.682312e+02
      vertex   4.333381e+03 1.388900e+03 -4.647312e+02
    endloop
  endfacet
  facet normal 1.289040e-14 1.697053e-15 1.000000e+00
    outer loop
      vertex   4.327946e+03 1.200790e+03 -4.647312e+02
      vertex   4.328050e+03 1.200000e+03 -4.647312e+02
      vertex   4.333381e+03 1.193000e+03 -4.647312e+02
    endloop
  endfacet
  facet normal 9.090639e-15 -1.196805e-15 1.000000e+00
    outer loop
      vertex   4.333381e+03 1.193000e+03 -4.647312e+02
      vertex   4.328050e+03 1.200000e+03 -4.647312e+02
      vertex   4.327946e+03 1.199211e+03 -4.647312e+02
    endloop
  endfacet
  facet normal 7.098400e-15 -2.940254e-15 1.000000e+00
    outer loop
      vertex   4.333381e+03 1.193000e+03 -4.647312e+02
      vertex   4.327946e+03 1.199211e+03 -4.647312e+02
      vertex   4.327641e+03 1.198475e+03 -4.647312e+02
    endloop
  endfacet
  facet normal 5.717894e-15 -4.387494e-15 1.000000e+00
    outer loop
      vertex   4.327641e+03 1.198475e+03 -4.647312e+02
      vertex   4.327157e+03 1.197843e+03 -4.647312e+02
      vertex   4.333381e+03 1.193000e+03 -4.647312e+02
    endloop
  endfacet
  facet normal 4.534049e-15 -5.908888e-15 1.000000e+00
    outer loop
      vertex   4.333381e+03 1.193000e+03 -4.647312e+02
      vertex   4.327157e+03 1.197843e+03 -4.647312e+02
      vertex   4.326525e+03 1.197359e+03 -4.647312e+02
    endloop
  endfacet
  facet normal 3.270676e-15 -7.896109e-15 1.000000e+00
    outer loop
      vertex   4.333381e+03 1.193000e+03 -4.647312e+02
      vertex   4.326525e+03 1.197359e+03 -4.647312e+02
      vertex   4.325789e+03 1.197054e+03 -4.647312e+02
    endloop
  endfacet
  facet normal 1.480805e-15 -1.124783e-14 1.000000e+00
    outer loop
      vertex   4.325789e+03 1.197054e+03 -4.647312e+02
      vertex   4.325000e+03 1.196950e+03 -4.647312e+02
      vertex   4.333381e+03 1.193000e+03 -4.647312e+02
    endloop
  endfacet
  facet normal -2.628703e-15 -1.996698e-14 1.000000e+00
    outer loop
      vertex   4.333381e+03 1.193000e+03 -4.647312e+02
      vertex   4.325000e+03 1.196950e+03 -4.647312e+02
      vertex   4.324211e+03 1.197054e+03 -4.647312e+02
    endloop
  endfacet
  facet normal 0.000000e+00 -1.402079e-14 1.000000e+00
    outer loop
      vertex   4.333381e+03 1.193000e+03 -4.647312e+02
      vertex   4.324211e+03 1.197054e+03 -4.647312e+02
      vertex   4.303381e+03 1.193000e+03 -4.647312e+02
    endloop
  endfacet
  facet normal -1.856596e-15 -4.482220e-15 1.000000e+00
    outer loop
      vertex   4.303381e+03 1.193000e+03 -4.647312e+02
      vertex   4.324211e+03 1.197054e+03 -4.647312e+02
      vertex   4.323475e+03 1.197359e+03 -4.647312e+02
    endloop
  endfacet
  facet normal -2.205430e-15 -2.874173e-15 1.000000e+00
    outer loop
      vertex   4.303381e+03 1.193000e+03 -4.647312e+02
      vertex   4.323475e+03 1.197359e+03 -4.647312e+02
      vertex   4.322843e+03 1.197843e+03 -4.647312e+02
    endloop
  endfacet
  facet normal -2.452408e-15 -1.881799e-15 1.000000e+00
    outer loop
      vertex   4.322843e+03 1.197843e+03 -4.647312e+02
      vertex   4.322359e+03 1.198475e+03 -4.647312e+02
      vertex   4.303381e+03 1.193000e+03 -4.647312e+02
    endloop
  endfacet
  facet normal -2.675588e-15 -1.108265e-15 1.000000e+00
    outer loop
      vertex   4.303381e+03 1.193000e+03 -4.647312e+02
      vertex   4.322359e+03 1.198475e+03 -4.647312e+02
      vertex   4.322054e+03 1.199211e+03 -4.647312e+02
    endloop
  endfacet
  facet normal -2.916505e-15 -3.839652e-16 1.000000e+00
    outer loop
      vertex   4.303381e+03 1.193000e+03 -4.647312e+02
      vertex   4.322054e+03 1.199211e+03 -4.647312e+02
      vertex   4.321950e+03 1.200000e+03 -4.647312e+02
    endloop
  endfacet
  facet normal -3.221131e-15 4.240699e-16 1.000000e+00
    outer loop
      vertex   4.321950e+03 1.200000e+03 -4.647312e+02
      vertex   4.322054e+03 1.200790e+03 -4.647312e+02
      vertex   4.303381e+03 1.193000e+03 -4.647312e+02
    endloop
  endfacet
  facet normal -4.859959e-15 4.352482e-15 1.000000e+00
    outer loop
      vertex   4.303381e+03 1.193000e+03 -4.647312e+02
      vertex   4.322054e+03 1.200790e+03 -4.647312e+02
      vertex   4.303381e+03 1.388900e+03 -4.647312e+02
    endloop
  endfacet
  facet normal 5.279673e-15 5.358982e-15 1.000000e+00
    outer loop
      vertex   4.303381e+03 1.388900e+03 -4.647312e+02
      vertex   4.322054e+03 1.200790e+03 -4.647312e+02
      vertex   4.322054e+03 1.381111e+03 -4.647312e+02
    endloop
  endfacet
  facet normal 3.221117e-15 4.240680e-16 1.000000e+00
    outer loop
      vertex   4.303381e+03 1.388900e+03 -4.647312e+02
      vertex   4.322054e+03 1.381111e+03 -4.647312e+02
      vertex   4.321950e+03 1.381900e+03 -4.647312e+02
    endloop
  endfacet
  facet normal 1.293773e-14 5.358982e-15 1.000000e+00
    outer loop
      vertex   4.322054e+03 1.381111e+03 -4.647312e+02
      vertex   4.322054e+03 1.200790e+03 -4.647312e+02
      vertex   4.322359e+03 1.380375e+03 -4.647312e+02
    endloop
  endfacet
  facet normal -1.304415e-14 5.403065e-15 1.000000e+00
    outer loop
      vertex   4.322359e+03 1.380375e+03 -4.647312e+02
      vertex   4.322054e+03 1.200790e+03 -4.647312e+02
      vertex   4.322359e+03 1.201525e+03 -4.647312e+02
    endloop
  endfacet
  facet normal 7.041411e-15 5.403065e-15 1.000000e+00
    outer loop
      vertex   4.322359e+03 1.380375e+03 -4.647312e+02
      vertex   4.322359e+03 1.201525e+03 -4.647312e+02
      vertex   4.322843e+03 1.379743e+03 -4.647312e+02
    endloop
  endfacet
  facet normal -7.091504e-15 5.441502e-15 1.000000e+00
    outer loop
      vertex   4.322843e+03 1.379743e+03 -4.647312e+02
      vertex   4.322359e+03 1.201525e+03 -4.647312e+02
      vertex   4.322843e+03 1.202157e+03 -4.647312e+02
    endloop
  endfacet
  facet normal 4.175411e-15 5.441502e-15 1.000000e+00
    outer loop
      vertex   4.322843e+03 1.379743e+03 -4.647312e+02
      vertex   4.322843e+03 1.202157e+03 -4.647312e+02
      vertex   4.323475e+03 1.379259e+03 -4.647312e+02
    endloop
  endfacet
  facet normal -4.198329e-15 5.471369e-15 1.000000e+00
    outer loop
      vertex   4.323475e+03 1.379259e+03 -4.647312e+02
      vertex   4.322843e+03 1.202157e+03 -4.647312e+02
      vertex   4.323475e+03 1.202642e+03 -4.647312e+02
    endloop
  endfacet
  facet normal -2.266315e-15 5.471369e-15 1.000000e+00
    outer loop
      vertex   4.323475e+03 1.379259e+03 -4.647312e+02
      vertex   4.323475e+03 1.202642e+03 -4.647312e+02
      vertex   4.324211e+03 1.202946e+03 -4.647312e+02
    endloop
  endfacet
  facet normal 2.274162e-15 5.490313e-15 1.000000e+00
    outer loop
      vertex   4.323475e+03 1.379259e+03 -4.647312e+02
      vertex   4.324211e+03 1.202946e+03 -4.647312e+02
      vertex   4.324211e+03 1.378954e+03 -4.647312e+02
    endloop
  endfacet
  facet normal -7.228134e-16 5.490313e-15 1.000000e+00
    outer loop
      vertex   4.324211e+03 1.378954e+03 -4.647312e+02
      vertex   4.324211e+03 1.202946e+03 -4.647312e+02
      vertex   4.325000e+03 1.203050e+03 -4.647312e+02
    endloop
  endfacet
  facet normal 7.236680e-16 5.496804e-15 1.000000e+00
    outer loop
      vertex   4.324211e+03 1.378954e+03 -4.647312e+02
      vertex   4.325000e+03 1.203050e+03 -4.647312e+02
      vertex   4.325000e+03 1.378850e+03 -4.647312e+02
    endloop
  endfacet
  facet normal -7.236680e-16 5.496804e-15 1.000000e+00
    outer loop
      vertex   4.325000e+03 1.378850e+03 -4.647312e+02
      vertex   4.325000e+03 1.203050e+03 -4.647312e+02
      vertex   4.325789e+03 1.378954e+03 -4.647312e+02
    endloop
  endfacet
  facet normal 7.228134e-16 5.490313e-15 1.000000e+00
    outer loop
      vertex   4.325789e+03 1.378954e+03 -4.647312e+02
      vertex   4.325000e+03 1.203050e+03 -4.647312e+02
      vertex   4.325789e+03 1.202946e+03 -4.647312e+02
    endloop
  endfacet
  facet normal -2.274162e-15 5.490313e-15 1.000000e+00
    outer loop
      vertex   4.325789e+03 1.378954e+03 -4.647312e+02
      vertex   4.325789e+03 1.202946e+03 -4.647312e+02
      vertex   4.326525e+03 1.379259e+03 -4.647312e+02
    endloop
  endfacet
  facet normal 2.266315e-15 5.471369e-15 1.000000e+00
    outer loop
      vertex   4.326525e+03 1.379259e+03 -4.647312e+02
      vertex   4.325789e+03 1.202946e+03 -4.647312e+02
      vertex   4.326525e+03 1.202642e+03 -4.647312e+02
    endloop
  endfacet
  facet normal -4.198329e-15 5.471369e-15 1.000000e+00
    outer loop
      vertex   4.326525e+03 1.379259e+03 -4.647312e+02
      vertex   4.326525e+03 1.202642e+03 -4.647312e+02
      vertex   4.327157e+03 1.379743e+03 -4.647312e+02
    endloop
  endfacet
  facet normal 4.175411e-15 5.441502e-15 1.000000e+00
    outer loop
      vertex   4.327157e+03 1.379743e+03 -4.647312e+02
      vertex   4.326525e+03 1.202642e+03 -4.647312e+02
      vertex   4.327157e+03 1.202157e+03 -4.647312e+02
    endloop
  endfacet
  facet normal -7.091504e-15 5.441502e-15 1.000000e+00
    outer loop
      vertex   4.327157e+03 1.379743e+03 -4.647312e+02
      vertex   4.327157e+03 1.202157e+03 -4.647312e+02
      vertex   4.327641e+03 1.380375e+03 -4.647312e+02
    endloop
  endfacet
  facet normal 7.041411e-15 5.403065e-15 1.000000e+00
    outer loop
      vertex   4.327641e+03 1.380375e+03 -4.647312e+02
      vertex   4.327157e+03 1.202157e+03 -4.647312e+02
      vertex   4.327641e+03 1.201525e+03 -4.647312e+02
    endloop
  endfacet
  facet normal 1.304415e-14 5.403065e-15 1.000000e+00
    outer loop
      vertex   4.327641e+03 1.380375e+03 -4.647312e+02
      vertex   4.327641e+03 1.201525e+03 -4.647312e+02
      vertex   4.327946e+03 1.200790e+03 -4.647312e+02
    endloop
  endfacet
  facet normal -9.090753e-15 -1.196820e-15 1.000000e+00
    outer loop
      vertex   4.327946e+03 1.382690e+03 -4.647312e+02
      vertex   4.328050e+03 1.381900e+03 -4.647312e+02
      vertex   4.333381e+03 1.388900e+03 -4.647312e+02
    endloop
  endfacet
  facet normal -1.289017e-14 1.697023e-15 1.000000e+00
    outer loop
      vertex   4.333381e+03 1.388900e+03 -4.647312e+02
      vertex   4.328050e+03 1.381900e+03 -4.647312e+02
      vertex   4.327946e+03 1.381111e+03 -4.647312e+02
    endloop
  endfacet
  facet normal -1.813799e-14 5.358982e-15 1.000000e+00
    outer loop
      vertex   4.333381e+03 1.388900e+03 -4.647312e+02
      vertex   4.327946e+03 1.381111e+03 -4.647312e+02
      vertex   4.327946e+03 1.200790e+03 -4.647312e+02
    endloop
  endfacet
  facet normal -1.293773e-14 5.358982e-15 1.000000e+00
    outer loop
      vertex   4.327946e+03 1.200790e+03 -4.647312e+02
      vertex   4.327946e+03 1.381111e+03 -4.647312e+02
      vertex   4.327641e+03 1.380375e+03 -4.647312e+02
    endloop
  endfacet
  facet normal 2.916517e-15 -3.839667e-16 1.000000e+00
    outer loop
      vertex   4.321950e+03 1.381900e+03 -4.647312e+02
      vertex   4.322054e+03 1.382690e+03 -4.647312e+02
      vertex   4.303381e+03 1.388900e+03 -4.647312e+02
    endloop
  endfacet
  facet normal 2.675619e-15 -1.108277e-15 1.000000e+00
    outer loop
      vertex   4.303381e+03 1.388900e+03 -4.647312e+02
      vertex   4.322054e+03 1.382690e+03 -4.647312e+02
      vertex   4.322359e+03 1.383425e+03 -4.647312e+02
    endloop
  endfacet
  facet normal 2.452457e-15 -1.881836e-15 1.000000e+00
    outer loop
      vertex   4.303381e+03 1.388900e+03 -4.647312e+02
      vertex   4.322359e+03 1.383425e+03 -4.647312e+02
      vertex   4.322843e+03 1.384057e+03 -4.647312e+02
    endloop
  endfacet
  facet normal 2.205496e-15 -2.874259e-15 1.000000e+00
    outer loop
      vertex   4.322843e+03 1.384057e+03 -4.647312e+02
      vertex   4.323475e+03 1.384542e+03 -4.647312e+02
      vertex   4.303381e+03 1.388900e+03 -4.647312e+02
    endloop
  endfacet
  facet normal 1.856683e-15 -4.482430e-15 1.000000e+00
    outer loop
      vertex   4.303381e+03 1.388900e+03 -4.647312e+02
      vertex   4.323475e+03 1.384542e+03 -4.647312e+02
      vertex   4.324211e+03 1.384846e+03 -4.647312e+02
    endloop
  endfacet
  facet normal 0.000000e+00 -1.402285e-14 1.000000e+00
    outer loop
      vertex   4.303381e+03 1.388900e+03 -4.647312e+02
      vertex   4.324211e+03 1.384846e+03 -4.647312e+02
      vertex   4.333381e+03 1.388900e+03 -4.647312e+02
    endloop
  endfacet
  facet normal 2.629252e-15 -1.997115e-14 1.000000e+00
    outer loop
      vertex   4.333381e+03 1.388900e+03 -4.647312e+02
      vertex   4.324211e+03 1.384846e+03 -4.647312e+02
      vertex   4.325000e+03 1.384950e+03 -4.647312e+02
    endloop
  endfacet
  facet normal -1.480979e-15 -1.124915e-14 1.000000e+00
    outer loop
      vertex   4.333381e+03 1.388900e+03 -4.647312e+02
      vertex   4.325000e+03 1.384950e+03 -4.647312e+02
      vertex   4.325789e+03 1.384846e+03 -4.647312e+02
    endloop
  endfacet
  facet normal -3.270946e-15 -7.896761e-15 1.000000e+00
    outer loop
      vertex   4.325789e+03 1.384846e+03 -4.647312e+02
      vertex   4.326525e+03 1.384542e+03 -4.647312e+02
      vertex   4.333381e+03 1.388900e+03 -4.647312e+02
    endloop
  endfacet
  facet normal -4.534329e-15 -5.909253e-15 1.000000e+00
    outer loop
      vertex   4.333381e+03 1.388900e+03 -4.647312e+02
      vertex   4.326525e+03 1.384542e+03 -4.647312e+02
      vertex   4.327157e+03 1.384057e+03 -4.647312e+02
    endloop
  endfacet
  facet normal -5.718156e-15 -4.387696e-15 1.000000e+00
    outer loop
      vertex   4.333381e+03 1.388900e+03 -4.647312e+02
      vertex   4.327157e+03 1.384057e+03 -4.647312e+02
      vertex   4.327641e+03 1.383425e+03 -4.647312e+02
    endloop
  endfacet
  facet normal -7.098618e-15 -2.940344e-15 1.000000e+00
    outer loop
      vertex   4.327641e+03 1.383425e+03 -4.647312e+02
      vertex   4.327946e+03 1.382690e+03 -4.647312e+02
      vertex   4.333381e+03 1.388900e+03 -4.647312e+02
    endloop
  endfacet
  facet normal 1.669609e-14 4.352482e-15 1.000000e+00
    outer loop
      vertex   4.333381e+03 1.193000e+03 -4.647312e+02
      vertex   4.333381e+03 1.388900e+03 -4.647312e+02
      vertex   4.327946e+03 1.200790e+03 -4.647312e+02
    endloop
  endfacet
endsolid
